<svg width="400" height="373" viewBox="0 0 400 373" fill="none" xmlns="http://www.w3.org/2000/svg">
<rect width="400" height="373" fill="#1E1E1E"/>
<g clip-path="url(#clip0_0_1)">
<rect width="1440" height="6653" transform="translate(-207 -2150)" fill="white"/>
<circle cx="212.768" cy="186.5" r="186.5" fill="#F0F0F0"/>
<g clip-path="url(#clip1_0_1)">
<g filter="url(#filter0_d_0_1)">
<mask id="path-2-inside-1_0_1" fill="white">
<path d="M125.389 80.0293H392.104C396.104 80.0293 399.347 83.2721 399.347 87.2724V266.799C399.347 270.799 396.104 274.042 392.104 274.042H125.389C121.389 274.042 118.146 270.799 118.146 266.799V87.2724C118.146 83.2721 121.389 80.0293 125.389 80.0293Z"/>
</mask>
<path d="M125.389 80.0293H392.104C396.104 80.0293 399.347 83.2721 399.347 87.2724V266.799C399.347 270.799 396.104 274.042 392.104 274.042H125.389C121.389 274.042 118.146 270.799 118.146 266.799V87.2724C118.146 83.2721 121.389 80.0293 125.389 80.0293Z" fill="#E5E4E4"/>
<path d="M125.389 80.0293H392.104C396.104 80.0293 399.347 83.2721 399.347 87.2724V266.799C399.347 270.799 396.104 274.042 392.104 274.042H125.389C121.389 274.042 118.146 270.799 118.146 266.799V87.2724C118.146 83.2721 121.389 80.0293 125.389 80.0293Z" stroke="black" stroke-width="4.0765" mask="url(#path-2-inside-1_0_1)"/>
</g>
<path d="M283.424 99.207H374.987V188.831H283.424V99.207Z" fill="#BBC8E8"/>
<path d="M324.082 126.065H334.273V183.136H324.082V126.065Z" fill="#6589C6"/>
<path d="M338.349 136.257H348.54V183.137H338.349V136.257Z" fill="#6589C6"/>
<path d="M352.617 148.486H362.808V183.137H352.617V148.486Z" fill="#6589C6"/>
<path d="M295.546 107.721H305.737V183.136H295.546V107.721Z" fill="#6589C6"/>
<path d="M309.814 121.989H320.005V183.137H309.814V121.989Z" fill="#6589C6"/>
<path d="M192.335 99.207H263.374V137.65H192.335V99.207Z" fill="#BBC8E8"/>
<path d="M195.285 108.877H260.431V110.399H195.285V108.877Z" fill="white"/>
<path d="M195.285 111.953H260.431V113.475H195.285V111.953Z" fill="white"/>
<path d="M195.285 115.031H260.43V116.553H195.285V115.031Z" fill="white"/>
<path d="M195.285 118.107H260.43V119.629H195.285V118.107Z" fill="white"/>
<path d="M195.285 121.184H260.431V122.706H195.285V121.184Z" fill="white"/>
<path d="M195.285 124.262H260.43V125.784H195.285V124.262Z" fill="white"/>
<path d="M195.285 127.339H260.431V128.861H195.285V127.339Z" fill="white"/>
<path d="M195.285 130.415H260.431V131.937H195.285V130.415Z" fill="white"/>
<path d="M195.285 133.491H260.431V135.013H195.285V133.491Z" fill="white"/>
<path d="M203.536 102.504H252.178V105.346H203.536V102.504Z" fill="white"/>
<path d="M368.635 233.068C368.635 248.957 355.482 261.839 339.256 261.839C323.029 261.839 309.876 248.957 309.876 233.068H368.635Z" fill="#9DB9E2"/>
<path d="M342.426 205.557V232.054H368.923C368.923 217.421 357.059 205.557 342.426 205.557Z" fill="#4C638C"/>
<path d="M310.151 230.8L338.052 230.889L317.872 212.031C312.738 217.3 310.178 224.053 310.151 230.798L310.151 230.8Z" fill="#6589C6"/>
<path d="M322.441 211.917L340.724 231.034L340.339 204.851C333.364 204.808 327.068 207.499 322.443 211.915L322.441 211.917Z" fill="#B0CAF7"/>
<path d="M183.129 235.802C206.164 202.632 221.904 113.716 226.895 73.4052C226.895 72.6373 225.974 71.332 222.288 72.2534C218.603 73.1748 211.538 71.1017 208.467 69.9499L199.253 60.7359C195.568 57.0503 190.807 56.8967 188.887 57.2807C186.2 58.8163 178.061 61.8877 167.004 61.8877C155.947 61.8877 148.576 58.0485 146.273 56.1289L141.666 57.2807L138.21 64.1912C131.76 70.641 121.702 74.5569 117.479 75.7087L116.327 79.1639C116.711 81.4674 117.018 87.6869 115.175 94.1367C113.332 100.587 106.729 106.038 103.658 107.958C105.501 111.643 104.426 118.707 103.658 121.779L100.203 118.323C97.4383 110.952 88.3011 106.038 84.078 104.502C79.0871 103.735 68.8749 105.424 67.9535 118.323C67.0321 131.223 77.5514 145.198 82.9262 150.573L62.1947 238.106C80.6227 263.905 121.318 281.104 139.362 286.479C141.666 277.265 146.733 257.455 148.576 251.927C150.419 246.398 153.183 244.248 154.335 243.864C155.487 243.48 159.863 242.713 168.156 242.713C176.448 242.713 181.593 238.106 183.129 235.802Z" fill="#F0F0F0"/>
<path d="M112.871 216.223C128.535 229.123 153.183 238.49 163.548 241.562C152.491 238.798 146.656 254.999 145.121 263.445C150.649 263.445 159.709 267.284 163.548 269.204C167.234 285.789 157.406 300.685 152.031 306.06C151.11 296.846 143.201 288.4 139.362 285.328C124.005 256.918 97.2075 203.324 112.871 216.223Z" fill="#C9C8C7"/>
<mask id="path-26-outside-2_0_1" maskUnits="userSpaceOnUse" x="137.153" y="70.6064" width="92" height="217" fill="black">
<rect fill="white" x="137.153" y="70.6064" width="92" height="217"/>
<path d="M228.133 72.2381C228.208 73.3105 228.059 74.4147 227.955 75.4791C227.766 77.411 227.527 79.3375 227.276 81.2614C226.545 86.9026 225.707 92.5332 224.844 98.1558C222.992 110.258 221.037 122.346 218.873 134.395C217.963 139.47 216.893 144.472 215.63 149.478C212.793 160.707 209.594 171.864 206.09 182.902C202.617 193.836 198.78 204.655 194.533 215.315C190.832 224.609 187.285 235.711 178.15 241.081C176.114 242.278 173.837 243.143 171.495 243.484C168.797 243.872 166.091 243.585 163.392 243.353C159.087 242.981 154.569 242.901 151.86 246.839C150.591 248.68 149.979 250.86 149.295 252.965C148.387 255.745 147.541 258.542 146.711 261.347C145.061 266.937 143.449 272.539 141.929 278.164C141.205 280.841 140.503 283.52 139.816 286.205C139.603 287.035 138.321 286.682 138.534 285.851C141.386 274.699 144.441 263.555 148.009 252.611C149.212 248.925 150.468 244.968 154.135 243.029C158.323 240.815 163.326 242.22 167.802 242.345C170.574 242.422 173.254 241.983 175.784 240.82C178.054 239.777 179.856 238.268 181.7 236.618C183.703 234.828 185.031 232.576 186.404 230.285C187.849 227.877 189.017 225.331 190.092 222.736C194.446 212.239 198.472 201.614 202.099 190.842C205.781 179.898 209.044 168.825 212.088 157.689C213.94 150.914 215.728 144.113 217.016 137.208C219.137 125.824 220.978 114.382 222.769 102.943C223.713 96.9158 224.632 90.8834 225.467 84.8404C225.991 81.0512 226.595 77.2274 226.792 73.4062C226.811 73.0204 226.829 72.6319 226.803 72.2461C226.744 71.3919 228.075 71.3946 228.133 72.2461V72.2381Z"/>
</mask>
<path d="M228.133 72.2381C228.208 73.3105 228.059 74.4147 227.955 75.4791C227.766 77.411 227.527 79.3375 227.276 81.2614C226.545 86.9026 225.707 92.5332 224.844 98.1558C222.992 110.258 221.037 122.346 218.873 134.395C217.963 139.47 216.893 144.472 215.63 149.478C212.793 160.707 209.594 171.864 206.09 182.902C202.617 193.836 198.78 204.655 194.533 215.315C190.832 224.609 187.285 235.711 178.15 241.081C176.114 242.278 173.837 243.143 171.495 243.484C168.797 243.872 166.091 243.585 163.392 243.353C159.087 242.981 154.569 242.901 151.86 246.839C150.591 248.68 149.979 250.86 149.295 252.965C148.387 255.745 147.541 258.542 146.711 261.347C145.061 266.937 143.449 272.539 141.929 278.164C141.205 280.841 140.503 283.52 139.816 286.205C139.603 287.035 138.321 286.682 138.534 285.851C141.386 274.699 144.441 263.555 148.009 252.611C149.212 248.925 150.468 244.968 154.135 243.029C158.323 240.815 163.326 242.22 167.802 242.345C170.574 242.422 173.254 241.983 175.784 240.82C178.054 239.777 179.856 238.268 181.7 236.618C183.703 234.828 185.031 232.576 186.404 230.285C187.849 227.877 189.017 225.331 190.092 222.736C194.446 212.239 198.472 201.614 202.099 190.842C205.781 179.898 209.044 168.825 212.088 157.689C213.94 150.914 215.728 144.113 217.016 137.208C219.137 125.824 220.978 114.382 222.769 102.943C223.713 96.9158 224.632 90.8834 225.467 84.8404C225.991 81.0512 226.595 77.2274 226.792 73.4062C226.811 73.0204 226.829 72.6319 226.803 72.2461C226.744 71.3919 228.075 71.3946 228.133 72.2461V72.2381Z" fill="black"/>
<path d="M228.133 72.2381C228.208 73.3105 228.059 74.4147 227.955 75.4791C227.766 77.411 227.527 79.3375 227.276 81.2614C226.545 86.9026 225.707 92.5332 224.844 98.1558C222.992 110.258 221.037 122.346 218.873 134.395C217.963 139.47 216.893 144.472 215.63 149.478C212.793 160.707 209.594 171.864 206.09 182.902C202.617 193.836 198.78 204.655 194.533 215.315C190.832 224.609 187.285 235.711 178.15 241.081C176.114 242.278 173.837 243.143 171.495 243.484C168.797 243.872 166.091 243.585 163.392 243.353C159.087 242.981 154.569 242.901 151.86 246.839C150.591 248.68 149.979 250.86 149.295 252.965C148.387 255.745 147.541 258.542 146.711 261.347C145.061 266.937 143.449 272.539 141.929 278.164C141.205 280.841 140.503 283.52 139.816 286.205C139.603 287.035 138.321 286.682 138.534 285.851C141.386 274.699 144.441 263.555 148.009 252.611C149.212 248.925 150.468 244.968 154.135 243.029C158.323 240.815 163.326 242.22 167.802 242.345C170.574 242.422 173.254 241.983 175.784 240.82C178.054 239.777 179.856 238.268 181.7 236.618C183.703 234.828 185.031 232.576 186.404 230.285C187.849 227.877 189.017 225.331 190.092 222.736C194.446 212.239 198.472 201.614 202.099 190.842C205.781 179.898 209.044 168.825 212.088 157.689C213.94 150.914 215.728 144.113 217.016 137.208C219.137 125.824 220.978 114.382 222.769 102.943C223.713 96.9158 224.632 90.8834 225.467 84.8404C225.991 81.0512 226.595 77.2274 226.792 73.4062C226.811 73.0204 226.829 72.6319 226.803 72.2461C226.744 71.3919 228.075 71.3946 228.133 72.2461V72.2381Z" stroke="black" stroke-width="1.65852" stroke-linejoin="round" mask="url(#path-26-outside-2_0_1)"/>
<mask id="path-27-outside-3_0_1" maskUnits="userSpaceOnUse" x="65.4517" y="102.617" width="42" height="57" fill="black">
<rect fill="white" x="65.4517" y="102.617" width="42" height="57"/>
<path d="M105.218 127.084C102.362 120.916 98.2352 115.373 93.1288 110.884C90.6009 108.659 87.7803 106.52 84.526 105.503C82.9932 105.024 81.3727 104.814 79.7735 105.019C78.4191 105.192 77.1046 105.658 75.9178 106.323C73.4378 107.712 71.4846 109.926 70.2021 112.446C68.7093 115.381 68.3048 118.715 68.5762 121.969C68.8795 125.585 70.0291 129.117 71.5192 132.406C72.9082 135.474 74.5926 138.414 76.4979 141.189C80.2232 146.618 84.8772 151.439 90.1911 155.33C90.8484 155.811 91.5136 156.277 92.1895 156.729C92.8654 157.182 92.2321 158.358 91.5189 157.879C85.7873 154.034 80.7554 149.212 76.6416 143.672C74.6059 140.929 72.8044 138.012 71.2717 134.96C69.5767 131.583 68.1744 128.002 67.5411 124.263C66.9504 120.767 66.9876 117.054 68.2196 113.696C69.2893 110.78 71.144 108.156 73.6134 106.259C76.0828 104.362 79.0497 103.377 82.1098 103.667C85.7553 104.013 88.999 105.9 91.8436 108.1C97.381 112.387 101.979 117.935 105.241 124.127C105.638 124.88 106.013 125.644 106.372 126.416C106.524 126.74 106.465 127.132 106.133 127.326C105.845 127.493 105.375 127.414 105.223 127.086L105.218 127.084Z"/>
</mask>
<path d="M105.218 127.084C102.362 120.916 98.2352 115.373 93.1288 110.884C90.6009 108.659 87.7803 106.52 84.526 105.503C82.9932 105.024 81.3727 104.814 79.7735 105.019C78.4191 105.192 77.1046 105.658 75.9178 106.323C73.4378 107.712 71.4846 109.926 70.2021 112.446C68.7093 115.381 68.3048 118.715 68.5762 121.969C68.8795 125.585 70.0291 129.117 71.5192 132.406C72.9082 135.474 74.5926 138.414 76.4979 141.189C80.2232 146.618 84.8772 151.439 90.1911 155.33C90.8484 155.811 91.5136 156.277 92.1895 156.729C92.8654 157.182 92.2321 158.358 91.5189 157.879C85.7873 154.034 80.7554 149.212 76.6416 143.672C74.6059 140.929 72.8044 138.012 71.2717 134.96C69.5767 131.583 68.1744 128.002 67.5411 124.263C66.9504 120.767 66.9876 117.054 68.2196 113.696C69.2893 110.78 71.144 108.156 73.6134 106.259C76.0828 104.362 79.0497 103.377 82.1098 103.667C85.7553 104.013 88.999 105.9 91.8436 108.1C97.381 112.387 101.979 117.935 105.241 124.127C105.638 124.88 106.013 125.644 106.372 126.416C106.524 126.74 106.465 127.132 106.133 127.326C105.845 127.493 105.375 127.414 105.223 127.086L105.218 127.084Z" fill="black"/>
<path d="M105.218 127.084C102.362 120.916 98.2352 115.373 93.1288 110.884C90.6009 108.659 87.7803 106.52 84.526 105.503C82.9932 105.024 81.3727 104.814 79.7735 105.019C78.4191 105.192 77.1046 105.658 75.9178 106.323C73.4378 107.712 71.4846 109.926 70.2021 112.446C68.7093 115.381 68.3048 118.715 68.5762 121.969C68.8795 125.585 70.0291 129.117 71.5192 132.406C72.9082 135.474 74.5926 138.414 76.4979 141.189C80.2232 146.618 84.8772 151.439 90.1911 155.33C90.8484 155.811 91.5136 156.277 92.1895 156.729C92.8654 157.182 92.2321 158.358 91.5189 157.879C85.7873 154.034 80.7554 149.212 76.6416 143.672C74.6059 140.929 72.8044 138.012 71.2717 134.96C69.5767 131.583 68.1744 128.002 67.5411 124.263C66.9504 120.767 66.9876 117.054 68.2196 113.696C69.2893 110.78 71.144 108.156 73.6134 106.259C76.0828 104.362 79.0497 103.377 82.1098 103.667C85.7553 104.013 88.999 105.9 91.8436 108.1C97.381 112.387 101.979 117.935 105.241 124.127C105.638 124.88 106.013 125.644 106.372 126.416C106.524 126.74 106.465 127.132 106.133 127.326C105.845 127.493 105.375 127.414 105.223 127.086L105.218 127.084Z" stroke="black" stroke-width="1.65852" stroke-linejoin="round" mask="url(#path-27-outside-3_0_1)"/>
<mask id="path-28-outside-4_0_1" maskUnits="userSpaceOnUse" x="101.456" y="78.377" width="17" height="45" fill="black">
<rect fill="white" x="101.456" y="78.377" width="17" height="45"/>
<path d="M116.785 79.854C117.836 84.1434 117.628 88.6777 116.33 92.8926C115.031 97.1076 112.708 100.977 109.606 104.09C107.865 105.838 105.87 107.342 103.701 108.518L103.837 107.472C105.149 108.624 105.298 110.431 105.258 112.067C105.21 113.997 105.244 115.944 104.984 117.86C104.821 119.05 104.521 120.191 104.023 121.285C103.874 121.612 103.4 121.692 103.113 121.524C102.778 121.328 102.724 120.942 102.873 120.614C103.879 118.398 103.842 115.902 103.882 113.52C103.909 111.852 104.305 109.654 102.895 108.414C102.578 108.135 102.669 107.565 103.03 107.368C106.705 105.375 109.816 102.427 112.072 98.9117C114.316 95.4179 115.758 91.3785 116.066 87.2275C116.242 84.8699 116.064 82.5016 115.502 80.2052C115.297 79.375 116.583 79.0184 116.785 79.8513V79.854Z"/>
</mask>
<path d="M116.785 79.854C117.836 84.1434 117.628 88.6777 116.33 92.8926C115.031 97.1076 112.708 100.977 109.606 104.09C107.865 105.838 105.87 107.342 103.701 108.518L103.837 107.472C105.149 108.624 105.298 110.431 105.258 112.067C105.21 113.997 105.244 115.944 104.984 117.86C104.821 119.05 104.521 120.191 104.023 121.285C103.874 121.612 103.4 121.692 103.113 121.524C102.778 121.328 102.724 120.942 102.873 120.614C103.879 118.398 103.842 115.902 103.882 113.52C103.909 111.852 104.305 109.654 102.895 108.414C102.578 108.135 102.669 107.565 103.03 107.368C106.705 105.375 109.816 102.427 112.072 98.9117C114.316 95.4179 115.758 91.3785 116.066 87.2275C116.242 84.8699 116.064 82.5016 115.502 80.2052C115.297 79.375 116.583 79.0184 116.785 79.8513V79.854Z" fill="black"/>
<path d="M116.785 79.854C117.836 84.1434 117.628 88.6777 116.33 92.8926C115.031 97.1076 112.708 100.977 109.606 104.09C107.865 105.838 105.87 107.342 103.701 108.518L103.837 107.472C105.149 108.624 105.298 110.431 105.258 112.067C105.21 113.997 105.244 115.944 104.984 117.86C104.821 119.05 104.521 120.191 104.023 121.285C103.874 121.612 103.4 121.692 103.113 121.524C102.778 121.328 102.724 120.942 102.873 120.614C103.879 118.398 103.842 115.902 103.882 113.52C103.909 111.852 104.305 109.654 102.895 108.414C102.578 108.135 102.669 107.565 103.03 107.368C106.705 105.375 109.816 102.427 112.072 98.9117C114.316 95.4179 115.758 91.3785 116.066 87.2275C116.242 84.8699 116.064 82.5016 115.502 80.2052C115.297 79.375 116.583 79.0184 116.785 79.8513V79.854Z" stroke="black" stroke-width="1.65852" stroke-linejoin="round" mask="url(#path-28-outside-4_0_1)"/>
<mask id="path-29-outside-5_0_1" maskUnits="userSpaceOnUse" x="115.953" y="55.9658" width="27" height="22" fill="black">
<rect fill="white" x="115.953" y="55.9658" width="27" height="22"/>
<path d="M141.935 57.8021C141.025 61.8893 138.616 65.4443 135.487 68.1718C132.358 70.8993 128.452 72.9695 124.468 74.4091C122.334 75.1807 120.139 75.7874 117.912 76.2238C117.56 76.293 117.193 76.1227 117.092 75.7582C117.002 75.4309 117.201 75.0104 117.558 74.9386C121.461 74.1696 125.293 72.9056 128.822 71.0616C132.35 69.2175 135.66 66.7721 137.959 63.4938C139.242 61.6631 140.165 59.6275 140.652 57.4428C140.838 56.6073 142.121 56.9612 141.935 57.7967V57.8021Z"/>
</mask>
<path d="M141.935 57.8021C141.025 61.8893 138.616 65.4443 135.487 68.1718C132.358 70.8993 128.452 72.9695 124.468 74.4091C122.334 75.1807 120.139 75.7874 117.912 76.2238C117.56 76.293 117.193 76.1227 117.092 75.7582C117.002 75.4309 117.201 75.0104 117.558 74.9386C121.461 74.1696 125.293 72.9056 128.822 71.0616C132.35 69.2175 135.66 66.7721 137.959 63.4938C139.242 61.6631 140.165 59.6275 140.652 57.4428C140.838 56.6073 142.121 56.9612 141.935 57.7967V57.8021Z" fill="black"/>
<path d="M141.935 57.8021C141.025 61.8893 138.616 65.4443 135.487 68.1718C132.358 70.8993 128.452 72.9695 124.468 74.4091C122.334 75.1807 120.139 75.7874 117.912 76.2238C117.56 76.293 117.193 76.1227 117.092 75.7582C117.002 75.4309 117.201 75.0104 117.558 74.9386C121.461 74.1696 125.293 72.9056 128.822 71.0616C132.35 69.2175 135.66 66.7721 137.959 63.4938C139.242 61.6631 140.165 59.6275 140.652 57.4428C140.838 56.6073 142.121 56.9612 141.935 57.7967V57.8021Z" stroke="black" stroke-width="1.65852" stroke-linejoin="round" mask="url(#path-29-outside-5_0_1)"/>
<mask id="path-30-outside-6_0_1" maskUnits="userSpaceOnUse" x="144.114" y="54.2979" width="85" height="20" fill="black">
<rect fill="white" x="144.114" y="54.2979" width="85" height="20"/>
<path d="M227.469 72.9035C222.264 73.0126 216.791 73.6513 211.754 71.9669C210.519 71.5544 209.324 71.001 208.252 70.2612C207.006 69.4044 206.011 68.191 204.968 67.1027C202.794 64.8355 200.586 62.5711 198.002 60.7696C195.564 59.0719 192.64 57.6616 189.59 58.0528C188.068 58.247 186.759 58.9921 185.373 59.5855C183.986 60.1789 182.613 60.6898 181.195 61.1288C175.668 62.8398 169.774 63.3959 164.024 62.7866C158.274 62.1772 152.675 60.4476 147.63 57.6297C147.015 57.2864 146.411 56.9272 145.815 56.552C145.091 56.097 145.759 54.9474 146.486 55.4024C151.31 58.4306 156.741 60.4024 162.372 61.2459C168.018 62.0921 173.854 61.7541 179.367 60.272C180.764 59.8968 182.142 59.4471 183.492 58.9256C184.841 58.404 186.208 57.6403 187.619 57.156C190.567 56.1475 193.686 56.8207 196.384 58.2231C199.082 59.6254 201.599 61.8047 203.819 64.0133C204.92 65.1096 205.982 66.2432 207.062 67.3608C207.581 67.8983 208.081 68.5023 208.685 68.9414C209.204 69.3192 209.755 69.6518 210.327 69.9419C212.61 71.1021 215.21 71.5278 217.743 71.6848C220.277 71.8418 223.02 71.7194 225.657 71.6236C226.261 71.6023 226.868 71.5837 227.472 71.5704C228.329 71.5518 228.329 72.8822 227.472 72.9009L227.469 72.9035Z"/>
</mask>
<path d="M227.469 72.9035C222.264 73.0126 216.791 73.6513 211.754 71.9669C210.519 71.5544 209.324 71.001 208.252 70.2612C207.006 69.4044 206.011 68.191 204.968 67.1027C202.794 64.8355 200.586 62.5711 198.002 60.7696C195.564 59.0719 192.64 57.6616 189.59 58.0528C188.068 58.247 186.759 58.9921 185.373 59.5855C183.986 60.1789 182.613 60.6898 181.195 61.1288C175.668 62.8398 169.774 63.3959 164.024 62.7866C158.274 62.1772 152.675 60.4476 147.63 57.6297C147.015 57.2864 146.411 56.9272 145.815 56.552C145.091 56.097 145.759 54.9474 146.486 55.4024C151.31 58.4306 156.741 60.4024 162.372 61.2459C168.018 62.0921 173.854 61.7541 179.367 60.272C180.764 59.8968 182.142 59.4471 183.492 58.9256C184.841 58.404 186.208 57.6403 187.619 57.156C190.567 56.1475 193.686 56.8207 196.384 58.2231C199.082 59.6254 201.599 61.8047 203.819 64.0133C204.92 65.1096 205.982 66.2432 207.062 67.3608C207.581 67.8983 208.081 68.5023 208.685 68.9414C209.204 69.3192 209.755 69.6518 210.327 69.9419C212.61 71.1021 215.21 71.5278 217.743 71.6848C220.277 71.8418 223.02 71.7194 225.657 71.6236C226.261 71.6023 226.868 71.5837 227.472 71.5704C228.329 71.5518 228.329 72.8822 227.472 72.9009L227.469 72.9035Z" fill="black"/>
<path d="M227.469 72.9035C222.264 73.0126 216.791 73.6513 211.754 71.9669C210.519 71.5544 209.324 71.001 208.252 70.2612C207.006 69.4044 206.011 68.191 204.968 67.1027C202.794 64.8355 200.586 62.5711 198.002 60.7696C195.564 59.0719 192.64 57.6616 189.59 58.0528C188.068 58.247 186.759 58.9921 185.373 59.5855C183.986 60.1789 182.613 60.6898 181.195 61.1288C175.668 62.8398 169.774 63.3959 164.024 62.7866C158.274 62.1772 152.675 60.4476 147.63 57.6297C147.015 57.2864 146.411 56.9272 145.815 56.552C145.091 56.097 145.759 54.9474 146.486 55.4024C151.31 58.4306 156.741 60.4024 162.372 61.2459C168.018 62.0921 173.854 61.7541 179.367 60.272C180.764 59.8968 182.142 59.4471 183.492 58.9256C184.841 58.404 186.208 57.6403 187.619 57.156C190.567 56.1475 193.686 56.8207 196.384 58.2231C199.082 59.6254 201.599 61.8047 203.819 64.0133C204.92 65.1096 205.982 66.2432 207.062 67.3608C207.581 67.8983 208.081 68.5023 208.685 68.9414C209.204 69.3192 209.755 69.6518 210.327 69.9419C212.61 71.1021 215.21 71.5278 217.743 71.6848C220.277 71.8418 223.02 71.7194 225.657 71.6236C226.261 71.6023 226.868 71.5837 227.472 71.5704C228.329 71.5518 228.329 72.8822 227.472 72.9009L227.469 72.9035Z" stroke="black" stroke-width="1.65852" stroke-linejoin="round" mask="url(#path-30-outside-6_0_1)"/>
<mask id="path-31-outside-7_0_1" maskUnits="userSpaceOnUse" x="59.8774" y="149.329" width="25" height="91" fill="black">
<rect fill="white" x="59.8774" y="149.329" width="25" height="91"/>
<path d="M83.8623 151.157C82.4467 156.806 81.055 162.461 79.6766 168.118C78.2929 173.807 76.9252 179.499 75.5628 185.191C74.1977 190.898 72.8406 196.606 71.4835 202.316C70.1264 208.024 68.7667 213.732 67.399 219.434C66.0366 225.121 64.6635 230.807 63.2718 236.488C63.0962 237.209 62.9179 237.933 62.7396 238.654C62.5348 239.485 61.2522 239.133 61.457 238.3C62.8514 232.625 64.2271 226.944 65.5922 221.26C66.9626 215.557 68.3223 209.852 69.6794 204.147C71.0391 198.437 72.3936 192.726 73.756 187.019C75.1157 181.322 76.4808 175.627 77.8618 169.935C79.2349 164.27 80.6239 158.61 82.0342 152.956C82.2125 152.237 82.3934 151.519 82.5717 150.803C82.7793 149.973 84.0645 150.324 83.8543 151.157H83.8623Z"/>
</mask>
<path d="M83.8623 151.157C82.4467 156.806 81.055 162.461 79.6766 168.118C78.2929 173.807 76.9252 179.499 75.5628 185.191C74.1977 190.898 72.8406 196.606 71.4835 202.316C70.1264 208.024 68.7667 213.732 67.399 219.434C66.0366 225.121 64.6635 230.807 63.2718 236.488C63.0962 237.209 62.9179 237.933 62.7396 238.654C62.5348 239.485 61.2522 239.133 61.457 238.3C62.8514 232.625 64.2271 226.944 65.5922 221.26C66.9626 215.557 68.3223 209.852 69.6794 204.147C71.0391 198.437 72.3936 192.726 73.756 187.019C75.1157 181.322 76.4808 175.627 77.8618 169.935C79.2349 164.27 80.6239 158.61 82.0342 152.956C82.2125 152.237 82.3934 151.519 82.5717 150.803C82.7793 149.973 84.0645 150.324 83.8543 151.157H83.8623Z" fill="black"/>
<path d="M83.8623 151.157C82.4467 156.806 81.055 162.461 79.6766 168.118C78.2929 173.807 76.9252 179.499 75.5628 185.191C74.1977 190.898 72.8406 196.606 71.4835 202.316C70.1264 208.024 68.7667 213.732 67.399 219.434C66.0366 225.121 64.6635 230.807 63.2718 236.488C63.0962 237.209 62.9179 237.933 62.7396 238.654C62.5348 239.485 61.2522 239.133 61.457 238.3C62.8514 232.625 64.2271 226.944 65.5922 221.26C66.9626 215.557 68.3223 209.852 69.6794 204.147C71.0391 198.437 72.3936 192.726 73.756 187.019C75.1157 181.322 76.4808 175.627 77.8618 169.935C79.2349 164.27 80.6239 158.61 82.0342 152.956C82.2125 152.237 82.3934 151.519 82.5717 150.803C82.7793 149.973 84.0645 150.324 83.8543 151.157H83.8623Z" stroke="black" stroke-width="1.65852" stroke-linejoin="round" mask="url(#path-31-outside-7_0_1)"/>
<mask id="path-32-outside-8_0_1" maskUnits="userSpaceOnUse" x="59.8252" y="236.786" width="81" height="51" fill="black">
<rect fill="white" x="59.8252" y="236.786" width="81" height="51"/>
<path d="M138.997 286.663C133.323 285.154 127.741 283.302 122.28 281.149C116.69 278.943 111.219 276.431 105.902 273.627C100.541 270.801 95.3357 267.677 90.3198 264.273C85.288 260.857 80.445 257.153 75.8469 253.169C71.2488 249.186 67.0551 245.072 63.085 240.609C62.5954 240.059 62.1111 239.505 61.6321 238.946C61.0759 238.3 62.0126 237.355 62.5741 238.004C66.4458 242.507 70.6288 246.74 75.0539 250.7C79.5323 254.705 84.2582 258.43 89.1809 261.873C94.1037 265.316 99.2792 268.517 104.585 271.41C109.827 274.268 115.226 276.846 120.753 279.108C126.168 281.325 131.706 283.243 137.336 284.826C138.007 285.015 138.68 285.199 139.353 285.377C140.181 285.598 139.829 286.881 138.999 286.66L138.997 286.663Z"/>
</mask>
<path d="M138.997 286.663C133.323 285.154 127.741 283.302 122.28 281.149C116.69 278.943 111.219 276.431 105.902 273.627C100.541 270.801 95.3357 267.677 90.3198 264.273C85.288 260.857 80.445 257.153 75.8469 253.169C71.2488 249.186 67.0551 245.072 63.085 240.609C62.5954 240.059 62.1111 239.505 61.6321 238.946C61.0759 238.3 62.0126 237.355 62.5741 238.004C66.4458 242.507 70.6288 246.74 75.0539 250.7C79.5323 254.705 84.2582 258.43 89.1809 261.873C94.1037 265.316 99.2792 268.517 104.585 271.41C109.827 274.268 115.226 276.846 120.753 279.108C126.168 281.325 131.706 283.243 137.336 284.826C138.007 285.015 138.68 285.199 139.353 285.377C140.181 285.598 139.829 286.881 138.999 286.66L138.997 286.663Z" fill="black"/>
<path d="M138.997 286.663C133.323 285.154 127.741 283.302 122.28 281.149C116.69 278.943 111.219 276.431 105.902 273.627C100.541 270.801 95.3357 267.677 90.3198 264.273C85.288 260.857 80.445 257.153 75.8469 253.169C71.2488 249.186 67.0551 245.072 63.085 240.609C62.5954 240.059 62.1111 239.505 61.6321 238.946C61.0759 238.3 62.0126 237.355 62.5741 238.004C66.4458 242.507 70.6288 246.74 75.0539 250.7C79.5323 254.705 84.2582 258.43 89.1809 261.873C94.1037 265.316 99.2792 268.517 104.585 271.41C109.827 274.268 115.226 276.846 120.753 279.108C126.168 281.325 131.706 283.243 137.336 284.826C138.007 285.015 138.68 285.199 139.353 285.377C140.181 285.598 139.829 286.881 138.999 286.66L138.997 286.663Z" stroke="black" stroke-width="1.65852" stroke-linejoin="round" mask="url(#path-32-outside-8_0_1)"/>
<mask id="path-33-outside-9_0_1" maskUnits="userSpaceOnUse" x="137.988" y="53.459" width="11" height="6" fill="black">
<rect fill="white" x="137.988" y="53.459" width="11" height="6"/>
<path d="M147.792 55.5853C145.472 57.4692 142.409 58.2196 139.484 57.5837C138.649 57.4027 139.003 56.1201 139.838 56.3011C142.262 56.8279 144.923 56.2133 146.853 54.646C147.132 54.4198 147.521 54.3746 147.795 54.646C148.029 54.8801 148.074 55.3591 147.795 55.5879L147.792 55.5853Z"/>
</mask>
<path d="M147.792 55.5853C145.472 57.4692 142.409 58.2196 139.484 57.5837C138.649 57.4027 139.003 56.1201 139.838 56.3011C142.262 56.8279 144.923 56.2133 146.853 54.646C147.132 54.4198 147.521 54.3746 147.795 54.646C148.029 54.8801 148.074 55.3591 147.795 55.5879L147.792 55.5853Z" fill="black"/>
<path d="M147.792 55.5853C145.472 57.4692 142.409 58.2196 139.484 57.5837C138.649 57.4027 139.003 56.1201 139.838 56.3011C142.262 56.8279 144.923 56.2133 146.853 54.646C147.132 54.4198 147.521 54.3746 147.795 54.646C148.029 54.8801 148.074 55.3591 147.795 55.5879L147.792 55.5853Z" stroke="black" stroke-width="1.65852" stroke-linejoin="round" mask="url(#path-33-outside-9_0_1)"/>
<mask id="path-34-outside-10_0_1" maskUnits="userSpaceOnUse" x="113.808" y="73.6133" width="6" height="8" fill="black">
<rect fill="white" x="113.808" y="73.6133" width="6" height="8"/>
<path d="M118.718 75.6123C118.274 76.4292 117.827 77.2488 117.383 78.0657C116.965 78.8347 116.595 79.6277 115.879 80.1652C115.592 80.3808 115.134 80.2104 114.969 79.9257C114.77 79.5851 114.921 79.2312 115.209 79.0157C115.137 79.0689 115.312 78.9146 115.328 78.8959C115.344 78.8773 115.496 78.699 115.443 78.7682C115.552 78.6219 115.648 78.4622 115.738 78.3025C115.938 77.954 116.124 77.5974 116.318 77.2435C116.736 76.4745 117.156 75.7055 117.574 74.9391C117.747 74.6224 118.181 74.524 118.484 74.6996C118.804 74.8859 118.894 75.293 118.724 75.6097L118.718 75.6123Z"/>
</mask>
<path d="M118.718 75.6123C118.274 76.4292 117.827 77.2488 117.383 78.0657C116.965 78.8347 116.595 79.6277 115.879 80.1652C115.592 80.3808 115.134 80.2104 114.969 79.9257C114.77 79.5851 114.921 79.2312 115.209 79.0157C115.137 79.0689 115.312 78.9146 115.328 78.8959C115.344 78.8773 115.496 78.699 115.443 78.7682C115.552 78.6219 115.648 78.4622 115.738 78.3025C115.938 77.954 116.124 77.5974 116.318 77.2435C116.736 76.4745 117.156 75.7055 117.574 74.9391C117.747 74.6224 118.181 74.524 118.484 74.6996C118.804 74.8859 118.894 75.293 118.724 75.6097L118.718 75.6123Z" fill="black"/>
<path d="M118.718 75.6123C118.274 76.4292 117.827 77.2488 117.383 78.0657C116.965 78.8347 116.595 79.6277 115.879 80.1652C115.592 80.3808 115.134 80.2104 114.969 79.9257C114.77 79.5851 114.921 79.2312 115.209 79.0157C115.137 79.0689 115.312 78.9146 115.328 78.8959C115.344 78.8773 115.496 78.699 115.443 78.7682C115.552 78.6219 115.648 78.4622 115.738 78.3025C115.938 77.954 116.124 77.5974 116.318 77.2435C116.736 76.4745 117.156 75.7055 117.574 74.9391C117.747 74.6224 118.181 74.524 118.484 74.6996C118.804 74.8859 118.894 75.293 118.724 75.6097L118.718 75.6123Z" stroke="black" stroke-width="1.65852" stroke-linejoin="round" mask="url(#path-34-outside-10_0_1)"/>
<mask id="path-35-outside-11_0_1" maskUnits="userSpaceOnUse" x="185.78" y="128.585" width="8" height="27" fill="black">
<rect fill="white" x="185.78" y="128.585" width="8" height="27"/>
<path d="M192.768 130.425C191.722 136.553 190.599 142.668 189.404 148.77C189.066 150.499 188.721 152.229 188.369 153.959C188.297 154.31 187.88 154.515 187.55 154.424C187.182 154.323 187.012 153.959 187.084 153.605C188.321 147.511 189.487 141.404 190.575 135.284C190.884 133.546 191.187 131.812 191.483 130.071C191.544 129.717 191.98 129.518 192.302 129.606C192.677 129.709 192.826 130.069 192.768 130.425V130.425Z"/>
</mask>
<path d="M192.768 130.425C191.722 136.553 190.599 142.668 189.404 148.77C189.066 150.499 188.721 152.229 188.369 153.959C188.297 154.31 187.88 154.515 187.55 154.424C187.182 154.323 187.012 153.959 187.084 153.605C188.321 147.511 189.487 141.404 190.575 135.284C190.884 133.546 191.187 131.812 191.483 130.071C191.544 129.717 191.98 129.518 192.302 129.606C192.677 129.709 192.826 130.069 192.768 130.425V130.425Z" fill="black"/>
<path d="M192.768 130.425C191.722 136.553 190.599 142.668 189.404 148.77C189.066 150.499 188.721 152.229 188.369 153.959C188.297 154.31 187.88 154.515 187.55 154.424C187.182 154.323 187.012 153.959 187.084 153.605C188.321 147.511 189.487 141.404 190.575 135.284C190.884 133.546 191.187 131.812 191.483 130.071C191.544 129.717 191.98 129.518 192.302 129.606C192.677 129.709 192.826 130.069 192.768 130.425V130.425Z" stroke="black" stroke-width="1.65852" stroke-linejoin="round" mask="url(#path-35-outside-11_0_1)"/>
<mask id="path-36-outside-12_0_1" maskUnits="userSpaceOnUse" x="172.125" y="152.14" width="25" height="19" fill="black">
<rect fill="white" x="172.125" y="152.14" width="25" height="19"/>
<path d="M187.295 153.397C189.929 152.99 192.96 152.764 194.761 155.14C195.536 156.162 195.892 157.426 196.044 158.684C196.22 160.148 196.121 161.702 195.634 163.099C194.846 165.366 193.066 167.12 190.93 168.157C188.617 169.28 186.041 169.613 183.5 169.299C180.036 168.87 176.821 167.479 173.649 166.084C173.319 165.941 173.245 165.459 173.41 165.174C173.609 164.834 173.99 164.791 174.32 164.935C178.931 166.96 184.149 169.2 189.203 167.442C191.095 166.782 192.859 165.558 193.865 163.793C194.479 162.713 194.751 161.484 194.78 160.249C194.807 159.107 194.684 157.915 194.224 156.859C193.721 155.707 192.824 154.895 191.595 154.597C190.365 154.299 188.929 154.485 187.641 154.682C187.287 154.738 186.925 154.592 186.821 154.217C186.733 153.903 186.927 153.453 187.287 153.397H187.295Z"/>
</mask>
<path d="M187.295 153.397C189.929 152.99 192.96 152.764 194.761 155.14C195.536 156.162 195.892 157.426 196.044 158.684C196.22 160.148 196.121 161.702 195.634 163.099C194.846 165.366 193.066 167.12 190.93 168.157C188.617 169.28 186.041 169.613 183.5 169.299C180.036 168.87 176.821 167.479 173.649 166.084C173.319 165.941 173.245 165.459 173.41 165.174C173.609 164.834 173.99 164.791 174.32 164.935C178.931 166.96 184.149 169.2 189.203 167.442C191.095 166.782 192.859 165.558 193.865 163.793C194.479 162.713 194.751 161.484 194.78 160.249C194.807 159.107 194.684 157.915 194.224 156.859C193.721 155.707 192.824 154.895 191.595 154.597C190.365 154.299 188.929 154.485 187.641 154.682C187.287 154.738 186.925 154.592 186.821 154.217C186.733 153.903 186.927 153.453 187.287 153.397H187.295Z" fill="black"/>
<path d="M187.295 153.397C189.929 152.99 192.96 152.764 194.761 155.14C195.536 156.162 195.892 157.426 196.044 158.684C196.22 160.148 196.121 161.702 195.634 163.099C194.846 165.366 193.066 167.12 190.93 168.157C188.617 169.28 186.041 169.613 183.5 169.299C180.036 168.87 176.821 167.479 173.649 166.084C173.319 165.941 173.245 165.459 173.41 165.174C173.609 164.834 173.99 164.791 174.32 164.935C178.931 166.96 184.149 169.2 189.203 167.442C191.095 166.782 192.859 165.558 193.865 163.793C194.479 162.713 194.751 161.484 194.78 160.249C194.807 159.107 194.684 157.915 194.224 156.859C193.721 155.707 192.824 154.895 191.595 154.597C190.365 154.299 188.929 154.485 187.641 154.682C187.287 154.738 186.925 154.592 186.821 154.217C186.733 153.903 186.927 153.453 187.287 153.397H187.295Z" stroke="black" stroke-width="1.65852" stroke-linejoin="round" mask="url(#path-36-outside-12_0_1)"/>
<mask id="path-37-outside-13_0_1" maskUnits="userSpaceOnUse" x="151.271" y="112.828" width="13.5843" height="19.7763" fill="black">
<rect fill="white" x="151.271" y="112.828" width="13.5843" height="19.7763"/>
<path d="M156.14 129.953C154.351 129.444 153.849 125.696 155.02 121.583C156.191 117.47 158.591 114.549 160.38 115.058C162.169 115.568 162.671 119.315 161.5 123.428C160.329 127.541 157.929 130.463 156.14 129.953Z"/>
</mask>
<path d="M156.14 129.953C154.351 129.444 153.849 125.696 155.02 121.583C156.191 117.47 158.591 114.549 160.38 115.058C162.169 115.568 162.671 119.315 161.5 123.428C160.329 127.541 157.929 130.463 156.14 129.953Z" fill="black"/>
<path d="M156.14 129.953C154.351 129.444 153.849 125.696 155.02 121.583C156.191 117.47 158.591 114.549 160.38 115.058C162.169 115.568 162.671 119.315 161.5 123.428C160.329 127.541 157.929 130.463 156.14 129.953Z" stroke="black" stroke-width="1.65852" stroke-linejoin="round" mask="url(#path-37-outside-13_0_1)"/>
<mask id="path-38-outside-14_0_1" maskUnits="userSpaceOnUse" x="199.424" y="120.407" width="10.1489" height="18.546" fill="black">
<rect fill="white" x="199.424" y="120.407" width="10.1489" height="18.546"/>
<path d="M201.284 130.147C201.007 125.879 202.287 122.322 204.143 122.201C206 122.08 207.73 125.442 208.007 129.709C208.285 133.977 207.005 137.534 205.148 137.655C203.292 137.776 201.562 134.414 201.284 130.147Z"/>
</mask>
<path d="M201.284 130.147C201.007 125.879 202.287 122.322 204.143 122.201C206 122.08 207.73 125.442 208.007 129.709C208.285 133.977 207.005 137.534 205.148 137.655C203.292 137.776 201.562 134.414 201.284 130.147Z" fill="black"/>
<path d="M201.284 130.147C201.007 125.879 202.287 122.322 204.143 122.201C206 122.08 207.73 125.442 208.007 129.709C208.285 133.977 207.005 137.534 205.148 137.655C203.292 137.776 201.562 134.414 201.284 130.147Z" stroke="black" stroke-width="1.65852" stroke-linejoin="round" mask="url(#path-38-outside-14_0_1)"/>
<mask id="path-39-outside-15_0_1" maskUnits="userSpaceOnUse" x="151.684" y="98.4863" width="14" height="6" fill="black">
<rect fill="white" x="151.684" y="98.4863" width="14" height="6"/>
<path d="M163.673 101.783C160.557 100.218 156.675 100.575 153.846 102.584C153.554 102.792 153.107 102.637 152.936 102.345C152.742 102.012 152.881 101.642 153.176 101.435C156.401 99.1461 160.826 98.8667 164.347 100.634C165.113 101.017 164.44 102.166 163.676 101.783H163.673Z"/>
</mask>
<path d="M163.673 101.783C160.557 100.218 156.675 100.575 153.846 102.584C153.554 102.792 153.107 102.637 152.936 102.345C152.742 102.012 152.881 101.642 153.176 101.435C156.401 99.1461 160.826 98.8667 164.347 100.634C165.113 101.017 164.44 102.166 163.676 101.783H163.673Z" fill="black"/>
<path d="M163.673 101.783C160.557 100.218 156.675 100.575 153.846 102.584C153.554 102.792 153.107 102.637 152.936 102.345C152.742 102.012 152.881 101.642 153.176 101.435C156.401 99.1461 160.826 98.8667 164.347 100.634C165.113 101.017 164.44 102.166 163.676 101.783H163.673Z" stroke="black" stroke-width="1.65852" stroke-linejoin="round" mask="url(#path-39-outside-15_0_1)"/>
<mask id="path-40-outside-16_0_1" maskUnits="userSpaceOnUse" x="201.557" y="108.69" width="10" height="6" fill="black">
<rect fill="white" x="201.557" y="108.69" width="10" height="6"/>
<path d="M209.427 113.654C208.578 112.765 207.692 111.804 206.543 111.309C205.662 110.929 204.462 110.841 203.677 111.488C203.4 111.716 203.006 111.759 202.735 111.488C202.501 111.253 202.455 110.777 202.735 110.546C203.858 109.62 205.396 109.476 206.747 109.968C208.206 110.498 209.318 111.613 210.369 112.712C210.96 113.332 210.02 114.274 209.427 113.654V113.654Z"/>
</mask>
<path d="M209.427 113.654C208.578 112.765 207.692 111.804 206.543 111.309C205.662 110.929 204.462 110.841 203.677 111.488C203.4 111.716 203.006 111.759 202.735 111.488C202.501 111.253 202.455 110.777 202.735 110.546C203.858 109.62 205.396 109.476 206.747 109.968C208.206 110.498 209.318 111.613 210.369 112.712C210.96 113.332 210.02 114.274 209.427 113.654V113.654Z" fill="black"/>
<path d="M209.427 113.654C208.578 112.765 207.692 111.804 206.543 111.309C205.662 110.929 204.462 110.841 203.677 111.488C203.4 111.716 203.006 111.759 202.735 111.488C202.501 111.253 202.455 110.777 202.735 110.546C203.858 109.62 205.396 109.476 206.747 109.968C208.206 110.498 209.318 111.613 210.369 112.712C210.96 113.332 210.02 114.274 209.427 113.654V113.654Z" stroke="black" stroke-width="1.65852" stroke-linejoin="round" mask="url(#path-40-outside-16_0_1)"/>
<mask id="path-41-outside-17_0_1" maskUnits="userSpaceOnUse" x="139.366" y="171.104" width="18.9965" height="20.6011" fill="black">
<rect fill="white" x="139.366" y="171.104" width="18.9965" height="20.6011"/>
<path d="M153.521 190.133C151.08 189.31 149.152 187.458 147.719 185.365C146.171 183.102 145.077 180.498 144.281 177.884C143.802 176.313 143.443 174.707 143.198 173.084C143.145 172.728 143.461 172.394 143.805 172.363C144.181 172.329 144.47 172.613 144.526 172.969C144.939 175.694 145.709 178.358 146.804 180.886C147.755 183.083 148.98 185.248 150.746 186.897C151.72 187.804 152.835 188.508 154.101 188.936C154.443 189.05 154.552 189.53 154.411 189.826C154.239 190.184 153.865 190.25 153.52 190.136L153.521 190.133Z"/>
</mask>
<path d="M153.521 190.133C151.08 189.31 149.152 187.458 147.719 185.365C146.171 183.102 145.077 180.498 144.281 177.884C143.802 176.313 143.443 174.707 143.198 173.084C143.145 172.728 143.461 172.394 143.805 172.363C144.181 172.329 144.47 172.613 144.526 172.969C144.939 175.694 145.709 178.358 146.804 180.886C147.755 183.083 148.98 185.248 150.746 186.897C151.72 187.804 152.835 188.508 154.101 188.936C154.443 189.05 154.552 189.53 154.411 189.826C154.239 190.184 153.865 190.25 153.52 190.136L153.521 190.133Z" fill="black"/>
<path d="M153.521 190.133C151.08 189.31 149.152 187.458 147.719 185.365C146.171 183.102 145.077 180.498 144.281 177.884C143.802 176.313 143.443 174.707 143.198 173.084C143.145 172.728 143.461 172.394 143.805 172.363C144.181 172.329 144.47 172.613 144.526 172.969C144.939 175.694 145.709 178.358 146.804 180.886C147.755 183.083 148.98 185.248 150.746 186.897C151.72 187.804 152.835 188.508 154.101 188.936C154.443 189.05 154.552 189.53 154.411 189.826C154.239 190.184 153.865 190.25 153.52 190.136L153.521 190.133Z" stroke="black" stroke-width="1.65852" stroke-linejoin="round" mask="url(#path-41-outside-17_0_1)"/>
<mask id="path-42-outside-18_0_1" maskUnits="userSpaceOnUse" x="-0.975464" y="237.069" width="64" height="34" fill="black">
<rect fill="white" x="-0.975464" y="237.069" width="64" height="34"/>
<path d="M61.5347 239.37C57.1601 240.235 52.8467 241.389 48.6184 242.813C44.5019 244.199 40.4733 245.838 36.5404 247.68C32.5756 249.537 28.7092 251.594 24.9253 253.795C21.0643 256.041 17.2884 258.433 13.5764 260.918C9.79248 263.451 6.07246 266.08 2.38438 268.752C1.92403 269.087 1.46104 269.422 1.0007 269.758C0.710653 269.971 0.25828 269.808 0.0906396 269.518C-0.106271 269.18 0.0374271 268.821 0.330132 268.608C4.03684 265.905 7.77281 263.241 11.57 260.665C15.3672 258.09 19.0446 255.727 22.895 253.441C26.6789 251.195 30.5479 249.085 34.5127 247.174C38.4749 245.264 42.5328 243.545 46.6813 242.076C50.8882 240.586 55.1857 239.356 59.5496 238.42C60.0925 238.303 60.638 238.191 61.1834 238.084C61.5347 238.015 61.9019 238.186 62.003 238.55C62.0935 238.877 61.8913 239.298 61.5373 239.37H61.5347Z"/>
</mask>
<path d="M61.5347 239.37C57.1601 240.235 52.8467 241.389 48.6184 242.813C44.5019 244.199 40.4733 245.838 36.5404 247.68C32.5756 249.537 28.7092 251.594 24.9253 253.795C21.0643 256.041 17.2884 258.433 13.5764 260.918C9.79248 263.451 6.07246 266.08 2.38438 268.752C1.92403 269.087 1.46104 269.422 1.0007 269.758C0.710653 269.971 0.25828 269.808 0.0906396 269.518C-0.106271 269.18 0.0374271 268.821 0.330132 268.608C4.03684 265.905 7.77281 263.241 11.57 260.665C15.3672 258.09 19.0446 255.727 22.895 253.441C26.6789 251.195 30.5479 249.085 34.5127 247.174C38.4749 245.264 42.5328 243.545 46.6813 242.076C50.8882 240.586 55.1857 239.356 59.5496 238.42C60.0925 238.303 60.638 238.191 61.1834 238.084C61.5347 238.015 61.9019 238.186 62.003 238.55C62.0935 238.877 61.8913 239.298 61.5373 239.37H61.5347Z" fill="black"/>
<path d="M61.5347 239.37C57.1601 240.235 52.8467 241.389 48.6184 242.813C44.5019 244.199 40.4733 245.838 36.5404 247.68C32.5756 249.537 28.7092 251.594 24.9253 253.795C21.0643 256.041 17.2884 258.433 13.5764 260.918C9.79248 263.451 6.07246 266.08 2.38438 268.752C1.92403 269.087 1.46104 269.422 1.0007 269.758C0.710653 269.971 0.25828 269.808 0.0906396 269.518C-0.106271 269.18 0.0374271 268.821 0.330132 268.608C4.03684 265.905 7.77281 263.241 11.57 260.665C15.3672 258.09 19.0446 255.727 22.895 253.441C26.6789 251.195 30.5479 249.085 34.5127 247.174C38.4749 245.264 42.5328 243.545 46.6813 242.076C50.8882 240.586 55.1857 239.356 59.5496 238.42C60.0925 238.303 60.638 238.191 61.1834 238.084C61.5347 238.015 61.9019 238.186 62.003 238.55C62.0935 238.877 61.8913 239.298 61.5373 239.37H61.5347Z" stroke="black" stroke-width="1.65852" stroke-linejoin="round" mask="url(#path-42-outside-18_0_1)"/>
<mask id="path-43-outside-19_0_1" maskUnits="userSpaceOnUse" x="144.516" y="262.186" width="85" height="65" fill="black">
<rect fill="white" x="144.516" y="262.186" width="85" height="65"/>
<path d="M146.435 263.199C152.88 264.306 159.056 266.629 164.865 269.598C170.759 272.613 176.294 276.291 181.616 280.218C186.999 284.191 192.251 288.371 197.336 292.714C202.661 297.262 207.783 302.049 212.685 307.051C217.586 312.054 222.264 317.275 226.7 322.695C227.246 323.363 227.788 324.033 228.329 324.707C228.552 324.986 228.603 325.375 228.329 325.649C228.097 325.88 227.613 325.931 227.387 325.649C223.023 320.202 218.422 314.946 213.595 309.906C208.768 304.867 203.717 300.04 198.465 295.447C193.454 291.067 188.255 286.884 182.946 282.868C177.637 278.853 172.289 275.152 166.528 271.988C160.839 268.864 154.796 266.328 148.436 264.942C147.654 264.771 146.869 264.62 146.079 264.484C145.725 264.423 145.525 263.986 145.613 263.664C145.717 263.289 146.076 263.138 146.432 263.199H146.435Z"/>
</mask>
<path d="M146.435 263.199C152.88 264.306 159.056 266.629 164.865 269.598C170.759 272.613 176.294 276.291 181.616 280.218C186.999 284.191 192.251 288.371 197.336 292.714C202.661 297.262 207.783 302.049 212.685 307.051C217.586 312.054 222.264 317.275 226.7 322.695C227.246 323.363 227.788 324.033 228.329 324.707C228.552 324.986 228.603 325.375 228.329 325.649C228.097 325.88 227.613 325.931 227.387 325.649C223.023 320.202 218.422 314.946 213.595 309.906C208.768 304.867 203.717 300.04 198.465 295.447C193.454 291.067 188.255 286.884 182.946 282.868C177.637 278.853 172.289 275.152 166.528 271.988C160.839 268.864 154.796 266.328 148.436 264.942C147.654 264.771 146.869 264.62 146.079 264.484C145.725 264.423 145.525 263.986 145.613 263.664C145.717 263.289 146.076 263.138 146.432 263.199H146.435Z" fill="black"/>
<path d="M146.435 263.199C152.88 264.306 159.056 266.629 164.865 269.598C170.759 272.613 176.294 276.291 181.616 280.218C186.999 284.191 192.251 288.371 197.336 292.714C202.661 297.262 207.783 302.049 212.685 307.051C217.586 312.054 222.264 317.275 226.7 322.695C227.246 323.363 227.788 324.033 228.329 324.707C228.552 324.986 228.603 325.375 228.329 325.649C228.097 325.88 227.613 325.931 227.387 325.649C223.023 320.202 218.422 314.946 213.595 309.906C208.768 304.867 203.717 300.04 198.465 295.447C193.454 291.067 188.255 286.884 182.946 282.868C177.637 278.853 172.289 275.152 166.528 271.988C160.839 268.864 154.796 266.328 148.436 264.942C147.654 264.771 146.869 264.62 146.079 264.484C145.725 264.423 145.525 263.986 145.613 263.664C145.717 263.289 146.076 263.138 146.432 263.199H146.435Z" stroke="black" stroke-width="1.65852" stroke-linejoin="round" mask="url(#path-43-outside-19_0_1)"/>
<mask id="path-44-outside-20_0_1" maskUnits="userSpaceOnUse" x="141.219" y="268.318" width="19" height="69" fill="black">
<rect fill="white" x="141.219" y="268.318" width="19" height="69"/>
<path d="M144.184 269.785C145.437 273.933 146.638 278.097 147.779 282.278C148.937 286.517 150.038 290.772 151.084 295.04C152.13 299.308 153.117 303.576 154.051 307.863C154.985 312.15 155.858 316.426 156.677 320.726C157.489 324.989 158.247 329.262 158.947 333.546C159.035 334.087 159.123 334.624 159.208 335.164C159.264 335.518 159.117 335.88 158.742 335.984C158.426 336.072 157.981 335.875 157.923 335.518C157.239 331.239 156.496 326.969 155.698 322.708C154.889 318.39 154.024 314.082 153.101 309.784C152.178 305.487 151.206 301.216 150.177 296.953C149.147 292.69 148.066 288.459 146.928 284.234C145.789 280.008 144.613 275.868 143.37 271.709C143.213 271.184 143.056 270.663 142.899 270.139C142.651 269.316 143.934 268.965 144.181 269.785H144.184Z"/>
</mask>
<path d="M144.184 269.785C145.437 273.933 146.638 278.097 147.779 282.278C148.937 286.517 150.038 290.772 151.084 295.04C152.13 299.308 153.117 303.576 154.051 307.863C154.985 312.15 155.858 316.426 156.677 320.726C157.489 324.989 158.247 329.262 158.947 333.546C159.035 334.087 159.123 334.624 159.208 335.164C159.264 335.518 159.117 335.88 158.742 335.984C158.426 336.072 157.981 335.875 157.923 335.518C157.239 331.239 156.496 326.969 155.698 322.708C154.889 318.39 154.024 314.082 153.101 309.784C152.178 305.487 151.206 301.216 150.177 296.953C149.147 292.69 148.066 288.459 146.928 284.234C145.789 280.008 144.613 275.868 143.37 271.709C143.213 271.184 143.056 270.663 142.899 270.139C142.651 269.316 143.934 268.965 144.181 269.785H144.184Z" fill="black"/>
<path d="M144.184 269.785C145.437 273.933 146.638 278.097 147.779 282.278C148.937 286.517 150.038 290.772 151.084 295.04C152.13 299.308 153.117 303.576 154.051 307.863C154.985 312.15 155.858 316.426 156.677 320.726C157.489 324.989 158.247 329.262 158.947 333.546C159.035 334.087 159.123 334.624 159.208 335.164C159.264 335.518 159.117 335.88 158.742 335.984C158.426 336.072 157.981 335.875 157.923 335.518C157.239 331.239 156.496 326.969 155.698 322.708C154.889 318.39 154.024 314.082 153.101 309.784C152.178 305.487 151.206 301.216 150.177 296.953C149.147 292.69 148.066 288.459 146.928 284.234C145.789 280.008 144.613 275.868 143.37 271.709C143.213 271.184 143.056 270.663 142.899 270.139C142.651 269.316 143.934 268.965 144.181 269.785H144.184Z" stroke="black" stroke-width="1.65852" stroke-linejoin="round" mask="url(#path-44-outside-20_0_1)"/>
<mask id="path-45-outside-21_0_1" maskUnits="userSpaceOnUse" x="83.2297" y="258.083" width="77" height="79" fill="black">
<rect fill="white" x="83.2297" y="258.083" width="77" height="79"/>
<path d="M85.5542 259.269C91.1502 263.641 96.6637 268.122 102.055 272.741C107.212 277.155 112.257 281.7 117.166 286.389C122.076 291.078 126.762 295.825 131.339 300.758C135.937 305.716 140.378 310.817 144.659 316.048C149.135 321.516 153.44 327.126 157.584 332.852C158.102 333.57 158.621 334.289 159.135 335.01C159.342 335.303 159.185 335.75 158.895 335.92C158.56 336.114 158.196 335.976 157.985 335.68C153.882 329.935 149.627 324.3 145.191 318.805C140.934 313.528 136.517 308.382 131.94 303.379C127.363 298.377 122.73 293.624 117.911 288.957C113.047 284.25 108.047 279.689 102.933 275.256C97.8186 270.822 92.2066 266.203 86.6985 261.855C86.004 261.307 85.3068 260.759 84.6069 260.213C84.3249 259.992 84.3754 259.505 84.6069 259.271C84.8863 258.992 85.2642 259.05 85.5489 259.271L85.5542 259.269Z"/>
</mask>
<path d="M85.5542 259.269C91.1502 263.641 96.6637 268.122 102.055 272.741C107.212 277.155 112.257 281.7 117.166 286.389C122.076 291.078 126.762 295.825 131.339 300.758C135.937 305.716 140.378 310.817 144.659 316.048C149.135 321.516 153.44 327.126 157.584 332.852C158.102 333.57 158.621 334.289 159.135 335.01C159.342 335.303 159.185 335.75 158.895 335.92C158.56 336.114 158.196 335.976 157.985 335.68C153.882 329.935 149.627 324.3 145.191 318.805C140.934 313.528 136.517 308.382 131.94 303.379C127.363 298.377 122.73 293.624 117.911 288.957C113.047 284.25 108.047 279.689 102.933 275.256C97.8186 270.822 92.2066 266.203 86.6985 261.855C86.004 261.307 85.3068 260.759 84.6069 260.213C84.3249 259.992 84.3754 259.505 84.6069 259.271C84.8863 258.992 85.2642 259.05 85.5489 259.271L85.5542 259.269Z" fill="black"/>
<path d="M85.5542 259.269C91.1502 263.641 96.6637 268.122 102.055 272.741C107.212 277.155 112.257 281.7 117.166 286.389C122.076 291.078 126.762 295.825 131.339 300.758C135.937 305.716 140.378 310.817 144.659 316.048C149.135 321.516 153.44 327.126 157.584 332.852C158.102 333.57 158.621 334.289 159.135 335.01C159.342 335.303 159.185 335.75 158.895 335.92C158.56 336.114 158.196 335.976 157.985 335.68C153.882 329.935 149.627 324.3 145.191 318.805C140.934 313.528 136.517 308.382 131.94 303.379C127.363 298.377 122.73 293.624 117.911 288.957C113.047 284.25 108.047 279.689 102.933 275.256C97.8186 270.822 92.2066 266.203 86.6985 261.855C86.004 261.307 85.3068 260.759 84.6069 260.213C84.3249 259.992 84.3754 259.505 84.6069 259.271C84.8863 258.992 85.2642 259.05 85.5489 259.271L85.5542 259.269Z" stroke="black" stroke-width="1.65852" stroke-linejoin="round" mask="url(#path-45-outside-21_0_1)"/>
<mask id="path-46-outside-22_0_1" maskUnits="userSpaceOnUse" x="66.325" y="1" width="174" height="110" fill="black">
<rect fill="white" x="66.325" y="1" width="174" height="110"/>
<path d="M224.965 90.9444C232.075 85.2447 236.54 76.8521 237.69 67.8394C238.397 62.2993 237.783 56.7113 236.694 51.2617C235.662 46.0861 234.366 40.9026 232.368 36.0064C228.757 27.1721 222.275 19.8757 213.704 15.5916C209.145 13.3138 204.263 12.441 199.372 11.1904C196.804 10.5331 194.369 9.61777 191.972 8.49219C189.574 7.36661 187.123 6.15853 184.537 5.35493C179.471 3.7823 174.141 3.36986 168.861 3.32994C163.601 3.29003 158.287 3.42041 153.042 3.82754C147.704 4.24265 142.481 5.25381 137.635 7.59545C135.293 8.72635 133.005 9.98764 130.525 10.7966C128.045 11.6055 125.549 11.9727 123.016 12.2947C118.109 12.9147 113.287 13.4762 108.764 15.6129C104.802 17.4862 101.199 20.227 98.551 23.7421C95.6559 27.5845 94.4718 32.1347 92.9337 36.6105C92.1674 38.843 91.2786 41.0649 89.9854 43.05C88.7933 44.878 87.2765 46.4587 85.7172 47.9754C82.4203 51.1818 79.0968 54.218 78.0457 58.8853C77.4869 61.3706 77.423 63.9305 77.1091 66.4504C76.803 68.9171 76.2017 71.2295 75.116 73.47C74.0303 75.7105 72.6333 77.9058 71.6035 80.2368C70.5737 82.5678 69.8553 84.8908 69.3577 87.3176C68.3678 92.1419 68.4078 97.187 69.5307 101.985C70.0841 104.358 70.8984 106.657 71.9628 108.847C72.3353 109.614 71.1884 110.29 70.8132 109.518C66.4333 100.481 66.2231 89.771 70.0549 80.5029C71.0288 78.1479 72.3247 75.9766 73.5035 73.7228C74.7834 71.2694 75.5205 68.7628 75.8318 66.0167C76.1218 63.4728 76.2123 60.8917 76.7951 58.3904C77.3219 56.1339 78.3278 54.1036 79.7461 52.2782C82.5294 48.6965 86.449 46.1047 88.913 42.2597C91.6405 38.0048 92.4601 32.8958 94.4132 28.2977C97.9523 19.9769 105.839 14.2079 114.541 12.2202C119.897 10.9961 125.536 11.1744 130.751 9.31708C133.338 8.39639 135.711 6.98609 138.21 5.86583C140.708 4.74557 143.204 3.9872 145.825 3.45767C151.094 2.39329 156.491 2.2629 161.847 2.10856C167.249 1.95157 172.677 1.8611 178.047 2.59552C180.711 2.96007 183.35 3.52951 185.897 4.40231C188.443 5.2751 190.875 6.53905 193.342 7.66995C198.411 9.99563 203.922 10.5571 209.175 12.2947C217.908 15.1845 225.553 21.2169 230.361 29.0613C233.174 33.6462 235.005 38.7712 236.372 43.952C237.74 49.1329 238.98 54.9551 239.27 60.5644C239.762 70.1438 236.942 79.803 230.726 87.1952C229.278 88.9168 227.66 90.4814 225.907 91.8864C225.244 92.416 224.297 91.482 224.965 90.9444V90.9444Z"/>
</mask>
<path d="M224.965 90.9444C232.075 85.2447 236.54 76.8521 237.69 67.8394C238.397 62.2993 237.783 56.7113 236.694 51.2617C235.662 46.0861 234.366 40.9026 232.368 36.0064C228.757 27.1721 222.275 19.8757 213.704 15.5916C209.145 13.3138 204.263 12.441 199.372 11.1904C196.804 10.5331 194.369 9.61777 191.972 8.49219C189.574 7.36661 187.123 6.15853 184.537 5.35493C179.471 3.7823 174.141 3.36986 168.861 3.32994C163.601 3.29003 158.287 3.42041 153.042 3.82754C147.704 4.24265 142.481 5.25381 137.635 7.59545C135.293 8.72635 133.005 9.98764 130.525 10.7966C128.045 11.6055 125.549 11.9727 123.016 12.2947C118.109 12.9147 113.287 13.4762 108.764 15.6129C104.802 17.4862 101.199 20.227 98.551 23.7421C95.6559 27.5845 94.4718 32.1347 92.9337 36.6105C92.1674 38.843 91.2786 41.0649 89.9854 43.05C88.7933 44.878 87.2765 46.4587 85.7172 47.9754C82.4203 51.1818 79.0968 54.218 78.0457 58.8853C77.4869 61.3706 77.423 63.9305 77.1091 66.4504C76.803 68.9171 76.2017 71.2295 75.116 73.47C74.0303 75.7105 72.6333 77.9058 71.6035 80.2368C70.5737 82.5678 69.8553 84.8908 69.3577 87.3176C68.3678 92.1419 68.4078 97.187 69.5307 101.985C70.0841 104.358 70.8984 106.657 71.9628 108.847C72.3353 109.614 71.1884 110.29 70.8132 109.518C66.4333 100.481 66.2231 89.771 70.0549 80.5029C71.0288 78.1479 72.3247 75.9766 73.5035 73.7228C74.7834 71.2694 75.5205 68.7628 75.8318 66.0167C76.1218 63.4728 76.2123 60.8917 76.7951 58.3904C77.3219 56.1339 78.3278 54.1036 79.7461 52.2782C82.5294 48.6965 86.449 46.1047 88.913 42.2597C91.6405 38.0048 92.4601 32.8958 94.4132 28.2977C97.9523 19.9769 105.839 14.2079 114.541 12.2202C119.897 10.9961 125.536 11.1744 130.751 9.31708C133.338 8.39639 135.711 6.98609 138.21 5.86583C140.708 4.74557 143.204 3.9872 145.825 3.45767C151.094 2.39329 156.491 2.2629 161.847 2.10856C167.249 1.95157 172.677 1.8611 178.047 2.59552C180.711 2.96007 183.35 3.52951 185.897 4.40231C188.443 5.2751 190.875 6.53905 193.342 7.66995C198.411 9.99563 203.922 10.5571 209.175 12.2947C217.908 15.1845 225.553 21.2169 230.361 29.0613C233.174 33.6462 235.005 38.7712 236.372 43.952C237.74 49.1329 238.98 54.9551 239.27 60.5644C239.762 70.1438 236.942 79.803 230.726 87.1952C229.278 88.9168 227.66 90.4814 225.907 91.8864C225.244 92.416 224.297 91.482 224.965 90.9444V90.9444Z" fill="black"/>
<path d="M224.965 90.9444C232.075 85.2447 236.54 76.8521 237.69 67.8394C238.397 62.2993 237.783 56.7113 236.694 51.2617C235.662 46.0861 234.366 40.9026 232.368 36.0064C228.757 27.1721 222.275 19.8757 213.704 15.5916C209.145 13.3138 204.263 12.441 199.372 11.1904C196.804 10.5331 194.369 9.61777 191.972 8.49219C189.574 7.36661 187.123 6.15853 184.537 5.35493C179.471 3.7823 174.141 3.36986 168.861 3.32994C163.601 3.29003 158.287 3.42041 153.042 3.82754C147.704 4.24265 142.481 5.25381 137.635 7.59545C135.293 8.72635 133.005 9.98764 130.525 10.7966C128.045 11.6055 125.549 11.9727 123.016 12.2947C118.109 12.9147 113.287 13.4762 108.764 15.6129C104.802 17.4862 101.199 20.227 98.551 23.7421C95.6559 27.5845 94.4718 32.1347 92.9337 36.6105C92.1674 38.843 91.2786 41.0649 89.9854 43.05C88.7933 44.878 87.2765 46.4587 85.7172 47.9754C82.4203 51.1818 79.0968 54.218 78.0457 58.8853C77.4869 61.3706 77.423 63.9305 77.1091 66.4504C76.803 68.9171 76.2017 71.2295 75.116 73.47C74.0303 75.7105 72.6333 77.9058 71.6035 80.2368C70.5737 82.5678 69.8553 84.8908 69.3577 87.3176C68.3678 92.1419 68.4078 97.187 69.5307 101.985C70.0841 104.358 70.8984 106.657 71.9628 108.847C72.3353 109.614 71.1884 110.29 70.8132 109.518C66.4333 100.481 66.2231 89.771 70.0549 80.5029C71.0288 78.1479 72.3247 75.9766 73.5035 73.7228C74.7834 71.2694 75.5205 68.7628 75.8318 66.0167C76.1218 63.4728 76.2123 60.8917 76.7951 58.3904C77.3219 56.1339 78.3278 54.1036 79.7461 52.2782C82.5294 48.6965 86.449 46.1047 88.913 42.2597C91.6405 38.0048 92.4601 32.8958 94.4132 28.2977C97.9523 19.9769 105.839 14.2079 114.541 12.2202C119.897 10.9961 125.536 11.1744 130.751 9.31708C133.338 8.39639 135.711 6.98609 138.21 5.86583C140.708 4.74557 143.204 3.9872 145.825 3.45767C151.094 2.39329 156.491 2.2629 161.847 2.10856C167.249 1.95157 172.677 1.8611 178.047 2.59552C180.711 2.96007 183.35 3.52951 185.897 4.40231C188.443 5.2751 190.875 6.53905 193.342 7.66995C198.411 9.99563 203.922 10.5571 209.175 12.2947C217.908 15.1845 225.553 21.2169 230.361 29.0613C233.174 33.6462 235.005 38.7712 236.372 43.952C237.74 49.1329 238.98 54.9551 239.27 60.5644C239.762 70.1438 236.942 79.803 230.726 87.1952C229.278 88.9168 227.66 90.4814 225.907 91.8864C225.244 92.416 224.297 91.482 224.965 90.9444V90.9444Z" stroke="black" stroke-width="1.65852" stroke-linejoin="round" mask="url(#path-46-outside-22_0_1)"/>
<path d="M244.935 152.575H267.981V175.622H244.935V152.575Z" fill="#9DB9E2"/>
<path d="M219.392 152.575H242.438V175.622H219.392V152.575Z" fill="#9DB9E2"/>
<path d="M244.935 178.017H267.981V201.063H244.935V178.017Z" fill="#9DB9E2"/>
<path d="M219.392 178.017H242.438V201.063H219.392V178.017Z" fill="#9DB9E2"/>
<path d="M67.9539 89.837C67.0325 99.9724 69.8734 106.345 71.4091 108.265C71.4091 107.881 73.2519 106.653 80.6232 104.81C87.9944 102.967 97.5155 114.024 101.355 119.782L103.658 120.934C105.501 116.327 104.426 110.568 103.658 108.265C105.578 107.881 110.338 105.27 114.024 97.8992C117.71 90.528 116.327 82.5425 115.176 79.4712L117.479 76.0159L122.086 74.8642C125.158 73.7124 131.991 70.7179 134.755 67.9537C137.52 65.1895 139.746 61.4271 140.514 59.8914L143.97 56.4361C144.737 56.0522 146.964 55.9754 149.728 58.7397C152.492 61.5039 165.469 62.1949 171.612 62.1949C175.067 61.811 182.899 60.5825 186.584 58.7397C190.27 56.8969 195.03 57.9718 196.95 58.7397C198.87 60.6592 203.861 65.4198 208.468 69.1054C213.075 72.791 222.673 72.9446 226.896 72.5607L225.744 89.837H228.047L234.958 80.6229L238.413 66.8019C239.335 63.1163 238.029 56.0522 237.261 52.9809C236.34 40.0813 229.967 29.178 226.896 25.3389C223.44 21.8836 215.378 14.7427 210.771 13.8213C206.164 12.8999 195.798 9.59824 191.191 8.06258C190.807 6.91083 187.966 4.37698 179.674 3.45558C171.381 2.53418 151.648 3.8395 142.818 4.60733C140.054 6.45014 131.684 9.98218 127.845 11.5178C124.774 11.9018 116.788 13.1303 109.417 14.9731C102.046 16.8159 96.3638 25.7228 94.4442 29.9459C89.8372 44.6883 86.3819 48.3739 85.2302 48.3739C79.7018 50.2167 77.5518 56.0522 77.1679 58.7397C77.1679 62.1949 76.4769 70.2572 73.7126 74.8642C70.9484 79.4712 68.7217 86.7656 67.9539 89.837Z" fill="black"/>
</g>
</g>
<defs>
<filter id="filter0_d_0_1" x="85.5337" y="47.4173" width="346.425" height="259.237" filterUnits="userSpaceOnUse" color-interpolation-filters="sRGB">
<feFlood flood-opacity="0" result="BackgroundImageFix"/>
<feColorMatrix in="SourceAlpha" type="matrix" values="0 0 0 0 0 0 0 0 0 0 0 0 0 0 0 0 0 0 127 0" result="hardAlpha"/>
<feOffset/>
<feGaussianBlur stdDeviation="16.306"/>
<feComposite in2="hardAlpha" operator="out"/>
<feColorMatrix type="matrix" values="0 0 0 0 0 0 0 0 0 0 0 0 0 0 0 0 0 0 0.25 0"/>
<feBlend mode="normal" in2="BackgroundImageFix" result="effect1_dropShadow_0_1"/>
<feBlend mode="normal" in="SourceGraphic" in2="effect1_dropShadow_0_1" result="shape"/>
</filter>
<clipPath id="clip0_0_1">
<rect width="1440" height="6653" fill="white" transform="translate(-207 -2150)"/>
</clipPath>
<clipPath id="clip1_0_1">
<rect width="399.497" height="336.311" fill="white" transform="matrix(-1 0 0 1 399.497 2)"/>
</clipPath>
</defs>
</svg>
