<svg width="412" height="363" viewBox="0 0 412 363" fill="none" xmlns="http://www.w3.org/2000/svg">
<g clip-path="url(#clip0_289_1302)">
<g filter="url(#filter0_d_289_1302)">
<path d="M327.619 0H138.836C132.463 0.0178319 127.299 5.18196 127.281 11.5551V351.157C127.299 357.53 132.463 362.694 138.836 362.712H370.027C376.4 362.694 381.564 357.53 381.582 351.157V53.963L327.619 0Z" fill="#E9EEF9"/>
</g>
<path d="M327.618 42.4079C327.636 48.781 332.8 53.9451 339.173 53.963H381.581L327.618 0V42.4079Z" fill="#CFD2EB"/>
<path d="M156.05 53.9629H286.9" stroke="#5D62AA" stroke-width="1.06992" stroke-linecap="round" stroke-linejoin="round"/>
<path d="M198.423 74.334H153.337V93.5925H198.423V74.334Z" fill="#DDE1F3"/>
<path d="M355.525 74.334H211.376V93.5925H355.525V74.334Z" fill="#DDE1F3"/>
<path d="M198.423 105.145H153.337V124.403H198.423V105.145Z" fill="#DDE1F3"/>
<path d="M355.525 105.145H211.376V124.403H355.525V105.145Z" fill="#DDE1F3"/>
<path d="M198.423 135.958H153.337V155.216H198.423V135.958Z" fill="#DDE1F3"/>
<path d="M355.525 135.958H211.376V155.216H355.525V135.958Z" fill="#DDE1F3"/>
<path d="M198.423 166.768H153.337V186.026H198.423V166.768Z" fill="#DDE1F3"/>
<path d="M355.525 166.768H211.376V186.026H355.525V166.768Z" fill="#DDE1F3"/>
<path d="M198.423 197.581H153.337V216.84H198.423V197.581Z" fill="#DDE1F3"/>
<path d="M355.525 197.581H211.376V216.84H355.525V197.581Z" fill="#DDE1F3"/>
<path d="M198.423 228.392H153.337V247.65H198.423V228.392Z" fill="#DDE1F3"/>
<path d="M355.526 228.392H211.376V247.65H355.526V228.392Z" fill="#DDE1F3"/>
<path d="M198.423 259.205H153.337V278.464H198.423V259.205Z" fill="#DDE1F3"/>
<path d="M355.525 259.205H211.376V278.464H355.525V259.205Z" fill="#DDE1F3"/>
<path d="M355.525 320.825H265.58V346.689H355.525V320.825Z" fill="#F7F6FB"/>
<path d="M198.423 290.015H153.337V309.273H198.423V290.015Z" fill="#CFD2EB"/>
<path d="M355.525 290.015H211.376V309.273H355.525V290.015Z" fill="#CFD2EB"/>
<path d="M269.433 331.495C281.312 320.629 290.478 326.913 283.859 340.404C291.498 332.765 299.305 337.647 297.989 340.404C305.414 331.324 315.282 334.837 313.392 340.404C311.865 344.901 332.868 341 351.153 318.168C356.734 311.199 349.798 308.239 346.488 318.339C344.273 325.094 342.836 342.947 352.426 352.537" stroke="#434697" stroke-width="0.713277" stroke-linecap="round" stroke-linejoin="round"/>
<path d="M191.999 241.904C227.559 241.904 256.387 213.077 256.387 177.516C256.387 141.956 227.559 113.129 191.999 113.129C156.439 113.129 127.612 141.956 127.612 177.516C127.612 213.077 156.439 241.904 191.999 241.904Z" fill="#E9EEF9"/>
<path d="M136.739 150.259C136.739 150.259 180.153 125.223 235.788 142.156C249.961 146.472 249.469 155.213 249.469 155.213C249.469 155.213 256.138 173.444 252.451 189.368C252.451 189.368 198.691 165.905 130.68 183.527C130.68 183.527 128.808 165.909 136.739 150.256V150.259Z" fill="#DDE1F3"/>
<path d="M131.966 192.406C131.966 192.406 213.404 195.58 250.677 196.254C250.677 196.254 249.435 202.175 241.497 214.2C241.497 214.2 185.804 226.091 139.976 210.688C139.976 210.688 135.436 204.186 131.966 192.406Z" fill="#DDE1F3"/>
<path d="M154.895 128.315C154.895 128.315 173.936 121.353 188.155 122.184C202.374 123.015 216.365 121.435 234.839 133.201C234.839 133.201 216.455 115.536 193.123 115.893C169.792 116.25 160.148 125.062 154.892 128.318L154.895 128.315Z" fill="#DDE1F3"/>
<path d="M144.543 216.836C144.543 216.836 169.796 227.656 187.054 227.517C204.312 227.378 222.921 226.526 235.842 220.809C235.842 220.809 218.734 239.992 190.192 239.14C161.651 238.288 144.543 216.836 144.543 216.836V216.836Z" fill="#DDE1F3"/>
<g filter="url(#filter1_d_289_1302)">
<path fill-rule="evenodd" clip-rule="evenodd" d="M250.728 137.484C250.92 137.72 251.095 137.987 251.241 138.255C261.987 154.467 265.225 173.48 261.748 191.173C258.271 208.862 248.085 225.257 232.001 236.209C231.765 236.402 231.498 236.576 231.23 236.723C215.018 247.468 195.991 250.696 178.312 247.229C161.907 244.009 146.636 235.036 135.773 220.938L38.3353 286.388C36.1634 287.84 33.2354 287.255 31.7982 285.093C30.3466 282.921 30.9315 279.993 33.0928 278.556L130.534 213.106C121.6 197.728 119.06 180.199 122.27 163.804C125.776 145.958 136.086 129.46 152.395 118.504C168.694 107.562 187.874 104.249 205.702 107.744C223.381 111.211 239.775 121.396 250.728 137.481V137.484ZM252.447 189.368C255.489 173.886 252.643 157.246 243.153 143.141L243.139 143.13C233.659 129.011 219.347 120.084 203.876 117.052C188.395 114.01 171.743 116.871 157.649 126.346L157.638 126.361C143.519 135.84 134.592 150.152 131.55 165.637C128.508 181.119 131.368 197.77 140.847 211.89C150.327 226.009 164.639 234.936 180.124 237.978C195.606 241.02 212.257 238.16 226.362 228.67C240.474 219.144 249.415 204.839 252.447 189.368V189.368Z" fill="#292458"/>
</g>
<path opacity="0.74" fill-rule="evenodd" clip-rule="evenodd" d="M136.453 166.85C134.602 176.536 135.262 186.686 138.621 196.255C138.453 191.426 138.839 186.597 139.748 181.865C142.862 165.598 152.173 150.52 166.945 140.48C181.728 130.452 199.185 127.37 215.455 130.484C220.059 131.361 224.582 132.745 228.918 134.61C221.308 128.059 212.21 123.765 202.641 121.935C188.415 119.214 173.154 121.903 160.241 130.669C147.327 139.435 139.177 152.624 136.453 166.85V166.85Z" fill="white"/>
</g>
<defs>
<filter id="filter0_d_289_1302" x="101.399" y="-25.8817" width="306.065" height="414.475" filterUnits="userSpaceOnUse" color-interpolation-filters="sRGB">
<feFlood flood-opacity="0" result="BackgroundImageFix"/>
<feColorMatrix in="SourceAlpha" type="matrix" values="0 0 0 0 0 0 0 0 0 0 0 0 0 0 0 0 0 0 127 0" result="hardAlpha"/>
<feOffset/>
<feGaussianBlur stdDeviation="12.9408"/>
<feComposite in2="hardAlpha" operator="out"/>
<feColorMatrix type="matrix" values="0 0 0 0 0 0 0 0 0 0 0 0 0 0 0 0 0 0 0.25 0"/>
<feBlend mode="normal" in2="BackgroundImageFix" result="effect1_dropShadow_289_1302"/>
<feBlend mode="normal" in="SourceGraphic" in2="effect1_dropShadow_289_1302" result="shape"/>
</filter>
<filter id="filter1_d_289_1302" x="5.11831" y="80.5304" width="283.848" height="232.538" filterUnits="userSpaceOnUse" color-interpolation-filters="sRGB">
<feFlood flood-opacity="0" result="BackgroundImageFix"/>
<feColorMatrix in="SourceAlpha" type="matrix" values="0 0 0 0 0 0 0 0 0 0 0 0 0 0 0 0 0 0 127 0" result="hardAlpha"/>
<feOffset/>
<feGaussianBlur stdDeviation="12.9408"/>
<feComposite in2="hardAlpha" operator="out"/>
<feColorMatrix type="matrix" values="0 0 0 0 0 0 0 0 0 0 0 0 0 0 0 0 0 0 0.25 0"/>
<feBlend mode="normal" in2="BackgroundImageFix" result="effect1_dropShadow_289_1302"/>
<feBlend mode="normal" in="SourceGraphic" in2="effect1_dropShadow_289_1302" result="shape"/>
</filter>
<clipPath id="clip0_289_1302">
<rect width="411.727" height="362.809" fill="white"/>
</clipPath>
</defs>
</svg>
