<svg width="382" height="413" viewBox="0 0 382 413" fill="none" xmlns="http://www.w3.org/2000/svg">
<ellipse cx="194.653" cy="206.452" rx="186.5" ry="206.452" fill="#F0F0F0"/>
<path d="M97.8359 244.81C138.361 244.81 171.213 208.443 171.213 163.583C171.213 118.722 138.361 82.3555 97.8359 82.3555C57.3109 82.3555 24.4589 118.722 24.4589 163.583C24.4589 208.443 57.3109 244.81 97.8359 244.81Z" fill="#55A6DD"/>
<path d="M293.508 301.218C334.033 301.218 366.885 264.851 366.885 219.991C366.885 175.13 334.033 138.764 293.508 138.764C252.983 138.764 220.131 175.13 220.131 219.991C220.131 264.851 252.983 301.218 293.508 301.218Z" fill="#4DB26E"/>
<g filter="url(#filter0_d_289_1078)">
<path d="M41.7844 215.478L48.9183 153.429C50.2672 141.697 55.5949 138.763 58.0902 138.763L84.5875 142.148L122.295 144.404C133.505 141.772 158.78 136.281 170.194 135.379C181.608 134.476 193.294 143.276 197.71 147.789H204.844H318.986C326.324 147.789 332.914 151.549 335.292 153.429C337.67 169.976 342.222 206.227 341.407 218.862C340.592 231.498 334.953 235.409 332.235 235.785L291.47 242.554L279.24 256.091H270.068V259.476C269.049 262.86 266.603 270.306 264.973 273.014C263.342 275.721 254.781 274.142 250.705 273.014C250.705 276.398 249.89 283.844 246.628 286.552C243.367 289.259 235.078 287.68 231.342 286.552C231.342 291.064 229.915 300.315 224.208 301.218C218.501 302.12 208.921 298.585 204.844 296.705C200.088 299.713 189.354 305.279 184.462 303.474C179.57 301.669 181.065 293.696 182.424 289.936C177.328 293.32 166.321 298.961 163.06 294.449C159.799 289.936 159.663 285.047 160.003 283.167L147.773 289.936C145.056 289.184 139.009 286.777 136.563 283.167C134.117 279.557 137.582 272.638 139.62 269.629C134.864 271.509 124.741 274.819 122.295 273.014C119.849 271.209 117.879 263.236 117.199 259.476C101.573 254.587 67.0587 243.456 54.0139 238.041C40.9691 232.626 40.4255 220.743 41.7844 215.478Z" fill="white"/>
</g>
<path d="M337.33 186.146C321.024 211.416 270.748 210.965 247.647 207.581C230.526 187.725 195.672 196.299 180.385 203.068C166.525 211.191 152.189 204.948 146.754 200.812C83.9759 218.862 51.9753 197.803 43.8223 185.018L41.7841 222.247L45.8606 232.4L118.218 259.476V266.245L124.333 273.014L134.524 270.757L136.563 276.398V285.423L144.716 287.68L155.926 285.423H161.022V292.192L170.194 295.577L179.366 292.192L182.423 301.217L190.576 304.602L202.806 298.961H210.959C214.356 300.841 221.965 303.925 225.227 301.217C228.488 298.51 229.983 289.56 230.322 285.423C234.738 286.927 244.386 289.485 247.647 287.68C250.909 285.875 251.045 277.15 250.705 273.014C252.064 274.142 256.616 275.721 263.953 273.014C271.291 270.306 270.408 260.604 269.049 256.091H277.202C281.279 256.091 287.733 247.818 290.451 243.682L337.33 232.4C343.853 221.57 340.048 197.051 337.33 186.146Z" fill="#E4E4E4"/>
<mask id="path-6-outside-1_289_1078" maskUnits="userSpaceOnUse" x="37.7637" y="131.174" width="307" height="177" fill="black">
<rect fill="white" x="37.7637" y="131.174" width="307" height="177"/>
<path d="M42.5185 193.338C41.4553 202.891 40.4718 212.473 40.844 222.115C41.1098 228.631 43.4754 233.584 49.1636 236.591C53.9215 239.097 58.9186 240.542 63.8892 242.223C70.5609 244.463 77.2325 246.852 83.9042 249.122C89.5659 251.068 95.2275 252.955 100.889 254.901C106.285 256.758 111.654 258.616 117.369 260.591C117.342 261.24 117.369 262.183 117.209 263.127C116.465 268.493 118.99 272.12 122.472 275.156C122.977 275.599 123.775 275.628 124.466 275.776C127.842 276.454 130.898 275.274 133.902 273.712C134.593 273.358 135.311 273.034 136.454 272.503C136.161 274.655 136.002 276.395 135.683 278.075C135.045 281.554 135.896 284.503 138.208 286.891C138.846 287.569 139.564 288.1 140.388 288.454C146.049 290.783 151.472 290.636 156.416 286.242C156.974 285.771 157.612 285.387 158.223 285.004C158.356 284.916 158.542 285.004 158.888 285.004C158.888 285.564 158.967 286.124 158.888 286.655C158.117 292.08 161.997 295.854 165.719 297.034C168.536 297.918 171.487 297.358 174.278 296.267C176.271 295.5 178.238 294.675 180.497 293.761C180.497 294.616 180.551 295.412 180.497 296.208C180.232 299.717 181.64 302.518 184.485 304.139C187.089 305.643 189.801 305.938 192.724 305.378C197.03 304.552 200.778 302.429 204.287 299.746C205.324 298.95 205.988 299.068 207.104 299.599C211.065 301.427 214.972 303.638 219.491 303.373C225.525 303.048 230.043 298.98 231.346 292.493C231.665 290.989 231.877 289.427 232.196 287.569C233.393 287.835 234.535 288.188 235.732 288.365C237.911 288.69 240.117 289.22 242.27 289.073C248.145 288.66 251.441 283.265 252.265 278.842C252.557 277.25 252.504 275.569 252.637 273.653C254.364 273.948 256.092 274.242 257.793 274.478C261.461 275.009 264.943 274.626 267.548 271.323C270.127 268.051 271.881 264.395 270.871 259.795C270.738 259.176 270.871 258.468 270.871 257.466C271.881 257.466 272.758 257.348 273.582 257.495C277.383 258.056 280.812 256.994 283.842 254.488C287.032 251.834 290.142 249.034 291.816 244.817C292.215 243.815 292.853 243.402 293.836 243.225C300.827 242.046 307.818 240.837 314.782 239.54C320.257 238.537 325.759 237.446 331.208 236.267C333.627 235.736 335.913 234.734 337.986 233.083C341.256 230.488 341.841 226.714 342.213 222.734C342.744 216.925 342.053 211.176 341.734 205.397C341.495 201.299 341.362 197.171 341.203 193.043C341.176 192.277 341.07 191.215 341.017 190.124C340.777 186.262 340.698 185.879 340.538 183.992C340.458 181.987 340.299 179.982 340.086 178.154C339.395 172.139 338.864 166.065 338.013 160.051C337.694 157.78 336.95 155.481 335.966 153.446C334.106 149.702 330.57 148.847 327.142 148.375C317.28 146.989 307.339 148.139 297.451 147.667C292.428 147.431 287.377 147.579 282.327 147.402C277.808 147.254 273.316 146.783 268.798 146.753C260.691 146.694 252.557 146.871 244.45 146.871C238.177 146.871 231.904 146.724 225.631 146.694C217.311 146.635 208.992 146.576 200.672 146.576C199.157 146.576 198.014 146.252 196.924 144.955C192.432 139.5 186.451 136.965 180.232 135.284C174.783 133.78 169.174 133.928 163.619 134.989C154.582 136.729 145.544 138.675 136.48 140.237C131.164 141.151 125.768 141.888 120.399 142.065C113.621 142.301 106.817 141.859 100.012 141.711C99.6664 141.711 99.2943 141.77 98.9487 141.741C94.3769 141.505 89.7519 141.476 85.2067 141.033C79.4919 140.473 73.7771 139.559 68.0623 138.881C64.8195 138.468 61.5501 138.144 58.2807 137.849C55.4632 137.584 53.1773 138.793 51.8217 141.535C50.0142 145.161 48.6852 148.994 48.1004 153.122C47.303 158.93 46.5322 164.768 45.7082 170.576C45.4689 172.316 45.0968 174.026 44.8044 175.766C44.6981 176.444 42.7577 191.127 42.5185 193.279V193.338ZM129.888 272.002C128.905 272.385 127.868 272.621 126.858 272.945C122.021 273.535 118.299 265.692 120.452 261.682C121.861 259.117 123.403 256.463 125.37 254.459C129.011 250.744 133.025 247.5 137.65 245.348C140.733 243.903 143.843 243.048 147.166 244.405C149.611 245.407 151.02 247.53 152.003 249.948C152.694 251.687 152.189 253.486 151.046 254.871C149.345 256.994 147.644 259.147 145.73 260.975C140.946 265.486 135.896 269.613 129.862 271.972L129.888 272.002ZM157.957 281.112C155.406 283.648 152.774 286.183 149.133 286.685C148.441 286.773 147.75 286.921 147.086 287.009C145.464 286.744 143.87 286.537 142.328 286.183C139.962 285.653 138.766 283.884 138.261 281.348C137.517 277.722 138.554 274.508 140.388 271.677C143.072 267.491 146.793 264.424 150.462 261.417C153.731 258.763 157.426 256.817 161.253 255.225C165.559 253.427 170.211 256.257 172.071 259.117C173.294 261.004 173.507 262.891 172.39 264.866C171.673 266.105 170.955 267.373 170.025 268.375C166.064 272.68 162.077 276.984 157.957 281.112ZM179.541 290.429C175.633 293.23 171.247 294.852 166.436 293.997C163.087 293.407 161.12 289.81 161.997 286.183C162.503 284.149 163.433 282.439 164.682 280.847C169.227 275.009 174.889 270.97 181.242 267.992C181.986 267.638 182.73 267.284 183.501 267.107C184.272 266.93 185.096 266.989 185.867 266.93C189.827 266.635 192.432 268.788 194.16 272.503C195.143 274.626 194.824 276.306 193.336 278.075C189.269 282.911 184.511 286.832 179.567 290.4L179.541 290.429ZM192.645 302.075C191.9 302.311 191.076 302.223 190.279 302.282L190.173 302.577C188.578 302.075 186.957 301.692 185.441 301.014C183.474 300.129 182.677 298.567 183.262 296.326C183.74 294.498 184.511 292.64 185.574 291.137C187.86 287.864 190.89 285.505 194.053 283.294C196.871 281.319 199.848 279.933 203.144 279.55C204.367 279.402 205.589 279.52 206.786 279.844C210.48 280.935 211.357 284.65 209.576 288.218C205.855 295.677 199.901 299.894 192.645 302.075ZM212.474 149.466C216.806 149.584 221.139 149.466 225.472 149.525C228.821 149.584 232.17 149.79 235.519 149.879C239.479 149.967 243.466 150.026 247.427 150.085C255.826 150.203 264.199 150.321 272.599 150.468C282.673 150.645 292.773 150.822 302.847 151.028C310.529 151.176 318.211 151.353 325.892 151.53C326.158 151.53 326.424 151.589 326.69 151.589C332.272 151.028 333.548 154.095 334.85 159.078C335.514 161.584 335.488 164.296 335.727 166.92C336.126 171.225 336.525 175.5 336.897 179.805C337.109 182.134 337.216 184.493 337.375 186.822C337.375 186.822 337.854 195.225 338.04 199.412C338.385 207.815 339.555 216.188 338.704 224.65C338.172 229.692 336.445 231.962 331.926 233.112C325.813 234.675 319.673 236.473 313.479 236.975C306.01 237.594 298.887 239.717 291.577 241.161C289.025 241.662 286.739 240.719 284.799 239.304C280.892 236.473 277.117 233.407 273.476 230.105C266.326 223.589 259.415 216.719 252.238 210.203C244.184 202.861 235.997 195.726 227.864 188.473C224.302 185.289 220.448 183.461 215.717 183.756C212.314 183.962 208.832 183.078 205.43 183.314C201.842 183.549 199.276 184.817 195.672 186.147C192.614 187.275 190.576 188.403 188.538 190.66C186.298 193.139 184.325 195.608 182.89 197.967C180.87 201.328 178.743 204.601 175.952 207.225C170.317 212.503 163.885 215.127 156.549 213.122C153.412 212.267 150.196 210.616 149.319 206.547C148.814 204.218 148.468 201.623 148.893 199.353C149.824 194.252 151.764 189.505 153.811 184.817C156.336 179.038 159.419 173.672 162.795 168.542C166.516 162.94 170.344 157.279 176.059 153.947C178.637 152.444 181.454 151.471 184.352 151.058C193.655 149.79 203.038 149.259 212.421 149.525L212.474 149.466ZM44.5652 210.616C44.645 207.579 44.9108 204.542 45.2031 201.535C46.0271 193.25 46.7714 184.935 47.8612 176.709C48.8978 168.778 50.3066 160.876 51.6356 153.004C52.0609 150.527 52.6722 148.051 53.4165 145.662C54.4797 142.183 55.5429 141.476 58.7592 141.829C67.2117 142.743 75.6377 143.893 84.1169 144.601C92.8353 145.338 101.58 145.987 110.352 145.25C111.069 145.22 111.761 145.22 112.478 145.25C122.924 145.692 133.291 144.925 143.577 142.891C150.621 141.505 157.612 139.618 164.682 138.439C171.965 137.2 179.168 137.761 186.026 141.181C188.817 142.567 191.741 143.687 194.266 146.576C191.502 146.93 189.083 147.254 186.664 147.52C183.129 147.903 179.7 148.876 176.404 150.35C172.497 152.09 169.467 155.068 166.755 158.429C161.572 164.856 157.08 171.962 153.439 179.569C150.648 185.348 147.99 191.215 146.395 197.554C145.438 201.446 145.278 205.574 147.192 209.289C147.99 210.852 149.186 212.237 150.302 213.564C151.073 214.478 154.794 216.129 155.725 216.365C164.788 218.576 172.47 215.628 179.062 208.64C182.411 205.073 184.857 200.768 187.408 196.493C188.658 194.37 189.557 192.916 191.595 191.788C193.633 190.66 195.548 189.915 196.691 189.532C201.741 187.822 205.058 186.38 210.321 186.527C212.713 186.586 215.079 186.881 217.471 186.911C220.155 186.94 222.468 188.001 224.515 189.829C227.757 192.719 230.974 195.579 234.19 198.498C239.107 202.979 243.945 207.549 248.889 212.002C252.716 215.451 256.677 218.753 260.505 222.203C263.933 225.269 267.203 228.542 270.685 231.52C274.805 235.029 279.005 238.419 283.311 241.662C284.799 242.783 286.66 243.284 288.6 244.169C287.404 246.793 285.517 248.768 283.55 250.655C279.137 254.842 274.193 255.343 268.877 253.161C262.392 250.508 256.172 247.264 250.377 242.989C245.912 239.687 241.34 236.503 236.821 233.26C236.051 232.699 235.2 232.552 234.748 233.436C234.509 233.908 234.801 234.881 235.067 235.5C235.28 235.972 235.811 236.326 236.263 236.621C241.393 240.247 246.497 243.933 251.706 247.5C254.657 249.476 257.66 251.363 260.717 253.102C262.339 254.046 264.093 254.812 265.821 255.52C267.469 256.169 268.319 257.643 268.399 259.294C268.718 266.252 266.724 269.849 260.903 271.088C258.83 271.53 256.464 270.97 254.391 270.262C251.387 269.23 248.49 267.756 245.593 266.282C240.117 263.54 234.668 260.739 229.273 257.82C226.109 256.11 223.079 254.046 219.996 252.159C219.757 252.011 219.571 251.805 219.331 251.658C218.614 251.186 217.816 250.832 217.178 251.687C216.461 252.631 217.072 253.427 217.71 253.928C219.358 255.255 220.953 256.699 222.76 257.702C229.724 261.535 236.742 265.22 243.759 268.965C244.636 269.436 245.513 269.849 246.311 270.262C246.683 271.618 252.637 273.653 246.736 283.353C243.812 286.066 240.489 286.596 237.034 285.269C232.595 283.589 228.236 281.672 223.903 279.697C218.189 277.102 212.5 274.331 206.812 271.677C206.094 271.353 205.297 271.058 204.526 271.058C204.021 271.058 203.224 271.471 203.064 271.913C202.931 272.326 203.383 273.24 203.808 273.535C205.005 274.331 206.334 274.98 207.609 275.628C213.085 278.37 218.561 281.112 224.063 283.825C225.764 284.65 227.492 285.387 229.219 286.154C229.831 291.314 226.615 297.623 222.388 299.422C221.484 299.805 220.474 300.129 219.544 300.07C215.637 299.805 212.022 298.154 207.982 296.621C208.939 295.176 209.656 293.967 210.48 292.876C212.181 290.636 213.191 288.1 213.351 285.152C213.59 280.375 209.125 276.365 204.765 276.218C203.171 276.159 202.4 276.454 201.177 276.66C200.061 276.837 198.572 277.427 196.791 278.075C197.27 277.279 197.615 276.424 197.562 275.097C197.403 271.382 196.339 268.699 193.841 266.518C192.937 265.721 192.087 264.807 191.076 264.247C190.093 263.717 188.923 263.245 187.834 263.304C183.076 263.51 181.481 264.129 177.627 265.869C177.015 266.134 176.378 266.4 175.341 266.842C176.085 264.513 176.643 262.685 176.112 260.562C175.394 257.761 174.118 255.491 172.018 253.898C170.636 252.837 169.148 251.864 167.553 251.363C163.725 250.213 156.735 252.925 154.901 254.252C155.618 251.451 155.246 248.296 153.04 245.083C149.797 240.306 145.518 239.54 140.786 240.513C136.959 241.309 133.716 243.461 130.447 245.849C124.572 250.124 122.791 252.336 120.054 256.257C119.309 257.319 118.485 257.378 117.502 257.024C114.631 255.992 111.787 254.96 108.916 253.987C104.531 252.483 100.118 251.097 95.7325 249.594C91.6923 248.178 87.7052 246.586 83.665 245.23C75.3985 242.4 67.132 239.54 58.7857 236.975C55.2505 235.884 51.928 234.498 48.7649 232.463C46.0271 230.724 44.6981 228.07 44.5652 224.798C44.3791 220.11 44.4855 215.392 44.6184 210.675L44.5652 210.616Z"/>
</mask>
<path d="M42.5185 193.338C41.4553 202.891 40.4718 212.473 40.844 222.115C41.1098 228.631 43.4754 233.584 49.1636 236.591C53.9215 239.097 58.9186 240.542 63.8892 242.223C70.5609 244.463 77.2325 246.852 83.9042 249.122C89.5659 251.068 95.2275 252.955 100.889 254.901C106.285 256.758 111.654 258.616 117.369 260.591C117.342 261.24 117.369 262.183 117.209 263.127C116.465 268.493 118.99 272.12 122.472 275.156C122.977 275.599 123.775 275.628 124.466 275.776C127.842 276.454 130.898 275.274 133.902 273.712C134.593 273.358 135.311 273.034 136.454 272.503C136.161 274.655 136.002 276.395 135.683 278.075C135.045 281.554 135.896 284.503 138.208 286.891C138.846 287.569 139.564 288.1 140.388 288.454C146.049 290.783 151.472 290.636 156.416 286.242C156.974 285.771 157.612 285.387 158.223 285.004C158.356 284.916 158.542 285.004 158.888 285.004C158.888 285.564 158.967 286.124 158.888 286.655C158.117 292.08 161.997 295.854 165.719 297.034C168.536 297.918 171.487 297.358 174.278 296.267C176.271 295.5 178.238 294.675 180.497 293.761C180.497 294.616 180.551 295.412 180.497 296.208C180.232 299.717 181.64 302.518 184.485 304.139C187.089 305.643 189.801 305.938 192.724 305.378C197.03 304.552 200.778 302.429 204.287 299.746C205.324 298.95 205.988 299.068 207.104 299.599C211.065 301.427 214.972 303.638 219.491 303.373C225.525 303.048 230.043 298.98 231.346 292.493C231.665 290.989 231.877 289.427 232.196 287.569C233.393 287.835 234.535 288.188 235.732 288.365C237.911 288.69 240.117 289.22 242.27 289.073C248.145 288.66 251.441 283.265 252.265 278.842C252.557 277.25 252.504 275.569 252.637 273.653C254.364 273.948 256.092 274.242 257.793 274.478C261.461 275.009 264.943 274.626 267.548 271.323C270.127 268.051 271.881 264.395 270.871 259.795C270.738 259.176 270.871 258.468 270.871 257.466C271.881 257.466 272.758 257.348 273.582 257.495C277.383 258.056 280.812 256.994 283.842 254.488C287.032 251.834 290.142 249.034 291.816 244.817C292.215 243.815 292.853 243.402 293.836 243.225C300.827 242.046 307.818 240.837 314.782 239.54C320.257 238.537 325.759 237.446 331.208 236.267C333.627 235.736 335.913 234.734 337.986 233.083C341.256 230.488 341.841 226.714 342.213 222.734C342.744 216.925 342.053 211.176 341.734 205.397C341.495 201.299 341.362 197.171 341.203 193.043C341.176 192.277 341.07 191.215 341.017 190.124C340.777 186.262 340.698 185.879 340.538 183.992C340.458 181.987 340.299 179.982 340.086 178.154C339.395 172.139 338.864 166.065 338.013 160.051C337.694 157.78 336.95 155.481 335.966 153.446C334.106 149.702 330.57 148.847 327.142 148.375C317.28 146.989 307.339 148.139 297.451 147.667C292.428 147.431 287.377 147.579 282.327 147.402C277.808 147.254 273.316 146.783 268.798 146.753C260.691 146.694 252.557 146.871 244.45 146.871C238.177 146.871 231.904 146.724 225.631 146.694C217.311 146.635 208.992 146.576 200.672 146.576C199.157 146.576 198.014 146.252 196.924 144.955C192.432 139.5 186.451 136.965 180.232 135.284C174.783 133.78 169.174 133.928 163.619 134.989C154.582 136.729 145.544 138.675 136.48 140.237C131.164 141.151 125.768 141.888 120.399 142.065C113.621 142.301 106.817 141.859 100.012 141.711C99.6664 141.711 99.2943 141.77 98.9487 141.741C94.3769 141.505 89.7519 141.476 85.2067 141.033C79.4919 140.473 73.7771 139.559 68.0623 138.881C64.8195 138.468 61.5501 138.144 58.2807 137.849C55.4632 137.584 53.1773 138.793 51.8217 141.535C50.0142 145.161 48.6852 148.994 48.1004 153.122C47.303 158.93 46.5322 164.768 45.7082 170.576C45.4689 172.316 45.0968 174.026 44.8044 175.766C44.6981 176.444 42.7577 191.127 42.5185 193.279V193.338ZM129.888 272.002C128.905 272.385 127.868 272.621 126.858 272.945C122.021 273.535 118.299 265.692 120.452 261.682C121.861 259.117 123.403 256.463 125.37 254.459C129.011 250.744 133.025 247.5 137.65 245.348C140.733 243.903 143.843 243.048 147.166 244.405C149.611 245.407 151.02 247.53 152.003 249.948C152.694 251.687 152.189 253.486 151.046 254.871C149.345 256.994 147.644 259.147 145.73 260.975C140.946 265.486 135.896 269.613 129.862 271.972L129.888 272.002ZM157.957 281.112C155.406 283.648 152.774 286.183 149.133 286.685C148.441 286.773 147.75 286.921 147.086 287.009C145.464 286.744 143.87 286.537 142.328 286.183C139.962 285.653 138.766 283.884 138.261 281.348C137.517 277.722 138.554 274.508 140.388 271.677C143.072 267.491 146.793 264.424 150.462 261.417C153.731 258.763 157.426 256.817 161.253 255.225C165.559 253.427 170.211 256.257 172.071 259.117C173.294 261.004 173.507 262.891 172.39 264.866C171.673 266.105 170.955 267.373 170.025 268.375C166.064 272.68 162.077 276.984 157.957 281.112ZM179.541 290.429C175.633 293.23 171.247 294.852 166.436 293.997C163.087 293.407 161.12 289.81 161.997 286.183C162.503 284.149 163.433 282.439 164.682 280.847C169.227 275.009 174.889 270.97 181.242 267.992C181.986 267.638 182.73 267.284 183.501 267.107C184.272 266.93 185.096 266.989 185.867 266.93C189.827 266.635 192.432 268.788 194.16 272.503C195.143 274.626 194.824 276.306 193.336 278.075C189.269 282.911 184.511 286.832 179.567 290.4L179.541 290.429ZM192.645 302.075C191.9 302.311 191.076 302.223 190.279 302.282L190.173 302.577C188.578 302.075 186.957 301.692 185.441 301.014C183.474 300.129 182.677 298.567 183.262 296.326C183.74 294.498 184.511 292.64 185.574 291.137C187.86 287.864 190.89 285.505 194.053 283.294C196.871 281.319 199.848 279.933 203.144 279.55C204.367 279.402 205.589 279.52 206.786 279.844C210.48 280.935 211.357 284.65 209.576 288.218C205.855 295.677 199.901 299.894 192.645 302.075ZM212.474 149.466C216.806 149.584 221.139 149.466 225.472 149.525C228.821 149.584 232.17 149.79 235.519 149.879C239.479 149.967 243.466 150.026 247.427 150.085C255.826 150.203 264.199 150.321 272.599 150.468C282.673 150.645 292.773 150.822 302.847 151.028C310.529 151.176 318.211 151.353 325.892 151.53C326.158 151.53 326.424 151.589 326.69 151.589C332.272 151.028 333.548 154.095 334.85 159.078C335.514 161.584 335.488 164.296 335.727 166.92C336.126 171.225 336.525 175.5 336.897 179.805C337.109 182.134 337.216 184.493 337.375 186.822C337.375 186.822 337.854 195.225 338.04 199.412C338.385 207.815 339.555 216.188 338.704 224.65C338.172 229.692 336.445 231.962 331.926 233.112C325.813 234.675 319.673 236.473 313.479 236.975C306.01 237.594 298.887 239.717 291.577 241.161C289.025 241.662 286.739 240.719 284.799 239.304C280.892 236.473 277.117 233.407 273.476 230.105C266.326 223.589 259.415 216.719 252.238 210.203C244.184 202.861 235.997 195.726 227.864 188.473C224.302 185.289 220.448 183.461 215.717 183.756C212.314 183.962 208.832 183.078 205.43 183.314C201.842 183.549 199.276 184.817 195.672 186.147C192.614 187.275 190.576 188.403 188.538 190.66C186.298 193.139 184.325 195.608 182.89 197.967C180.87 201.328 178.743 204.601 175.952 207.225C170.317 212.503 163.885 215.127 156.549 213.122C153.412 212.267 150.196 210.616 149.319 206.547C148.814 204.218 148.468 201.623 148.893 199.353C149.824 194.252 151.764 189.505 153.811 184.817C156.336 179.038 159.419 173.672 162.795 168.542C166.516 162.94 170.344 157.279 176.059 153.947C178.637 152.444 181.454 151.471 184.352 151.058C193.655 149.79 203.038 149.259 212.421 149.525L212.474 149.466ZM44.5652 210.616C44.645 207.579 44.9108 204.542 45.2031 201.535C46.0271 193.25 46.7714 184.935 47.8612 176.709C48.8978 168.778 50.3066 160.876 51.6356 153.004C52.0609 150.527 52.6722 148.051 53.4165 145.662C54.4797 142.183 55.5429 141.476 58.7592 141.829C67.2117 142.743 75.6377 143.893 84.1169 144.601C92.8353 145.338 101.58 145.987 110.352 145.25C111.069 145.22 111.761 145.22 112.478 145.25C122.924 145.692 133.291 144.925 143.577 142.891C150.621 141.505 157.612 139.618 164.682 138.439C171.965 137.2 179.168 137.761 186.026 141.181C188.817 142.567 191.741 143.687 194.266 146.576C191.502 146.93 189.083 147.254 186.664 147.52C183.129 147.903 179.7 148.876 176.404 150.35C172.497 152.09 169.467 155.068 166.755 158.429C161.572 164.856 157.08 171.962 153.439 179.569C150.648 185.348 147.99 191.215 146.395 197.554C145.438 201.446 145.278 205.574 147.192 209.289C147.99 210.852 149.186 212.237 150.302 213.564C151.073 214.478 154.794 216.129 155.725 216.365C164.788 218.576 172.47 215.628 179.062 208.64C182.411 205.073 184.857 200.768 187.408 196.493C188.658 194.37 189.557 192.916 191.595 191.788C193.633 190.66 195.548 189.915 196.691 189.532C201.741 187.822 205.058 186.38 210.321 186.527C212.713 186.586 215.079 186.881 217.471 186.911C220.155 186.94 222.468 188.001 224.515 189.829C227.757 192.719 230.974 195.579 234.19 198.498C239.107 202.979 243.945 207.549 248.889 212.002C252.716 215.451 256.677 218.753 260.505 222.203C263.933 225.269 267.203 228.542 270.685 231.52C274.805 235.029 279.005 238.419 283.311 241.662C284.799 242.783 286.66 243.284 288.6 244.169C287.404 246.793 285.517 248.768 283.55 250.655C279.137 254.842 274.193 255.343 268.877 253.161C262.392 250.508 256.172 247.264 250.377 242.989C245.912 239.687 241.34 236.503 236.821 233.26C236.051 232.699 235.2 232.552 234.748 233.436C234.509 233.908 234.801 234.881 235.067 235.5C235.28 235.972 235.811 236.326 236.263 236.621C241.393 240.247 246.497 243.933 251.706 247.5C254.657 249.476 257.66 251.363 260.717 253.102C262.339 254.046 264.093 254.812 265.821 255.52C267.469 256.169 268.319 257.643 268.399 259.294C268.718 266.252 266.724 269.849 260.903 271.088C258.83 271.53 256.464 270.97 254.391 270.262C251.387 269.23 248.49 267.756 245.593 266.282C240.117 263.54 234.668 260.739 229.273 257.82C226.109 256.11 223.079 254.046 219.996 252.159C219.757 252.011 219.571 251.805 219.331 251.658C218.614 251.186 217.816 250.832 217.178 251.687C216.461 252.631 217.072 253.427 217.71 253.928C219.358 255.255 220.953 256.699 222.76 257.702C229.724 261.535 236.742 265.22 243.759 268.965C244.636 269.436 245.513 269.849 246.311 270.262C246.683 271.618 252.637 273.653 246.736 283.353C243.812 286.066 240.489 286.596 237.034 285.269C232.595 283.589 228.236 281.672 223.903 279.697C218.189 277.102 212.5 274.331 206.812 271.677C206.094 271.353 205.297 271.058 204.526 271.058C204.021 271.058 203.224 271.471 203.064 271.913C202.931 272.326 203.383 273.24 203.808 273.535C205.005 274.331 206.334 274.98 207.609 275.628C213.085 278.37 218.561 281.112 224.063 283.825C225.764 284.65 227.492 285.387 229.219 286.154C229.831 291.314 226.615 297.623 222.388 299.422C221.484 299.805 220.474 300.129 219.544 300.07C215.637 299.805 212.022 298.154 207.982 296.621C208.939 295.176 209.656 293.967 210.48 292.876C212.181 290.636 213.191 288.1 213.351 285.152C213.59 280.375 209.125 276.365 204.765 276.218C203.171 276.159 202.4 276.454 201.177 276.66C200.061 276.837 198.572 277.427 196.791 278.075C197.27 277.279 197.615 276.424 197.562 275.097C197.403 271.382 196.339 268.699 193.841 266.518C192.937 265.721 192.087 264.807 191.076 264.247C190.093 263.717 188.923 263.245 187.834 263.304C183.076 263.51 181.481 264.129 177.627 265.869C177.015 266.134 176.378 266.4 175.341 266.842C176.085 264.513 176.643 262.685 176.112 260.562C175.394 257.761 174.118 255.491 172.018 253.898C170.636 252.837 169.148 251.864 167.553 251.363C163.725 250.213 156.735 252.925 154.901 254.252C155.618 251.451 155.246 248.296 153.04 245.083C149.797 240.306 145.518 239.54 140.786 240.513C136.959 241.309 133.716 243.461 130.447 245.849C124.572 250.124 122.791 252.336 120.054 256.257C119.309 257.319 118.485 257.378 117.502 257.024C114.631 255.992 111.787 254.96 108.916 253.987C104.531 252.483 100.118 251.097 95.7325 249.594C91.6923 248.178 87.7052 246.586 83.665 245.23C75.3985 242.4 67.132 239.54 58.7857 236.975C55.2505 235.884 51.928 234.498 48.7649 232.463C46.0271 230.724 44.6981 228.07 44.5652 224.798C44.3791 220.11 44.4855 215.392 44.6184 210.675L44.5652 210.616Z" fill="black"/>
<path d="M42.5185 193.338C41.4553 202.891 40.4718 212.473 40.844 222.115C41.1098 228.631 43.4754 233.584 49.1636 236.591C53.9215 239.097 58.9186 240.542 63.8892 242.223C70.5609 244.463 77.2325 246.852 83.9042 249.122C89.5659 251.068 95.2275 252.955 100.889 254.901C106.285 256.758 111.654 258.616 117.369 260.591C117.342 261.24 117.369 262.183 117.209 263.127C116.465 268.493 118.99 272.12 122.472 275.156C122.977 275.599 123.775 275.628 124.466 275.776C127.842 276.454 130.898 275.274 133.902 273.712C134.593 273.358 135.311 273.034 136.454 272.503C136.161 274.655 136.002 276.395 135.683 278.075C135.045 281.554 135.896 284.503 138.208 286.891C138.846 287.569 139.564 288.1 140.388 288.454C146.049 290.783 151.472 290.636 156.416 286.242C156.974 285.771 157.612 285.387 158.223 285.004C158.356 284.916 158.542 285.004 158.888 285.004C158.888 285.564 158.967 286.124 158.888 286.655C158.117 292.08 161.997 295.854 165.719 297.034C168.536 297.918 171.487 297.358 174.278 296.267C176.271 295.5 178.238 294.675 180.497 293.761C180.497 294.616 180.551 295.412 180.497 296.208C180.232 299.717 181.64 302.518 184.485 304.139C187.089 305.643 189.801 305.938 192.724 305.378C197.03 304.552 200.778 302.429 204.287 299.746C205.324 298.95 205.988 299.068 207.104 299.599C211.065 301.427 214.972 303.638 219.491 303.373C225.525 303.048 230.043 298.98 231.346 292.493C231.665 290.989 231.877 289.427 232.196 287.569C233.393 287.835 234.535 288.188 235.732 288.365C237.911 288.69 240.117 289.22 242.27 289.073C248.145 288.66 251.441 283.265 252.265 278.842C252.557 277.25 252.504 275.569 252.637 273.653C254.364 273.948 256.092 274.242 257.793 274.478C261.461 275.009 264.943 274.626 267.548 271.323C270.127 268.051 271.881 264.395 270.871 259.795C270.738 259.176 270.871 258.468 270.871 257.466C271.881 257.466 272.758 257.348 273.582 257.495C277.383 258.056 280.812 256.994 283.842 254.488C287.032 251.834 290.142 249.034 291.816 244.817C292.215 243.815 292.853 243.402 293.836 243.225C300.827 242.046 307.818 240.837 314.782 239.54C320.257 238.537 325.759 237.446 331.208 236.267C333.627 235.736 335.913 234.734 337.986 233.083C341.256 230.488 341.841 226.714 342.213 222.734C342.744 216.925 342.053 211.176 341.734 205.397C341.495 201.299 341.362 197.171 341.203 193.043C341.176 192.277 341.07 191.215 341.017 190.124C340.777 186.262 340.698 185.879 340.538 183.992C340.458 181.987 340.299 179.982 340.086 178.154C339.395 172.139 338.864 166.065 338.013 160.051C337.694 157.78 336.95 155.481 335.966 153.446C334.106 149.702 330.57 148.847 327.142 148.375C317.28 146.989 307.339 148.139 297.451 147.667C292.428 147.431 287.377 147.579 282.327 147.402C277.808 147.254 273.316 146.783 268.798 146.753C260.691 146.694 252.557 146.871 244.45 146.871C238.177 146.871 231.904 146.724 225.631 146.694C217.311 146.635 208.992 146.576 200.672 146.576C199.157 146.576 198.014 146.252 196.924 144.955C192.432 139.5 186.451 136.965 180.232 135.284C174.783 133.78 169.174 133.928 163.619 134.989C154.582 136.729 145.544 138.675 136.48 140.237C131.164 141.151 125.768 141.888 120.399 142.065C113.621 142.301 106.817 141.859 100.012 141.711C99.6664 141.711 99.2943 141.77 98.9487 141.741C94.3769 141.505 89.7519 141.476 85.2067 141.033C79.4919 140.473 73.7771 139.559 68.0623 138.881C64.8195 138.468 61.5501 138.144 58.2807 137.849C55.4632 137.584 53.1773 138.793 51.8217 141.535C50.0142 145.161 48.6852 148.994 48.1004 153.122C47.303 158.93 46.5322 164.768 45.7082 170.576C45.4689 172.316 45.0968 174.026 44.8044 175.766C44.6981 176.444 42.7577 191.127 42.5185 193.279V193.338ZM129.888 272.002C128.905 272.385 127.868 272.621 126.858 272.945C122.021 273.535 118.299 265.692 120.452 261.682C121.861 259.117 123.403 256.463 125.37 254.459C129.011 250.744 133.025 247.5 137.65 245.348C140.733 243.903 143.843 243.048 147.166 244.405C149.611 245.407 151.02 247.53 152.003 249.948C152.694 251.687 152.189 253.486 151.046 254.871C149.345 256.994 147.644 259.147 145.73 260.975C140.946 265.486 135.896 269.613 129.862 271.972L129.888 272.002ZM157.957 281.112C155.406 283.648 152.774 286.183 149.133 286.685C148.441 286.773 147.75 286.921 147.086 287.009C145.464 286.744 143.87 286.537 142.328 286.183C139.962 285.653 138.766 283.884 138.261 281.348C137.517 277.722 138.554 274.508 140.388 271.677C143.072 267.491 146.793 264.424 150.462 261.417C153.731 258.763 157.426 256.817 161.253 255.225C165.559 253.427 170.211 256.257 172.071 259.117C173.294 261.004 173.507 262.891 172.39 264.866C171.673 266.105 170.955 267.373 170.025 268.375C166.064 272.68 162.077 276.984 157.957 281.112ZM179.541 290.429C175.633 293.23 171.247 294.852 166.436 293.997C163.087 293.407 161.12 289.81 161.997 286.183C162.503 284.149 163.433 282.439 164.682 280.847C169.227 275.009 174.889 270.97 181.242 267.992C181.986 267.638 182.73 267.284 183.501 267.107C184.272 266.93 185.096 266.989 185.867 266.93C189.827 266.635 192.432 268.788 194.16 272.503C195.143 274.626 194.824 276.306 193.336 278.075C189.269 282.911 184.511 286.832 179.567 290.4L179.541 290.429ZM192.645 302.075C191.9 302.311 191.076 302.223 190.279 302.282L190.173 302.577C188.578 302.075 186.957 301.692 185.441 301.014C183.474 300.129 182.677 298.567 183.262 296.326C183.74 294.498 184.511 292.64 185.574 291.137C187.86 287.864 190.89 285.505 194.053 283.294C196.871 281.319 199.848 279.933 203.144 279.55C204.367 279.402 205.589 279.52 206.786 279.844C210.48 280.935 211.357 284.65 209.576 288.218C205.855 295.677 199.901 299.894 192.645 302.075ZM212.474 149.466C216.806 149.584 221.139 149.466 225.472 149.525C228.821 149.584 232.17 149.79 235.519 149.879C239.479 149.967 243.466 150.026 247.427 150.085C255.826 150.203 264.199 150.321 272.599 150.468C282.673 150.645 292.773 150.822 302.847 151.028C310.529 151.176 318.211 151.353 325.892 151.53C326.158 151.53 326.424 151.589 326.69 151.589C332.272 151.028 333.548 154.095 334.85 159.078C335.514 161.584 335.488 164.296 335.727 166.92C336.126 171.225 336.525 175.5 336.897 179.805C337.109 182.134 337.216 184.493 337.375 186.822C337.375 186.822 337.854 195.225 338.04 199.412C338.385 207.815 339.555 216.188 338.704 224.65C338.172 229.692 336.445 231.962 331.926 233.112C325.813 234.675 319.673 236.473 313.479 236.975C306.01 237.594 298.887 239.717 291.577 241.161C289.025 241.662 286.739 240.719 284.799 239.304C280.892 236.473 277.117 233.407 273.476 230.105C266.326 223.589 259.415 216.719 252.238 210.203C244.184 202.861 235.997 195.726 227.864 188.473C224.302 185.289 220.448 183.461 215.717 183.756C212.314 183.962 208.832 183.078 205.43 183.314C201.842 183.549 199.276 184.817 195.672 186.147C192.614 187.275 190.576 188.403 188.538 190.66C186.298 193.139 184.325 195.608 182.89 197.967C180.87 201.328 178.743 204.601 175.952 207.225C170.317 212.503 163.885 215.127 156.549 213.122C153.412 212.267 150.196 210.616 149.319 206.547C148.814 204.218 148.468 201.623 148.893 199.353C149.824 194.252 151.764 189.505 153.811 184.817C156.336 179.038 159.419 173.672 162.795 168.542C166.516 162.94 170.344 157.279 176.059 153.947C178.637 152.444 181.454 151.471 184.352 151.058C193.655 149.79 203.038 149.259 212.421 149.525L212.474 149.466ZM44.5652 210.616C44.645 207.579 44.9108 204.542 45.2031 201.535C46.0271 193.25 46.7714 184.935 47.8612 176.709C48.8978 168.778 50.3066 160.876 51.6356 153.004C52.0609 150.527 52.6722 148.051 53.4165 145.662C54.4797 142.183 55.5429 141.476 58.7592 141.829C67.2117 142.743 75.6377 143.893 84.1169 144.601C92.8353 145.338 101.58 145.987 110.352 145.25C111.069 145.22 111.761 145.22 112.478 145.25C122.924 145.692 133.291 144.925 143.577 142.891C150.621 141.505 157.612 139.618 164.682 138.439C171.965 137.2 179.168 137.761 186.026 141.181C188.817 142.567 191.741 143.687 194.266 146.576C191.502 146.93 189.083 147.254 186.664 147.52C183.129 147.903 179.7 148.876 176.404 150.35C172.497 152.09 169.467 155.068 166.755 158.429C161.572 164.856 157.08 171.962 153.439 179.569C150.648 185.348 147.99 191.215 146.395 197.554C145.438 201.446 145.278 205.574 147.192 209.289C147.99 210.852 149.186 212.237 150.302 213.564C151.073 214.478 154.794 216.129 155.725 216.365C164.788 218.576 172.47 215.628 179.062 208.64C182.411 205.073 184.857 200.768 187.408 196.493C188.658 194.37 189.557 192.916 191.595 191.788C193.633 190.66 195.548 189.915 196.691 189.532C201.741 187.822 205.058 186.38 210.321 186.527C212.713 186.586 215.079 186.881 217.471 186.911C220.155 186.94 222.468 188.001 224.515 189.829C227.757 192.719 230.974 195.579 234.19 198.498C239.107 202.979 243.945 207.549 248.889 212.002C252.716 215.451 256.677 218.753 260.505 222.203C263.933 225.269 267.203 228.542 270.685 231.52C274.805 235.029 279.005 238.419 283.311 241.662C284.799 242.783 286.66 243.284 288.6 244.169C287.404 246.793 285.517 248.768 283.55 250.655C279.137 254.842 274.193 255.343 268.877 253.161C262.392 250.508 256.172 247.264 250.377 242.989C245.912 239.687 241.34 236.503 236.821 233.26C236.051 232.699 235.2 232.552 234.748 233.436C234.509 233.908 234.801 234.881 235.067 235.5C235.28 235.972 235.811 236.326 236.263 236.621C241.393 240.247 246.497 243.933 251.706 247.5C254.657 249.476 257.66 251.363 260.717 253.102C262.339 254.046 264.093 254.812 265.821 255.52C267.469 256.169 268.319 257.643 268.399 259.294C268.718 266.252 266.724 269.849 260.903 271.088C258.83 271.53 256.464 270.97 254.391 270.262C251.387 269.23 248.49 267.756 245.593 266.282C240.117 263.54 234.668 260.739 229.273 257.82C226.109 256.11 223.079 254.046 219.996 252.159C219.757 252.011 219.571 251.805 219.331 251.658C218.614 251.186 217.816 250.832 217.178 251.687C216.461 252.631 217.072 253.427 217.71 253.928C219.358 255.255 220.953 256.699 222.76 257.702C229.724 261.535 236.742 265.22 243.759 268.965C244.636 269.436 245.513 269.849 246.311 270.262C246.683 271.618 252.637 273.653 246.736 283.353C243.812 286.066 240.489 286.596 237.034 285.269C232.595 283.589 228.236 281.672 223.903 279.697C218.189 277.102 212.5 274.331 206.812 271.677C206.094 271.353 205.297 271.058 204.526 271.058C204.021 271.058 203.224 271.471 203.064 271.913C202.931 272.326 203.383 273.24 203.808 273.535C205.005 274.331 206.334 274.98 207.609 275.628C213.085 278.37 218.561 281.112 224.063 283.825C225.764 284.65 227.492 285.387 229.219 286.154C229.831 291.314 226.615 297.623 222.388 299.422C221.484 299.805 220.474 300.129 219.544 300.07C215.637 299.805 212.022 298.154 207.982 296.621C208.939 295.176 209.656 293.967 210.48 292.876C212.181 290.636 213.191 288.1 213.351 285.152C213.59 280.375 209.125 276.365 204.765 276.218C203.171 276.159 202.4 276.454 201.177 276.66C200.061 276.837 198.572 277.427 196.791 278.075C197.27 277.279 197.615 276.424 197.562 275.097C197.403 271.382 196.339 268.699 193.841 266.518C192.937 265.721 192.087 264.807 191.076 264.247C190.093 263.717 188.923 263.245 187.834 263.304C183.076 263.51 181.481 264.129 177.627 265.869C177.015 266.134 176.378 266.4 175.341 266.842C176.085 264.513 176.643 262.685 176.112 260.562C175.394 257.761 174.118 255.491 172.018 253.898C170.636 252.837 169.148 251.864 167.553 251.363C163.725 250.213 156.735 252.925 154.901 254.252C155.618 251.451 155.246 248.296 153.04 245.083C149.797 240.306 145.518 239.54 140.786 240.513C136.959 241.309 133.716 243.461 130.447 245.849C124.572 250.124 122.791 252.336 120.054 256.257C119.309 257.319 118.485 257.378 117.502 257.024C114.631 255.992 111.787 254.96 108.916 253.987C104.531 252.483 100.118 251.097 95.7325 249.594C91.6923 248.178 87.7052 246.586 83.665 245.23C75.3985 242.4 67.132 239.54 58.7857 236.975C55.2505 235.884 51.928 234.498 48.7649 232.463C46.0271 230.724 44.6981 228.07 44.5652 224.798C44.3791 220.11 44.4855 215.392 44.6184 210.675L44.5652 210.616Z" stroke="black" stroke-width="4.0765" mask="url(#path-6-outside-1_289_1078)"/>
<path d="M230.669 123.066C235.662 114.894 241.369 107.297 246.804 99.4883" stroke="black" stroke-width="8.15301" stroke-linecap="round"/>
<path d="M205.497 115.206C205.497 108.248 206.206 101.413 206.788 94.4863" stroke="black" stroke-width="8.15301" stroke-linecap="round"/>
<path d="M157.736 83.7695C162.91 95.225 169.567 105.888 175.808 116.635" stroke="black" stroke-width="8.15301" stroke-linecap="round"/>
<path d="M150.635 110.204C152.513 112.242 154.435 114.066 156.444 115.92" stroke="black" stroke-width="8.15301" stroke-linecap="round"/>
<path d="M239.059 316.688C243.808 328.274 250.864 338.238 257.131 348.839" stroke="black" stroke-width="8.15301" stroke-linecap="round"/>
<path d="M220.987 325.261C222.417 331.479 223.968 337.651 225.505 343.837" stroke="black" stroke-width="8.15301" stroke-linecap="round"/>
<path d="M201.625 325.261V331.691" stroke="black" stroke-width="8.15301" stroke-linecap="round"/>
<path d="M182.907 323.116C179.434 331.323 175.647 339.332 171.935 347.408" stroke="black" stroke-width="8.15301" stroke-linecap="round"/>
<path d="M155.799 320.974C146.989 329.537 138.556 338.56 129.982 347.409" stroke="black" stroke-width="8.15301" stroke-linecap="round"/>
<defs>
<filter id="filter0_d_289_1078" x="16.8176" y="110.855" width="349.145" height="217.43" filterUnits="userSpaceOnUse" color-interpolation-filters="sRGB">
<feFlood flood-opacity="0" result="BackgroundImageFix"/>
<feColorMatrix in="SourceAlpha" type="matrix" values="0 0 0 0 0 0 0 0 0 0 0 0 0 0 0 0 0 0 127 0" result="hardAlpha"/>
<feOffset/>
<feGaussianBlur stdDeviation="12.2295"/>
<feComposite in2="hardAlpha" operator="out"/>
<feColorMatrix type="matrix" values="0 0 0 0 0 0 0 0 0 0 0 0 0 0 0 0 0 0 0.25 0"/>
<feBlend mode="normal" in2="BackgroundImageFix" result="effect1_dropShadow_289_1078"/>
<feBlend mode="normal" in="SourceGraphic" in2="effect1_dropShadow_289_1078" result="shape"/>
</filter>
</defs>
</svg>
