<svg width="400" height="373" viewBox="0 0 400 373" fill="none" xmlns="http://www.w3.org/2000/svg">
<circle cx="192.768" cy="186.5" r="186.5" fill="#F0F0F0"/>
<g clip-path="url(#clip0_289_1230)">
<g filter="url(#filter0_d_289_1230)">
<path d="M125.389 85.0293H392.104C396.104 85.0293 399.347 88.2721 399.347 92.2724V271.799C399.347 275.799 396.104 279.042 392.104 279.042H125.389C121.389 279.042 118.146 275.799 118.146 271.799V92.2724C118.146 88.2721 121.389 85.0293 125.389 85.0293Z" fill="#E5E4E4"/>
<path d="M392.104 86.0484H125.389C121.951 86.0484 119.165 88.835 119.165 92.2724V271.799C119.165 275.236 121.951 278.023 125.389 278.023H392.104C395.541 278.023 398.328 275.236 398.328 271.799V92.2724C398.328 88.835 395.541 86.0484 392.104 86.0484Z" stroke="black" stroke-width="2.03825"/>
</g>
<path d="M283.424 104.207H374.987V193.831H283.424V104.207Z" fill="#BBC8E8"/>
<path d="M324.082 131.065H334.273V188.136H324.082V131.065Z" fill="#6589C6"/>
<path d="M338.349 141.257H348.54V188.137H338.349V141.257Z" fill="#6589C6"/>
<path d="M352.617 153.486H362.808V188.137H352.617V153.486Z" fill="#6589C6"/>
<path d="M295.546 112.721H305.737V188.136H295.546V112.721Z" fill="#6589C6"/>
<path d="M309.814 126.989H320.005V188.137H309.814V126.989Z" fill="#6589C6"/>
<path d="M192.335 104.207H263.374V142.65H192.335V104.207Z" fill="#BBC8E8"/>
<path d="M195.285 113.877H260.431V115.399H195.285V113.877Z" fill="white"/>
<path d="M195.285 116.953H260.431V118.475H195.285V116.953Z" fill="white"/>
<path d="M195.285 120.031H260.43V121.553H195.285V120.031Z" fill="white"/>
<path d="M195.285 123.107H260.43V124.629H195.285V123.107Z" fill="white"/>
<path d="M195.285 126.184H260.431V127.706H195.285V126.184Z" fill="white"/>
<path d="M195.285 129.262H260.43V130.784H195.285V129.262Z" fill="white"/>
<path d="M195.285 132.339H260.431V133.861H195.285V132.339Z" fill="white"/>
<path d="M195.285 135.415H260.431V136.937H195.285V135.415Z" fill="white"/>
<path d="M195.285 138.491H260.431V140.013H195.285V138.491Z" fill="white"/>
<path d="M203.536 107.504H252.178V110.346H203.536V107.504Z" fill="white"/>
<path d="M368.635 238.068C368.635 253.957 355.482 266.839 339.256 266.839C323.029 266.839 309.876 253.957 309.876 238.068H368.635Z" fill="#9DB9E2"/>
<path d="M342.426 210.557V237.054H368.923C368.923 222.421 357.059 210.557 342.426 210.557Z" fill="#4C638C"/>
<path d="M310.151 235.8L338.052 235.889L317.872 217.031C312.738 222.3 310.178 229.053 310.151 235.798L310.151 235.8Z" fill="#6589C6"/>
<path d="M322.441 216.917L340.724 236.034L340.339 209.851C333.364 209.808 327.068 212.499 322.443 216.915L322.441 216.917Z" fill="#B0CAF7"/>
<path d="M183.129 240.802C206.164 207.632 221.904 118.716 226.895 78.4052C226.895 77.6373 225.974 76.332 222.288 77.2534C218.603 78.1748 211.538 76.1017 208.467 74.9499L199.253 65.7359C195.568 62.0503 190.807 61.8967 188.887 62.2807C186.2 63.8163 178.061 66.8877 167.004 66.8877C155.947 66.8877 148.576 63.0485 146.273 61.1289L141.666 62.2807L138.21 69.1912C131.76 75.641 121.702 79.5569 117.479 80.7087L116.327 84.1639C116.711 86.4674 117.018 92.6869 115.175 99.1367C113.332 105.587 106.729 111.038 103.658 112.958C105.501 116.643 104.426 123.707 103.658 126.779L100.203 123.323C97.4383 115.952 88.3011 111.038 84.078 109.502C79.0871 108.735 68.8749 110.424 67.9535 123.323C67.0321 136.223 77.5514 150.198 82.9262 155.573L62.1947 243.106C80.6227 268.905 121.318 286.104 139.362 291.479C141.666 282.265 146.733 262.455 148.576 256.927C150.419 251.398 153.183 249.248 154.335 248.864C155.487 248.48 159.863 247.713 168.156 247.713C176.448 247.713 181.593 243.106 183.129 240.802Z" fill="#F0F0F0"/>
<path d="M112.871 221.223C128.535 234.123 153.183 243.49 163.548 246.562C152.491 243.798 146.656 259.999 145.121 268.445C150.649 268.445 159.709 272.284 163.548 274.204C167.234 290.789 157.406 305.685 152.031 311.06C151.11 301.846 143.201 293.4 139.362 290.328C124.005 261.918 97.2075 208.324 112.871 221.223Z" fill="#C9C8C7"/>
<path d="M227.425 76.1918C227.909 76.1923 228.477 76.5101 228.544 77.179C228.545 77.189 228.546 77.1991 228.547 77.2094C228.612 78.1522 228.512 79.1203 228.418 80.0254C228.401 80.1924 228.384 80.3572 228.368 80.5194L228.368 80.5195C228.178 82.4581 227.938 84.3899 227.688 86.3148C226.955 91.9608 226.117 97.5951 225.254 103.219C223.402 115.323 221.446 127.415 219.281 139.468C218.37 144.552 217.298 149.564 216.032 154.579L215.672 154.488L216.032 154.579C213.193 165.817 209.992 176.982 206.485 188.027L206.13 187.915L206.485 188.027C203.01 198.97 199.169 209.799 194.919 220.468C194.556 221.38 194.193 222.312 193.826 223.255C192.33 227.1 190.757 231.144 188.744 234.867C186.234 239.511 183.018 243.7 178.36 246.438C176.285 247.659 173.956 248.545 171.555 248.894L171.554 248.894C169.01 249.26 166.462 249.038 163.976 248.82C163.769 248.802 163.563 248.784 163.357 248.766L163.357 248.766C159.024 248.391 154.759 248.356 152.201 252.074L152.201 252.074C151.11 253.657 150.52 255.499 149.916 257.388C149.841 257.622 149.766 257.857 149.689 258.093L149.689 258.093C148.783 260.868 147.938 263.661 147.109 266.464C145.459 272.053 143.848 277.651 142.329 283.272L141.929 283.164L142.329 283.272C141.606 285.947 140.904 288.625 140.218 291.308L140.218 291.308C140.136 291.63 139.937 291.865 139.676 291.991C139.425 292.111 139.147 292.117 138.905 292.051C138.663 291.984 138.428 291.836 138.272 291.608C138.11 291.37 138.05 291.07 138.132 290.748C140.986 279.592 144.043 268.439 147.615 257.482L148.009 257.611L147.615 257.482L147.677 257.294C148.851 253.694 150.166 249.659 153.941 247.662L153.941 247.662C156.13 246.505 158.513 246.304 160.876 246.395C162.021 246.439 163.171 246.553 164.297 246.664L164.408 246.675C165.573 246.79 166.711 246.899 167.813 246.93C170.534 247.006 173.148 246.575 175.611 245.443C177.82 244.428 179.582 242.957 181.423 241.309L181.423 241.309C183.336 239.6 184.62 237.456 185.972 235.2L186.049 235.072L186.049 235.072C187.479 232.689 188.638 230.164 189.709 227.577L189.709 227.577C194.059 217.088 198.082 206.471 201.706 195.71C205.385 184.775 208.645 173.711 211.688 162.58C213.54 155.806 215.324 149.019 216.608 142.132C218.728 130.755 220.568 119.317 222.359 107.879L222.359 107.879C223.304 101.853 224.221 95.823 225.056 89.7836L225.056 89.7835C225.138 89.1914 225.222 88.5993 225.306 88.0072C225.759 84.7991 226.213 81.5919 226.378 78.3856C226.397 77.996 226.414 77.632 226.389 77.2746L226.389 77.2744C226.366 76.9432 226.481 76.6565 226.699 76.4589C226.906 76.2708 227.175 76.1916 227.425 76.1918Z" fill="black" stroke="black" stroke-width="0.829261" stroke-linejoin="round"/>
<path d="M104.877 132.32C105.026 132.59 105.287 132.739 105.534 132.796C105.794 132.856 106.094 132.828 106.342 132.684L106.342 132.684C106.907 132.354 106.965 131.705 106.748 131.241C106.748 131.241 106.748 131.24 106.748 131.24L106.372 131.416L104.877 132.32ZM104.877 132.32C104.863 132.3 104.851 132.279 104.841 132.258C102.01 126.142 97.9177 120.646 92.855 116.195L92.8549 116.195C90.3361 113.978 87.5697 111.888 84.4023 110.899L84.4023 110.899C82.9148 110.434 81.3551 110.234 79.8262 110.43L79.826 110.43C78.5303 110.596 77.2663 111.042 76.1205 111.685L76.1204 111.685C73.7226 113.028 71.8229 115.175 70.5716 117.634C69.1228 120.482 68.7225 123.735 68.9894 126.935C69.2875 130.488 70.4186 133.972 71.8969 137.234L71.8969 137.235C73.2751 140.279 74.9472 143.198 76.8397 145.955L76.8397 145.955C80.539 151.345 85.1604 156.133 90.4361 159.995L90.4362 159.995C91.0886 160.473 91.7491 160.936 92.4201 161.385C92.9906 161.766 92.9714 162.438 92.7368 162.856C92.6158 163.072 92.4174 163.269 92.1514 163.358C91.8707 163.452 91.5643 163.409 91.288 163.223L104.877 132.32ZM76.3086 148.919L76.3087 148.919C80.4502 154.497 85.5163 159.351 91.2878 163.223L76.3086 148.919ZM76.3086 148.919C74.2589 146.157 72.4448 143.22 70.9012 140.146L70.9012 140.146M76.3086 148.919L70.9012 140.146M70.9012 140.146C69.1955 136.748 67.7749 133.126 67.1323 129.332L67.1323 129.332M70.9012 140.146L67.1323 129.332M67.1323 129.332C66.5339 125.79 66.5659 122 67.8304 118.554L67.1323 129.332ZM82.1106 108.659L82.1098 108.667L82.1106 108.659Z" fill="black" stroke="black" stroke-width="0.829261" stroke-linejoin="round"/>
<path d="M104.987 113.256C106.773 112.17 108.426 110.862 109.899 109.383C113.05 106.221 115.408 102.294 116.726 98.0147C118.043 93.7393 118.257 89.1362 117.192 84.7752C117.191 84.7679 117.19 84.7607 117.188 84.7535C117.109 84.4304 116.913 84.1926 116.651 84.0655C116.401 83.9439 116.122 83.9382 115.88 84.005C115.638 84.0719 115.404 84.2198 115.247 84.4467C115.084 84.6823 115.02 84.9823 115.1 85.3041C115.65 87.5561 115.825 89.8804 115.653 92.1967L115.653 92.1967C115.35 96.2732 113.933 100.247 111.723 103.688L111.723 103.688C109.503 107.146 106.444 110.045 102.833 112.004L102.832 112.004C102.516 112.176 102.341 112.495 102.297 112.803C102.254 113.112 102.337 113.474 102.62 113.725L102.621 113.725C103.21 114.243 103.444 114.976 103.514 115.84C103.562 116.429 103.532 117.018 103.502 117.608C103.487 117.91 103.472 118.212 103.467 118.514M104.987 113.256L103.882 118.52M104.987 113.256C105.635 114.435 105.702 115.856 105.672 117.078L105.672 117.078C105.662 117.491 105.655 117.907 105.649 118.327C105.626 119.842 105.602 121.392 105.394 122.916L105.394 122.916C105.228 124.139 104.917 125.321 104.4 126.457L104.4 126.457C104.259 126.767 103.976 126.934 103.713 126.994C103.452 127.055 103.151 127.027 102.904 126.883L102.903 126.882C102.333 126.547 102.286 125.904 102.496 125.443M103.467 118.514L103.882 118.52M103.467 118.514C103.467 118.514 103.467 118.513 103.467 118.513L103.882 118.52M103.467 118.514C103.465 118.675 103.462 118.836 103.46 118.998C103.427 121.245 103.394 123.464 102.496 125.443M103.882 118.52C103.879 118.687 103.877 118.854 103.874 119.022C103.842 121.25 103.809 123.553 102.873 125.614M102.496 125.443L102.873 125.614M102.496 125.443C102.496 125.443 102.496 125.443 102.496 125.443L102.873 125.614" fill="black" stroke="black" stroke-width="0.829261" stroke-linejoin="round"/>
<path d="M141.543 61.5934C142.015 61.7235 142.479 62.1879 142.346 62.8575C142.344 62.8691 142.342 62.8807 142.339 62.8922C141.407 67.082 138.942 70.7107 135.76 73.4844C132.582 76.2538 128.627 78.3469 124.609 79.799C122.455 80.5779 120.239 81.1902 117.992 81.6307C117.474 81.7326 116.863 81.4852 116.693 80.869L116.692 80.8686C116.615 80.5903 116.664 80.294 116.792 80.0566C116.921 79.8165 117.152 79.5973 117.476 79.5321L117.478 79.5318C121.348 78.7694 125.141 77.5173 128.629 75.6941C132.123 73.8685 135.371 71.4616 137.62 68.2559C138.873 66.4672 139.773 64.4814 140.247 62.3526L140.247 62.3526C140.32 62.0285 140.511 61.7868 140.773 61.6568C141.023 61.5327 141.302 61.5269 141.543 61.5934Z" fill="black" stroke="black" stroke-width="0.829261" stroke-linejoin="round"/>
<path d="M227.478 78.3181C227.497 78.3177 227.515 78.316 227.534 78.3131C227.841 78.293 228.096 78.1574 228.271 77.9497C228.449 77.7385 228.529 77.4727 228.529 77.2217C228.529 76.971 228.449 76.704 228.266 76.4948C228.075 76.2764 227.795 76.1486 227.463 76.1559L227.463 76.1559C226.856 76.1692 226.248 76.1879 225.642 76.2092L225.642 76.2093C225.44 76.2166 225.237 76.2241 225.034 76.2316C222.582 76.3222 220.085 76.4145 217.769 76.271C215.259 76.1154 212.725 75.695 210.515 74.5722L210.515 74.5721C209.961 74.2913 209.429 73.97 208.93 73.6062L208.929 73.606C208.505 73.2974 208.143 72.9085 207.756 72.4925C207.628 72.3549 207.497 72.2144 207.361 72.0728L207.36 72.0726C207.029 71.7296 206.698 71.3837 206.366 71.0369C205.622 70.2604 204.875 69.4798 204.111 68.7194C201.882 66.501 199.329 64.2866 196.575 62.8552C193.817 61.4217 190.577 60.7059 187.484 61.7637L187.484 61.7639C186.757 62.0135 186.046 62.3336 185.359 62.6503C185.273 62.6895 185.189 62.7287 185.104 62.7677C184.502 63.0462 183.92 63.3153 183.342 63.5388C182.007 64.055 180.642 64.5002 179.26 64.8716L179.259 64.8716C173.801 66.339 168.023 66.6735 162.433 65.8359L162.372 66.2459L162.433 65.8358C156.857 65.0005 151.481 63.0481 146.706 60.0513L146.706 60.0511C146.424 59.8748 146.118 59.8409 145.842 59.9326C145.578 60.0202 145.374 60.2109 145.248 60.4273C144.998 60.857 144.997 61.5274 145.594 61.9029C145.594 61.9029 145.594 61.903 145.594 61.903L145.815 61.552C146.411 61.9272 147.015 62.2864 147.63 62.6297L227.478 78.3181ZM227.478 78.3181C226.539 78.3377 225.586 78.3754 224.623 78.4134M227.478 78.3181L224.623 78.4134M224.623 78.4134C220.31 78.5839 215.813 78.7615 211.622 77.3601M224.623 78.4134L211.622 77.3601M211.622 77.3601C210.359 76.9381 209.127 76.3689 208.016 75.6027L211.622 77.3601Z" fill="black" stroke="black" stroke-width="0.829261" stroke-linejoin="round"/>
<path d="M84.1135 155.399C84.2595 155.611 84.3239 155.875 84.2769 156.16C84.2767 156.193 84.2726 156.225 84.2645 156.258C82.8491 161.906 81.4577 167.559 80.0795 173.216C78.696 178.904 77.3284 184.595 75.966 190.287C74.601 195.994 73.244 201.702 71.8869 207.412L71.8869 207.412C70.5298 213.12 69.17 218.828 67.8022 224.531C66.4397 230.218 65.0665 235.905 63.6746 241.587C63.4988 242.309 63.3204 243.033 63.1422 243.754C63.0626 244.076 62.8662 244.313 62.6051 244.439C62.355 244.561 62.0764 244.567 61.8348 244.501C61.5928 244.434 61.3579 244.287 61.201 244.059C61.0381 243.824 60.9753 243.523 61.0544 243.202C62.4485 237.527 63.8241 231.846 65.189 226.163L65.189 226.163C66.5593 220.461 67.919 214.756 69.276 209.051L69.276 209.051C69.7947 206.873 70.3126 204.695 70.8305 202.516C71.6703 198.985 72.51 195.453 73.3527 191.922C74.7125 186.225 76.0777 180.53 77.4589 174.838C78.8321 169.172 80.2213 163.511 81.6318 157.856C81.7337 157.445 81.8367 157.034 81.9395 156.623C82.0164 156.315 82.0933 156.008 82.1694 155.703L82.1695 155.702C82.25 155.38 82.4474 155.144 82.7087 155.018C82.959 154.897 83.2377 154.89 83.4795 154.957C83.7216 155.023 83.9569 155.171 84.1135 155.399Z" fill="black" stroke="black" stroke-width="0.829261" stroke-linejoin="round"/>
<path d="M138.89 292.063C138.911 292.069 138.931 292.073 138.952 292.075C139.25 292.138 139.53 292.079 139.754 291.927C139.983 291.772 140.131 291.536 140.198 291.294C140.264 291.052 140.257 290.774 140.138 290.524C140.014 290.263 139.781 290.062 139.46 289.977L139.459 289.976C138.788 289.799 138.117 289.616 137.449 289.427L137.448 289.427C131.834 287.849 126.311 285.935 120.91 283.724L120.91 283.724C115.398 281.469 110.013 278.897 104.784 276.046C99.491 273.161 94.3285 269.968 89.4186 266.533C84.5088 263.099 79.7959 259.384 75.3303 255.391C70.9179 251.443 66.7476 247.222 62.8885 242.734L62.8877 242.733C62.6704 242.482 62.3869 242.359 62.0925 242.373C61.8124 242.386 61.5664 242.52 61.3902 242.697C61.042 243.046 60.8646 243.69 61.3177 244.217M138.89 292.063L105.709 278.993C100.334 276.16 95.1156 273.028 90.087 269.616L90.0869 269.616C85.0421 266.191 80.1863 262.477 75.5754 258.483C70.9645 254.488 66.7579 250.362 62.7752 245.885L62.7751 245.885C62.2842 245.333 61.7984 244.777 61.3177 244.217M138.89 292.063C133.201 290.55 127.603 288.693 122.128 286.535L122.128 286.535M138.89 292.063L122.128 286.535M61.3177 244.217L61.631 243.947L61.3173 244.216C61.3174 244.216 61.3176 244.217 61.3177 244.217ZM122.128 286.535C116.524 284.323 111.039 281.805 105.709 278.993L122.128 286.535Z" fill="black" stroke="black" stroke-width="0.829261" stroke-linejoin="round"/>
<path d="M139.484 62.5837C138.649 62.4027 139.003 61.1201 139.838 61.3011C142.262 61.8279 144.923 61.2133 146.853 59.646C147.132 59.4198 147.521 59.3746 147.795 59.646C147.933 59.7848 148.006 60.0097 147.984 60.2175C148.02 60.2366 148.054 60.2614 148.085 60.2919L148.088 60.2945L147.863 60.5191C147.843 60.5439 147.82 60.567 147.795 60.5879L147.792 60.5853M139.484 62.5837C142.409 63.2196 145.472 62.4692 147.792 60.5853M139.484 62.5837L139.396 62.9888C139.396 62.9888 139.397 62.9889 139.397 62.9889C142.428 63.6479 145.598 62.8786 148.009 60.9427M139.484 62.5837L148.009 60.9427M147.792 60.5853L147.794 60.5882L148.053 60.9072C148.039 60.9191 148.024 60.9309 148.009 60.9427M147.792 60.5853L147.499 60.8787L147.502 60.8814C147.638 61.0178 147.848 61.0402 148.009 60.9427" fill="black" stroke="black" stroke-width="0.829261" stroke-linejoin="round"/>
<path d="M114.893 83.7373C114.535 84.0442 114.289 84.5852 114.611 85.1353C114.755 85.3818 115.004 85.5538 115.259 85.6302C115.518 85.7076 115.85 85.7051 116.128 85.4969L116.128 85.4968C116.843 84.9602 117.25 84.1946 117.611 83.5179C117.657 83.4316 117.702 83.3466 117.747 83.2638L114.893 83.7373ZM114.893 83.7373C114.913 83.7162 114.939 83.6923 114.952 83.6804L114.954 83.6788L115.011 83.6255C115.017 83.62 115.022 83.616 115.025 83.6132C115.041 83.5936 115.073 83.5569 115.099 83.5271C115.11 83.5146 115.124 83.4975 115.138 83.4828C115.221 83.367 115.298 83.238 115.377 83.0981L115.377 83.0981L115.378 83.0965C115.506 82.8735 115.626 82.6516 115.749 82.4241C115.816 82.2997 115.884 82.1736 115.954 82.0448C116.242 81.5153 116.531 80.9856 116.819 80.4572C116.95 80.218 117.08 79.9791 117.21 79.7406L117.21 79.7403C117.505 79.2009 118.206 79.0591 118.692 79.3408L118.692 79.3408L118.693 79.3415C119.225 79.6514 119.354 80.3127 119.089 80.8061C119.08 80.8223 119.07 80.8379 119.06 80.8528C118.845 81.2473 118.63 81.6424 118.415 82.0373L118.415 82.0374L118.415 82.0375C118.192 82.4466 117.969 82.8554 117.747 83.2636L114.893 83.7373Z" fill="black" stroke="black" stroke-width="0.829261" stroke-linejoin="round"/>
<path d="M192.768 135.425C191.722 141.553 190.599 147.668 189.404 153.77C189.066 155.499 188.721 157.229 188.369 158.959C188.297 159.31 187.88 159.515 187.55 159.424L192.768 135.425ZM192.768 135.425L193.177 135.492C193.259 134.995 193.052 134.383 192.413 134.206L192.411 134.206L192.411 134.206C192.135 134.13 191.837 134.181 191.601 134.306C191.362 134.433 191.132 134.666 191.074 135.001L191.074 135.002L191.074 135.002C190.779 136.741 190.476 138.475 190.167 140.212C189.079 146.328 187.914 152.432 186.678 158.522L186.678 158.522C186.571 159.045 186.821 159.654 187.44 159.824L187.44 159.824C187.721 159.901 188.017 159.85 188.254 159.722C188.492 159.592 188.71 159.362 188.775 159.042L188.776 159.041C189.127 157.311 189.473 155.58 189.811 153.849C191.007 147.745 192.13 141.626 193.177 135.495L192.768 135.425ZM191.483 135.071C191.544 134.717 191.98 134.518 192.302 134.606L191.483 135.071Z" fill="black" stroke="black" stroke-width="0.829261" stroke-linejoin="round"/>
<path d="M195.092 159.89L195.092 159.889C194.11 158.594 192.791 158.015 191.4 157.814C190.03 157.616 188.57 157.781 187.255 157.984C187.244 157.984 187.234 157.986 187.223 157.987C186.878 158.041 186.643 158.279 186.518 158.519C186.395 158.755 186.345 159.054 186.422 159.327C186.599 159.969 187.215 160.169 187.704 160.092C189.003 159.893 190.359 159.724 191.497 160C192.59 160.265 193.388 160.981 193.844 162.025C194.271 163.004 194.391 164.129 194.365 165.239C194.337 166.421 194.078 167.58 193.504 168.588C192.561 170.243 190.89 171.414 189.066 172.05C184.193 173.746 179.132 171.595 174.487 169.555L174.485 169.555C174.034 169.358 173.393 169.383 173.052 169.965L173.051 169.966C172.909 170.212 172.881 170.513 172.94 170.774C172.999 171.037 173.165 171.325 173.483 171.464C176.647 172.855 179.915 174.273 183.449 174.71L183.449 174.71C186.059 175.033 188.717 174.693 191.111 173.53L191.111 173.53C193.327 172.454 195.195 170.625 196.026 168.235L195.092 159.89ZM195.092 159.89C195.928 160.993 196.299 162.338 196.456 163.635L196.456 163.635M195.092 159.89L196.456 163.635M196.456 163.635C196.637 165.147 196.537 166.767 196.026 168.235L196.456 163.635Z" fill="black" stroke="black" stroke-width="0.829261" stroke-linejoin="round"/>
<path d="M156.026 135.352C155.446 135.187 155.003 134.767 154.686 134.216C154.37 133.667 154.165 132.966 154.059 132.175C153.847 130.591 154.024 128.568 154.621 126.47C155.218 124.372 156.134 122.558 157.148 121.324C157.654 120.707 158.198 120.219 158.756 119.919C159.315 119.618 159.914 119.494 160.494 119.659C161.074 119.824 161.517 120.245 161.834 120.796C162.15 121.344 162.355 122.046 162.461 122.837C162.673 124.42 162.496 126.443 161.899 128.541C161.302 130.639 160.386 132.453 159.372 133.687C158.866 134.304 158.322 134.792 157.764 135.092C157.205 135.393 156.606 135.517 156.026 135.352Z" fill="black" stroke="black" stroke-width="0.829261" stroke-linejoin="round"/>
<path d="M200.87 135.174C200.729 132.997 200.982 130.981 201.523 129.478C201.794 128.727 202.142 128.085 202.567 127.615C202.993 127.144 203.515 126.826 204.117 126.787C204.718 126.748 205.277 126.995 205.761 127.408C206.242 127.819 206.671 128.41 207.036 129.12C207.767 130.54 208.28 132.506 208.421 134.683C208.563 136.859 208.309 138.875 207.768 140.378C207.498 141.129 207.149 141.771 206.725 142.241C206.299 142.712 205.777 143.03 205.175 143.069C204.573 143.108 204.015 142.861 203.531 142.448C203.05 142.037 202.62 141.446 202.255 140.736C201.524 139.316 201.012 137.35 200.87 135.174Z" fill="black" stroke="black" stroke-width="0.829261" stroke-linejoin="round"/>
<path d="M164.943 106.705C164.698 107.125 164.134 107.456 163.521 107.169C163.51 107.164 163.498 107.159 163.487 107.154C160.513 105.66 156.794 105.999 154.087 107.922L154.086 107.922C153.813 108.116 153.49 108.126 153.23 108.05C152.972 107.975 152.724 107.804 152.578 107.554C152.25 106.991 152.511 106.396 152.936 106.096C156.29 103.717 160.879 103.429 164.532 105.263C164.829 105.411 165.018 105.656 165.078 105.943C165.136 106.217 165.069 106.489 164.943 106.705Z" fill="black" stroke="black" stroke-width="0.829261" stroke-linejoin="round"/>
<path d="M206.379 116.69L206.378 116.69C205.563 116.338 204.552 116.304 203.941 116.807C203.547 117.133 202.904 117.243 202.442 116.781C202.24 116.579 202.136 116.296 202.128 116.029C202.119 115.758 202.208 115.444 202.47 115.226L202.471 115.226C203.727 114.19 205.425 114.045 206.889 114.579C208.451 115.146 209.624 116.333 210.669 117.425L210.669 117.426C210.898 117.666 210.992 117.957 210.968 118.243C210.944 118.518 210.813 118.763 210.635 118.941C210.458 119.118 210.213 119.25 209.935 119.269C209.645 119.288 209.357 119.18 209.128 118.94L209.427 118.654L209.127 118.94C209.098 118.91 209.07 118.88 209.041 118.85C208.206 117.975 207.4 117.13 206.379 116.69Z" fill="black" stroke="black" stroke-width="0.829261" stroke-linejoin="round"/>
<path d="M143.198 178.084C143.443 179.707 143.802 181.313 144.281 182.884C145.077 185.498 146.171 188.102 147.719 190.365C149.152 192.458 151.08 194.31 153.521 195.133L153.113 195.058L153.113 195.06C153.078 195.247 153.175 195.431 153.344 195.511M143.198 178.084L153.344 195.511M143.198 178.084C143.145 177.728 143.461 177.394 143.805 177.363L143.198 178.084ZM153.344 195.511C153.358 195.517 153.373 195.524 153.389 195.529C153.623 195.607 153.891 195.632 154.148 195.556C154.417 195.476 154.648 195.292 154.785 195.005L154.785 195.005C154.907 194.75 154.912 194.447 154.834 194.192C154.755 193.934 154.567 193.655 154.234 193.543C153.03 193.136 151.965 192.466 151.029 191.594C149.323 190.001 148.126 187.895 147.185 185.722L147.185 185.722C146.103 183.225 145.343 180.596 144.936 177.907L144.936 177.905C144.853 177.378 144.405 176.893 143.768 176.95L143.767 176.95C143.477 176.976 143.218 177.126 143.04 177.329C142.861 177.534 142.74 177.825 142.788 178.146L142.788 178.146C143.036 179.788 143.399 181.413 143.884 183.005C144.688 185.644 145.798 188.291 147.377 190.599L147.377 190.599C148.83 192.723 150.809 194.641 153.344 195.511Z" fill="black" stroke="black" stroke-width="0.829261" stroke-linejoin="round"/>
<path d="M22.6834 258.084L22.6834 258.084C18.8245 260.375 15.14 262.743 11.3372 265.322C7.53484 267.902 3.79479 270.568 0.0858002 273.273M22.6834 258.084L1.0007 274.758L1.24603 275.092C1.24582 275.092 1.24562 275.092 1.24541 275.092C0.970329 275.294 0.642376 275.301 0.382477 275.224C0.12545 275.149 -0.12323 274.976 -0.267612 274.727M22.6834 258.084C26.4758 255.833 30.3554 253.717 34.3326 251.801L22.6834 258.084ZM0.0858002 273.273L0.329891 273.608L0.0862579 273.273C0.0861053 273.273 0.0859528 273.273 0.0858002 273.273ZM0.0858002 273.273C-0.324512 273.572 -0.6022 274.153 -0.267612 274.727M-0.267612 274.727C-0.267857 274.727 -0.268097 274.726 -0.268341 274.726L0.0902023 274.519L-0.267612 274.727ZM13.5891 265.937L13.807 266.263C17.5133 263.781 21.2817 261.394 25.1338 259.153C28.9087 256.958 32.7641 254.907 36.7162 253.055C40.6362 251.22 44.6503 249.587 48.7507 248.206C52.9567 246.79 57.2469 245.641 61.5974 244.78C61.6049 244.779 61.6124 244.778 61.6198 244.776C61.9421 244.711 62.1731 244.491 62.3019 244.252C62.4294 244.016 62.4799 243.719 62.4027 243.44L62.4026 243.439C62.2317 242.823 61.621 242.576 61.1037 242.678L13.5891 265.937ZM13.5891 265.937L13.807 266.263C10.0291 268.792 6.31376 271.418 2.62842 274.087L13.5891 265.937Z" fill="black" stroke="black" stroke-width="0.829261" stroke-linejoin="round"/>
<path d="M145.213 268.554C145.387 267.925 145.984 267.709 146.483 267.787C146.491 267.788 146.498 267.789 146.505 267.79C153.001 268.906 159.218 271.246 165.054 274.229L165.054 274.229C170.975 277.258 176.53 280.949 181.862 284.885C187.253 288.863 192.513 293.05 197.606 297.399L197.606 297.399C202.94 301.954 208.071 306.75 212.981 311.761C217.891 316.772 222.577 322.002 227.021 327.432L227.021 327.433C227.567 328.101 228.111 328.773 228.652 329.447L228.652 329.448C228.962 329.835 229.092 330.472 228.622 330.942C228.421 331.143 228.137 331.246 227.87 331.256C227.601 331.265 227.28 331.178 227.063 330.908L227.063 330.908C222.707 325.47 218.114 320.224 213.295 315.193C208.477 310.162 203.435 305.344 198.192 300.759C193.19 296.386 187.998 292.21 182.696 288.199C177.396 284.19 172.065 280.502 166.328 277.351C160.664 274.241 154.659 271.722 148.348 270.347C147.572 270.178 146.793 270.027 146.008 269.893L146.008 269.893C145.673 269.835 145.44 269.605 145.314 269.366C145.188 269.13 145.137 268.832 145.213 268.555L145.213 268.554Z" fill="black" stroke="black" stroke-width="0.829261" stroke-linejoin="round"/>
<path d="M144.561 274.612C144.459 274.323 144.261 274.115 144.015 274.002C143.764 273.887 143.487 273.88 143.245 273.946C143.003 274.013 142.767 274.161 142.614 274.393C142.454 274.636 142.406 274.94 142.502 275.258M144.561 274.612L144.181 274.785C143.934 273.965 142.651 274.316 142.899 275.139C142.977 275.401 143.056 275.662 143.134 275.924C143.213 276.185 143.291 276.446 143.37 276.709M144.561 274.612C144.569 274.629 144.576 274.647 144.581 274.665C145.835 278.817 147.036 282.985 148.179 287.169L147.834 287.263L148.179 287.169C149.338 291.411 150.44 295.669 151.487 299.941C152.533 304.213 153.521 308.484 154.456 312.775C155.391 317.065 156.264 321.345 157.085 325.648L157.085 325.648C157.897 329.915 158.656 334.192 159.356 338.48L159.356 338.48L159.388 338.676C159.465 339.15 159.542 339.624 159.617 340.1C159.695 340.589 159.495 341.206 158.853 341.383M144.561 274.612L159.208 340.164C159.264 340.518 159.117 340.88 158.742 340.984M142.502 275.258L142.899 275.139L142.502 275.258C142.502 275.258 142.502 275.258 142.502 275.258ZM142.502 275.258C142.58 275.52 142.659 275.782 142.737 276.043L142.741 276.054C142.818 276.312 142.895 276.569 142.973 276.827M142.973 276.827L143.37 276.709M142.973 276.827C144.214 280.983 145.389 285.12 146.527 289.342C147.665 293.564 148.745 297.791 149.774 302.05C150.802 306.31 151.773 310.577 152.696 314.871C153.618 319.165 154.482 323.469 155.291 327.785L155.291 327.785C156.088 332.041 156.83 336.309 157.513 340.584L157.513 340.585C157.569 340.926 157.804 341.159 158.043 341.285C158.28 341.409 158.578 341.46 158.853 341.383M142.973 276.827C142.973 276.827 142.973 276.827 142.973 276.828L143.37 276.709M143.37 276.709L158.853 341.383M158.853 341.383L158.742 340.984M158.853 341.383L157.923 340.518C157.981 340.875 158.426 341.072 158.742 340.984M158.853 341.383C158.853 341.383 158.853 341.383 158.853 341.383L158.742 340.984" fill="black" stroke="black" stroke-width="0.829261" stroke-linejoin="round"/>
<path d="M85.7426 263.899C85.5582 263.771 85.3352 263.68 85.0943 263.669C84.8158 263.657 84.5376 263.754 84.3137 263.978L84.3121 263.98V263.98C84.1126 264.182 84.0094 264.466 84 264.733C83.9905 265.002 84.0765 265.325 84.3513 265.54L84.352 265.54C85.051 266.085 85.7475 266.633 86.4416 267.18C91.9454 271.525 97.5524 276.14 102.661 280.569C107.77 284.997 112.765 289.553 117.623 294.255L85.7426 263.899ZM85.7426 263.899C85.766 263.911 85.7884 263.925 85.8095 263.942C91.4097 268.317 96.9281 272.802 102.325 277.426C107.487 281.845 112.538 286.395 117.453 291.089C122.368 295.783 127.06 300.536 131.643 305.476L131.643 305.476C136.247 310.44 140.693 315.547 144.98 320.785C149.461 326.26 153.772 331.876 157.919 337.609L157.92 337.609L157.92 337.609C158.439 338.328 158.958 339.047 159.473 339.769L159.473 339.77C159.667 340.044 159.676 340.367 159.6 340.627C159.525 340.884 159.353 341.132 159.105 341.278L159.103 341.279C158.537 341.607 157.949 341.344 157.648 340.921C153.549 335.182 149.299 329.553 144.869 324.065L144.869 324.065C140.617 318.795 136.205 313.655 131.634 308.659C127.063 303.663 122.436 298.917 117.623 294.255L85.7426 263.899Z" fill="black" stroke="black" stroke-width="0.829261" stroke-linejoin="round"/>
<path d="M237.278 72.7869L237.278 72.7869C236.141 81.6998 231.726 89.9926 224.706 95.6209L224.965 95.9445L224.705 95.6214C224.446 95.8294 224.313 96.1091 224.323 96.4069C224.332 96.6887 224.468 96.9347 224.645 97.1098C224.992 97.4543 225.631 97.638 226.166 97.2103L226.166 97.21C227.94 95.7889 229.577 94.2054 231.043 92.462C237.334 84.9805 240.181 75.2149 239.684 65.5431L239.684 65.543C239.392 59.8919 238.144 54.0379 236.773 48.8462C235.4 43.6446 233.557 38.477 230.715 33.8445C225.855 25.916 218.131 19.8214 209.305 16.901L209.305 16.901C207.194 16.2027 205.038 15.6919 202.906 15.1867C202.365 15.0584 201.825 14.9305 201.287 14.7999C198.624 14.1528 196.011 13.4385 193.515 12.2931L193.515 12.293C192.906 12.0138 192.295 11.7245 191.681 11.4337C189.835 10.559 187.962 9.67184 186.031 9.01007C183.454 8.12681 180.787 7.55209 178.103 7.18472L178.103 7.18471C172.696 6.44512 167.236 6.53714 161.835 6.69411C161.691 6.69826 161.547 6.7024 161.402 6.70653C156.194 6.85592 150.91 7.00746 145.743 8.05125C143.096 8.58608 140.57 9.35312 138.04 10.4875C137.103 10.9078 136.18 11.37 135.266 11.8276C134.953 11.9844 134.641 12.1407 134.33 12.2946C133.104 12.9007 131.882 13.4746 130.612 13.9265L130.751 14.3165L130.612 13.9265C128.05 14.839 125.375 15.2546 122.648 15.5947C122.148 15.6569 121.647 15.7167 121.144 15.7766C118.913 16.0425 116.656 16.3115 114.448 16.816C105.639 18.8284 97.6308 24.6733 94.0317 33.1354L94.0316 33.1356C93.2951 34.8694 92.716 36.6815 92.1437 38.4723C91.9503 39.0776 91.7576 39.6804 91.5599 40.277C90.7724 42.6534 89.8987 44.9538 88.564 47.0359L88.8801 47.2386L88.5639 47.036C87.3607 48.9136 85.7967 50.4935 84.1616 52.0691C83.9656 52.258 83.7685 52.4468 83.5709 52.6362C82.13 54.0169 80.6627 55.4229 79.4187 57.0238C77.9663 58.8931 76.9327 60.9773 76.3913 63.2961L76.3912 63.2963C75.97 65.1045 75.8003 66.9688 75.6339 68.7974C75.5674 69.5291 75.5013 70.2552 75.4198 70.9697L75.4198 70.9699C75.1139 73.6682 74.3909 76.1251 73.136 78.5306C72.8156 79.1432 72.4837 79.7546 72.1503 80.3686C71.2723 81.9858 70.3844 83.621 69.6717 85.3445C65.7959 94.7189 66.0072 105.553 70.4401 114.699L70.4403 114.699C70.5856 114.998 70.828 115.19 71.1165 115.252C71.3907 115.311 71.6628 115.243 71.8781 115.117C72.3033 114.868 72.6394 114.291 72.3357 113.666C71.2849 111.504 70.481 109.234 69.9345 106.891L69.9344 106.89C68.8255 102.153 68.7857 97.1681 69.7639 92.4009L69.3577 92.3176L69.7639 92.4009C70.256 90.001 70.9658 87.7064 71.9828 85.4043C72.4899 84.2565 73.0891 83.1384 73.7025 82.0187C73.7852 81.8676 73.8682 81.7165 73.9513 81.5653C74.4818 80.5998 75.0149 79.6295 75.4891 78.6508C76.5984 76.3616 77.2101 74.0038 77.5205 71.5014M237.278 72.7869L77.1091 71.4504M237.278 72.7869C237.978 67.3097 237.372 61.7714 236.288 56.3429L236.288 56.3428M237.278 72.7869L236.288 56.3428M77.5205 71.5014L77.1091 71.4504M77.5205 71.5014C77.5205 71.5015 77.5205 71.5016 77.5205 71.5017L77.1091 71.4504M77.5205 71.5014C77.6297 70.625 77.7081 69.7595 77.7858 68.9019C77.9367 67.2368 78.0848 65.6018 78.4502 63.9764M77.1091 71.4504C77.2145 70.604 77.2918 69.753 77.369 68.9019C77.5218 67.2192 77.6746 65.5358 78.0457 63.8853M78.4502 63.9764L78.0457 63.8853M78.4502 63.9764C79.4222 59.6602 82.3943 56.777 85.5494 53.7163C85.7013 53.5689 85.8537 53.421 86.0063 53.2726C87.5697 51.7519 89.1143 50.1449 90.3327 48.2765L90.3328 48.2763C91.6543 46.2479 92.5562 43.9875 93.3259 41.7451M78.4502 63.9764C78.4502 63.9763 78.4503 63.9763 78.4503 63.9763L78.0457 63.8853M78.0457 63.8853L93.3259 41.7451M93.3259 41.7451L92.9337 41.6105L93.3259 41.7452C93.3259 41.7452 93.3259 41.7451 93.3259 41.7451ZM236.288 56.3428C235.258 51.1786 233.968 46.0243 231.984 41.1633C228.408 32.416 221.994 25.1989 213.518 20.9625C209.929 19.1687 206.144 18.2594 202.261 17.3263C201.269 17.0882 200.272 16.8485 199.269 16.5921L199.269 16.5921M236.288 56.3428L199.269 16.5921M199.269 16.5921C196.672 15.9274 194.213 15.0024 191.795 13.8675C191.533 13.7444 191.271 13.6206 191.008 13.4967C188.858 12.4816 186.689 11.4576 184.414 10.7509M199.269 16.5921L184.414 10.7509M184.414 10.7509C179.404 9.19591 174.121 8.78435 168.858 8.74456C163.606 8.70471 158.304 8.83492 153.074 9.24092L184.414 10.7509Z" fill="black" stroke="black" stroke-width="0.829261" stroke-linejoin="round"/>
<path d="M244.935 157.575H267.981V180.622H244.935V157.575Z" fill="#9DB9E2"/>
<path d="M219.392 157.575H242.438V180.622H219.392V157.575Z" fill="#9DB9E2"/>
<path d="M244.935 183.017H267.981V206.063H244.935V183.017Z" fill="#9DB9E2"/>
<path d="M219.392 183.017H242.438V206.063H219.392V183.017Z" fill="#9DB9E2"/>
<path d="M67.9539 96.837C67.0325 106.972 69.8734 113.345 71.4091 115.265C71.4091 114.881 73.2519 113.653 80.6232 111.81C87.9944 109.967 97.5155 121.024 101.355 126.782L103.658 127.934C105.501 123.327 104.426 117.568 103.658 115.265C105.578 114.881 110.338 112.27 114.024 104.899C117.71 97.528 116.327 89.5425 115.176 86.4712L117.479 83.0159L122.086 81.8642C125.158 80.7124 131.991 77.7179 134.755 74.9537C137.52 72.1895 139.746 68.4271 140.514 66.8914L143.97 63.4361C144.737 63.0522 146.964 62.9754 149.728 65.7397C152.492 68.5039 165.469 69.1949 171.612 69.1949C175.067 68.811 182.899 67.5825 186.584 65.7397C190.27 63.8969 195.03 64.9718 196.95 65.7397C198.87 67.6592 203.861 72.4198 208.468 76.1054C213.075 79.791 222.673 79.9446 226.896 79.5607L225.744 96.837H228.047L234.958 87.6229L238.413 73.8019C239.335 70.1163 238.029 63.0522 237.261 59.9809C236.34 47.0813 229.967 36.178 226.896 32.3389C223.44 28.8836 215.378 21.7427 210.771 20.8213C206.164 19.8999 195.798 16.5982 191.191 15.0626C190.807 13.9108 187.966 11.377 179.674 10.4556C171.381 9.53418 151.648 10.8395 142.818 11.6073C140.054 13.4501 131.684 16.9822 127.845 18.5178C124.774 18.9018 116.788 20.1303 109.417 21.9731C102.046 23.8159 96.3638 32.7228 94.4442 36.9459C89.8372 51.6883 86.3819 55.3739 85.2302 55.3739C79.7018 57.2167 77.5518 63.0522 77.1679 65.7397C77.1679 69.1949 76.4769 77.2572 73.7126 81.8642C70.9484 86.4712 68.7217 93.7656 67.9539 96.837Z" fill="black"/>
</g>
<defs>
<filter id="filter0_d_289_1230" x="85.5337" y="52.4173" width="346.425" height="259.237" filterUnits="userSpaceOnUse" color-interpolation-filters="sRGB">
<feFlood flood-opacity="0" result="BackgroundImageFix"/>
<feColorMatrix in="SourceAlpha" type="matrix" values="0 0 0 0 0 0 0 0 0 0 0 0 0 0 0 0 0 0 127 0" result="hardAlpha"/>
<feOffset/>
<feGaussianBlur stdDeviation="16.306"/>
<feComposite in2="hardAlpha" operator="out"/>
<feColorMatrix type="matrix" values="0 0 0 0 0 0 0 0 0 0 0 0 0 0 0 0 0 0 0.25 0"/>
<feBlend mode="normal" in2="BackgroundImageFix" result="effect1_dropShadow_289_1230"/>
<feBlend mode="normal" in="SourceGraphic" in2="effect1_dropShadow_289_1230" result="shape"/>
</filter>
<clipPath id="clip0_289_1230">
<rect width="399.497" height="336.311" fill="white" transform="matrix(-1 0 0 1 399.497 7)"/>
</clipPath>
</defs>
</svg>
