<svg width="461" height="373" viewBox="0 0 461 373" fill="none" xmlns="http://www.w3.org/2000/svg">
<circle cx="237.456" cy="186.5" r="186.5" fill="#F0F0F0"/>
<path d="M370.936 144.665C400.19 144.665 423.905 120.95 423.905 91.6958C423.905 62.4417 400.19 38.7266 370.936 38.7266C341.682 38.7266 317.967 62.4417 317.967 91.6958C317.967 120.95 341.682 144.665 370.936 144.665Z" fill="#55A6DD"/>
<g clip-path="url(#clip0_289_1344)">
<path d="M144.975 230.082H44.8412V330.216H144.975V230.082Z" fill="#4DB26E"/>
<path d="M134.464 291.184H109.538V297.979H134.464V291.184Z" fill="#141414"/>
<path d="M358.29 290.729H333.364V297.524H358.29V290.729Z" fill="#141414"/>
<path d="M386.619 297.285H80.69C79.7009 297.285 78.899 298.087 78.899 299.076V310.034C78.899 311.024 79.7009 311.825 80.69 311.825H386.619C387.608 311.825 388.41 311.024 388.41 310.034V299.076C388.41 298.087 387.608 297.285 386.619 297.285Z" fill="#141414"/>
<path d="M380.193 81.3818H87.1161C82.5779 81.3818 78.899 85.0607 78.899 89.5989V282.967C78.899 287.505 82.5779 291.184 87.1161 291.184H380.193C384.731 291.184 388.41 287.505 388.41 282.967V89.5989C388.41 85.0607 384.731 81.3818 380.193 81.3818Z" fill="#141414"/>
<g filter="url(#filter0_d_289_1344)">
<path d="M372.817 90.6787H93.8664C90.0161 90.6787 86.8948 93.8 86.8948 97.6503V269.102C86.8948 272.952 90.0161 276.073 93.8664 276.073H372.817C376.667 276.073 379.788 272.952 379.788 269.102V97.6503C379.788 93.8 376.667 90.6787 372.817 90.6787Z" fill="white"/>
</g>
<path d="M383.737 81.3818H83.5721C80.9913 81.3818 78.899 83.4741 78.899 86.0549V286.511C78.899 289.092 80.9913 291.184 83.5721 291.184H383.737C386.318 291.184 388.41 289.092 388.41 286.511V86.0549C388.41 83.4741 386.318 81.3818 383.737 81.3818Z" stroke="black" stroke-width="3.1303" stroke-miterlimit="10" stroke-linecap="round"/>
<path d="M375.115 90.6787H91.5679C88.987 90.6787 86.8948 92.7709 86.8948 95.3518V271.4C86.8948 273.981 88.987 276.073 91.5679 276.073H375.115C377.696 276.073 379.788 273.981 379.788 271.4V95.3518C379.788 92.7709 377.696 90.6787 375.115 90.6787Z" stroke="black" stroke-width="2.23593" stroke-miterlimit="10" stroke-linecap="round"/>
<path d="M134.464 291.184H109.538V297.285H134.464V291.184Z" stroke="black" stroke-width="3.1303" stroke-linecap="round" stroke-linejoin="round"/>
<path d="M357.769 291.184H332.842V297.285H357.769V291.184Z" stroke="black" stroke-width="3.1303" stroke-linecap="round" stroke-linejoin="round"/>
<path d="M388.41 297.285H78.899V311.825H388.41V297.285Z" stroke="black" stroke-width="3.1303" stroke-linecap="round" stroke-linejoin="round"/>
<path d="M375.464 263.011H91.2191C88.8308 263.011 86.8948 264.947 86.8948 267.335V271.749C86.8948 274.137 88.8308 276.073 91.2191 276.073H375.464C377.852 276.073 379.788 274.137 379.788 271.749V267.335C379.788 264.947 377.852 263.011 375.464 263.011Z" stroke="black" stroke-width="1.34156" stroke-miterlimit="10"/>
<path d="M375.2 263.472H91.3396C88.8056 263.472 86.7515 265.526 86.7515 268.06V271.483C86.7515 274.017 88.8056 276.071 91.3396 276.071H375.2C377.734 276.071 379.788 274.017 379.788 271.483V268.06C379.788 265.526 377.734 263.472 375.2 263.472Z" fill="#353535"/>
<path d="M95.8871 265.549H93.9262C92.269 265.549 90.9255 266.892 90.9255 268.549V269.587C90.9255 271.244 92.269 272.588 93.9262 272.588H95.8871C97.5443 272.588 98.8877 271.244 98.8877 269.587V268.549C98.8877 266.892 97.5443 265.549 95.8871 265.549Z" stroke="black" stroke-width="1.34156" stroke-miterlimit="10"/>
<path d="M254.356 111.478H118.148V244.797H254.356V111.478Z" fill="#BBC8E8"/>
<path d="M148.146 120.126H132.742V237.573H148.146V120.126Z" fill="white"/>
<path d="M163.548 141.944H148.145V237.575H163.548V141.944Z" fill="#6589C6"/>
<path d="M178.951 172.324H163.548V237.571H178.951V172.324Z" fill="white"/>
<path d="M194.357 114.621H178.954V237.575H194.357V114.621Z" fill="#6589C6"/>
<path d="M209.76 193.205H194.357V237.573H209.76V193.205Z" fill="white"/>
<path d="M225.167 131.016H209.763V237.573H225.167V131.016Z" fill="#6589C6"/>
<path d="M240.569 161.886H225.166V237.574H240.569V161.886Z" fill="white"/>
<path d="M348.389 210.968H266.518V255.275H348.389V210.968Z" fill="#BBC8E8"/>
<path d="M344.992 222.111H269.914V223.867H344.992V222.111Z" fill="white"/>
<path d="M344.992 225.657H269.914V227.412H344.992V225.657Z" fill="white"/>
<path d="M344.992 229.204H269.914V230.959H344.992V229.204Z" fill="white"/>
<path d="M344.992 232.75H269.914V234.505H344.992V232.75Z" fill="white"/>
<path d="M344.992 236.296H269.914V238.051H344.992V236.296Z" fill="white"/>
<path d="M344.992 239.843H269.914V241.598H344.992V239.843Z" fill="white"/>
<path d="M344.992 243.389H269.914V245.144H344.992V243.389Z" fill="white"/>
<path d="M344.992 246.935H269.914V248.69H344.992V246.935Z" fill="white"/>
<path d="M344.992 250.479H269.914V252.234H344.992V250.479Z" fill="white"/>
<path d="M335.485 214.769H279.424V218.042H335.485V214.769Z" fill="white"/>
<path d="M275.378 168.163C275.378 186.475 290.538 201.32 309.239 201.32C327.94 201.32 343.1 186.475 343.1 168.163H275.38H275.378Z" fill="#9DB9E2"/>
<path d="M309.239 135.004V168.163H343.095C343.095 149.853 327.938 135.004 309.239 135.004Z" fill="#4C638C"/>
<path d="M285.955 144.095L309.24 168.163V135.004C300.218 135.004 292.021 138.461 285.955 144.095Z" fill="#BBC8E8"/>
<path d="M268.061 163.709L300.209 164.394L277.349 142.242C271.323 148.208 268.231 155.933 268.061 163.707V163.709Z" fill="#6589C6"/>
<path d="M81.5297 291.471L387.267 99.875V137.583L150.635 291.471H81.5297Z" fill="#D9D9D9" fill-opacity="0.14"/>
<path d="M185.48 313.891L393.382 165.099V194.382L232.472 313.891H185.48Z" fill="#D9D9D9" fill-opacity="0.14"/>
</g>
<defs>
<filter id="filter0_d_289_1344" x="19.6325" y="23.4164" width="427.418" height="319.919" filterUnits="userSpaceOnUse" color-interpolation-filters="sRGB">
<feFlood flood-opacity="0" result="BackgroundImageFix"/>
<feColorMatrix in="SourceAlpha" type="matrix" values="0 0 0 0 0 0 0 0 0 0 0 0 0 0 0 0 0 0 127 0" result="hardAlpha"/>
<feOffset/>
<feGaussianBlur stdDeviation="33.6311"/>
<feComposite in2="hardAlpha" operator="out"/>
<feColorMatrix type="matrix" values="0 0 0 0 0 0 0 0 0 0 0 0 0 0 0 0 0 0 0.45 0"/>
<feBlend mode="normal" in2="BackgroundImageFix" result="effect1_dropShadow_289_1344"/>
<feBlend mode="normal" in="SourceGraphic" in2="effect1_dropShadow_289_1344" result="shape"/>
</filter>
<clipPath id="clip0_289_1344">
<rect width="460.645" height="285.355" fill="white" transform="translate(-0.00012207 81.5303)"/>
</clipPath>
</defs>
</svg>
