<svg width="373" height="381" viewBox="0 0 373 381" fill="none" xmlns="http://www.w3.org/2000/svg">
<ellipse opacity="0.3" cx="190.489" cy="190.253" rx="182.511" ry="190.253" fill="#F0F0F0"/>
<path d="M95.743 225.601C135.401 225.601 167.551 192.088 167.551 150.747C167.551 109.407 135.401 75.8936 95.743 75.8936C56.0849 75.8936 23.9355 109.407 23.9355 150.747C23.9355 192.088 56.0849 225.601 95.743 225.601Z" fill="#55A6DD"/>
<path d="M287.23 277.583C326.888 277.583 359.037 244.069 359.037 202.729C359.037 161.388 326.888 127.875 287.23 127.875C247.572 127.875 215.422 161.388 215.422 202.729C215.422 244.069 247.572 277.583 287.23 277.583Z" fill="#4DB26E"/>
<g filter="url(#filter0_d_694_562)">
<path d="M40.8905 198.571L47.8717 141.391C49.1918 130.579 54.4056 127.876 56.8475 127.876L82.778 130.994L119.679 133.074C130.65 130.648 155.383 125.588 166.553 124.757C177.723 123.925 189.159 132.034 193.481 136.193H200.462H312.163C319.344 136.193 325.793 139.658 328.12 141.391C330.447 156.639 334.902 190.046 334.104 201.69C333.306 213.334 327.788 216.938 325.128 217.284L285.235 223.522L273.267 235.998H264.291V239.117C263.294 242.236 260.9 249.097 259.305 251.592C257.709 254.087 249.331 252.632 245.342 251.592C245.342 254.711 244.544 261.573 241.353 264.068C238.161 266.563 230.05 265.107 226.393 264.068C226.393 268.226 224.997 276.751 219.412 277.583C213.827 278.415 204.452 275.157 200.462 273.425C195.808 276.197 185.303 281.326 180.516 279.662C175.729 277.999 177.192 270.652 178.521 267.187C173.535 270.306 162.764 275.504 159.572 271.345C156.381 267.187 156.248 262.682 156.58 260.949L144.612 267.187C141.953 266.494 136.035 264.276 133.642 260.949C131.248 257.622 134.639 251.246 136.634 248.473C131.979 250.206 122.073 253.256 119.679 251.592C117.285 249.929 115.357 242.582 114.692 239.117C99.4001 234.612 65.6241 224.354 52.8584 219.364C40.0926 214.373 39.5607 203.422 40.8905 198.571Z" fill="white"/>
</g>
<path d="M330.115 171.54C314.158 194.827 264.957 194.412 242.351 191.293C225.595 172.995 191.487 180.896 176.527 187.134C162.963 194.62 148.934 188.867 143.615 185.055C82.1799 201.689 50.8639 182.283 42.8853 170.5L40.8906 204.808L44.8799 214.165L115.69 239.116V245.354L121.674 251.592L131.647 249.512L133.642 254.711V263.028L141.621 265.107L152.591 263.028H157.578V269.265L166.554 272.384L175.53 269.265L178.522 277.583L186.5 280.701L198.468 275.503H206.447C209.771 277.236 217.218 280.078 220.409 277.583C223.601 275.087 225.064 266.84 225.396 263.028C229.718 264.414 239.159 266.77 242.351 265.107C245.542 263.443 245.675 255.404 245.342 251.592C246.672 252.631 251.127 254.087 258.308 251.592C265.488 249.096 264.624 240.156 263.294 235.997H271.273C275.262 235.997 281.579 228.373 284.238 224.561L330.115 214.165C336.498 204.184 332.775 181.589 330.115 171.54Z" fill="#E4E4E4"/>
<mask id="path-6-outside-1_694_562" maskUnits="userSpaceOnUse" x="37.8916" y="121.646" width="299" height="162" fill="black">
<rect fill="white" x="37.8916" y="121.646" width="299" height="162"/>
<path d="M41.6089 178.168C40.5684 186.971 39.606 195.801 39.9702 204.686C40.2303 210.691 42.5453 215.256 48.1119 218.027C52.768 220.336 57.6582 221.668 62.5224 223.217C69.0514 225.282 75.5804 227.482 82.1094 229.575C87.6499 231.368 93.1904 233.107 98.731 234.9C104.011 236.612 109.266 238.323 114.858 240.144C114.832 240.742 114.858 241.611 114.702 242.481C113.974 247.426 116.445 250.768 119.853 253.566C120.347 253.974 121.127 254.001 121.803 254.137C125.107 254.762 128.098 253.675 131.038 252.235C131.714 251.909 132.416 251.61 133.535 251.121C133.249 253.104 133.093 254.707 132.78 256.256C132.156 259.462 132.989 262.179 135.252 264.38C135.876 265.005 136.578 265.494 137.385 265.82C142.925 267.967 148.232 267.831 153.07 263.782C153.616 263.348 154.24 262.994 154.839 262.641C154.969 262.56 155.151 262.641 155.489 262.641C155.489 263.157 155.567 263.674 155.489 264.163C154.734 269.162 158.532 272.64 162.174 273.727C164.931 274.542 167.818 274.026 170.55 273.02C172.501 272.314 174.425 271.553 176.636 270.711C176.636 271.499 176.688 272.232 176.636 272.966C176.376 276.199 177.755 278.781 180.538 280.275C183.087 281.661 185.741 281.932 188.602 281.416C192.816 280.655 196.484 278.699 199.917 276.227C200.932 275.493 201.582 275.602 202.674 276.091C206.55 277.775 210.374 279.813 214.796 279.569C220.701 279.27 225.123 275.52 226.397 269.543C226.709 268.157 226.917 266.717 227.23 265.005C228.4 265.25 229.519 265.576 230.689 265.739C232.822 266.038 234.981 266.527 237.088 266.391C242.837 266.01 246.062 261.038 246.868 256.963C247.155 255.495 247.103 253.947 247.233 252.181C248.923 252.452 250.614 252.724 252.279 252.941C255.869 253.43 259.276 253.077 261.825 250.034C264.348 247.018 266.065 243.649 265.077 239.41C264.947 238.84 265.077 238.188 265.077 237.264C266.065 237.264 266.924 237.155 267.73 237.291C271.45 237.807 274.805 236.829 277.771 234.52C280.892 232.074 283.935 229.493 285.574 225.608C285.964 224.684 286.589 224.303 287.551 224.14C294.392 223.054 301.233 221.94 308.048 220.744C313.407 219.82 318.791 218.815 324.124 217.728C326.491 217.239 328.728 216.315 330.757 214.794C333.956 212.403 334.528 208.925 334.893 205.257C335.413 199.904 334.737 194.606 334.424 189.28C334.19 185.504 334.06 181.7 333.904 177.896C333.878 177.189 333.774 176.211 333.722 175.206C333.488 171.647 333.41 171.293 333.254 169.555C333.176 167.707 333.02 165.859 332.812 164.175C332.135 158.632 331.615 153.035 330.783 147.492C330.471 145.4 329.742 143.28 328.78 141.406C326.959 137.955 323.499 137.167 320.144 136.732C310.493 135.455 300.765 136.515 291.089 136.08C286.172 135.863 281.23 135.999 276.288 135.836C271.866 135.7 267.47 135.265 263.048 135.238C255.114 135.184 247.155 135.347 239.221 135.347C233.082 135.347 226.943 135.211 220.805 135.184C212.663 135.129 204.521 135.075 196.379 135.075C194.897 135.075 193.778 134.776 192.712 133.581C188.316 128.554 182.463 126.217 176.376 124.669C171.044 123.283 165.555 123.419 160.119 124.397C151.275 126 142.431 127.793 133.561 129.233C128.358 130.076 123.078 130.755 117.824 130.918C111.191 131.135 104.532 130.728 97.8726 130.592C97.5344 130.592 97.1702 130.646 96.8321 130.619C92.358 130.402 87.832 130.374 83.384 129.967C77.7914 129.451 72.1989 128.608 66.6063 127.983C63.4329 127.603 60.2334 127.304 57.0339 127.032C54.2767 126.788 52.0397 127.902 50.7131 130.429C48.9443 133.771 47.6437 137.303 47.0714 141.107C46.291 146.459 45.5367 151.839 44.7303 157.192C44.4962 158.795 44.1321 160.371 43.8459 161.974C43.7419 162.599 41.843 176.13 41.6089 178.113V178.168ZM127.11 250.659C126.147 251.012 125.133 251.23 124.145 251.528C119.41 252.072 115.769 244.844 117.876 241.149C119.254 238.785 120.763 236.34 122.688 234.492C126.251 231.069 130.179 228.08 134.705 226.097C137.723 224.765 140.766 223.977 144.018 225.227C146.411 226.151 147.789 228.107 148.752 230.335C149.428 231.938 148.934 233.596 147.815 234.873C146.151 236.829 144.486 238.813 142.613 240.497C137.931 244.654 132.989 248.458 127.084 250.632L127.11 250.659ZM154.578 259.055C152.081 261.391 149.506 263.728 145.942 264.19C145.266 264.271 144.59 264.407 143.94 264.489C142.353 264.244 140.792 264.054 139.283 263.728C136.968 263.239 135.798 261.609 135.304 259.272C134.575 255.93 135.59 252.968 137.385 250.36C140.012 246.502 143.653 243.676 147.243 240.905C150.443 238.459 154.058 236.666 157.804 235.199C162.018 233.541 166.57 236.15 168.391 238.785C169.587 240.524 169.795 242.263 168.703 244.084C168.001 245.225 167.298 246.393 166.388 247.317C162.512 251.284 158.61 255.251 154.578 259.055ZM175.7 267.641C171.876 270.222 167.584 271.716 162.876 270.928C159.599 270.385 157.674 267.07 158.532 263.728C159.026 261.853 159.937 260.277 161.159 258.81C165.607 253.43 171.148 249.708 177.365 246.964C178.093 246.638 178.821 246.312 179.576 246.149C180.33 245.986 181.137 246.04 181.891 245.986C185.767 245.714 188.316 247.697 190.007 251.121C190.969 253.077 190.657 254.626 189.2 256.256C185.22 260.712 180.564 264.326 175.726 267.613L175.7 267.641ZM188.524 278.373C187.796 278.59 186.989 278.509 186.209 278.563L186.105 278.835C184.544 278.373 182.957 278.02 181.475 277.395C179.55 276.58 178.769 275.14 179.342 273.075C179.81 271.39 180.564 269.678 181.605 268.293C183.842 265.277 186.807 263.103 189.903 261.065C192.66 259.245 195.573 257.968 198.799 257.615C199.995 257.479 201.192 257.587 202.362 257.886C205.978 258.892 206.836 262.315 205.093 265.603C201.452 272.477 195.625 276.362 188.524 278.373ZM207.929 137.738C212.169 137.846 216.409 137.738 220.649 137.792C223.926 137.846 227.204 138.037 230.481 138.118C234.357 138.2 238.259 138.254 242.134 138.308C250.354 138.417 258.548 138.526 266.768 138.661C276.626 138.824 286.511 138.987 296.369 139.178C303.886 139.314 311.404 139.477 318.921 139.64C319.181 139.64 319.442 139.694 319.702 139.694C325.164 139.178 326.413 142.003 327.687 146.595C328.338 148.905 328.312 151.404 328.546 153.823C328.936 157.79 329.326 161.729 329.69 165.696C329.898 167.843 330.002 170.016 330.158 172.163C330.158 172.163 330.627 179.907 330.809 183.765C331.147 191.508 332.291 199.225 331.459 207.023C330.939 211.669 329.248 213.761 324.826 214.821C318.843 216.261 312.835 217.918 306.774 218.38C299.464 218.951 292.493 220.907 285.34 222.238C282.843 222.7 280.606 221.831 278.707 220.527C274.883 217.918 271.19 215.093 267.626 212.049C260.629 206.045 253.866 199.714 246.842 193.709C238.961 186.944 230.949 180.368 222.99 173.684C219.504 170.75 215.732 169.065 211.102 169.337C207.773 169.527 204.365 168.712 201.036 168.93C197.524 169.147 195.013 170.315 191.486 171.541C188.494 172.58 186.5 173.62 184.505 175.699C182.313 177.984 180.382 180.26 178.978 182.433C177.001 185.531 174.92 188.547 172.188 190.965C166.674 195.829 160.379 198.247 153.2 196.399C150.13 195.611 146.983 194.09 146.125 190.34C145.63 188.194 145.292 185.803 145.708 183.71C146.619 179.01 148.518 174.635 150.521 170.315C152.992 164.99 156.009 160.045 159.313 155.317C162.954 150.155 166.7 144.938 172.292 141.868C174.816 140.482 177.573 139.585 180.408 139.205C189.512 138.037 198.695 137.547 207.877 137.792L207.929 137.738ZM43.6118 194.09C43.6899 191.291 43.95 188.492 44.2361 185.721C45.0425 178.086 45.7708 170.424 46.8373 162.843C47.8518 155.534 49.2304 148.253 50.531 140.998C50.9472 138.716 51.5454 136.433 52.2738 134.233C53.3142 131.026 54.3547 130.374 57.5022 130.7C65.7739 131.543 74.0197 132.602 82.3175 133.254C90.8494 133.934 99.4073 134.531 107.991 133.852C108.693 133.825 109.37 133.825 110.072 133.852C120.295 134.26 130.439 133.553 140.506 131.679C147.399 130.402 154.24 128.663 161.159 127.576C168.287 126.435 175.336 126.951 182.047 130.103C184.778 131.38 187.639 132.412 190.111 135.075C187.405 135.401 185.038 135.7 182.671 135.944C179.212 136.298 175.856 137.194 172.631 138.553C168.807 140.156 165.842 142.9 163.188 145.998C158.116 151.921 153.72 158.469 150.156 165.479C147.425 170.804 144.824 176.211 143.263 182.053C142.327 185.64 142.171 189.443 144.044 192.867C144.824 194.307 145.994 195.584 147.087 196.807C147.841 197.649 151.483 199.171 152.393 199.388C161.263 201.426 168.781 198.709 175.232 192.269C178.509 188.982 180.902 185.015 183.4 181.075C184.622 179.119 185.502 177.779 187.497 176.739C189.492 175.699 191.365 175.013 192.483 174.66C197.426 173.084 200.671 171.755 205.822 171.891C208.163 171.946 210.478 172.217 212.819 172.244C215.446 172.272 217.709 173.25 219.712 174.934C222.886 177.597 226.033 180.233 229.18 182.922C233.993 187.052 238.727 191.264 243.565 195.367C247.311 198.546 251.186 201.589 254.932 204.768C258.288 207.593 261.487 210.609 264.895 213.354C268.927 216.587 273.036 219.712 277.25 222.7C278.707 223.733 280.528 224.195 282.427 225.01C281.256 227.428 279.409 229.248 277.484 230.987C273.166 234.846 268.328 235.308 263.126 233.297C256.779 230.852 250.692 227.863 245.022 223.923C240.652 220.88 236.178 217.945 231.756 214.957C231.001 214.44 230.169 214.305 229.727 215.12C229.493 215.554 229.779 216.451 230.039 217.022C230.247 217.456 230.767 217.782 231.209 218.054C236.23 221.396 241.224 224.792 246.322 228.08C249.21 229.901 252.149 231.64 255.14 233.243C256.727 234.112 258.444 234.818 260.135 235.471C261.747 236.068 262.58 237.427 262.658 238.948C262.97 245.361 261.019 248.676 255.322 249.817C253.293 250.224 250.978 249.708 248.949 249.056C246.01 248.105 243.175 246.746 240.34 245.388C234.981 242.861 229.649 240.28 224.368 237.59C221.273 236.014 218.307 234.112 215.29 232.373C215.056 232.237 214.874 232.047 214.64 231.911C213.937 231.476 213.157 231.15 212.533 231.938C211.831 232.808 212.429 233.541 213.053 234.003C214.666 235.226 216.227 236.557 217.995 237.481C224.81 241.013 231.678 244.41 238.545 247.86C239.403 248.295 240.261 248.676 241.042 249.056C241.406 250.306 247.233 252.181 241.458 261.12C238.597 263.619 235.345 264.108 231.964 262.886C227.62 261.337 223.354 259.571 219.114 257.751C213.521 255.36 207.955 252.805 202.388 250.36C201.686 250.061 200.906 249.79 200.151 249.79C199.657 249.79 198.877 250.17 198.721 250.577C198.59 250.958 199.033 251.8 199.449 252.072C200.619 252.805 201.92 253.403 203.169 254.001C208.527 256.528 213.885 259.055 219.27 261.554C220.935 262.315 222.625 262.994 224.316 263.701C224.914 268.456 221.767 274.27 217.631 275.928C216.747 276.281 215.758 276.58 214.848 276.525C211.024 276.281 207.487 274.759 203.533 273.346C204.469 272.015 205.171 270.901 205.978 269.896C207.643 267.831 208.631 265.494 208.787 262.777C209.021 258.375 204.651 254.68 200.385 254.544C198.825 254.49 198.07 254.762 196.874 254.952C195.781 255.115 194.325 255.658 192.582 256.256C193.05 255.523 193.388 254.735 193.336 253.512C193.18 250.088 192.14 247.616 189.694 245.605C188.81 244.872 187.978 244.029 186.989 243.513C186.027 243.024 184.882 242.589 183.816 242.644C179.16 242.834 177.599 243.404 173.827 245.007C173.229 245.252 172.605 245.497 171.59 245.904C172.318 243.758 172.865 242.073 172.345 240.117C171.642 237.536 170.394 235.443 168.339 233.976C166.986 232.998 165.529 232.101 163.969 231.639C160.223 230.58 153.382 233.08 151.587 234.302C152.289 231.721 151.925 228.814 149.766 225.852C146.593 221.45 142.405 220.744 137.775 221.641C134.029 222.374 130.856 224.358 127.656 226.559C121.908 230.498 120.165 232.536 117.486 236.15C116.757 237.128 115.951 237.182 114.988 236.856C112.179 235.905 109.396 234.954 106.587 234.058C102.295 232.672 97.9766 231.395 93.6847 230.009C89.7309 228.705 85.8291 227.238 81.8753 225.988C73.7856 223.38 65.6959 220.744 57.5282 218.38C54.0686 217.375 50.8171 216.098 47.7217 214.223C45.0425 212.62 43.7419 210.175 43.6118 207.159C43.4297 202.839 43.5338 198.491 43.6638 194.144L43.6118 194.09Z"/>
</mask>
<path d="M41.6089 178.168C40.5684 186.971 39.606 195.801 39.9702 204.686C40.2303 210.691 42.5453 215.256 48.1119 218.027C52.768 220.336 57.6582 221.668 62.5224 223.217C69.0514 225.282 75.5804 227.482 82.1094 229.575C87.6499 231.368 93.1904 233.107 98.731 234.9C104.011 236.612 109.266 238.323 114.858 240.144C114.832 240.742 114.858 241.611 114.702 242.481C113.974 247.426 116.445 250.768 119.853 253.566C120.347 253.974 121.127 254.001 121.803 254.137C125.107 254.762 128.098 253.675 131.038 252.235C131.714 251.909 132.416 251.61 133.535 251.121C133.249 253.104 133.093 254.707 132.78 256.256C132.156 259.462 132.989 262.179 135.252 264.38C135.876 265.005 136.578 265.494 137.385 265.82C142.925 267.967 148.232 267.831 153.07 263.782C153.616 263.348 154.24 262.994 154.839 262.641C154.969 262.56 155.151 262.641 155.489 262.641C155.489 263.157 155.567 263.674 155.489 264.163C154.734 269.162 158.532 272.64 162.174 273.727C164.931 274.542 167.818 274.026 170.55 273.02C172.501 272.314 174.425 271.553 176.636 270.711C176.636 271.499 176.688 272.232 176.636 272.966C176.376 276.199 177.755 278.781 180.538 280.275C183.087 281.661 185.741 281.932 188.602 281.416C192.816 280.655 196.484 278.699 199.917 276.227C200.932 275.493 201.582 275.602 202.674 276.091C206.55 277.775 210.374 279.813 214.796 279.569C220.701 279.27 225.123 275.52 226.397 269.543C226.709 268.157 226.917 266.717 227.23 265.005C228.4 265.25 229.519 265.576 230.689 265.739C232.822 266.038 234.981 266.527 237.088 266.391C242.837 266.01 246.062 261.038 246.868 256.963C247.155 255.495 247.103 253.947 247.233 252.181C248.923 252.452 250.614 252.724 252.279 252.941C255.869 253.43 259.276 253.077 261.825 250.034C264.348 247.018 266.065 243.649 265.077 239.41C264.947 238.84 265.077 238.188 265.077 237.264C266.065 237.264 266.924 237.155 267.73 237.291C271.45 237.807 274.805 236.829 277.771 234.52C280.892 232.074 283.935 229.493 285.574 225.608C285.964 224.684 286.589 224.303 287.551 224.14C294.392 223.054 301.233 221.94 308.048 220.744C313.407 219.82 318.791 218.815 324.124 217.728C326.491 217.239 328.728 216.315 330.757 214.794C333.956 212.403 334.528 208.925 334.893 205.257C335.413 199.904 334.737 194.606 334.424 189.28C334.19 185.504 334.06 181.7 333.904 177.896C333.878 177.189 333.774 176.211 333.722 175.206C333.488 171.647 333.41 171.293 333.254 169.555C333.176 167.707 333.02 165.859 332.812 164.175C332.135 158.632 331.615 153.035 330.783 147.492C330.471 145.4 329.742 143.28 328.78 141.406C326.959 137.955 323.499 137.167 320.144 136.732C310.493 135.455 300.765 136.515 291.089 136.08C286.172 135.863 281.23 135.999 276.288 135.836C271.866 135.7 267.47 135.265 263.048 135.238C255.114 135.184 247.155 135.347 239.221 135.347C233.082 135.347 226.943 135.211 220.805 135.184C212.663 135.129 204.521 135.075 196.379 135.075C194.897 135.075 193.778 134.776 192.712 133.581C188.316 128.554 182.463 126.217 176.376 124.669C171.044 123.283 165.555 123.419 160.119 124.397C151.275 126 142.431 127.793 133.561 129.233C128.358 130.076 123.078 130.755 117.824 130.918C111.191 131.135 104.532 130.728 97.8726 130.592C97.5344 130.592 97.1702 130.646 96.8321 130.619C92.358 130.402 87.832 130.374 83.384 129.967C77.7914 129.451 72.1989 128.608 66.6063 127.983C63.4329 127.603 60.2334 127.304 57.0339 127.032C54.2767 126.788 52.0397 127.902 50.7131 130.429C48.9443 133.771 47.6437 137.303 47.0714 141.107C46.291 146.459 45.5367 151.839 44.7303 157.192C44.4962 158.795 44.1321 160.371 43.8459 161.974C43.7419 162.599 41.843 176.13 41.6089 178.113V178.168ZM127.11 250.659C126.147 251.012 125.133 251.23 124.145 251.528C119.41 252.072 115.769 244.844 117.876 241.149C119.254 238.785 120.763 236.34 122.688 234.492C126.251 231.069 130.179 228.08 134.705 226.097C137.723 224.765 140.766 223.977 144.018 225.227C146.411 226.151 147.789 228.107 148.752 230.335C149.428 231.938 148.934 233.596 147.815 234.873C146.151 236.829 144.486 238.813 142.613 240.497C137.931 244.654 132.989 248.458 127.084 250.632L127.11 250.659ZM154.578 259.055C152.081 261.391 149.506 263.728 145.942 264.19C145.266 264.271 144.59 264.407 143.94 264.489C142.353 264.244 140.792 264.054 139.283 263.728C136.968 263.239 135.798 261.609 135.304 259.272C134.575 255.93 135.59 252.968 137.385 250.36C140.012 246.502 143.653 243.676 147.243 240.905C150.443 238.459 154.058 236.666 157.804 235.199C162.018 233.541 166.57 236.15 168.391 238.785C169.587 240.524 169.795 242.263 168.703 244.084C168.001 245.225 167.298 246.393 166.388 247.317C162.512 251.284 158.61 255.251 154.578 259.055ZM175.7 267.641C171.876 270.222 167.584 271.716 162.876 270.928C159.599 270.385 157.674 267.07 158.532 263.728C159.026 261.853 159.937 260.277 161.159 258.81C165.607 253.43 171.148 249.708 177.365 246.964C178.093 246.638 178.821 246.312 179.576 246.149C180.33 245.986 181.137 246.04 181.891 245.986C185.767 245.714 188.316 247.697 190.007 251.121C190.969 253.077 190.657 254.626 189.2 256.256C185.22 260.712 180.564 264.326 175.726 267.613L175.7 267.641ZM188.524 278.373C187.796 278.59 186.989 278.509 186.209 278.563L186.105 278.835C184.544 278.373 182.957 278.02 181.475 277.395C179.55 276.58 178.769 275.14 179.342 273.075C179.81 271.39 180.564 269.678 181.605 268.293C183.842 265.277 186.807 263.103 189.903 261.065C192.66 259.245 195.573 257.968 198.799 257.615C199.995 257.479 201.192 257.587 202.362 257.886C205.978 258.892 206.836 262.315 205.093 265.603C201.452 272.477 195.625 276.362 188.524 278.373ZM207.929 137.738C212.169 137.846 216.409 137.738 220.649 137.792C223.926 137.846 227.204 138.037 230.481 138.118C234.357 138.2 238.259 138.254 242.134 138.308C250.354 138.417 258.548 138.526 266.768 138.661C276.626 138.824 286.511 138.987 296.369 139.178C303.886 139.314 311.404 139.477 318.921 139.64C319.181 139.64 319.442 139.694 319.702 139.694C325.164 139.178 326.413 142.003 327.687 146.595C328.338 148.905 328.312 151.404 328.546 153.823C328.936 157.79 329.326 161.729 329.69 165.696C329.898 167.843 330.002 170.016 330.158 172.163C330.158 172.163 330.627 179.907 330.809 183.765C331.147 191.508 332.291 199.225 331.459 207.023C330.939 211.669 329.248 213.761 324.826 214.821C318.843 216.261 312.835 217.918 306.774 218.38C299.464 218.951 292.493 220.907 285.34 222.238C282.843 222.7 280.606 221.831 278.707 220.527C274.883 217.918 271.19 215.093 267.626 212.049C260.629 206.045 253.866 199.714 246.842 193.709C238.961 186.944 230.949 180.368 222.99 173.684C219.504 170.75 215.732 169.065 211.102 169.337C207.773 169.527 204.365 168.712 201.036 168.93C197.524 169.147 195.013 170.315 191.486 171.541C188.494 172.58 186.5 173.62 184.505 175.699C182.313 177.984 180.382 180.26 178.978 182.433C177.001 185.531 174.92 188.547 172.188 190.965C166.674 195.829 160.379 198.247 153.2 196.399C150.13 195.611 146.983 194.09 146.125 190.34C145.63 188.194 145.292 185.803 145.708 183.71C146.619 179.01 148.518 174.635 150.521 170.315C152.992 164.99 156.009 160.045 159.313 155.317C162.954 150.155 166.7 144.938 172.292 141.868C174.816 140.482 177.573 139.585 180.408 139.205C189.512 138.037 198.695 137.547 207.877 137.792L207.929 137.738ZM43.6118 194.09C43.6899 191.291 43.95 188.492 44.2361 185.721C45.0425 178.086 45.7708 170.424 46.8373 162.843C47.8518 155.534 49.2304 148.253 50.531 140.998C50.9472 138.716 51.5454 136.433 52.2738 134.233C53.3142 131.026 54.3547 130.374 57.5022 130.7C65.7739 131.543 74.0197 132.602 82.3175 133.254C90.8494 133.934 99.4073 134.531 107.991 133.852C108.693 133.825 109.37 133.825 110.072 133.852C120.295 134.26 130.439 133.553 140.506 131.679C147.399 130.402 154.24 128.663 161.159 127.576C168.287 126.435 175.336 126.951 182.047 130.103C184.778 131.38 187.639 132.412 190.111 135.075C187.405 135.401 185.038 135.7 182.671 135.944C179.212 136.298 175.856 137.194 172.631 138.553C168.807 140.156 165.842 142.9 163.188 145.998C158.116 151.921 153.72 158.469 150.156 165.479C147.425 170.804 144.824 176.211 143.263 182.053C142.327 185.64 142.171 189.443 144.044 192.867C144.824 194.307 145.994 195.584 147.087 196.807C147.841 197.649 151.483 199.171 152.393 199.388C161.263 201.426 168.781 198.709 175.232 192.269C178.509 188.982 180.902 185.015 183.4 181.075C184.622 179.119 185.502 177.779 187.497 176.739C189.492 175.699 191.365 175.013 192.483 174.66C197.426 173.084 200.671 171.755 205.822 171.891C208.163 171.946 210.478 172.217 212.819 172.244C215.446 172.272 217.709 173.25 219.712 174.934C222.886 177.597 226.033 180.233 229.18 182.922C233.993 187.052 238.727 191.264 243.565 195.367C247.311 198.546 251.186 201.589 254.932 204.768C258.288 207.593 261.487 210.609 264.895 213.354C268.927 216.587 273.036 219.712 277.25 222.7C278.707 223.733 280.528 224.195 282.427 225.01C281.256 227.428 279.409 229.248 277.484 230.987C273.166 234.846 268.328 235.308 263.126 233.297C256.779 230.852 250.692 227.863 245.022 223.923C240.652 220.88 236.178 217.945 231.756 214.957C231.001 214.44 230.169 214.305 229.727 215.12C229.493 215.554 229.779 216.451 230.039 217.022C230.247 217.456 230.767 217.782 231.209 218.054C236.23 221.396 241.224 224.792 246.322 228.08C249.21 229.901 252.149 231.64 255.14 233.243C256.727 234.112 258.444 234.818 260.135 235.471C261.747 236.068 262.58 237.427 262.658 238.948C262.97 245.361 261.019 248.676 255.322 249.817C253.293 250.224 250.978 249.708 248.949 249.056C246.01 248.105 243.175 246.746 240.34 245.388C234.981 242.861 229.649 240.28 224.368 237.59C221.273 236.014 218.307 234.112 215.29 232.373C215.056 232.237 214.874 232.047 214.64 231.911C213.937 231.476 213.157 231.15 212.533 231.938C211.831 232.808 212.429 233.541 213.053 234.003C214.666 235.226 216.227 236.557 217.995 237.481C224.81 241.013 231.678 244.41 238.545 247.86C239.403 248.295 240.261 248.676 241.042 249.056C241.406 250.306 247.233 252.181 241.458 261.12C238.597 263.619 235.345 264.108 231.964 262.886C227.62 261.337 223.354 259.571 219.114 257.751C213.521 255.36 207.955 252.805 202.388 250.36C201.686 250.061 200.906 249.79 200.151 249.79C199.657 249.79 198.877 250.17 198.721 250.577C198.59 250.958 199.033 251.8 199.449 252.072C200.619 252.805 201.92 253.403 203.169 254.001C208.527 256.528 213.885 259.055 219.27 261.554C220.935 262.315 222.625 262.994 224.316 263.701C224.914 268.456 221.767 274.27 217.631 275.928C216.747 276.281 215.758 276.58 214.848 276.525C211.024 276.281 207.487 274.759 203.533 273.346C204.469 272.015 205.171 270.901 205.978 269.896C207.643 267.831 208.631 265.494 208.787 262.777C209.021 258.375 204.651 254.68 200.385 254.544C198.825 254.49 198.07 254.762 196.874 254.952C195.781 255.115 194.325 255.658 192.582 256.256C193.05 255.523 193.388 254.735 193.336 253.512C193.18 250.088 192.14 247.616 189.694 245.605C188.81 244.872 187.978 244.029 186.989 243.513C186.027 243.024 184.882 242.589 183.816 242.644C179.16 242.834 177.599 243.404 173.827 245.007C173.229 245.252 172.605 245.497 171.59 245.904C172.318 243.758 172.865 242.073 172.345 240.117C171.642 237.536 170.394 235.443 168.339 233.976C166.986 232.998 165.529 232.101 163.969 231.639C160.223 230.58 153.382 233.08 151.587 234.302C152.289 231.721 151.925 228.814 149.766 225.852C146.593 221.45 142.405 220.744 137.775 221.641C134.029 222.374 130.856 224.358 127.656 226.559C121.908 230.498 120.165 232.536 117.486 236.15C116.757 237.128 115.951 237.182 114.988 236.856C112.179 235.905 109.396 234.954 106.587 234.058C102.295 232.672 97.9766 231.395 93.6847 230.009C89.7309 228.705 85.8291 227.238 81.8753 225.988C73.7856 223.38 65.6959 220.744 57.5282 218.38C54.0686 217.375 50.8171 216.098 47.7217 214.223C45.0425 212.62 43.7419 210.175 43.6118 207.159C43.4297 202.839 43.5338 198.491 43.6638 194.144L43.6118 194.09Z" fill="black"/>
<path d="M41.6089 178.168C40.5684 186.971 39.606 195.801 39.9702 204.686C40.2303 210.691 42.5453 215.256 48.1119 218.027C52.768 220.336 57.6582 221.668 62.5224 223.217C69.0514 225.282 75.5804 227.482 82.1094 229.575C87.6499 231.368 93.1904 233.107 98.731 234.9C104.011 236.612 109.266 238.323 114.858 240.144C114.832 240.742 114.858 241.611 114.702 242.481C113.974 247.426 116.445 250.768 119.853 253.566C120.347 253.974 121.127 254.001 121.803 254.137C125.107 254.762 128.098 253.675 131.038 252.235C131.714 251.909 132.416 251.61 133.535 251.121C133.249 253.104 133.093 254.707 132.78 256.256C132.156 259.462 132.989 262.179 135.252 264.38C135.876 265.005 136.578 265.494 137.385 265.82C142.925 267.967 148.232 267.831 153.07 263.782C153.616 263.348 154.24 262.994 154.839 262.641C154.969 262.56 155.151 262.641 155.489 262.641C155.489 263.157 155.567 263.674 155.489 264.163C154.734 269.162 158.532 272.64 162.174 273.727C164.931 274.542 167.818 274.026 170.55 273.02C172.501 272.314 174.425 271.553 176.636 270.711C176.636 271.499 176.688 272.232 176.636 272.966C176.376 276.199 177.755 278.781 180.538 280.275C183.087 281.661 185.741 281.932 188.602 281.416C192.816 280.655 196.484 278.699 199.917 276.227C200.932 275.493 201.582 275.602 202.674 276.091C206.55 277.775 210.374 279.813 214.796 279.569C220.701 279.27 225.123 275.52 226.397 269.543C226.709 268.157 226.917 266.717 227.23 265.005C228.4 265.25 229.519 265.576 230.689 265.739C232.822 266.038 234.981 266.527 237.088 266.391C242.837 266.01 246.062 261.038 246.868 256.963C247.155 255.495 247.103 253.947 247.233 252.181C248.923 252.452 250.614 252.724 252.279 252.941C255.869 253.43 259.276 253.077 261.825 250.034C264.348 247.018 266.065 243.649 265.077 239.41C264.947 238.84 265.077 238.188 265.077 237.264C266.065 237.264 266.924 237.155 267.73 237.291C271.45 237.807 274.805 236.829 277.771 234.52C280.892 232.074 283.935 229.493 285.574 225.608C285.964 224.684 286.589 224.303 287.551 224.14C294.392 223.054 301.233 221.94 308.048 220.744C313.407 219.82 318.791 218.815 324.124 217.728C326.491 217.239 328.728 216.315 330.757 214.794C333.956 212.403 334.528 208.925 334.893 205.257C335.413 199.904 334.737 194.606 334.424 189.28C334.19 185.504 334.06 181.7 333.904 177.896C333.878 177.189 333.774 176.211 333.722 175.206C333.488 171.647 333.41 171.293 333.254 169.555C333.176 167.707 333.02 165.859 332.812 164.175C332.135 158.632 331.615 153.035 330.783 147.492C330.471 145.4 329.742 143.28 328.78 141.406C326.959 137.955 323.499 137.167 320.144 136.732C310.493 135.455 300.765 136.515 291.089 136.08C286.172 135.863 281.23 135.999 276.288 135.836C271.866 135.7 267.47 135.265 263.048 135.238C255.114 135.184 247.155 135.347 239.221 135.347C233.082 135.347 226.943 135.211 220.805 135.184C212.663 135.129 204.521 135.075 196.379 135.075C194.897 135.075 193.778 134.776 192.712 133.581C188.316 128.554 182.463 126.217 176.376 124.669C171.044 123.283 165.555 123.419 160.119 124.397C151.275 126 142.431 127.793 133.561 129.233C128.358 130.076 123.078 130.755 117.824 130.918C111.191 131.135 104.532 130.728 97.8726 130.592C97.5344 130.592 97.1702 130.646 96.8321 130.619C92.358 130.402 87.832 130.374 83.384 129.967C77.7914 129.451 72.1989 128.608 66.6063 127.983C63.4329 127.603 60.2334 127.304 57.0339 127.032C54.2767 126.788 52.0397 127.902 50.7131 130.429C48.9443 133.771 47.6437 137.303 47.0714 141.107C46.291 146.459 45.5367 151.839 44.7303 157.192C44.4962 158.795 44.1321 160.371 43.8459 161.974C43.7419 162.599 41.843 176.13 41.6089 178.113V178.168ZM127.11 250.659C126.147 251.012 125.133 251.23 124.145 251.528C119.41 252.072 115.769 244.844 117.876 241.149C119.254 238.785 120.763 236.34 122.688 234.492C126.251 231.069 130.179 228.08 134.705 226.097C137.723 224.765 140.766 223.977 144.018 225.227C146.411 226.151 147.789 228.107 148.752 230.335C149.428 231.938 148.934 233.596 147.815 234.873C146.151 236.829 144.486 238.813 142.613 240.497C137.931 244.654 132.989 248.458 127.084 250.632L127.11 250.659ZM154.578 259.055C152.081 261.391 149.506 263.728 145.942 264.19C145.266 264.271 144.59 264.407 143.94 264.489C142.353 264.244 140.792 264.054 139.283 263.728C136.968 263.239 135.798 261.609 135.304 259.272C134.575 255.93 135.59 252.968 137.385 250.36C140.012 246.502 143.653 243.676 147.243 240.905C150.443 238.459 154.058 236.666 157.804 235.199C162.018 233.541 166.57 236.15 168.391 238.785C169.587 240.524 169.795 242.263 168.703 244.084C168.001 245.225 167.298 246.393 166.388 247.317C162.512 251.284 158.61 255.251 154.578 259.055ZM175.7 267.641C171.876 270.222 167.584 271.716 162.876 270.928C159.599 270.385 157.674 267.07 158.532 263.728C159.026 261.853 159.937 260.277 161.159 258.81C165.607 253.43 171.148 249.708 177.365 246.964C178.093 246.638 178.821 246.312 179.576 246.149C180.33 245.986 181.137 246.04 181.891 245.986C185.767 245.714 188.316 247.697 190.007 251.121C190.969 253.077 190.657 254.626 189.2 256.256C185.22 260.712 180.564 264.326 175.726 267.613L175.7 267.641ZM188.524 278.373C187.796 278.59 186.989 278.509 186.209 278.563L186.105 278.835C184.544 278.373 182.957 278.02 181.475 277.395C179.55 276.58 178.769 275.14 179.342 273.075C179.81 271.39 180.564 269.678 181.605 268.293C183.842 265.277 186.807 263.103 189.903 261.065C192.66 259.245 195.573 257.968 198.799 257.615C199.995 257.479 201.192 257.587 202.362 257.886C205.978 258.892 206.836 262.315 205.093 265.603C201.452 272.477 195.625 276.362 188.524 278.373ZM207.929 137.738C212.169 137.846 216.409 137.738 220.649 137.792C223.926 137.846 227.204 138.037 230.481 138.118C234.357 138.2 238.259 138.254 242.134 138.308C250.354 138.417 258.548 138.526 266.768 138.661C276.626 138.824 286.511 138.987 296.369 139.178C303.886 139.314 311.404 139.477 318.921 139.64C319.181 139.64 319.442 139.694 319.702 139.694C325.164 139.178 326.413 142.003 327.687 146.595C328.338 148.905 328.312 151.404 328.546 153.823C328.936 157.79 329.326 161.729 329.69 165.696C329.898 167.843 330.002 170.016 330.158 172.163C330.158 172.163 330.627 179.907 330.809 183.765C331.147 191.508 332.291 199.225 331.459 207.023C330.939 211.669 329.248 213.761 324.826 214.821C318.843 216.261 312.835 217.918 306.774 218.38C299.464 218.951 292.493 220.907 285.34 222.238C282.843 222.7 280.606 221.831 278.707 220.527C274.883 217.918 271.19 215.093 267.626 212.049C260.629 206.045 253.866 199.714 246.842 193.709C238.961 186.944 230.949 180.368 222.99 173.684C219.504 170.75 215.732 169.065 211.102 169.337C207.773 169.527 204.365 168.712 201.036 168.93C197.524 169.147 195.013 170.315 191.486 171.541C188.494 172.58 186.5 173.62 184.505 175.699C182.313 177.984 180.382 180.26 178.978 182.433C177.001 185.531 174.92 188.547 172.188 190.965C166.674 195.829 160.379 198.247 153.2 196.399C150.13 195.611 146.983 194.09 146.125 190.34C145.63 188.194 145.292 185.803 145.708 183.71C146.619 179.01 148.518 174.635 150.521 170.315C152.992 164.99 156.009 160.045 159.313 155.317C162.954 150.155 166.7 144.938 172.292 141.868C174.816 140.482 177.573 139.585 180.408 139.205C189.512 138.037 198.695 137.547 207.877 137.792L207.929 137.738ZM43.6118 194.09C43.6899 191.291 43.95 188.492 44.2361 185.721C45.0425 178.086 45.7708 170.424 46.8373 162.843C47.8518 155.534 49.2304 148.253 50.531 140.998C50.9472 138.716 51.5454 136.433 52.2738 134.233C53.3142 131.026 54.3547 130.374 57.5022 130.7C65.7739 131.543 74.0197 132.602 82.3175 133.254C90.8494 133.934 99.4073 134.531 107.991 133.852C108.693 133.825 109.37 133.825 110.072 133.852C120.295 134.26 130.439 133.553 140.506 131.679C147.399 130.402 154.24 128.663 161.159 127.576C168.287 126.435 175.336 126.951 182.047 130.103C184.778 131.38 187.639 132.412 190.111 135.075C187.405 135.401 185.038 135.7 182.671 135.944C179.212 136.298 175.856 137.194 172.631 138.553C168.807 140.156 165.842 142.9 163.188 145.998C158.116 151.921 153.72 158.469 150.156 165.479C147.425 170.804 144.824 176.211 143.263 182.053C142.327 185.64 142.171 189.443 144.044 192.867C144.824 194.307 145.994 195.584 147.087 196.807C147.841 197.649 151.483 199.171 152.393 199.388C161.263 201.426 168.781 198.709 175.232 192.269C178.509 188.982 180.902 185.015 183.4 181.075C184.622 179.119 185.502 177.779 187.497 176.739C189.492 175.699 191.365 175.013 192.483 174.66C197.426 173.084 200.671 171.755 205.822 171.891C208.163 171.946 210.478 172.217 212.819 172.244C215.446 172.272 217.709 173.25 219.712 174.934C222.886 177.597 226.033 180.233 229.18 182.922C233.993 187.052 238.727 191.264 243.565 195.367C247.311 198.546 251.186 201.589 254.932 204.768C258.288 207.593 261.487 210.609 264.895 213.354C268.927 216.587 273.036 219.712 277.25 222.7C278.707 223.733 280.528 224.195 282.427 225.01C281.256 227.428 279.409 229.248 277.484 230.987C273.166 234.846 268.328 235.308 263.126 233.297C256.779 230.852 250.692 227.863 245.022 223.923C240.652 220.88 236.178 217.945 231.756 214.957C231.001 214.44 230.169 214.305 229.727 215.12C229.493 215.554 229.779 216.451 230.039 217.022C230.247 217.456 230.767 217.782 231.209 218.054C236.23 221.396 241.224 224.792 246.322 228.08C249.21 229.901 252.149 231.64 255.14 233.243C256.727 234.112 258.444 234.818 260.135 235.471C261.747 236.068 262.58 237.427 262.658 238.948C262.97 245.361 261.019 248.676 255.322 249.817C253.293 250.224 250.978 249.708 248.949 249.056C246.01 248.105 243.175 246.746 240.34 245.388C234.981 242.861 229.649 240.28 224.368 237.59C221.273 236.014 218.307 234.112 215.29 232.373C215.056 232.237 214.874 232.047 214.64 231.911C213.937 231.476 213.157 231.15 212.533 231.938C211.831 232.808 212.429 233.541 213.053 234.003C214.666 235.226 216.227 236.557 217.995 237.481C224.81 241.013 231.678 244.41 238.545 247.86C239.403 248.295 240.261 248.676 241.042 249.056C241.406 250.306 247.233 252.181 241.458 261.12C238.597 263.619 235.345 264.108 231.964 262.886C227.62 261.337 223.354 259.571 219.114 257.751C213.521 255.36 207.955 252.805 202.388 250.36C201.686 250.061 200.906 249.79 200.151 249.79C199.657 249.79 198.877 250.17 198.721 250.577C198.59 250.958 199.033 251.8 199.449 252.072C200.619 252.805 201.92 253.403 203.169 254.001C208.527 256.528 213.885 259.055 219.27 261.554C220.935 262.315 222.625 262.994 224.316 263.701C224.914 268.456 221.767 274.27 217.631 275.928C216.747 276.281 215.758 276.58 214.848 276.525C211.024 276.281 207.487 274.759 203.533 273.346C204.469 272.015 205.171 270.901 205.978 269.896C207.643 267.831 208.631 265.494 208.787 262.777C209.021 258.375 204.651 254.68 200.385 254.544C198.825 254.49 198.07 254.762 196.874 254.952C195.781 255.115 194.325 255.658 192.582 256.256C193.05 255.523 193.388 254.735 193.336 253.512C193.18 250.088 192.14 247.616 189.694 245.605C188.81 244.872 187.978 244.029 186.989 243.513C186.027 243.024 184.882 242.589 183.816 242.644C179.16 242.834 177.599 243.404 173.827 245.007C173.229 245.252 172.605 245.497 171.59 245.904C172.318 243.758 172.865 242.073 172.345 240.117C171.642 237.536 170.394 235.443 168.339 233.976C166.986 232.998 165.529 232.101 163.969 231.639C160.223 230.58 153.382 233.08 151.587 234.302C152.289 231.721 151.925 228.814 149.766 225.852C146.593 221.45 142.405 220.744 137.775 221.641C134.029 222.374 130.856 224.358 127.656 226.559C121.908 230.498 120.165 232.536 117.486 236.15C116.757 237.128 115.951 237.182 114.988 236.856C112.179 235.905 109.396 234.954 106.587 234.058C102.295 232.672 97.9766 231.395 93.6847 230.009C89.7309 228.705 85.8291 227.238 81.8753 225.988C73.7856 223.38 65.6959 220.744 57.5282 218.38C54.0686 217.375 50.8171 216.098 47.7217 214.223C45.0425 212.62 43.7419 210.175 43.6118 207.159C43.4297 202.839 43.5338 198.491 43.6638 194.144L43.6118 194.09Z" stroke="black" stroke-width="3.54012" mask="url(#path-6-outside-1_694_562)"/>
<path d="M225.734 113.41C230.621 105.88 236.206 98.8787 241.525 91.6826" stroke="black" stroke-width="7.08024" stroke-linecap="round"/>
<path d="M201.102 106.167C201.102 99.7548 201.795 93.4563 202.365 87.0732" stroke="black" stroke-width="7.08024" stroke-linecap="round"/>
<path d="M154.362 77.1973C159.425 87.7539 165.939 97.5802 172.047 107.484" stroke="black" stroke-width="7.08024" stroke-linecap="round"/>
<path d="M147.413 101.558C149.25 103.435 151.131 105.116 153.098 106.825" stroke="black" stroke-width="7.08024" stroke-linecap="round"/>
<path d="M233.945 291.839C238.593 302.517 245.498 311.698 251.631 321.467" stroke="black" stroke-width="7.08024" stroke-linecap="round"/>
<path d="M216.26 299.74C217.659 305.47 219.178 311.158 220.682 316.859" stroke="black" stroke-width="7.08024" stroke-linecap="round"/>
<path d="M197.312 299.74V305.666" stroke="black" stroke-width="7.08024" stroke-linecap="round"/>
<path d="M178.995 297.764C175.596 305.327 171.89 312.707 168.257 320.15" stroke="black" stroke-width="7.08024" stroke-linecap="round"/>
<path d="M152.467 295.789C143.845 303.681 135.592 311.995 127.202 320.15" stroke="black" stroke-width="7.08024" stroke-linecap="round"/>
<defs>
<filter id="filter0_d_694_562" x="19.1528" y="103.457" width="336.287" height="197.771" filterUnits="userSpaceOnUse" color-interpolation-filters="sRGB">
<feFlood flood-opacity="0" result="BackgroundImageFix"/>
<feColorMatrix in="SourceAlpha" type="matrix" values="0 0 0 0 0 0 0 0 0 0 0 0 0 0 0 0 0 0 127 0" result="hardAlpha"/>
<feOffset/>
<feGaussianBlur stdDeviation="10.6204"/>
<feComposite in2="hardAlpha" operator="out"/>
<feColorMatrix type="matrix" values="0 0 0 0 0 0 0 0 0 0 0 0 0 0 0 0 0 0 0.25 0"/>
<feBlend mode="normal" in2="BackgroundImageFix" result="effect1_dropShadow_694_562"/>
<feBlend mode="normal" in="SourceGraphic" in2="effect1_dropShadow_694_562" result="shape"/>
</filter>
</defs>
</svg>
