<svg width="414" height="458" viewBox="0 0 414 458" fill="none" xmlns="http://www.w3.org/2000/svg">
<path opacity="0.31" fill-rule="evenodd" clip-rule="evenodd" d="M346.248 202.135C347.698 236.022 319.439 260.521 307.862 291.954C295.748 324.844 302.762 368.758 277.015 390.116C251.017 411.681 213.929 402.913 181.901 396.439C152.091 390.414 122.509 378.959 101.71 354.683C81.8895 331.548 79.8707 298.189 71.6187 267.717C62.5074 234.071 42.088 201.198 51.0218 167.504C60.2975 132.521 88.3543 106.068 118.483 90.9687C146.971 76.6917 178.892 84.536 210.06 87.802C241.437 91.0898 275.01 88.9533 300.076 109.997C326.049 131.802 344.711 166.226 346.248 202.135Z" fill="#33C097"/>
<path opacity="0.31" fill-rule="evenodd" clip-rule="evenodd" d="M310.795 124.065C326.723 152.827 312.967 188.614 316.599 221.903C320.399 256.737 345.466 291.383 332.516 323.149C319.438 355.225 283.66 366.563 253.239 377.311C224.924 387.314 194.455 392.474 166.006 381.977C138.894 371.973 122.705 343.962 102.391 321.652C79.9619 297.019 48.1162 278.843 41.2261 244.936C34.0723 209.733 46.8078 172.348 66.2476 143.79C84.6292 116.786 115.552 107.286 143.842 94.1859C172.322 80.9977 200.346 61.9631 231.075 67.4626C262.915 73.1608 293.917 93.5858 310.795 124.065Z" stroke="#1D8054" stroke-width="3"/>
<path d="M129.059 163.087C127.82 163.429 126.627 163.809 125.425 164.067C124.759 164.186 124.082 164.213 123.41 164.148C122.426 164.082 121.858 163.447 121.886 162.564C121.913 161.682 122.534 161.084 123.522 161.138C125.245 161.229 126.831 160.749 128.386 159.988C128.889 159.74 129.104 159.453 129.103 158.804C129.079 150.729 129.076 142.653 129.093 134.577C129.093 133.943 129.232 133.308 129.335 132.438C128.281 132.857 127.189 133.203 126.171 133.721C125.198 134.215 124.25 134.775 123.901 136.08C123.739 136.696 123.178 136.959 122.578 136.852C121.917 136.733 121.529 136.25 121.43 135.537C121.268 134.379 121.824 133.536 122.541 132.814C123.97 131.396 125.7 130.395 127.572 129.904C132.378 128.567 136.633 129.617 140.099 133.648C142.207 136.105 143.12 139.137 143.305 142.471C143.616 148.104 141.404 152.545 137.779 156.227C136.102 157.932 134.186 159.353 132.407 160.94C132.124 161.209 131.934 161.579 131.872 161.985C131.799 162.625 131.896 163.286 131.901 163.937C131.911 165.098 131.288 165.92 130.442 165.899C129.596 165.877 129.072 165.121 129.065 163.953C129.057 163.659 129.059 163.368 129.059 163.087ZM131.575 132.384C131.669 133.438 131.83 134.417 131.833 135.397C131.854 142.457 131.845 149.516 131.845 156.575V157.645C132.091 157.496 132.329 157.33 132.556 157.147C134.056 155.705 135.637 154.35 137.02 152.777C138.948 150.58 140.271 147.963 140.519 144.85C140.787 141.483 140.273 138.327 138.142 135.722C136.363 133.561 134.124 132.447 131.575 132.384Z" fill="#171719"/>
<path d="M170.232 151.504L165.064 151.191C164.913 153.385 164.763 155.471 164.626 157.571C164.45 160.294 164.286 163.017 164.109 165.739C164.096 166.006 164.053 166.27 163.983 166.526C163.756 167.291 163.149 167.751 162.509 167.621C161.773 167.471 161.359 166.936 161.348 166.135C161.338 165.422 161.453 164.718 161.5 164.006C161.783 159.716 162.123 155.428 162.324 151.133C162.486 147.773 163.122 144.482 163.297 141.128C163.506 137.073 163.756 133.018 163.992 128.966C164.018 128.523 164.005 128.06 164.125 127.646C164.346 126.887 164.823 126.366 165.585 126.323C166.308 126.284 166.752 126.76 166.987 127.446C167.71 129.554 168.541 131.631 169.095 133.794C170.275 138.444 171.316 143.141 172.387 147.825C172.513 148.378 172.68 148.636 173.235 148.588C173.8 148.54 174.369 148.553 174.932 148.627C175.717 148.729 176.218 149.341 176.215 150.086C176.212 150.831 175.714 151.446 174.918 151.536C174.339 151.602 173.749 151.548 173.042 151.548C173.403 153.688 173.703 155.672 174.079 157.635C174.618 160.451 175.214 163.252 175.783 166.059C175.993 167.086 175.675 167.842 174.935 168.091C174.159 168.346 173.406 167.913 173.17 166.865C172.576 164.249 172.03 161.619 171.53 158.973C171.06 156.51 170.666 154.028 170.232 151.504ZM169.851 148.449L166.793 135.297L166.571 135.351C166.178 139.593 165.784 143.836 165.384 148.167L169.851 148.449Z" fill="#171719"/>
<path d="M207.79 151.593C207.661 148.336 207.571 145.076 207.392 141.822C207.218 138.684 206.947 135.553 206.728 132.416C206.652 131.311 207.161 130.525 207.965 130.455C208.799 130.386 209.425 131.072 209.485 132.254C209.827 139.067 210.157 145.88 210.474 152.695C210.562 154.057 210.585 155.423 210.545 156.787C210.499 157.381 210.27 157.939 209.897 158.371C209.438 158.868 208.87 158.538 208.335 158.226C206.856 157.365 206.166 155.828 205.61 154.266C203.677 148.853 201.039 143.858 198.292 138.921C198.256 138.849 198.207 138.787 198.147 138.738C198.088 138.689 198.019 138.655 197.947 138.638C198.026 140.191 198.122 141.744 198.185 143.298C198.385 148.129 198.586 152.957 198.757 157.789C198.798 158.915 198.206 159.626 197.386 159.599C196.599 159.576 196.105 158.886 196.058 157.816C195.727 150.402 195.388 142.995 195.04 135.594C194.984 134.44 194.806 133.295 194.715 132.142C194.647 131.265 195.069 130.537 195.748 130.341C196.523 130.113 197.053 130.519 197.426 131.232C199.813 135.745 202.239 140.235 204.561 144.784C205.546 146.717 206.315 148.787 207.179 150.794C207.301 151.078 207.409 151.369 207.524 151.656L207.79 151.593Z" fill="#171719"/>
<path d="M242.482 166.798C240.48 166.81 238.784 165.936 237.347 164.497C234.628 161.775 232.366 158.663 230.973 154.869C230.843 154.511 230.747 154.139 230.685 153.76C230.539 152.868 230.915 152.105 231.57 151.888C232.283 151.65 233.015 152.052 233.269 152.975C234.158 156.203 236.074 158.694 238.069 161.119C238.681 161.834 239.367 162.466 240.115 163.003C241.308 163.895 242.636 163.968 243.995 163.49C244.757 163.223 245.13 162.686 245.099 161.768C245.039 159.931 244.23 158.431 243.163 157.176C240.731 154.323 238.205 151.552 235.682 148.796C234.018 146.973 232.248 145.263 231.04 143.003C229.684 140.469 229.329 137.832 230.466 135.093C231.546 132.495 233.709 131.348 236.206 132.104C239.207 133.008 241.394 135.191 243.244 137.81C243.671 138.413 243.629 139.119 243.103 139.67C242.578 140.221 241.911 140.246 241.334 139.748C240.928 139.359 240.552 138.934 240.209 138.477C239.124 137.168 237.9 136.054 236.416 135.344C234.299 134.33 232.955 135.166 232.595 137.662C232.39 139.089 232.789 140.362 233.451 141.555C234.748 143.898 236.703 145.581 238.424 147.501C240.827 150.185 243.243 152.861 245.545 155.648C246.728 157.056 247.501 158.821 247.765 160.716C248.194 163.893 246.748 166.097 243.859 166.63C243.4 166.721 242.939 166.748 242.482 166.798Z" fill="#171719"/>
<path d="M190.814 151.978C190.225 152.142 189.841 152.285 189.449 152.347C189.098 152.413 188.738 152.335 188.436 152.129C188.134 151.923 187.911 151.603 187.808 151.229C187.724 150.881 187.76 150.51 187.91 150.19C188.06 149.869 188.312 149.621 188.619 149.492C190.202 148.751 191.788 148.01 193.376 147.271C194.047 146.957 194.673 147.023 195.117 147.69C195.519 148.287 195.451 148.938 195.022 149.492C194.843 149.755 194.605 149.961 194.331 150.09C193.536 150.361 193.4 150.91 193.441 151.762C193.561 154.193 193.269 156.577 192.26 158.772C191.667 160.07 190.956 161.299 190.14 162.441C188.194 165.132 185.155 165.059 183.338 162.101C182.113 160.109 181.17 157.866 180.359 155.623C178.7 151.029 177.862 146.235 178.053 141.265C178.159 138.516 178.553 135.831 179.837 133.402C180.108 132.891 180.427 132.413 180.789 131.976C181.749 130.824 182.924 130.243 184.356 130.678C187.224 131.55 189.616 133.163 190.932 136.232C191.216 136.958 191.35 137.744 191.325 138.534C191.317 139.247 190.821 139.703 190.135 139.748C189.408 139.794 188.902 139.366 188.769 138.625C188.283 135.893 186.396 134.727 184.338 133.771C183.454 133.359 182.981 133.593 182.422 134.513C181.501 136.034 181.086 137.758 180.933 139.539C180.323 146.618 181.878 153.192 184.897 159.401C185.133 159.869 185.425 160.299 185.767 160.679C186.577 161.607 187.487 161.616 188.046 160.501C188.915 158.734 189.676 156.906 190.326 155.029C190.647 154.121 190.649 153.082 190.814 151.978Z" fill="#171719"/>
<path d="M226.709 146.989C226.709 151.447 225.819 155.639 223.779 159.508C223.425 160.174 223.015 160.803 222.555 161.386C220.933 163.443 218.545 163.525 216.791 161.605C215.359 160.032 214.569 158.039 213.934 155.981C212.465 151.217 212.672 146.392 213.642 141.571C214.229 138.659 215.122 135.865 216.75 133.422C218.378 130.979 220.993 130.705 222.868 132.887C223.77 133.985 224.484 135.254 224.976 136.631C226.185 139.887 226.706 143.518 226.709 146.989ZM223.953 146.383C224.003 143.846 223.466 140.734 222.435 137.746C222.067 136.733 221.546 135.796 220.893 134.975C220.257 134.155 219.539 134.397 219.132 135.365C218.976 135.705 218.793 136.029 218.584 136.332C218.281 136.804 217.871 137.223 217.66 137.732C216.111 141.506 215.552 145.499 215.63 149.61C215.679 152.562 216.404 155.452 217.738 158.014C218.031 158.58 218.393 159.099 218.814 159.558C219.301 160.082 219.875 160.13 220.381 159.533C220.625 159.258 220.847 158.96 221.044 158.642C223.111 155.113 223.961 151.217 223.959 146.383H223.953Z" fill="#171719"/>
<path d="M153.602 159.781C155.075 159.185 156.408 158.638 157.748 158.108C158.104 157.967 158.469 157.856 158.84 157.778C159.707 157.6 160.471 158.087 160.623 158.875C160.776 159.663 160.364 160.316 159.503 160.669C157.71 161.403 155.905 162.106 154.138 162.912C152.596 163.616 151.118 164.493 149.576 165.198C148.877 165.505 148.138 165.689 147.386 165.742C146.403 165.82 145.734 165.132 145.724 164.228C145.714 163.324 146.408 162.841 147.345 162.623C148.461 162.375 149.529 161.856 150.601 161.407C150.724 161.357 150.801 161.008 150.802 160.795C150.835 152.1 150.858 143.403 150.874 134.704C150.874 134.443 150.835 134.181 150.801 133.762C149.799 134.224 148.871 134.654 147.937 135.08C147.4 135.351 146.848 135.582 146.283 135.772C145.484 136 144.715 135.535 144.513 134.791C144.31 134.048 144.651 133.333 145.445 132.962C146.904 132.281 148.406 131.669 149.855 130.95C152.21 129.783 154.546 128.57 156.875 127.338C157.787 126.855 158.631 126.951 159.028 127.695C159.425 128.438 159.209 129.299 158.316 129.863C156.962 130.719 155.56 131.468 154.149 132.229C153.76 132.439 153.601 132.65 153.601 133.158C153.616 141.468 153.616 149.779 153.601 158.09L153.602 159.781Z" fill="#1A191B"/>
<path d="M276.148 157.188C278.239 155.94 280.201 154.779 282.181 153.622C282.439 153.459 282.717 153.339 283.006 153.265C283.655 153.126 284.2 153.39 284.488 154.053C284.777 154.717 284.642 155.334 284.128 155.817C283.959 155.964 283.777 156.092 283.584 156.198C281.413 157.52 279.237 158.832 277.07 160.162C276.833 160.298 276.629 160.494 276.474 160.733C276.333 161.005 276.127 161.229 275.878 161.38C275.629 161.532 275.347 161.604 275.063 161.59C274.794 161.605 274.534 161.698 274.309 161.86C272.85 162.86 271.379 163.862 269.941 164.905C269.239 165.415 268.534 165.44 268.037 164.855C267.914 164.715 267.818 164.549 267.754 164.367C267.69 164.185 267.66 163.991 267.665 163.796C267.67 163.601 267.711 163.409 267.784 163.231C267.857 163.054 267.962 162.894 268.093 162.762C268.827 162.064 269.61 161.431 270.435 160.87C271.272 160.275 272.149 159.743 273.03 159.235C273.434 159.001 273.516 158.721 273.49 158.244C273.21 152.436 272.957 146.629 272.689 140.821C272.618 139.288 272.527 137.756 272.431 136.082C271.768 136.578 271.222 137.05 270.62 137.414C269.974 137.835 269.287 138.173 268.571 138.423C268.176 138.543 267.755 138.508 267.381 138.323C267.007 138.138 266.703 137.815 266.523 137.41C266.05 136.34 266.7 135.224 267.778 135.271C267.992 135.271 268.274 135.419 268.409 135.313C269.763 134.272 271.092 133.193 272.423 132.118C272.738 131.865 273.002 131.515 273.344 131.332C274.004 130.975 274.727 130.758 275.381 130.392C276.389 129.827 277.327 129.115 278.361 128.609C278.865 128.358 279.549 128.226 280.055 128.392C280.461 128.527 280.866 129.144 281.006 129.64C281.181 130.26 280.751 130.722 280.227 131.03C278.685 131.938 277.158 132.874 275.618 133.782C275.18 134.04 275.066 134.372 275.092 134.928C275.399 141.506 275.669 148.087 275.958 154.667C275.99 155.476 276.078 156.291 276.148 157.188Z" fill="#171719"/>
<path d="M254.521 135.668C252.762 136.267 251.061 136.836 249.368 137.432C249.119 137.542 248.888 137.695 248.683 137.884C247.927 138.498 247.188 138.468 246.669 137.786C246.54 137.613 246.445 137.413 246.388 137.199C246.332 136.984 246.316 136.759 246.342 136.537C246.367 136.315 246.433 136.101 246.536 135.908C246.639 135.715 246.776 135.548 246.939 135.415C247.332 135.098 247.771 134.857 248.237 134.702C252.381 133.275 256.527 131.849 260.688 130.474C262.573 129.854 264.496 129.365 266.403 128.827C266.615 128.766 266.833 128.736 267.052 128.737C267.921 128.737 268.535 129.292 268.592 130.101C268.645 130.873 268.162 131.49 267.345 131.706C265.746 132.131 264.14 132.521 262.552 132.995C260.965 133.47 259.403 134.054 257.816 134.531C257.33 134.679 257.258 134.942 257.299 135.422C257.738 140.711 258.194 145.997 258.585 151.291C258.808 154.308 258.909 157.338 259.099 160.358C259.149 160.974 259.269 161.58 259.455 162.163C259.72 163.038 259.536 163.767 258.867 164.156C258.267 164.513 257.448 164.368 257.083 163.66C256.753 163.02 256.542 162.313 256.464 161.581C256.272 159.636 256.198 157.677 256.057 155.724C255.58 149.158 255.098 142.591 254.612 136.025C254.588 135.904 254.557 135.785 254.521 135.668V135.668Z" fill="#181719"/>
<path d="M286.325 145.703C286.398 148.826 286.749 151.876 287.965 154.724C288.38 155.72 288.908 156.656 289.536 157.507C291.028 159.487 293.297 159.939 295.191 158.417C298.577 155.698 300.788 152.126 301.079 147.362C301.077 147.122 301.098 146.883 301.14 146.648C301.302 146.014 301.674 145.589 302.3 145.621C302.96 145.654 303.425 146.112 303.373 146.814C303.261 148.31 303.224 149.869 302.797 151.272C301.8 154.6 299.969 157.55 297.513 159.783C295.261 161.847 292.725 162.482 289.972 161.118C288.276 160.276 287.199 158.693 286.335 156.946C285.229 154.728 284.54 152.288 284.308 149.771C283.909 145.345 283.918 140.937 285.202 136.645C285.732 134.878 286.528 133.275 287.721 131.931C288.785 130.736 290.027 129.929 291.587 130.021C292.928 130.1 294.261 130.312 295.597 130.478C295.756 130.511 295.91 130.567 296.056 130.645C296.808 130.988 297.139 131.615 296.933 132.3C296.727 132.985 296.138 133.249 295.342 133.081C294.287 132.86 293.225 132.659 292.156 132.534C290.969 132.396 290.019 132.946 289.237 133.921C287.637 135.895 287.04 138.316 286.711 140.832C286.499 142.442 286.45 144.079 286.325 145.703Z" fill="#151416"/>
<path d="M126.348 306.044C126.469 305.503 126.565 304.955 126.635 304.403C126.729 303.31 126.249 302.708 125.254 302.658C124.553 302.622 123.849 302.649 123.146 302.649H108.229C106.565 302.649 105.887 303.396 105.865 305.24C105.865 305.529 105.84 305.817 105.824 306.169H90.6703C94.1726 262.172 97.6743 218.177 101.175 174.183L324.896 174.755C324.836 176.238 324.802 177.59 324.724 178.938C324.607 180.98 324.443 183.018 324.327 185.059C324.053 189.853 323.787 194.648 323.529 199.443C323.295 203.796 323.091 208.15 322.853 212.501C322.548 218.066 322.204 223.627 321.906 229.192C321.669 233.484 321.47 237.779 321.235 242.071C320.928 247.636 320.586 253.199 320.288 258.762C320.093 262.286 319.929 265.811 319.743 269.332C319.419 275.461 319.09 281.59 318.757 287.717C318.501 292.422 318.242 297.129 317.98 301.836C317.917 302.989 317.849 304.145 317.818 305.3C317.802 305.775 317.656 305.997 317.197 305.997C311.386 305.997 305.576 305.997 299.767 305.997C299.665 305.978 299.566 305.946 299.47 305.901C299.556 305.443 299.649 304.986 299.725 304.528C299.9 303.49 299.35 302.711 298.381 302.654C297.842 302.624 297.301 302.654 296.759 302.654H281.429C279.606 302.654 278.958 303.353 278.904 305.363C278.904 305.541 278.878 305.719 278.851 306.049L126.348 306.044ZM175.477 179.803V179.899C154.723 179.899 133.969 179.899 113.215 179.899C112.054 179.899 110.893 179.94 109.733 179.988C108.752 180.029 108.397 180.5 108.454 181.584C108.479 181.94 108.482 182.297 108.464 182.654C108.187 187.031 107.905 191.408 107.619 195.784C107.402 199.156 107.194 202.528 106.97 205.898C106.661 210.48 106.322 215.061 106.022 219.644C105.785 223.162 105.581 226.683 105.344 230.201C105.101 233.807 104.82 237.41 104.579 241.017C104.337 244.624 104.139 248.235 103.896 251.842C103.598 256.277 103.259 260.708 102.962 265.14C102.717 268.778 102.518 272.419 102.28 276.056C101.967 280.846 101.643 285.634 101.307 290.421C101.197 292.016 101.112 293.619 100.903 295.201C100.7 296.733 101.025 297.269 102.417 297.282C106.309 297.316 110.2 297.359 114.092 297.371C133.627 297.436 153.162 297.496 172.698 297.549C195.693 297.615 218.687 297.674 241.681 297.728C263.056 297.773 284.431 297.803 305.805 297.817C306.021 297.817 306.238 297.817 306.454 297.817C307.509 297.774 308.172 297.086 308.237 295.941C308.503 291.504 308.765 287.066 309.024 282.629C309.296 277.924 309.566 273.218 309.834 268.512L310.645 254.13L311.456 239.926C311.73 235.103 312.004 230.28 312.276 225.455C312.544 220.751 312.815 216.046 313.087 211.34C313.421 205.396 313.753 199.447 314.083 193.491C314.222 191.036 314.394 188.583 314.53 186.127C314.618 184.523 314.7 182.929 314.726 181.329C314.742 180.259 314.259 179.751 313.298 179.685C312.973 179.664 312.649 179.685 312.325 179.685C287.546 179.726 262.768 179.765 237.991 179.803C217.148 179.825 196.31 179.829 175.475 179.814L175.477 179.803Z" fill="#007D74"/>
<path d="M88.1328 308.264C88.8024 308.442 89.4721 308.788 90.1417 308.799C96.1134 308.833 102.087 308.799 108.058 308.799C160.344 308.739 212.631 308.68 264.92 308.621C282.323 308.599 299.726 308.56 317.129 308.503C317.531 308.503 317.94 308.46 318.426 308.433C318.486 308.941 318.577 309.487 318.611 310.038C318.721 311.871 318.798 313.709 318.918 315.542C318.952 316.068 318.783 316.354 318.352 316.575C311.256 320.212 304.164 323.858 297.074 327.512C291.184 330.548 285.296 333.594 279.41 336.649C276.749 338.029 274.119 339.482 271.444 340.826C270.78 341.146 270.061 341.308 269.336 341.301C264.096 341.263 258.857 341.17 253.608 341.083C251.475 341.046 249.343 340.965 247.21 340.924C240.508 340.796 233.81 340.673 227.116 340.555L217.799 340.388C214.206 340.325 210.615 340.27 207.023 340.199C201.298 340.084 195.573 339.953 189.848 339.842C183.393 339.723 176.939 339.604 170.485 339.485C167.135 339.425 163.787 339.375 160.432 339.307C154.653 339.191 148.873 339.059 143.094 338.95C136.748 338.832 130.402 338.716 124.055 338.605C120.545 338.54 117.033 338.489 113.516 338.426C107.818 338.312 102.121 338.18 96.4215 338.07C90.0439 337.945 83.6707 337.829 77.3017 337.724C73.8173 337.661 70.3296 337.608 66.85 337.545C61.121 337.427 55.3958 337.308 49.6743 337.189C48.3253 337.16 46.9763 337.096 45.6208 337.092C45.1344 337.092 44.909 336.973 44.8425 336.379C44.6544 334.675 44.3901 332.979 44.1615 331.278C43.9118 329.427 44.4225 328.89 45.5916 328.336C51.2179 325.668 56.8388 322.989 62.4544 320.298C68.9087 317.196 75.3517 314.101 81.7833 311.012C83.8868 310.005 85.9914 309.001 88.0971 308L88.1328 308.264ZM142.351 323.459L142.39 323.616C142.147 323.777 141.904 323.948 141.661 324.098C140.312 324.914 138.961 325.728 137.607 326.54C137.002 326.897 136.503 327.369 136.689 328.222C136.876 329.074 137.52 329.202 138.215 329.202C157.132 329.202 176.048 329.191 194.965 329.167C195.599 329.135 196.208 328.886 196.706 328.454C198.307 327.045 199.845 325.547 201.37 324.039C201.562 323.838 201.79 323.682 202.039 323.58C202.288 323.479 202.554 323.434 202.819 323.448C208.818 323.511 214.818 323.573 220.817 323.591C233.383 323.633 245.949 323.66 258.517 323.673C260.326 323.673 262.136 323.732 263.945 323.766C265.51 323.794 267.037 323.766 268.561 323.126C273.781 320.936 279.039 318.846 284.289 316.732L288.469 315.041C289.426 314.656 289.857 314.073 289.719 313.347C289.581 312.622 289.017 312.278 288.057 312.278C277.735 312.224 267.412 312.171 257.088 312.117C242.334 312.049 227.579 311.99 212.823 311.939L167.748 311.76C153.938 311.705 140.129 311.649 126.32 311.595C114.405 311.541 102.486 311.459 90.5714 311.432C89.6488 311.432 88.6403 311.555 87.815 311.967C82.8794 314.448 77.9843 317.028 73.0747 319.577C72.0256 320.112 70.9393 320.601 69.947 321.254C69.5562 321.51 69.1752 322.145 69.1541 322.63C69.1265 323.308 69.707 323.664 70.3215 323.757C70.5632 323.786 70.8066 323.795 71.0495 323.784C72.6434 323.755 74.2356 323.698 75.8295 323.693C92.9333 323.627 110.039 323.568 127.146 323.514C131.957 323.499 136.767 323.485 141.576 323.473L142.351 323.459Z" fill="#007D74"/>
<path d="M269.225 330.057L319.475 310.276L320.198 318.908L272.117 341.926L269.225 342.646V330.057Z" fill="#00534D"/>
<path d="M43.7105 327.645L269.225 330.014V342.646L48.7379 338.698C47.5409 338.83 44.8596 338.698 43.7105 337.119C42.5614 335.54 43.2317 329.356 43.7105 327.645Z" fill="#00534D"/>
<path d="M41.6531 329.521C41.7926 329.164 41.9871 328.818 42.0617 328.451C42.2514 327.497 42.7492 326.898 43.5615 326.511C55.025 321.043 66.4857 315.566 77.9437 310.08C81.2352 308.506 84.5235 306.919 87.8247 305.371C88.2916 305.152 88.4635 304.877 88.5057 304.326C89.018 297.702 89.558 291.08 90.0817 284.456C90.5811 278.158 91.0626 271.856 91.5653 265.555C92.1436 258.283 92.73 251.009 93.3245 243.736C93.8207 237.525 94.3109 231.315 94.7952 225.106C95.3021 218.687 95.8113 212.268 96.3225 205.849C96.8198 199.58 97.3197 193.311 97.8224 187.043C98.1304 183.17 98.4369 179.296 98.7417 175.421C98.8114 174.553 98.8763 173.683 98.9606 172.814C99.0303 172.114 99.4616 171.773 100.045 171.689C100.502 171.645 100.962 171.634 101.42 171.655C175.495 171.824 249.569 171.994 323.642 172.165C324.37 172.168 325.098 172.129 325.822 172.048C326.794 171.935 327.443 172.582 327.373 173.67C326.84 182.853 326.289 192.036 325.773 201.218C325.334 209.064 324.943 216.926 324.515 224.78C324.134 231.734 323.724 238.704 323.342 245.669C322.918 253.432 322.514 261.199 322.091 268.962C321.704 276.045 321.309 283.127 320.907 290.208C320.624 295.335 320.345 300.462 320.07 305.588C320.038 306.195 319.954 306.79 320.5 307.286C320.738 307.502 320.8 308.038 320.824 308.44C320.987 311.014 321.102 313.594 321.275 316.171C321.355 317.348 320.907 318.043 319.95 318.533C306.6 325.395 293.254 332.269 279.913 339.156C277.447 340.43 275.035 341.831 272.547 343.052C271.59 343.518 270.484 343.869 269.451 343.853C254.563 343.627 239.676 343.329 224.788 343.047C208.954 342.747 193.118 342.446 177.28 342.143C162.96 341.866 148.64 341.586 134.321 341.301C104.95 340.739 75.5802 340.182 46.2109 339.629C45.5624 339.616 44.9138 339.597 44.2652 339.545C43.3734 339.474 42.9373 339.06 42.7849 338.088C42.5514 336.598 42.3795 335.095 42.1363 333.604C42.0212 332.891 41.812 332.177 41.6401 331.475L41.6531 329.521ZM126.348 306.043H278.851C278.878 305.706 278.899 305.531 278.904 305.357C278.958 303.347 279.606 302.648 281.429 302.648H296.753C297.293 302.648 297.834 302.625 298.374 302.648C299.347 302.705 299.893 303.484 299.718 304.522C299.642 304.98 299.556 305.437 299.464 305.895C299.559 305.94 299.659 305.972 299.761 305.991C305.571 305.991 311.381 305.991 317.191 305.991C317.651 305.991 317.796 305.769 317.812 305.294C317.851 304.139 317.919 302.976 317.974 301.83C318.231 297.122 318.49 292.416 318.751 287.711C319.082 281.584 319.411 275.455 319.736 269.326C319.923 265.805 320.087 262.28 320.281 258.756C320.588 253.193 320.93 247.63 321.228 242.065C321.463 237.773 321.663 233.478 321.899 229.186C322.206 223.621 322.548 218.06 322.846 212.495C323.085 208.144 323.289 203.79 323.522 199.437C323.779 194.643 324.045 189.848 324.32 185.053C324.437 183.012 324.601 180.974 324.717 178.932C324.795 177.584 324.829 176.232 324.889 174.749L101.175 174.182C97.6699 218.221 94.1682 262.217 90.6703 306.168H105.824C105.84 305.811 105.861 305.528 105.865 305.239C105.887 303.395 106.565 302.648 108.229 302.648H123.146C123.849 302.648 124.553 302.621 125.254 302.657C126.249 302.707 126.729 303.31 126.635 304.403C126.565 304.955 126.469 305.502 126.348 306.043V306.043ZM88.1327 308.263L88.0971 307.999C85.9925 309.004 83.8879 310.007 81.7833 311.011C75.3484 314.093 68.9168 317.177 62.4884 320.261C56.8674 322.948 51.2465 325.627 45.6256 328.299C44.4565 328.854 43.9458 329.391 44.1955 331.241C44.4241 332.942 44.6819 334.629 44.8765 336.343C44.943 336.938 45.1683 337.056 45.6548 337.056C47.0054 337.056 48.3544 337.124 49.7083 337.152C55.4373 337.271 61.1626 337.39 66.884 337.509C70.3685 337.578 73.8561 337.632 77.3357 337.687C83.7133 337.8 90.0866 337.915 96.4555 338.033C102.155 338.144 107.852 338.276 113.55 338.39C117.061 338.461 120.573 338.513 124.089 338.568C130.436 338.687 136.782 338.802 143.128 338.914C148.907 339.026 154.687 339.158 160.466 339.271C163.814 339.338 167.162 339.388 170.519 339.449C176.973 339.568 183.427 339.687 189.882 339.805C195.607 339.916 201.332 340.048 207.057 340.162C210.649 340.233 214.24 340.289 217.833 340.351L227.15 340.519C233.852 340.638 240.55 340.761 247.244 340.888C249.377 340.929 251.509 341.009 253.642 341.046C258.883 341.134 264.122 341.225 269.37 341.264C270.095 341.272 270.814 341.11 271.478 340.79C274.153 339.445 276.783 337.992 279.444 336.612C285.328 333.556 291.216 330.51 297.108 327.476C304.197 323.823 311.289 320.177 318.386 316.538C318.817 316.317 318.986 316.032 318.952 315.506C318.832 313.673 318.755 311.835 318.645 310.002C318.611 309.452 318.52 308.907 318.46 308.397C317.963 308.423 317.56 308.465 317.163 308.466C299.76 308.509 282.357 308.548 264.953 308.584C212.666 308.652 160.379 308.711 108.092 308.762C102.121 308.762 96.1474 308.796 90.1757 308.762C89.472 308.787 88.8024 308.447 88.1327 308.263ZM124.021 305.132H109.882C109.45 305.132 109.009 305.078 108.585 305.164C108.423 305.2 108.211 305.531 108.188 305.749C108.172 305.915 108.391 306.157 108.558 306.284C108.67 306.368 108.872 306.311 109.034 306.309C113.812 306.279 118.591 306.247 123.369 306.212C123.587 306.199 123.803 306.172 124.018 306.132L124.021 305.132ZM297.148 305.241C297.087 305.201 297.021 305.171 296.952 305.153C291.882 305.144 286.812 305.134 281.743 305.153C281.567 305.153 281.391 305.456 281.216 305.621C281.408 305.756 281.599 306.009 281.79 306.011C286.698 306.029 291.606 306.011 296.514 306.027C297.009 306.031 297.189 305.804 297.14 305.241H297.148Z" fill="#0E1415"/>
<path d="M124.021 305.133V306.131C123.807 306.171 123.59 306.198 123.373 306.211C118.595 306.247 113.817 306.279 109.038 306.308C108.876 306.308 108.673 306.366 108.561 306.283C108.399 306.16 108.175 305.926 108.191 305.748C108.214 305.53 108.42 305.199 108.589 305.163C109.007 305.077 109.448 305.131 109.886 305.131H124.021V305.133Z" fill="#017971"/>
<path d="M297.14 305.241C297.184 305.805 297.009 306.031 296.506 306.03C291.598 306.019 286.69 306.03 281.782 306.014C281.591 306.014 281.4 305.759 281.208 305.623C281.383 305.459 281.558 305.156 281.735 305.156C286.804 305.135 291.874 305.145 296.944 305.156C297.013 305.173 297.079 305.202 297.14 305.241Z" fill="#017971"/>
<path d="M175.475 179.813C196.31 179.813 217.144 179.813 237.978 179.813C262.756 179.791 287.534 179.751 312.312 179.696C312.636 179.696 312.96 179.68 313.285 179.696C314.246 179.762 314.729 180.27 314.713 181.34C314.687 182.944 314.605 184.538 314.517 186.138C314.381 188.593 314.209 191.047 314.069 193.502C313.734 199.453 313.403 205.402 313.074 211.35C312.809 216.055 312.539 220.76 312.263 225.465C311.989 230.289 311.715 235.113 311.443 239.936L310.632 254.14L309.821 268.523C309.553 273.229 309.283 277.934 309.011 282.639C308.753 287.077 308.491 291.514 308.224 295.951C308.156 297.096 307.493 297.784 306.441 297.827C306.225 297.827 306.008 297.827 305.792 297.827C284.417 297.799 263.043 297.769 241.668 297.738C218.673 297.692 195.679 297.632 172.685 297.56C153.15 297.504 133.615 297.444 114.079 297.381C110.187 297.369 106.296 297.326 102.404 297.292C101.012 297.28 100.687 296.743 100.89 295.211C101.099 293.63 101.183 292.027 101.294 290.431C101.626 285.644 101.95 280.856 102.267 276.067C102.505 272.429 102.704 268.788 102.949 265.151C103.246 260.718 103.585 256.287 103.883 251.853C104.126 248.246 104.324 244.635 104.566 241.028C104.807 237.421 105.088 233.817 105.331 230.212C105.568 226.694 105.772 223.172 106.009 219.654C106.315 215.072 106.648 210.491 106.957 205.908C107.184 202.538 107.392 199.167 107.606 195.795C107.888 191.419 108.17 187.042 108.451 182.664C108.469 182.308 108.465 181.951 108.441 181.595C108.384 180.51 108.739 180.04 109.72 179.999C110.88 179.951 112.041 179.91 113.201 179.91C133.956 179.91 154.71 179.91 175.464 179.91L175.475 179.813ZM311.872 191.886L110.213 191.023C107.899 225.643 105.594 260.155 103.28 294.798L305.988 295.368C307.95 260.855 309.907 226.44 311.872 191.883V191.886ZM110.348 189.044H111.408L153.727 189.223L270.377 189.713C283.97 189.77 297.562 189.829 311.153 189.891C311.825 189.891 312.02 189.675 312.048 188.959C312.124 186.971 312.273 184.988 312.388 183.003C312.403 182.75 312.388 182.497 312.388 182.183H311.404C302.189 182.203 292.974 182.222 283.76 182.24L111.822 182.488C111.604 182.488 111.372 182.436 111.173 182.508C111.011 182.566 110.781 182.759 110.769 182.91C110.615 184.913 110.49 186.919 110.348 189.044Z" fill="#0C1615"/>
<path d="M142.351 323.459H141.584C136.773 323.472 131.963 323.486 127.154 323.5C110.048 323.559 92.9423 323.619 75.8374 323.678C74.2436 323.678 72.6513 323.741 71.0575 323.769C70.8145 323.781 70.5712 323.772 70.3295 323.743C69.715 323.65 69.1345 323.293 69.162 322.616C69.1831 322.132 69.5642 321.496 69.9549 321.239C70.9472 320.587 72.0336 320.107 73.0826 319.563C77.9923 317.013 82.8874 314.433 87.823 311.953C88.6467 311.537 89.6552 311.418 90.5794 311.418C102.495 311.445 114.414 311.527 126.328 311.58C140.138 311.642 153.947 311.697 167.756 311.746L212.831 311.924C227.585 311.985 242.34 312.044 257.096 312.103C267.418 312.149 277.741 312.203 288.065 312.263C289.025 312.263 289.594 312.636 289.727 313.333C289.86 314.03 289.434 314.642 288.477 315.027L284.297 316.717C279.053 318.841 273.795 320.922 268.569 323.111C267.045 323.75 265.518 323.78 263.953 323.751C262.143 323.718 260.334 323.664 258.524 323.659C245.957 323.627 233.391 323.599 220.825 323.577C214.826 323.559 208.826 323.496 202.827 323.434C202.562 323.419 202.296 323.464 202.047 323.566C201.798 323.667 201.57 323.823 201.378 324.024C199.853 325.533 198.315 327.031 196.714 328.439C196.216 328.872 195.607 329.121 194.973 329.152C176.056 329.19 157.14 329.202 138.223 329.188C137.528 329.188 136.889 329.077 136.697 328.207C136.506 327.337 137.01 326.89 137.615 326.526C138.964 325.71 140.315 324.896 141.669 324.083C141.917 323.933 142.155 323.762 142.398 323.602L142.351 323.459ZM142.462 326.49L142.523 326.656C142.63 326.656 142.737 326.677 142.847 326.677C160.06 326.677 177.273 326.671 194.486 326.658C194.881 326.647 195.262 326.496 195.573 326.228C197.107 324.823 198.617 323.387 200.103 321.92C200.403 321.603 200.756 321.354 201.144 321.187C201.531 321.021 201.944 320.94 202.36 320.95C213.411 321.024 224.461 321.077 235.512 321.111C245.616 321.148 255.723 321.173 265.832 321.187C266.343 321.188 266.85 321.092 267.33 320.904C271.136 319.388 274.933 317.844 278.731 316.302C279.825 315.858 280.91 315.391 281.999 314.936C281.769 314.8 281.508 314.738 281.247 314.758L240.874 314.595L196.05 314.417C182.97 314.362 169.891 314.303 156.811 314.239C145.519 314.185 134.223 314.126 122.923 314.06C111.845 314.019 100.765 313.999 89.6844 314C89.3633 314.003 89.0465 314.081 88.7553 314.23C84.5504 316.4 80.3515 318.581 76.1585 320.77C75.9963 320.858 75.8342 320.972 75.4823 321.189H76.679C87.6473 321.132 98.6189 321.077 109.594 321.023C121.836 320.982 134.077 320.96 146.317 320.957C146.505 320.957 146.695 320.957 146.885 320.957C147.483 320.988 148.036 321.28 148.064 321.933C148.083 322.402 147.78 322.954 147.485 323.348C147.245 323.669 146.809 323.816 146.455 324.033L142.462 326.49Z" fill="#041110"/>
<path d="M311.872 191.883C309.907 226.441 307.95 260.856 305.988 295.367L103.28 294.796C105.594 260.155 107.899 225.644 110.213 191.022L311.872 191.883ZM253.177 284.034H285.281C286.805 284.034 287.217 283.6 287.295 281.96C287.695 273.6 288.096 265.24 288.498 256.879C288.587 254.986 288.197 254.528 286.497 254.52L228.217 254.292C226.514 254.292 224.812 254.18 223.113 254.292C222.302 254.346 221.295 254.56 220.755 255.13C220.141 255.781 219.763 256.776 219.74 257.91C219.622 263.814 219.416 269.714 219.233 275.614C219.168 277.811 219.103 280.008 219.059 282.211C219.035 283.408 219.518 283.961 220.598 284.032C220.922 284.053 221.246 284.043 221.571 284.043L253.177 284.034ZM203.09 228.759C203.09 228.343 203.075 228.115 203.09 227.89C203.287 225.2 203.485 222.509 203.686 219.817C203.926 216.682 204.183 213.551 204.418 210.416C204.526 208.967 204.677 207.515 204.669 206.066C204.675 205.358 204.44 204.673 204.011 204.145C203.582 203.618 202.989 203.285 202.349 203.213C201.123 203.049 199.956 203.953 199.565 205.404C199.468 205.804 199.407 206.214 199.383 206.627C199.221 208.817 199.059 211.007 198.897 213.194C198.584 217.335 198.282 221.475 197.942 225.612C197.736 228.126 197.494 230.631 197.215 233.127C197.123 233.886 197.305 234.654 197.722 235.267C198.138 235.88 198.757 236.289 199.445 236.406C199.875 236.47 200.309 236.49 200.742 236.467C213.33 236.165 225.917 235.861 238.503 235.554C244.58 235.404 250.657 235.247 256.734 235.083C258.442 235.037 259.625 233.817 259.622 232.164C259.619 230.512 258.445 229.312 256.728 229.249C256.135 229.226 255.539 229.263 254.944 229.279C244.465 229.553 233.985 229.827 223.505 230.101L208.029 230.51C207.704 230.51 207.364 230.51 206.775 230.51L218.351 218.258C218.704 218.601 218.97 218.85 219.229 219.109C221.11 220.985 222.991 222.86 224.872 224.734C226.109 225.963 226.936 226.027 228.363 225.029C228.569 224.886 228.771 224.738 228.974 224.59L245.456 212.599C246.177 212.075 246.915 211.566 247.601 210.994C248.574 210.197 248.796 209.052 248.214 208.116C247.632 207.18 246.592 207.012 245.547 207.678C245.313 207.826 245.089 207.995 244.866 208.159C239.055 212.384 233.247 216.614 227.442 220.849C226.986 221.183 226.743 221.142 226.357 220.749C224.353 218.715 222.32 216.712 220.296 214.703C218.748 213.166 217.824 213.184 216.319 214.776L205.344 226.393C204.63 227.154 203.917 227.899 203.091 228.766L203.09 228.759ZM149.169 241.736C151.88 241.768 154.57 241.209 157.084 240.092C159.597 238.975 161.884 237.321 163.814 235.227C165.743 233.132 167.276 230.638 168.324 227.889C169.372 225.139 169.914 222.189 169.92 219.207C169.926 216.226 169.394 213.273 168.357 210.519C167.319 207.764 165.796 205.263 163.875 203.16C161.953 201.057 159.672 199.393 157.163 198.264C154.654 197.135 151.966 196.564 149.255 196.583C138.149 196.53 128.675 206.324 128.647 219.103C128.637 222.073 129.16 225.016 130.187 227.763C131.214 230.51 132.724 233.007 134.631 235.11C136.538 237.213 138.804 238.881 141.299 240.018C143.794 241.155 146.469 241.739 149.169 241.736V241.736ZM127.102 267.817C127.168 266.182 127.264 264.702 127.274 263.222C127.274 262.318 127.553 262.049 128.409 262.047C151.649 261.99 174.89 261.911 198.13 261.81C198.564 261.826 198.998 261.797 199.427 261.722C200.076 261.58 200.491 261.121 200.491 260.362C200.491 259.556 200.042 259.098 199.356 258.967C198.9 258.905 198.44 258.887 197.981 258.912L128.422 259.183H127.71C127.71 257.578 127.736 256.106 127.71 254.627C127.676 253.041 126.737 251.919 125.461 251.88C124.222 251.841 123.262 252.844 123.068 254.389C123.045 254.567 123.042 254.745 123.034 254.923C122.636 262.808 122.24 270.693 121.847 278.578C121.791 279.377 121.775 280.18 121.8 280.981C121.868 282.359 122.773 283.374 123.932 283.477C125.091 283.581 126.05 282.764 126.33 281.436C126.446 280.887 126.497 280.323 126.483 279.76C126.465 278.998 126.703 278.756 127.423 278.761C131.909 278.799 136.394 278.784 140.881 278.774C141.28 278.774 141.756 278.806 142.058 278.595C142.419 278.335 142.852 277.823 142.851 277.422C142.851 276.975 142.478 276.408 142.118 276.119C141.813 275.874 141.294 275.899 140.871 275.898C136.466 275.883 132.062 275.898 127.656 275.898H126.719C126.802 274.148 126.881 272.51 126.959 270.754H127.974C140.107 270.754 152.24 270.754 164.374 270.754C164.753 270.771 165.134 270.745 165.509 270.673C166.157 270.52 166.566 270.079 166.569 269.309C166.569 268.494 166.126 268.061 165.449 267.904C165.073 267.844 164.693 267.824 164.314 267.845H127.102V267.817ZM284.132 196.368C283.535 195.679 283.024 195.029 282.449 194.458C282.244 194.256 281.829 194.101 281.604 194.194C281.378 194.287 281.166 194.713 281.145 195.009C281.02 196.812 280.952 198.62 280.868 200.426C280.842 200.975 280.824 201.604 281.469 201.674C282.139 201.745 282.188 201.1 282.236 200.561C282.295 199.912 282.329 199.26 282.371 198.6C282.41 198.028 282.445 197.455 282.505 196.542C283.593 198.447 284.646 198.393 285.816 196.639C285.816 198.092 285.807 199.185 285.816 200.278C285.816 200.788 285.962 201.337 286.515 201.218C286.784 201.16 287.149 200.638 287.164 200.312C287.23 198.653 287.22 196.99 287.173 195.33C287.164 195.009 286.932 194.538 286.687 194.429C286.442 194.321 286.012 194.499 285.771 194.704C285.234 195.18 284.749 195.742 284.138 196.368H284.132ZM269.909 195.97C269.887 196.316 269.876 196.574 269.855 196.829C269.743 198.217 269.617 199.604 269.521 200.993C269.487 201.506 269.521 202.075 270.142 202.13C270.726 202.18 270.828 201.64 270.88 201.166C270.98 200.253 271.031 199.335 271.116 198.422C271.191 197.632 271.035 196.526 271.441 196.138C271.888 195.71 272.858 195.938 273.6 195.881H273.682C274.158 195.854 274.679 195.801 274.693 195.132C274.71 194.397 274.163 194.324 273.657 194.335C271.712 194.372 269.771 194.421 267.835 194.483C267.368 194.497 266.831 194.565 266.841 195.244C266.851 195.924 267.389 195.957 267.857 195.968C268.527 195.979 269.193 195.97 269.915 195.97H269.909ZM276.825 196.945C276.663 195.613 276.691 195.587 277.782 195.585C278.402 195.585 279.037 195.662 279.639 195.542C279.948 195.48 280.198 195.061 280.475 194.802C280.214 194.561 279.963 194.13 279.689 194.112C278.533 194.032 277.37 194.062 276.209 194.08C275.7 194.08 275.431 194.403 275.399 194.971C275.284 196.863 275.155 198.755 275.035 200.647C275.018 200.913 274.945 201.218 275.035 201.437C275.164 201.751 275.416 202 275.618 202.278C275.856 202.047 276.182 201.859 276.31 201.565C276.453 201.237 276.422 200.815 276.456 200.431C276.513 199.791 276.56 199.151 276.618 198.447C277.151 198.447 277.607 198.456 278.061 198.447C278.515 198.438 279.053 198.391 279.066 197.707C279.079 197.022 278.58 196.952 278.093 196.94C277.667 196.931 277.245 196.945 276.832 196.945H276.825ZM263.043 235.156C263.65 234.86 264.114 234.621 264.581 234.409C265.944 233.771 267.319 233.161 268.667 232.489C269.198 232.221 269.539 231.71 269.203 231.039C268.892 230.421 268.384 230.49 267.861 230.734C266.497 231.371 265.122 231.983 263.76 232.619C263.366 232.797 262.935 232.985 262.625 233.298C262.393 233.541 262.168 234.044 262.246 234.329C262.345 234.666 262.769 234.891 263.042 235.156H263.043ZM199.537 201.33C199.92 201.152 200.199 201.043 200.452 200.886C201.035 200.52 201.598 200.114 202.187 199.755C202.892 199.327 203.628 198.957 204.327 198.507C204.821 198.197 205.091 197.708 204.774 197.092C204.481 196.523 204.001 196.521 203.503 196.756C203.177 196.897 202.858 197.058 202.55 197.241C201.431 197.955 200.294 198.63 199.229 199.427C198.96 199.629 198.814 200.228 198.837 200.629C198.851 200.884 199.292 201.102 199.537 201.33Z" fill="#E0F4F5"/>
<path d="M110.348 189.045C110.49 186.919 110.615 184.913 110.774 182.911C110.786 182.759 111.016 182.567 111.178 182.508C111.372 182.437 111.604 182.49 111.826 182.488L283.762 182.235C292.976 182.223 302.19 182.204 311.405 182.178H312.39C312.39 182.492 312.403 182.745 312.39 182.998C312.275 184.983 312.125 186.966 312.049 188.954C312.022 189.667 311.827 189.89 311.154 189.886C297.562 189.81 283.971 189.751 270.379 189.708L153.729 189.218L111.41 189.039L110.348 189.045ZM210.443 186.14C210.474 186.335 210.516 186.625 210.573 186.912C210.693 187.508 210.928 188.03 211.578 187.946C212.228 187.863 212.364 187.272 212.34 186.68C212.303 185.999 212.234 185.32 212.134 184.646C211.959 183.31 211.323 182.95 210.277 183.655C209.773 183.995 209.357 184.054 208.88 183.655C208.682 183.498 208.468 183.368 208.241 183.269C207.489 182.931 206.944 183.236 206.819 184.113C206.678 185.11 206.579 186.113 206.495 187.119C206.448 187.677 206.642 188.137 207.194 188.244C207.784 188.36 208.111 187.996 208.23 187.394C208.33 186.88 208.4 186.358 208.47 185.926L210.443 186.14ZM198.024 185.52C198.686 185.466 199.3 185.52 199.849 185.341C200.173 185.231 200.659 184.698 200.611 184.437C200.554 184.065 200.09 183.494 199.8 183.489C198.157 183.457 196.514 183.522 194.877 183.683C194.576 183.712 194.152 184.282 194.081 184.669C193.976 185.25 194.436 185.545 194.95 185.584C195.339 185.612 195.732 185.584 196.197 185.584C196.157 186.247 196.106 186.802 196.095 187.356C196.08 187.975 196.257 188.508 196.893 188.588C197.528 188.669 197.806 188.169 197.878 187.56C197.958 186.925 197.973 186.276 198.024 185.52ZM204.525 185.361C204.696 185.284 204.872 185.219 205.052 185.167C205.59 185.031 205.963 184.712 205.887 184.07C205.81 183.428 205.36 183.214 204.826 183.203C204.126 183.189 203.409 183.1 202.731 183.237C202.329 183.318 201.728 183.715 201.668 184.065C201.484 185.229 201.405 186.41 201.433 187.592C201.433 187.88 201.833 188.305 202.122 188.403C202.362 188.478 202.714 188.166 203.004 187.998C203.294 187.831 203.589 187.633 203.873 187.431C204.249 187.162 204.779 186.959 204.937 186.575C205.052 186.292 204.677 185.766 204.525 185.363V185.361Z" fill="#BCE0E3"/>
<path d="M142.462 326.485L146.465 324.039C146.818 323.821 147.255 323.682 147.495 323.354C147.79 322.96 148.093 322.407 148.073 321.938C148.046 321.286 147.493 320.993 146.895 320.963C146.705 320.963 146.515 320.963 146.327 320.963C134.085 320.983 121.844 321.005 109.604 321.029C98.6352 321.065 87.6663 321.12 76.6968 321.195H75.5002C75.8505 320.977 76.0077 320.863 76.1764 320.776C80.3726 318.592 84.5715 316.412 88.7732 314.235C89.0643 314.087 89.3812 314.008 89.7022 314.005C100.78 314.016 111.859 314.036 122.941 314.066C134.235 314.108 145.531 314.167 156.829 314.244C169.908 314.306 182.988 314.366 196.067 314.423L240.892 314.601L281.265 314.763C281.526 314.743 281.787 314.805 282.017 314.941C280.928 315.396 279.843 315.863 278.748 316.307C274.951 317.85 271.154 319.394 267.348 320.909C266.867 321.098 266.361 321.194 265.85 321.193C255.744 321.181 245.637 321.155 235.53 321.116C224.478 321.075 213.427 321.021 202.378 320.956C201.962 320.946 201.549 321.027 201.161 321.193C200.774 321.359 200.42 321.608 200.121 321.926C198.634 323.391 197.123 324.827 195.591 326.234C195.28 326.502 194.899 326.653 194.504 326.663C177.291 326.685 160.078 326.691 142.865 326.683C142.758 326.683 142.651 326.669 142.541 326.662L142.462 326.485ZM166.274 322.919C166.016 323.183 165.915 323.306 165.799 323.404C165.029 324.051 164.792 324.83 165.179 325.437C165.567 326.043 166.233 326.089 167.125 325.453C168.017 324.816 168.909 324.205 169.749 323.522C170.327 323.051 170.924 322.905 171.629 322.906C179.898 322.925 188.167 322.93 196.437 322.919C196.762 322.944 197.088 322.932 197.41 322.885C198.046 322.739 198.521 322.368 198.474 321.56C198.431 320.808 197.987 320.474 197.348 320.412C197.107 320.389 196.862 320.396 196.619 320.396H150.565C150.269 320.396 149.904 320.303 149.69 320.455C149.315 320.722 148.848 321.104 148.772 321.525C148.709 321.863 149.08 322.432 149.4 322.685C149.688 322.915 150.167 322.915 150.562 322.915C155.479 322.93 160.398 322.93 165.317 322.915L166.274 322.919Z" fill="#007D74"/>
<path d="M253.179 284.033H221.561C221.237 284.033 220.912 284.044 220.588 284.023C219.508 283.951 219.025 283.398 219.049 282.202C219.093 280.005 219.158 277.809 219.223 275.605C219.4 269.705 219.612 263.804 219.73 257.901C219.753 256.767 220.131 255.772 220.745 255.121C221.285 254.55 222.287 254.336 223.103 254.283C224.799 254.171 226.508 254.283 228.207 254.283L286.488 254.524C288.187 254.524 288.578 254.989 288.488 256.883C288.088 265.244 287.687 273.604 287.285 281.963C287.207 283.604 286.799 284.037 285.272 284.037L253.179 284.033ZM246.421 281.507H258.542V276.812C254.69 276.812 250.894 276.812 247.098 276.831C246.997 276.857 246.903 276.91 246.825 276.987C246.748 277.064 246.689 277.161 246.656 277.27C246.552 278.647 246.495 280.034 246.421 281.507V281.507ZM244.396 276.99C244.287 276.901 244.266 276.867 244.245 276.867C240.498 276.846 236.751 276.821 233.003 276.821C232.909 276.841 232.821 276.886 232.747 276.953C232.672 277.02 232.615 277.106 232.579 277.204C232.468 278.631 232.4 280.068 232.321 281.483H244.186L244.396 276.99ZM274.392 261.818C274.74 261.836 275.031 261.861 275.319 261.864C278.64 261.904 281.967 261.948 285.281 261.957C285.523 261.957 285.962 261.715 285.977 261.551C286.102 260.058 286.154 258.559 286.23 256.99H274.625C274.552 258.603 274.478 260.14 274.397 261.818H274.392ZM273.388 281.496H285.062C285.129 279.914 285.192 278.397 285.259 276.805C281.443 276.805 277.755 276.796 274.071 276.831C273.909 276.831 273.612 277.209 273.594 277.432C273.498 278.757 273.458 280.087 273.393 281.496H273.388ZM272.406 256.936H261.056V261.697H272.135C272.232 260.165 272.318 258.609 272.41 256.936H272.406ZM247.663 256.893C247.585 258.4 247.509 259.891 247.426 261.517H258.73V256.893H247.663ZM233.517 261.308H245.192C245.26 259.882 245.331 258.389 245.406 256.817H233.791C233.702 258.289 233.616 259.725 233.522 261.308H233.517ZM244.532 274.341C244.608 272.923 244.679 271.555 244.757 270.108H232.984C232.903 271.534 232.822 272.919 232.744 274.341H244.532ZM258.612 270.239C257.785 270.239 257.034 270.239 256.282 270.239C253.42 270.216 250.559 270.192 247.698 270.168C247.361 270.168 246.967 270.058 246.948 270.673C246.909 271.878 246.845 273.083 246.785 274.335H258.606L258.612 270.239ZM271.382 276.872H260.869V281.498H271.136C271.222 279.93 271.303 278.433 271.387 276.869L271.382 276.872ZM285.593 270.478H273.941C273.876 271.762 273.813 273.021 273.746 274.342H285.387C285.458 273.083 285.524 271.857 285.597 270.475L285.593 270.478ZM245.057 263.779C241.214 263.779 237.475 263.779 233.736 263.799C233.645 263.825 233.561 263.877 233.493 263.949C233.425 264.021 233.374 264.111 233.347 264.211C233.26 265.293 233.219 266.377 233.157 267.579H244.897C244.947 266.417 244.997 265.24 245.059 263.776L245.057 263.779ZM271.703 270.377H260.944V274.316H271.514C271.58 272.991 271.64 271.728 271.705 270.375L271.703 270.377ZM222.028 261.167H231.288C231.376 259.696 231.461 258.261 231.554 256.72H222.028V261.167ZM258.737 264.056H247.316C247.251 265.245 247.186 266.434 247.111 267.8C250.909 267.8 254.597 267.8 258.286 267.777C258.439 267.777 258.708 267.435 258.718 267.242C258.761 266.235 258.739 265.231 258.739 264.054L258.737 264.056ZM221.417 281.501H230.062C230.155 279.92 230.244 278.401 230.333 276.865H221.415L221.417 281.501ZM274.072 267.95H285.721C285.771 266.796 285.821 265.662 285.883 264.404H274.262C274.2 265.505 274.142 266.648 274.074 267.948L274.072 267.95ZM260.979 267.911C264.483 267.911 267.906 267.911 271.329 267.891C271.509 267.891 271.828 267.617 271.845 267.444C271.937 266.424 271.958 265.395 272.007 264.245H260.981L260.979 267.911ZM230.497 274.33C230.579 272.85 230.659 271.477 230.743 269.942C227.784 269.942 224.953 269.942 222.124 269.96C221.962 269.96 221.668 270.223 221.665 270.373C221.628 271.669 221.644 272.969 221.644 274.33H230.497ZM221.809 267.47H230.889C230.967 266.222 231.041 265.02 231.124 263.705H221.804L221.809 267.47Z" fill="#0F1515"/>
<path d="M203.091 228.766C203.917 227.899 204.63 227.161 205.34 226.403L216.316 214.786C217.82 213.194 218.748 213.182 220.293 214.713C222.317 216.723 224.347 218.725 226.354 220.76C226.74 221.152 226.983 221.193 227.439 220.859C233.237 216.612 239.045 212.382 244.862 208.169C245.086 208.005 245.31 207.836 245.543 207.688C246.594 207.023 247.633 207.196 248.211 208.127C248.788 209.057 248.571 210.207 247.598 211.004C246.907 211.57 246.174 212.074 245.453 212.609L228.971 224.6C228.768 224.748 228.566 224.896 228.36 225.039C226.933 226.038 226.106 225.973 224.869 224.745C222.985 222.874 221.104 220.999 219.226 219.119C218.967 218.861 218.701 218.611 218.347 218.269L206.772 230.52C207.361 230.52 207.693 230.52 208.025 230.52L223.502 230.112C233.982 229.836 244.461 229.562 254.941 229.29C255.535 229.274 256.13 229.236 256.725 229.26C258.442 229.322 259.617 230.518 259.619 232.175C259.621 233.831 258.437 235.038 256.73 235.088C250.653 235.254 244.575 235.41 238.498 235.559C225.912 235.868 213.325 236.172 200.737 236.472C200.304 236.495 199.87 236.475 199.44 236.411C198.752 236.293 198.134 235.883 197.718 235.269C197.302 234.654 197.122 233.886 197.215 233.127C197.496 230.631 197.739 228.125 197.943 225.611C198.284 221.475 198.592 217.334 198.898 213.194C199.061 211.006 199.223 208.817 199.385 206.627C199.409 206.214 199.469 205.804 199.566 205.404C199.957 203.952 201.125 203.048 202.35 203.212C202.991 203.285 203.584 203.617 204.013 204.145C204.442 204.673 204.677 205.358 204.671 206.065C204.679 207.515 204.528 208.966 204.419 210.416C204.184 213.551 203.933 216.682 203.688 219.816C203.483 222.508 203.284 225.199 203.091 227.89C203.077 228.122 203.091 228.35 203.091 228.766Z" fill="#0B1010"/>
<path d="M149.169 241.736C146.469 241.739 143.794 241.155 141.299 240.018C138.804 238.881 136.538 237.213 134.631 235.11C132.724 233.007 131.214 230.51 130.187 227.763C129.16 225.017 128.637 222.074 128.647 219.104C128.675 206.324 138.149 196.53 149.255 196.583C151.966 196.564 154.654 197.135 157.163 198.264C159.672 199.393 161.953 201.057 163.875 203.16C165.796 205.264 167.319 207.765 168.357 210.519C169.394 213.273 169.926 216.226 169.92 219.207C169.914 222.189 169.372 225.139 168.324 227.889C167.276 230.638 165.743 233.132 163.814 235.227C161.884 237.321 159.597 238.975 157.083 240.092C154.57 241.209 151.88 241.768 149.169 241.736V241.736ZM152.396 238.452C152.372 238.318 152.354 238.177 152.32 238.042C150.916 232.439 149.497 226.844 148.125 221.233C148.057 220.907 147.924 220.602 147.736 220.34C147.549 220.077 147.311 219.863 147.04 219.712C143.46 217.451 139.906 215.154 136.329 212.872C135.147 212.116 133.96 211.367 132.774 210.613C130.136 216.078 129.897 224.941 135.081 231.831C140.052 238.427 147.767 239.857 152.396 238.452ZM160.017 203.489C159.835 203.787 159.741 203.932 159.658 204.081C156.806 209.293 153.953 214.503 151.099 219.712C150.95 219.954 150.854 220.23 150.817 220.52C150.78 220.809 150.803 221.104 150.885 221.382C151.803 224.948 152.681 228.525 153.58 232.097C154.052 233.974 154.536 235.841 155.016 237.722C160.602 235.74 165.951 229.781 166.789 221.605C167.535 214.296 165.178 208.316 160.017 203.489ZM134.004 208.031L147.983 216.946C148.263 210.998 148.535 205.219 148.813 199.347C142.573 199.631 137.724 202.459 134.004 208.031ZM157.755 201.899C155.811 200.695 153.678 199.908 151.467 199.581C151.232 204.532 151.002 209.377 150.771 214.222L151.002 214.263L157.755 201.899Z" fill="#101616"/>
<path d="M127.102 267.816H164.301C164.68 267.795 165.06 267.815 165.436 267.875C166.113 268.025 166.558 268.465 166.556 269.28C166.556 270.05 166.141 270.491 165.496 270.644C165.121 270.715 164.74 270.742 164.361 270.724C152.228 270.724 140.095 270.724 127.961 270.724H126.946C126.865 272.475 126.784 274.112 126.706 275.869H127.644C132.049 275.869 136.453 275.869 140.858 275.869C141.281 275.869 141.8 275.845 142.105 276.09C142.465 276.379 142.838 276.946 142.838 277.393C142.838 277.794 142.407 278.306 142.045 278.566C141.743 278.782 141.267 278.745 140.868 278.745C136.381 278.755 131.897 278.77 127.41 278.732C126.69 278.732 126.452 278.969 126.47 279.731C126.484 280.294 126.433 280.858 126.317 281.407C126.037 282.741 125.061 283.546 123.919 283.448C122.778 283.35 121.855 282.338 121.787 280.952C121.762 280.151 121.778 279.348 121.834 278.549C122.225 270.664 122.621 262.779 123.021 254.894C123.021 254.716 123.032 254.538 123.055 254.359C123.249 252.815 124.209 251.811 125.448 251.851C126.719 251.89 127.663 253.011 127.697 254.598C127.729 256.077 127.697 257.557 127.697 259.154H128.409L197.968 258.883C198.427 258.858 198.887 258.876 199.343 258.938C200.024 259.069 200.478 259.527 200.478 260.333C200.478 261.092 200.066 261.551 199.414 261.693C198.985 261.768 198.551 261.797 198.117 261.781C174.877 261.87 151.636 261.949 128.396 262.018C127.546 262.018 127.271 262.289 127.261 263.193C127.274 264.701 127.175 266.181 127.102 267.816Z" fill="#0C1111"/>
<path d="M284.138 196.367C284.749 195.741 285.234 195.18 285.784 194.711C286.025 194.506 286.463 194.329 286.7 194.436C286.937 194.543 287.172 195.016 287.186 195.337C287.233 196.997 287.243 198.66 287.177 200.319C287.164 200.645 286.799 201.167 286.528 201.224C285.975 201.344 285.836 200.795 285.829 200.285C285.816 199.192 285.829 198.099 285.829 196.645C284.659 198.4 283.606 198.453 282.518 196.549C282.458 197.462 282.423 198.034 282.384 198.607C282.342 199.258 282.308 199.91 282.249 200.568C282.201 201.103 282.152 201.752 281.482 201.681C280.834 201.613 280.855 200.984 280.881 200.433C280.965 198.626 281.033 196.818 281.158 195.016C281.179 194.72 281.396 194.294 281.617 194.201C281.837 194.108 282.257 194.263 282.462 194.465C283.031 195.028 283.541 195.683 284.138 196.367Z" fill="#141B1B"/>
<path d="M269.915 195.97C269.193 195.97 268.527 195.979 267.862 195.97C267.394 195.959 266.857 195.927 266.846 195.246C266.834 194.565 267.373 194.499 267.84 194.484C269.785 194.423 271.726 194.373 273.662 194.336C274.168 194.326 274.714 194.399 274.698 195.133C274.684 195.802 274.163 195.856 273.686 195.882H273.605C272.863 195.939 271.893 195.704 271.446 196.139C271.042 196.528 271.198 197.633 271.121 198.423C271.035 199.336 270.985 200.254 270.885 201.167C270.833 201.642 270.722 202.182 270.147 202.132C269.521 202.077 269.498 201.508 269.526 200.994C269.622 199.605 269.748 198.218 269.86 196.831C269.883 196.574 269.894 196.316 269.915 195.97Z" fill="#151D1C"/>
<path d="M276.832 196.945C277.242 196.945 277.667 196.936 278.09 196.945C278.577 196.957 279.079 197.023 279.063 197.711C279.047 198.4 278.535 198.441 278.058 198.451C277.581 198.462 277.148 198.451 276.615 198.451C276.558 199.156 276.511 199.796 276.453 200.436C276.419 200.819 276.453 201.242 276.307 201.57C276.179 201.861 275.853 202.048 275.614 202.283C275.413 202.005 275.16 201.748 275.032 201.442C274.943 201.222 275.016 200.917 275.032 200.652C275.152 198.76 275.28 196.868 275.395 194.976C275.431 194.402 275.7 194.085 276.206 194.085C277.367 194.067 278.53 194.037 279.686 194.117C279.96 194.135 280.211 194.566 280.472 194.807C280.195 195.065 279.945 195.484 279.635 195.547C279.034 195.666 278.398 195.588 277.779 195.59C276.697 195.586 276.675 195.613 276.832 196.945Z" fill="#151D1C"/>
<path d="M263.042 235.156C262.769 234.89 262.345 234.666 262.252 234.329C262.174 234.043 262.4 233.541 262.632 233.298C262.933 232.984 263.364 232.804 263.767 232.619C265.129 231.98 266.504 231.371 267.867 230.734C268.391 230.49 268.898 230.42 269.21 231.039C269.545 231.709 269.21 232.221 268.673 232.489C267.326 233.164 265.951 233.771 264.587 234.409C264.112 234.628 263.648 234.86 263.042 235.156Z" fill="#151D1C"/>
<path d="M199.537 201.33C199.292 201.102 198.851 200.884 198.837 200.636C198.814 200.235 198.96 199.636 199.229 199.434C200.294 198.637 201.431 197.956 202.55 197.248C202.858 197.065 203.177 196.904 203.503 196.763C204.001 196.528 204.476 196.53 204.774 197.099C205.099 197.715 204.821 198.204 204.327 198.514C203.628 198.956 202.892 199.327 202.187 199.762C201.598 200.119 201.035 200.527 200.452 200.893C200.199 201.043 199.92 201.148 199.537 201.33Z" fill="#151D1C"/>
<path d="M210.443 186.14L208.468 185.933C208.398 186.365 208.329 186.887 208.228 187.401C208.11 188.004 207.782 188.367 207.192 188.251C206.641 188.144 206.446 187.684 206.493 187.126C206.579 186.121 206.678 185.117 206.817 184.12C206.942 183.243 207.487 182.938 208.239 183.277C208.466 183.375 208.681 183.505 208.878 183.662C209.355 184.054 209.772 183.995 210.276 183.662C211.325 182.949 211.957 183.318 212.132 184.653C212.232 185.327 212.301 186.006 212.338 186.688C212.363 187.28 212.228 187.87 211.576 187.954C210.924 188.037 210.691 187.515 210.571 186.919C210.519 186.625 210.477 186.335 210.443 186.14Z" fill="#141B1B"/>
<path d="M198.025 185.519C197.973 186.273 197.955 186.922 197.877 187.562C197.804 188.172 197.543 188.675 196.891 188.591C196.239 188.507 196.08 187.977 196.093 187.359C196.105 186.804 196.155 186.25 196.196 185.586C195.73 185.586 195.338 185.61 194.949 185.586C194.435 185.547 193.976 185.253 194.08 184.672C194.151 184.285 194.566 183.714 194.876 183.686C196.511 183.523 198.152 183.456 199.794 183.486C200.09 183.486 200.554 184.062 200.604 184.434C200.645 184.695 200.171 185.228 199.842 185.338C199.301 185.519 198.686 185.467 198.025 185.519Z" fill="#141B1B"/>
<path d="M204.525 185.362C204.677 185.765 205.052 186.291 204.937 186.576C204.774 186.96 204.249 187.163 203.873 187.432C203.589 187.634 203.302 187.828 203.004 187.999C202.706 188.171 202.355 188.479 202.122 188.404C201.833 188.313 201.436 187.882 201.433 187.593C201.405 186.412 201.484 185.23 201.668 184.066C201.728 183.709 202.329 183.319 202.731 183.239C203.409 183.101 204.126 183.19 204.826 183.205C205.36 183.215 205.811 183.435 205.887 184.071C205.963 184.708 205.59 185.032 205.052 185.168C204.873 185.22 204.697 185.285 204.525 185.362V185.362Z" fill="#141B1B"/>
<path d="M166.274 322.913H165.314C160.397 322.913 155.478 322.913 150.559 322.913C150.163 322.913 149.685 322.913 149.396 322.683C149.072 322.43 148.706 321.861 148.769 321.522C148.845 321.108 149.312 320.727 149.687 320.452C149.901 320.301 150.266 320.393 150.562 320.393H196.604C196.847 320.393 197.091 320.393 197.334 320.409C197.982 320.472 198.417 320.805 198.459 321.558C198.506 322.365 198.031 322.736 197.395 322.882C197.073 322.93 196.747 322.941 196.423 322.916C188.154 322.916 179.885 322.912 171.615 322.904C170.909 322.904 170.318 323.048 169.734 323.519C168.889 324.207 167.991 324.817 167.11 325.45C166.23 326.083 165.575 326.076 165.165 325.434C164.755 324.792 165.014 324.049 165.784 323.401C165.916 323.3 166.016 323.171 166.274 322.913Z" fill="#041110"/>
<path d="M246.421 281.507C246.495 280.034 246.552 278.654 246.656 277.263C246.689 277.154 246.748 277.057 246.825 276.98C246.903 276.903 246.997 276.85 247.098 276.824C250.894 276.799 254.69 276.805 258.542 276.805V281.507H246.421Z" fill="#BADDE0"/>
<path d="M244.396 276.992L244.186 281.492H232.321C232.4 280.066 232.468 278.639 232.579 277.213C232.615 277.115 232.672 277.029 232.747 276.962C232.821 276.895 232.909 276.849 233.003 276.83C236.751 276.83 240.498 276.855 244.245 276.876C244.266 276.869 244.287 276.903 244.396 276.992Z" fill="#BADEE0"/>
<path d="M274.397 261.818C274.478 260.14 274.559 258.609 274.63 256.99H286.235C286.158 258.559 286.106 260.058 285.982 261.551C285.967 261.715 285.528 261.957 285.286 261.957C281.965 261.948 278.638 261.904 275.324 261.865C275.035 261.861 274.745 261.834 274.397 261.818Z" fill="#BCDFE2"/>
<path d="M273.393 281.495C273.458 280.087 273.498 278.757 273.601 277.432C273.618 277.209 273.91 276.833 274.077 276.831C277.764 276.795 281.453 276.804 285.265 276.804C285.199 278.396 285.135 279.914 285.069 281.495H273.393Z" fill="#BADDE0"/>
<path d="M272.41 256.937C272.318 258.609 272.232 260.166 272.146 261.697H261.067V256.937H272.41Z" fill="#BADDE0"/>
<path d="M247.668 256.894H258.735V261.517H247.431C247.514 259.891 247.59 258.4 247.668 256.894Z" fill="#BADEE0"/>
<path d="M233.522 261.308C233.616 259.725 233.702 258.29 233.79 256.817H245.414C245.339 258.39 245.268 259.875 245.2 261.308H233.522Z" fill="#BCDFE2"/>
<path d="M244.537 274.34H232.749C232.828 272.914 232.911 271.525 232.989 270.107H244.762C244.684 271.555 244.613 272.923 244.537 274.34Z" fill="#B8DCDF"/>
<path d="M258.617 270.236V274.337H246.797C246.85 273.089 246.913 271.88 246.959 270.675C246.978 270.06 247.372 270.167 247.71 270.17C250.572 270.192 253.433 270.216 256.293 270.242C257.039 270.242 257.788 270.236 258.617 270.236Z" fill="#B8DCDF"/>
<path d="M271.387 276.869C271.303 278.432 271.225 279.93 271.136 281.494H260.869V276.869H271.387Z" fill="#BADEE0"/>
<path d="M285.597 270.475C285.524 271.857 285.458 273.084 285.391 274.339H273.751C273.818 273.018 273.881 271.759 273.946 270.475H285.597Z" fill="#B8DCDF"/>
<path d="M245.059 263.776C244.997 265.24 244.947 266.417 244.897 267.576H233.157C233.219 266.374 233.26 265.29 233.347 264.208C233.374 264.108 233.425 264.018 233.493 263.946C233.561 263.873 233.645 263.822 233.736 263.796C237.477 263.773 241.216 263.776 245.059 263.776Z" fill="#B9DCDF"/>
<path d="M271.705 270.375C271.64 271.729 271.58 272.991 271.515 274.323H260.945V270.375H271.705Z" fill="#BADDE0"/>
<path d="M222.03 261.166V256.719H231.555C231.463 258.259 231.377 259.695 231.29 261.166H222.03Z" fill="#B9DCDF"/>
<path d="M258.739 264.054C258.739 265.231 258.763 266.235 258.719 267.237C258.709 267.431 258.44 267.772 258.288 267.772C254.599 267.802 250.91 267.795 247.113 267.795C247.188 266.431 247.252 265.241 247.317 264.05L258.739 264.054Z" fill="#BADEE0"/>
<path d="M221.418 281.499V276.863H230.336C230.247 278.396 230.158 279.915 230.065 281.499H221.418Z" fill="#BADDE0"/>
<path d="M274.074 267.949C274.142 266.649 274.2 265.506 274.257 264.402H285.878C285.823 265.661 285.773 266.795 285.716 267.949H274.074Z" fill="#B9DCDF"/>
<path d="M260.981 267.91V264.244H272.007C271.956 265.394 271.935 266.423 271.845 267.442C271.828 267.621 271.509 267.888 271.329 267.89C267.908 267.917 264.485 267.91 260.981 267.91Z" fill="#BADEE0"/>
<path d="M230.503 274.333H221.65C221.65 272.972 221.634 271.673 221.671 270.376C221.671 270.227 221.968 269.964 222.13 269.963C224.96 269.938 227.791 269.945 230.75 269.945C230.664 271.478 230.586 272.853 230.503 274.333Z" fill="#B9DCDF"/>
<path d="M221.816 267.474V263.708H231.136C231.053 265.024 230.973 266.22 230.9 267.474H221.816Z" fill="#BADEE0"/>
<path d="M152.396 238.452C147.767 239.857 140.052 238.427 135.081 231.824C129.892 224.941 130.136 216.078 132.774 210.605C133.961 211.36 135.147 212.109 136.329 212.865C139.897 215.147 143.464 217.444 147.041 219.704C147.311 219.855 147.549 220.07 147.736 220.333C147.924 220.595 148.057 220.9 148.125 221.225C149.497 226.837 150.916 232.432 152.32 238.034C152.354 238.177 152.372 238.318 152.396 238.452Z" fill="#E0F4F5"/>
<path d="M160.017 203.49C165.181 208.317 167.539 214.297 166.788 221.606C165.95 229.781 160.6 235.74 155.015 237.723C154.528 235.847 154.042 233.978 153.578 232.097C152.68 228.531 151.795 224.947 150.883 221.383C150.801 221.105 150.778 220.81 150.815 220.52C150.852 220.231 150.949 219.954 151.097 219.712C153.962 214.509 156.816 209.299 159.658 204.082C159.738 203.932 159.832 203.788 160.017 203.49Z" fill="#E0F4F5"/>
<path d="M134.004 208.03C137.724 202.453 142.574 199.63 148.813 199.35C148.536 205.222 148.263 211.001 147.983 216.949L134.004 208.03Z" fill="#E0F4F5"/>
<path d="M157.755 201.897L151.002 214.263L150.775 214.225C151.005 209.381 151.235 204.536 151.47 199.584C153.679 199.91 155.812 200.695 157.755 201.897Z" fill="#E0F4F5"/>
</svg>
