<svg width="414" height="458" viewBox="0 0 414 458" fill="none" xmlns="http://www.w3.org/2000/svg">
<g clip-path="url(#clip0_172_11236)">
<path d="M369.162 0C368.977 0.890483 370.284 1.86342 368.582 2.99301C368.302 1.84968 368.075 0.923464 367.845 0H369.162Z" fill="#353335"/>
<path d="M112.691 282.835L122.94 283.998C124.455 284.171 125.446 285.224 125.271 286.716C124.284 295.09 123.296 303.481 122.206 311.834C121.637 316.149 120.82 320.439 120.083 324.952C122.921 325.304 125.699 325.776 128.501 325.96C131.303 326.145 134.203 326.04 137.061 326.172C139.649 326.288 140.422 327.068 140.683 329.47C140.985 329.195 141.377 328.937 141.558 328.604C141.703 328.33 141.588 327.975 141.588 327.653C141.588 317.853 141.588 308.05 141.588 298.246C141.588 297.514 141.611 296.781 141.697 296.047C141.861 294.673 142.832 293.9 144.446 293.719C145.153 293.652 145.864 293.624 146.576 293.634H187.973V292.034C187.973 282.23 187.973 272.427 187.973 262.626C187.973 259.268 188.862 258.534 192.935 258.531C205.226 258.531 217.508 258.531 229.782 258.531C238.827 258.531 247.872 258.523 256.917 258.506H258.646V256.418C258.646 196.869 258.656 137.32 258.675 77.7713C258.699 76.5401 258.92 75.3171 259.334 74.1352C259.739 72.9204 260.904 72.291 262.419 72.2361C264.01 72.1756 265.6 72.1463 267.189 72.1481H394.674C395.661 72.1481 396.649 72.0299 397.61 72.1893C399.915 72.5714 401.291 74.1929 401.347 76.4274C401.383 77.8016 401.37 79.1758 401.37 80.55V258.487C404.264 258.487 407.039 258.487 409.812 258.487C412.864 258.471 413.894 259.29 413.894 261.818C413.894 317.933 413.894 374.047 413.894 430.161C413.894 438.038 413.97 445.912 413.999 453.797C413.999 456.301 412.501 457.551 409.469 457.595C408.975 457.595 408.481 457.595 407.988 457.595C274.966 457.595 141.942 457.595 8.91821 457.595C6.5708 457.595 4.2201 457.436 1.87269 457.378C0.591982 457.348 -0.0467241 456.878 0.00266039 455.768C0.111306 453.349 0.262752 450.928 0.25946 448.506C0.25946 443.383 0.157398 438.257 0.0981371 433.132C0.0981371 432.719 0.0981371 432.307 0.0981371 431.895C0.0674089 422.275 0.0377782 412.656 0.00924499 403.037C0.00924499 401.368 0.766473 400.58 2.73527 400.349C3.39097 400.287 4.05107 400.264 4.71065 400.28H46.1607V398.724C46.1607 388.876 46.1607 379.028 46.1607 369.179C46.1607 366.04 47.0924 365.208 50.895 365.076C53.0844 364.999 55.2771 365.029 57.4796 365.007C57.5059 365.007 57.5323 364.933 57.5784 364.861C57.1471 364.273 56.5907 363.702 56.2812 363.053C55.4878 361.42 56.5117 359.87 58.5529 359.48C58.7076 359.432 58.872 359.41 59.0369 359.414C62.2897 359.881 62.9876 358.246 63.7086 356.009C68.2487 342.044 71.4488 327.846 74.7049 313.653C76.2095 307.095 77.8952 300.568 79.459 294.021C79.7257 292.903 80.2788 291.578 79.808 290.671C79.4228 289.932 77.7338 289.624 76.5782 289.214C70.7278 287.137 67.0701 283.566 65.4964 278.391C63.8963 273.054 61.9209 267.812 60.367 262.472C59.6492 259.98 59.692 257.344 59.2048 254.796C58.5463 251.366 57.6903 247.961 56.9594 244.539C56.0231 240.037 53.3994 235.899 49.4662 232.721C45.7952 229.698 42.0354 226.754 38.2328 223.852C32.4746 219.454 26.802 215.002 22.5845 209.45C17.6461 202.956 14.9727 195.879 15.2065 188.147C15.4106 181.488 18.0905 175.428 22.0808 169.733C31.589 156.183 45.3837 147.677 64.1235 145.272C75.3634 143.835 86.2872 145.311 96.8456 148.727C104.557 151.176 111.683 154.754 117.89 159.292C125.439 164.841 129.413 171.934 130.99 180.108C132.738 189.214 130.417 197.868 126.842 206.355C123.954 213.21 120.685 219.952 117.768 226.798C114.295 234.95 113.143 243.464 113.021 252.045C112.968 255.706 113.959 259.375 114.338 263.038C114.924 268.516 115.414 274.005 114.166 279.46C113.906 280.579 113.231 281.62 112.691 282.835ZM55.9487 189.64L55.8071 189.423L55.6853 189.587L55.9224 189.67C56.1001 190.22 56.2516 190.786 56.4656 191.319C57.9405 194.807 59.6624 198.231 60.8806 201.777C65.4634 215.117 69.885 228.497 74.379 241.862C75.3667 244.841 76.3544 247.823 77.3256 250.684L87.5712 249.22C82.2509 228.005 80.766 206.531 79.9989 185.083C78.7479 185.718 77.6186 186.254 76.542 186.855C76.2128 187.045 75.7881 187.378 75.7486 187.68C75.3864 190.305 74.7247 192.388 71.1558 193.644C66.8232 195.172 63.0633 195.271 59.5472 192.624C58.2698 191.698 57.1372 190.648 55.9487 189.64ZM408.34 453.033V263.39H193.784V265.089C193.784 275.577 193.801 286.066 193.833 296.555C193.833 297.462 193.758 298.224 192.441 298.364C190.288 298.592 188.134 298.993 185.978 299.004C173.797 299.067 161.635 299.034 149.463 299.034H147.396V300.837C147.396 311.325 147.396 321.813 147.452 332.304C147.452 333.323 147.198 334.013 145.871 334.131C143.389 334.354 140.903 334.725 138.417 334.736C126.299 334.799 114.183 334.766 102.064 334.766H100.019V336.586L100.049 367.918C100.049 369.534 99.7198 369.828 97.8234 369.932C97.3856 369.954 96.9444 369.932 96.5065 369.932L54.0688 369.965H51.9848V371.746C51.9848 382.237 51.9848 392.725 52.0539 403.213C52.0539 404.568 51.3625 405.032 49.9699 405.095C47.4579 405.213 44.9458 405.37 42.4371 405.37C30.9141 405.403 19.4075 405.37 7.8943 405.37H6.00781C5.96501 405.837 5.9288 406.065 5.92551 406.291C5.82674 416.185 5.73016 426.073 5.63578 435.954C5.58969 440.989 5.55018 446.028 5.51726 451.071C5.51726 453.016 5.51726 453.019 7.78236 453.019H408.34V453.033ZM395.76 77.0183H264.299V258.454H395.76V77.0183ZM107.921 250.599C107.941 250.39 107.977 250.033 107.997 249.673C108.527 240.353 110.245 231.22 114.212 222.464C116.649 217.088 119.21 211.745 121.558 206.347C125.136 198.102 127.642 189.725 126.029 180.847C124.83 174.251 121.923 168.345 116.076 163.645C108.296 157.387 99.012 153.33 88.6807 150.917C79.6928 148.818 70.5895 148.246 61.3942 149.958C44.3269 153.138 32.4878 161.798 24.6686 174.578C18.0049 185.479 18.94 196.167 26.3147 206.578C29.3337 210.833 33.3833 214.378 37.6633 217.745C42.4503 221.513 47.3196 225.207 52.0901 228.994C57.687 233.424 61.0188 238.847 62.2304 245.21C62.9218 248.837 63.8008 252.438 64.5679 255.928L74.3954 251.311C74.3362 251.097 74.2637 250.739 74.1485 250.393C70.538 239.432 66.9285 228.471 63.3201 217.508C59.8632 206.93 56.3602 196.37 50.7403 186.405C50.625 186.199 50.4374 185.951 50.4901 185.762C50.625 185.264 50.7172 184.577 51.1222 184.371C51.5271 184.165 52.2778 184.462 52.8408 184.629C53.193 184.734 53.5552 185.228 53.7725 185.179C55.0894 184.833 55.682 185.58 56.3833 186.218C58.2006 187.867 59.939 189.585 61.8617 191.143C63.6 192.55 65.7795 192.696 67.8405 192.275C66.3128 189.876 64.726 187.603 63.386 185.206C62.7275 184.03 62.451 182.686 62.1283 181.394C61.8748 180.372 62.2041 179.273 63.465 179.031C64.3539 178.86 65.4404 179.341 66.4281 179.611C66.7573 179.704 67.0141 180.034 67.6034 180.49C67.3335 179.438 67.024 178.734 66.9976 178.017C66.905 176.618 66.9579 175.216 67.1557 173.825C67.3335 172.814 68.1006 171.923 69.4998 171.8C71.0208 171.668 71.7616 172.594 72.3246 173.556C72.7796 174.336 73.1328 175.154 73.3781 175.997C74.1847 178.781 74.9222 181.576 75.7354 184.555C76.2885 184.214 77.0359 183.992 77.24 183.579C78.0308 181.998 78.7124 180.38 79.2812 178.734C79.6368 177.69 79.5808 176.535 79.966 175.51C80.124 175.084 80.9702 174.567 81.4838 174.584C81.9315 174.6 82.5044 175.246 82.7381 175.713C82.9719 176.181 82.9126 176.791 82.9225 177.338C83.018 182.238 82.9982 187.141 83.2023 192.036C83.8608 208.29 85.1777 224.498 88.5424 240.548C89.1318 243.371 89.7672 246.185 90.4092 249.132C93.4381 249.132 96.3617 248.942 99.2325 249.187C102.103 249.431 105.004 250.105 107.921 250.599ZM94.2052 365.013V363.484C94.2052 353.549 94.2315 343.616 94.1855 333.681C94.1855 331.889 94.8735 330.512 96.8357 329.783C97.752 329.493 98.7269 329.354 99.7066 329.374C103.134 329.327 106.561 329.355 109.442 329.355C109.949 327.915 109.982 326.458 110.868 325.669C111.835 324.809 113.594 324.57 115.124 324.02C116.962 312.183 119.404 300.244 119.948 288.041C116.382 287.565 112.882 287.049 109.363 286.667C108.492 286.611 107.62 286.758 106.844 287.093C104.839 287.917 103.006 289.107 100.918 289.684C98.3108 290.373 95.6218 290.823 92.8982 291.028C90.317 291.248 87.6897 291.075 85.4148 291.075C79.3536 313.936 75.3963 336.973 67.7055 359.667C74.4876 360.365 80.9998 361.019 87.5054 361.72C88.5556 361.833 89.8495 361.901 90.5277 362.437C91.2059 362.973 91.2421 364.064 91.6043 365.026L94.2052 365.013ZM80.5981 282.244C79.8672 282.819 79.2318 283.638 78.8269 283.566C78.4351 283.472 78.0715 283.31 77.76 283.09C77.4486 282.87 77.1962 282.598 77.0194 282.291C75.9659 280.106 76.384 277.973 77.9248 276.019C78.4614 275.34 79.2648 274.802 80.2821 275.302C81.3587 275.83 81.092 276.577 80.4631 277.294C80.3453 277.498 80.2569 277.712 80.1998 277.932C88.661 279.205 96.9905 280.472 105.356 281.692C105.61 281.716 105.868 281.694 106.111 281.625C106.353 281.557 106.574 281.444 106.759 281.296C108.237 279.807 109.63 278.204 109.587 276.168C109.485 271.237 109.274 266.306 109.07 261.376C109.034 260.447 108.813 259.526 108.681 258.649C94.9526 264.047 80.5125 263.989 65.9309 263.709C66.2207 264.553 66.5236 265.419 66.8133 266.287C68.2487 270.553 69.6051 274.837 71.1591 279.07C71.5873 280.298 72.3591 281.424 73.411 282.354C75.8792 284.394 78.998 285.799 82.3957 286.4C87.591 287.365 92.7336 287.142 97.8531 286.087C98.5115 285.952 99.0745 285.578 99.6836 285.317L99.5256 285.042L80.5981 282.244ZM92.2858 258.523C98.0111 257.885 103.308 256.673 108.046 253.82C104.49 251.817 94.6563 250.649 90.8438 251.712C91.3179 253.952 91.792 256.181 92.2858 258.523V258.523ZM89.4347 258.963C88.8914 256.437 88.3976 254.134 87.8577 251.633L78.1618 253.166C78.412 255.453 78.6359 257.514 78.8763 259.694L89.4347 258.963ZM75.3765 253.889C71.485 255.148 68.1335 256.583 65.4996 259.007L65.6116 259.416L75.9 259.853C75.7222 257.753 75.5576 255.917 75.3765 253.889V253.889ZM70.2998 185.02L71.7978 190.588C73.6185 187.227 73.1147 186.047 70.2998 185.02ZM71.7583 182.062L72.2324 181.98L70.122 175.021L69.6578 175.12C69.3813 177.64 70.4118 179.883 71.7583 182.062V182.062ZM67.4092 186.982L67.9722 186.776C67.3554 185.709 66.7386 184.641 66.1219 183.571L65.6774 183.744C66.2459 184.825 66.8232 185.905 67.4092 186.982ZM65.7828 183.189L65.6478 182.953C65.6182 182.988 65.5523 183.032 65.5589 183.06C65.5859 183.141 65.6223 183.219 65.6676 183.294L65.7828 183.189ZM68.0874 187.394L67.936 187.21C67.8969 187.282 67.8649 187.356 67.8405 187.433C67.8405 187.466 67.8931 187.507 67.9228 187.545C67.9722 187.493 68.0281 187.441 68.0841 187.394H68.0874Z" fill="#101213"/>
<path d="M121.732 127.479C121.235 132.509 117.834 137.217 112.451 140.971C106.196 145.344 99.0811 145.951 92.2891 142.845C85.2798 139.643 80.8352 132.965 81.6023 126.847C82.0797 123.073 84.7102 120.388 87.9235 117.992C95.7756 112.137 108.036 111.728 116.106 117.041C119.783 119.462 121.742 122.763 121.732 127.479ZM99.5947 116.065C94.7879 116.818 90.982 118.607 87.8741 121.606C85.2732 124.115 83.8378 126.874 84.6575 130.159C86.0897 135.889 90.1425 139.839 96.8127 141.746C99.3751 142.526 102.185 142.526 104.747 141.746C103.378 137.516 101.896 133.418 100.74 129.254C99.4873 124.941 99.1002 120.484 99.5947 116.065V116.065ZM107.855 140.718C113.452 137.621 117.199 133.688 118.525 128.331C119.372 124.912 118.134 121.99 115.105 119.624C112.142 117.321 108.573 116.233 104.589 115.848C102.992 115.691 102.285 116.09 102.383 117.395C102.676 120.902 102.778 124.437 103.394 127.905C104.184 132.324 105.684 136.634 107.855 140.718Z" fill="#141918"/>
<path d="M70.9089 131.712C70.5797 137.47 68.1236 141.881 62.1053 144.354C55.9257 146.88 49.7954 146.278 44.5277 142.675C38.0419 138.256 35.6385 132.415 37.5151 125.495C38.8979 120.421 45.2882 116.005 51.3625 115.221C53.8482 114.9 56.301 115.109 58.5694 116.106C66.224 119.492 70.1813 124.887 70.9089 131.712ZM49.4102 118.294C44.1425 120.179 40.5605 123.073 40.0041 127.913C39.3753 133.388 41.6996 137.918 47.0233 141.169C50.8094 143.478 55.0697 143.851 59.5735 142.639C59.4846 142.439 59.4813 142.364 59.4451 142.364C59.2212 142.235 58.9974 142.106 58.7669 141.988C55.0861 140.064 52.5115 137.412 51.3954 133.897C49.7625 128.815 47.8892 123.761 49.4102 118.294ZM67.8471 131.025C67.3071 125.995 63.9424 121.334 57.3776 118.382C56.5914 118.066 55.7623 117.832 54.9083 117.684C53.6573 117.409 52.6037 117.794 52.3831 118.863C52.0539 120.421 51.593 122.062 51.8597 123.585C52.4611 126.969 53.2921 130.322 54.3486 133.627C55.2507 136.475 57.4862 138.61 60.5875 140.053C62.767 141.07 63.5243 140.935 64.9959 139.284C66.8857 137.17 67.8899 134.798 67.8471 131.025Z" fill="#141918"/>
<path d="M274.89 51.8127C275.028 48.4486 275.858 45.2632 278.008 42.3857C279.753 40.0495 282.907 38.733 285.61 39.3624C286.816 39.6486 287.932 40.1524 288.879 40.8383C295.612 45.7854 297.274 56.5894 292.309 62.8255C291.706 63.5881 290.989 64.2836 290.176 64.8951C287.322 67.0004 283.868 67.0581 280.888 65.082C277.158 62.6084 275.799 59.1207 275.157 55.3719C274.959 54.19 274.972 52.9945 274.89 51.8127ZM277.379 51.9693L277.688 52.0133C277.688 52.563 277.639 53.1127 277.688 53.6624C278.034 56.9604 278.824 60.1101 281.774 62.5452C284.303 64.634 287.042 64.4691 289.169 62.0752C292.546 58.2824 292.747 54.0471 291.355 49.6607C290.515 47.0167 289.152 44.5954 286.637 42.7292C285.297 41.737 283.618 41.355 282.314 42.3005C280.958 43.2761 279.048 43.9495 278.735 45.7964C278.39 47.8632 277.843 49.9108 277.379 51.9693Z" fill="#212022"/>
<path d="M280.042 26.772C281.03 23.5784 281.958 20.5387 282.9 17.4989C282.974 17.1378 283.114 16.7884 283.315 16.4628C283.552 16.1341 283.904 15.8734 284.322 15.7152C284.477 15.6685 285.024 16.1275 285.116 16.4188C285.866 18.7522 286.689 21.0774 287.226 23.4465C288.076 27.1706 288.81 30.9194 289.379 34.6792C289.518 35.5862 288.826 36.5811 288.513 37.5375C287.878 36.713 286.867 35.9242 286.67 35.0173C286.011 32.1974 285.698 29.3281 285.208 26.4972C284.993 25.0788 284.589 23.6849 284.003 22.3416C283.564 24.2307 283.125 26.117 282.686 28.0006C282.538 28.63 282.495 29.3061 282.163 29.8613C281.83 30.4164 281.27 31.0706 280.721 31.1283C280.171 31.186 279.213 30.6995 278.883 30.2323C277.896 28.9158 277.158 27.4839 276.319 26.1097C275.781 25.1223 275.09 24.1983 274.264 23.3613C274.498 25.986 274.768 28.608 274.952 31.2355C275.094 33.2445 275.183 35.2591 275.166 37.2682C275.166 37.7025 274.594 38.1312 274.284 38.5627C273.853 38.2054 273.234 37.9113 273.033 37.4798C272.72 36.7473 272.536 35.9808 272.486 35.2041C271.983 29.7376 271.499 24.2683 271.091 18.7962C271.038 18.0404 271.361 16.7926 271.937 16.5782C273.214 16.1055 273.77 17.3148 274.277 18.0514C276.227 20.8877 278.08 23.7873 280.042 26.772Z" fill="#1A191B"/>
<path d="M368.724 25.6071C368.516 21.5861 368.302 17.8401 368.148 14.094C368.105 13.272 368.19 12.4488 368.401 11.6452C368.51 11.2521 369.06 10.9498 369.432 10.6035C369.833 10.9746 370.531 11.3154 370.584 11.7166C370.864 13.8521 370.986 16.0041 371.157 18.1506C371.456 21.9352 371.789 25.7197 372.029 29.5098C372.091 30.6458 372.013 31.7842 371.795 32.9068C371.726 33.2778 370.992 33.8715 370.663 33.8275C370.149 33.7588 369.379 33.2778 369.31 32.8986C368.72 29.6005 365.882 27.2616 364.22 24.4307C362.557 21.5999 360.378 19.0054 358.416 16.3092C358.213 16.1403 357.992 15.9867 357.757 15.8502C357.895 17.1722 357.984 18.2221 358.116 19.2637C358.58 22.9493 359.133 26.6295 359.466 30.3233C359.535 31.0929 358.939 32.522 358.425 32.599C356.927 32.8216 356.931 31.5189 356.812 30.6751C356.255 26.6844 355.755 22.6873 355.314 18.6838C355.09 16.6363 354.985 14.575 354.985 12.5219C354.985 12.0162 355.505 11.5105 355.785 11.0048C356.341 11.2274 357.102 11.3263 357.431 11.6919C360.144 14.7903 362.806 17.9189 365.418 21.0777C366.538 22.4629 367.509 23.9443 368.724 25.6071ZM357.859 15.7128C357.826 15.7403 357.77 15.7705 357.767 15.8007C357.764 15.831 357.82 15.864 357.849 15.8969C357.882 15.8667 357.941 15.8392 357.941 15.8062C357.941 15.7733 357.876 15.743 357.846 15.7128H357.859Z" fill="#181719"/>
<path d="M353.925 54.468L359.298 59.1403C359.525 59.3381 359.775 59.5195 359.989 59.7284C360.667 60.3963 361.55 61.1658 360.575 61.9849C359.545 62.8506 358.495 62.1635 357.731 61.5011C355.729 59.7586 353.806 57.9529 351.62 55.9604C351.62 57.4637 351.62 58.7912 351.62 60.1214C351.666 61.0766 351.621 62.0333 351.485 62.9825C351.406 63.3728 350.777 63.917 350.343 63.9555C349.908 63.9939 349.256 63.5569 349 63.1859C348.654 62.6664 348.475 62.0815 348.479 61.4874C348.624 54.9929 348.766 48.4957 349.029 42.0012C349.115 39.8025 351.146 38.7279 353.819 39.1951C357.27 39.7997 360.536 43.4139 360.704 46.8192C360.868 50.1172 358.853 52.5908 354.748 54.1327C354.554 54.2151 354.366 54.2948 353.925 54.468ZM351.472 52.3599C351.76 52.3533 352.047 52.3313 352.331 52.294C352.661 52.2225 352.96 52.1373 353.27 52.0411C355.946 51.2166 357.879 49.6693 358.119 47.2864C358.376 44.8376 357.237 42.6911 354.59 41.3306C354.018 41.0726 353.394 40.9057 352.749 40.8386C351.897 40.7177 351.449 41.0063 351.456 41.8198C351.492 45.2938 351.472 48.7705 351.472 52.3599V52.3599Z" fill="#212022"/>
<path d="M300.204 52.0548C301.594 51.5546 302.749 51.0049 303.99 50.7438C304.59 50.6174 305.35 51.0186 306.038 51.2C305.709 51.7222 305.561 52.4258 305.051 52.7281C303.767 53.495 302.308 54.0529 300.965 54.7565C300.576 54.9598 300.069 55.3749 300.083 55.6799C300.119 57.643 300.296 59.6024 300.613 61.5478C300.902 63.0814 301.762 63.4469 303.576 63.0621C305.054 62.7461 306.479 62.2596 307.948 61.8941C309.416 61.5285 310.96 61.1987 312.471 60.8524L312.876 61.2647C312.402 61.7979 312.027 62.4218 311.441 62.8478C309.072 64.5841 306.066 65.596 302.917 65.7171C300.283 65.8325 298.473 64.8706 297.89 62.7571C297.343 60.7091 297.073 58.6164 297.083 56.5182C297.083 51.4859 297.281 46.4563 297.412 41.424C297.462 39.5715 298.456 38.8075 300.705 38.769C302.621 38.7388 304.534 38.5904 306.447 38.5959C306.996 38.5959 307.546 38.9531 308.093 39.1455C307.681 39.4643 307.326 39.9701 306.848 40.0662C305.11 40.4455 303.316 40.6489 301.581 41.0144C301.083 41.1189 300.306 41.5449 300.3 41.839C300.171 45.2168 300.204 48.6 300.204 52.0548Z" fill="#232224"/>
<path d="M316.363 37.7138C316.465 38.5851 316.564 39.4563 316.666 40.3275C317.262 45.3296 317.769 50.34 318.506 55.3256C318.724 56.7905 319.471 58.2361 320.208 59.6021C320.946 60.9681 321.815 61.1055 323.425 60.5036C326.362 59.4042 326.717 58.8875 326.651 55.911C326.566 50.6505 326.49 45.3901 326.503 40.1297C326.503 39.481 327.099 38.8324 327.419 38.1865C327.748 38.7912 328.354 39.3848 328.406 40.0087C328.768 45.0768 329.091 50.1476 329.279 55.2211C329.335 56.7053 328.949 58.2059 328.686 59.69C328.63 60.0483 328.443 60.3834 328.149 60.6492C327.524 61.1617 326.845 61.627 326.121 62.0399C322.259 64.2387 319.306 63.5213 317.466 59.9429C315.491 56.0951 315.092 51.9725 314.898 47.8499C314.783 45.3351 314.868 42.8121 314.97 40.2973C315.003 39.4288 315.359 38.5686 315.563 37.7056L316.363 37.7138Z" fill="#232224"/>
<path d="M365.886 50.5349C366.021 52.8875 365.998 55.078 366.317 57.2355C366.547 58.7828 368.111 59.797 370.004 59.8932C371.802 59.9866 373.626 59.8932 375.41 59.9647C376.777 60.0086 378.136 60.1543 379.592 60.2642C379.173 61.8061 378.031 62.2706 376.839 62.32C374.228 62.43 371.571 62.5427 368.997 62.2788C365.823 61.9545 363.604 59.5139 363.311 56.4852C363.206 55.3468 363.172 54.2047 363.209 53.0634C363.311 49.6334 363.459 46.2089 363.594 42.7816C363.673 40.7533 364.582 39.97 366.995 39.8793C369.234 39.7914 371.476 39.643 373.715 39.6512C374.403 39.6512 375.591 39.9893 375.69 40.3328C375.954 41.3332 374.765 41.4157 373.942 41.5174C371.993 41.7592 370.034 41.9131 368.075 42.0973C367.548 42.1495 367.015 42.1852 366.366 42.2375V48.1245C368.279 48.3499 370.208 48.567 372.131 48.8089C372.615 48.8694 373.211 48.8886 373.53 49.1332C374.11 49.5784 374.518 50.1748 375.002 50.7108C374.281 51.0131 373.524 51.6233 372.849 51.5628C370.627 51.3704 368.434 50.9362 365.886 50.5349Z" fill="#212022"/>
<path d="M321.397 31.7466C324.633 31.5487 327.56 31.3426 330.493 31.1969C331.681 31.1238 332.874 31.1598 334.052 31.3041C335.32 31.4827 335.31 32.2605 334.362 32.6783C333.18 33.2254 331.886 33.5815 330.546 33.7282C327.349 34.025 324.126 34.1844 320.91 34.2779C319.794 34.3081 318.977 33.7035 318.852 32.6646C318.391 28.8553 317.963 25.0405 317.456 21.234C317.239 19.6014 316.9 17.9798 316.541 16.3665C315.925 13.6181 316.623 12.8733 319.991 12.8321C322.072 12.8073 324.153 12.7331 326.23 12.7661C326.688 12.7661 327.139 13.1372 327.593 13.3378C327.155 13.6126 326.753 14.0414 326.276 14.1101C323.853 14.4536 321.41 14.701 318.819 15.0006C319.286 17.0921 319.757 19.1836 320.258 21.4208C322.003 21.4208 323.8 21.3384 325.581 21.4538C326.628 21.5225 328.35 21.3659 328.294 22.6054C328.245 23.7323 326.671 23.7295 325.506 23.7048C323.859 23.6635 322.243 23.5866 320.301 23.5151C320.663 26.2305 321.025 28.8773 321.397 31.7466Z" fill="#1A191B"/>
<path d="M331.649 38.7661C334.457 44.6862 336.008 50.9635 338.728 57.0073C339.1 55.4269 339.386 53.8274 339.86 52.2718C341.015 48.5174 342.233 44.776 343.515 41.0473C343.706 40.4976 344.456 40.0936 344.943 39.6209C345.154 40.253 345.664 40.9373 345.526 41.5118C344.538 45.5849 343.422 49.6415 342.313 53.6954C341.654 56.1305 340.996 58.5739 340.16 60.9732C339.939 61.6163 339.109 62.1166 338.56 62.6827C337.947 62.0726 336.993 61.5366 336.775 60.8385C334.767 54.4375 332.867 48.0117 330.984 41.5832C330.734 40.7285 330.744 39.8188 330.635 38.9365L331.649 38.7661Z" fill="#222123"/>
<path d="M302.539 31.9805C304.448 32.805 305.982 33.4976 307.54 34.1489C309.436 34.9405 310.631 34.8415 311.899 33.8439C313.166 32.8462 313.739 31.3126 312.86 29.9741C311.938 28.6374 310.845 27.3878 309.601 26.2473C307.796 24.535 305.735 23.0069 303.974 21.2672C302.358 19.6649 301.34 17.7905 301.633 15.589C301.864 13.8987 303.335 12.6619 305.255 12.5657C307.652 12.4393 309.643 13.4535 310.127 15.3141C309.232 15.1163 308.514 14.8414 307.773 14.8002C306.693 14.748 305.07 14.5253 304.649 14.9898C304.086 15.6082 304.017 17.0291 304.507 17.7382C305.729 19.489 307.306 21.083 308.889 22.6386C310.759 24.4773 313.005 26.0741 314.694 28.0173C316.761 30.3946 316.379 33.2667 314.203 35.361C312.511 36.9935 310.085 37.5927 307.684 36.8919C305.087 36.1278 303.062 34.8883 302.539 31.9805Z" fill="#1A191B"/>
<path d="M342.491 14.8413C342.678 16.8394 342.846 18.6561 343.014 20.4728C344.848 20.5964 346.636 20.6349 348.41 20.8768C349.029 20.962 349.546 21.5419 350.112 21.8964C349.526 22.2895 348.963 22.9958 348.354 23.0178C346.672 23.103 344.97 22.9106 343.044 22.8144C343.215 24.8977 343.373 26.97 343.58 29.2814C345.385 29.056 346.972 28.8032 348.575 28.6767C349.737 28.586 351.377 28.0006 351.696 29.5287C351.986 30.9304 350.455 30.9964 349.243 31.1228C347.564 31.296 345.888 31.5571 344.206 31.6285C342.003 31.7192 341.075 31.0376 340.848 29.2099C340.594 27.1651 340.397 25.1121 340.295 23.059C340.17 20.4975 340.14 17.9305 340.133 15.3635C340.133 13.7557 340.848 13.0823 342.728 12.9174C345.18 12.7058 347.64 12.5684 350.099 12.4034C350.367 12.3512 350.646 12.3579 350.909 12.4227C351.417 12.6689 351.908 12.9377 352.381 13.228C351.903 13.4643 351.456 13.8491 350.945 13.9123C348.193 14.2559 345.427 14.5225 342.491 14.8413Z" fill="#1A191B"/>
<path d="M292.767 18.0075C291.995 18.5457 291.188 19.0485 290.35 19.5136C289.998 19.6895 289.452 19.5961 288.994 19.6263C288.968 19.2388 288.747 18.7468 288.948 18.4775C290.724 16.0417 293.363 14.1274 296.501 12.9999C296.991 12.824 297.775 13.2198 298.42 13.3489C298.193 13.8574 297.966 14.3631 297.732 14.8661C297.705 14.9068 297.66 14.9373 297.607 14.9513C294.278 15.9352 294.463 17.7409 295.365 20.1732C296.418 23.0316 296.8 26.0631 297.521 29.243C298.324 28.6933 299.042 28.1903 299.799 27.7231C300.32 27.4015 300.863 27.0305 301.462 26.8986C301.906 26.7969 302.664 26.8986 302.911 27.1734C303.035 27.3641 303.099 27.5776 303.099 27.7945C303.099 28.0115 303.035 28.225 302.911 28.4157C302.254 29.0824 301.528 29.6995 300.741 30.2599C299.605 31.1503 298.591 32.258 297.251 32.8351C295.835 33.4425 294.107 33.5497 292.497 33.8026C292.428 33.8026 291.983 33.0385 292.092 32.7032C292.201 32.3679 292.731 32.0738 293.159 31.9089C294.686 31.3125 295.003 30.3863 294.742 29.0368C294.084 25.6151 293.593 22.1658 293.024 18.7358C292.958 18.4885 292.872 18.2452 292.767 18.0075V18.0075Z" fill="#1A191B"/>
<path d="M365.668 5.13106C367.887 3.79809 370.1 4.28181 372.144 5.21901C374.258 6.1837 376.24 7.37101 376.072 9.92978C373.481 6.97249 370.386 4.83424 365.668 5.13106Z" fill="#353335"/>
<path d="M385.91 31.406C383.723 33.9372 380.909 35.5643 377.86 37.37C378.278 35.2675 383.71 31.2301 385.91 31.406Z" fill="#2D2B2D"/>
<path d="M270.323 42.2706C268.789 41.6302 267.183 41.0118 265.662 40.2725C265.362 40.1296 265.398 39.5057 265.28 39.1017C265.724 39.0549 266.228 38.8735 266.597 38.989C268.075 39.4301 269.521 39.945 270.926 40.5308C271.295 40.6875 271.515 41.2317 271.584 41.6302C271.64 41.7484 270.956 41.9682 270.323 42.2706Z" fill="#2D2B2D"/>
<path d="M269.059 46.4974C267.877 48.2922 266.011 48.8171 264.21 49.3998C264.009 49.4657 263.594 49.2788 263.416 49.1084C263.377 49.0086 263.368 48.9022 263.391 48.7989C263.414 48.6956 263.468 48.5988 263.548 48.5175C265.056 47.4127 266.521 46.2611 269.059 46.4974Z" fill="#2D2B2D"/>
<path d="M381.442 39.555L380.151 38.604C380.54 38.3292 380.925 38.0736 381.317 37.8125C381.364 37.7884 381.42 37.7778 381.475 37.7822C382.36 37.8207 383.246 37.8509 384.125 37.9334C384.184 37.9334 384.283 38.4831 384.207 38.5106C383.368 38.8651 382.495 39.1674 381.442 39.555Z" fill="#2D2B2D"/>
<path d="M383.414 43.7602C382.321 43.4139 381.215 43.0951 380.151 42.6966C379.97 42.6306 379.878 42.2238 379.917 41.993C379.937 41.8693 380.355 41.6687 380.533 41.7181C381.761 41.9655 383.095 42.1002 383.72 43.1885L383.414 43.7602Z" fill="#2D2B2D"/>
<path d="M265.487 43.5513H268.602L268.631 44.1916L265.497 44.3346L265.487 43.5513Z" fill="#353335"/>
<path d="M372.931 2.93238C372.493 2.45966 372.059 2.10786 372.118 2.03915C372.612 1.44275 373.195 0.898565 373.764 0.337891C373.991 0.555015 374.459 0.887571 374.4 0.972772C373.951 1.64667 373.461 2.30074 372.931 2.93238V2.93238Z" fill="#353335"/>
<path d="M377.251 4.49347C377.353 4.21863 377.356 4.02349 377.455 3.98227C378.229 3.64421 379.019 3.33639 379.802 3.01758C379.891 3.29242 380.161 3.68819 380.043 3.79812C379.345 4.4495 378.528 4.94696 377.251 4.49347Z" fill="#2D2B2D"/>
<path d="M408.34 453.044H7.78236C5.51726 453.044 5.50738 453.044 5.51726 451.096C5.55018 446.06 5.58969 441.022 5.63578 435.979C5.72796 426.085 5.82454 416.197 5.9255 406.316C5.9255 406.09 5.96501 405.862 6.00781 405.395H7.8943C19.4173 405.395 30.9206 405.414 42.4371 405.395C44.9458 405.395 47.4579 405.225 49.9699 405.12C51.3625 405.057 52.0638 404.593 52.0539 403.238C51.9749 392.75 51.9946 382.262 51.9848 371.771V369.99H54.0688L96.5065 369.957C96.9444 369.957 97.3856 369.957 97.8234 369.957C99.7297 369.853 100.052 369.559 100.049 367.943L100.019 336.611V334.756H102.064C114.183 334.756 126.299 334.789 138.417 334.725C140.903 334.725 143.389 334.343 145.871 334.121C147.188 334.003 147.455 333.313 147.452 332.293C147.402 321.802 147.405 311.315 147.396 300.827V299.026H149.463C161.645 299.026 173.806 299.059 185.978 298.996C188.134 298.996 190.288 298.584 192.441 298.356C193.758 298.216 193.837 297.454 193.833 296.547C193.796 286.056 193.78 275.567 193.784 265.081V263.382H408.34V453.044ZM380.75 296.52H265.112C254.748 296.52 244.37 296.536 234.019 296.506C232.533 296.468 231.087 296.911 229.983 297.743C227.26 299.73 224.468 301.657 221.709 303.608C211.341 310.95 200.972 318.291 190.604 325.631L155.218 350.641C144.051 358.54 132.886 366.442 121.726 374.346L86.3465 399.373C75.2229 407.252 64.0993 415.124 52.9757 422.988C47.7509 426.687 42.4996 430.364 37.2945 434.08C34.6278 435.985 35.2533 439.005 38.5654 439.951C40.1917 440.415 41.9498 440.817 43.652 440.817C155.235 440.857 266.818 440.87 378.403 440.855H380.648C380.846 392.697 380.678 344.683 380.75 296.52Z" fill="#007D75"/>
<path d="M395.76 77.0186V258.454H264.299V77.0186H395.76ZM341.305 107.342C339.294 104.123 337.503 101.144 335.55 98.239C335.221 97.7443 334.076 97.2001 333.536 97.332C332.857 97.5024 331.982 98.3159 331.936 98.8931C331.313 106.751 330.829 114.614 330.289 122.474C330.224 123.458 330.464 124.327 331.781 124.398C333.19 124.475 333.555 123.588 333.628 122.562C333.977 117.811 334.336 113.06 334.704 108.309C334.82 106.792 334.945 105.286 335.086 103.486C335.28 103.706 335.46 103.934 335.626 104.17C336.795 106.185 337.865 108.249 339.175 110.197C339.626 110.868 340.637 111.585 341.48 111.659C342.053 111.709 342.965 110.78 343.376 110.134C344.65 108.141 345.757 106.075 346.929 104.035C347.223 104.295 347.395 104.635 347.413 104.992C347.773 110.432 348.127 115.872 348.476 121.312C348.564 122.684 348.674 124.058 348.805 125.434C348.884 126.325 349.431 126.968 350.544 126.93C351.656 126.891 352.154 126.253 352.117 125.335C352.117 125.105 352.091 124.877 352.078 124.648C351.498 116.053 350.918 107.46 350.336 98.8684C350.274 97.9367 349.954 97.0819 348.749 96.8593C347.432 96.6147 346.975 97.5107 346.517 98.3104C344.805 101.254 343.103 104.211 341.305 107.342ZM304.761 103.299C304.846 104.123 304.965 104.805 304.981 105.481C305.179 113.166 305.369 120.852 305.551 128.54C305.551 129.134 305.439 129.788 305.693 130.302C305.92 130.764 306.608 131.387 307.052 131.368C307.638 131.341 308.27 130.819 308.722 130.379C308.952 130.159 308.86 129.678 308.857 129.315C308.797 123.365 308.768 117.415 308.646 111.464C308.587 108.598 308.346 105.734 308.185 102.799C309.232 102.612 310.187 102.439 311.148 102.271C313.986 101.768 316.827 101.287 319.659 100.762C320.676 100.575 321.38 100.067 321.16 99.113C320.939 98.1593 320.103 97.9147 319.046 98.0576C318.615 98.1153 318.187 98.1868 317.756 98.261C314.756 98.7804 311.764 99.3356 308.754 99.8166C304.188 100.545 299.605 101.218 295.035 101.927C293.939 102.098 293.129 102.581 293.389 103.604C293.666 104.689 294.634 104.805 295.819 104.615C298.713 104.145 301.627 103.752 304.764 103.299H304.761ZM279.98 174.84C281.569 174.858 283.129 174.481 284.461 173.756C285.792 173.032 286.836 171.994 287.458 170.773C288.081 169.552 288.255 168.204 287.957 166.901C287.659 165.597 286.903 164.397 285.786 163.454C284.669 162.51 283.241 161.865 281.683 161.601C280.126 161.336 278.509 161.465 277.04 161.97C275.57 162.475 274.313 163.334 273.43 164.437C272.546 165.54 272.076 166.837 272.078 168.164C272.077 169.921 272.907 171.608 274.387 172.858C275.867 174.108 277.878 174.82 279.983 174.84H279.98ZM318.072 105.305C321.288 105.03 324.327 104.802 327.363 104.547C328.482 104.453 329.338 103.997 329.183 102.983C329.019 101.905 328.034 101.699 326.842 101.779C323.734 101.991 320.627 102.208 317.512 102.307C314.822 102.392 314.134 103.046 314.611 105.302C315.497 109.488 316.347 113.682 317.216 117.871C317.545 119.539 317.795 121.235 318.335 122.856C318.51 123.381 319.504 123.717 320.123 124.14C320.597 123.615 321.229 123.137 321.496 122.543C321.68 122.134 321.361 121.567 321.262 121.073C320.755 118.522 320.245 115.972 319.724 113.355C321.621 113.163 323.3 112.987 324.992 112.822C326.181 112.704 327.277 112.407 327.06 111.173C326.842 109.939 325.723 109.911 324.525 110.041C322.757 110.233 320.979 110.381 319.155 110.552C318.763 108.686 318.417 106.993 318.062 105.308L318.072 105.305Z" fill="#4BD3FF"/>
<path opacity="0.56" d="M107.921 250.6C105.004 250.102 102.146 249.423 99.2358 249.176C96.3255 248.929 93.4414 249.121 90.4125 249.121C89.754 246.175 89.1351 243.349 88.5457 240.538C85.1975 224.487 83.874 208.28 83.2056 192.026C83.0015 187.131 83.0213 182.228 82.9258 177.327C82.9258 176.777 82.9818 176.181 82.7414 175.703C82.5011 175.225 81.9348 174.603 81.4871 174.573C80.9735 174.557 80.1273 175.073 79.9693 175.499C79.5841 176.533 79.6401 177.679 79.2845 178.723C78.7157 180.37 78.0341 181.988 77.2433 183.569C77.0392 183.981 76.2918 184.204 75.7387 184.544C74.9255 181.565 74.188 178.773 73.3814 175.986C73.1361 175.143 72.7829 174.325 72.3279 173.545C71.7649 172.583 71.011 171.657 69.5031 171.789C68.1039 171.913 67.3368 172.803 67.159 173.815C66.9612 175.205 66.9083 176.608 67.0009 178.006C67.0273 178.718 67.3302 179.421 67.6067 180.48C67.0174 180.023 66.7705 179.694 66.4314 179.6C65.4602 179.325 64.3671 178.85 63.4683 179.02C62.2074 179.262 61.8781 180.361 62.1316 181.384C62.4609 182.676 62.7308 184.02 63.3893 185.196C64.7293 187.579 66.3162 189.868 67.8438 192.265C65.7828 192.685 63.6033 192.54 61.865 191.132C59.9423 189.574 58.2039 187.856 56.3866 186.207C55.6853 185.57 55.0861 184.833 53.7758 185.168C53.5585 185.226 53.1963 184.731 52.8441 184.619C52.2811 184.451 51.5041 184.168 51.1255 184.36C50.7469 184.553 50.6283 185.254 50.4934 185.751C50.4407 185.941 50.6283 186.188 50.7436 186.394C56.3635 196.36 59.8665 206.919 63.3234 217.498C66.9121 228.468 70.5248 239.428 74.1617 250.38C74.2769 250.726 74.3494 251.083 74.4086 251.298L64.5811 255.915C63.814 252.427 62.935 248.827 62.2436 245.196C61.032 238.825 57.687 233.403 52.1033 228.981C47.3327 225.193 42.4634 221.499 37.6764 217.731C33.3964 214.365 29.3469 210.819 26.3279 206.565C18.94 196.154 18.005 185.465 24.6817 174.565C32.5009 161.785 44.3401 153.127 61.4073 149.945C70.6027 148.233 79.7059 148.804 88.6939 150.904C99.0251 153.317 108.309 157.374 116.089 163.632C121.936 168.332 124.843 174.246 126.042 180.834C127.655 189.711 125.15 198.1 121.571 206.334C119.223 211.734 116.662 217.075 114.226 222.45C110.258 231.221 108.54 240.354 108.01 249.66C107.977 250.033 107.941 250.38 107.921 250.6Z" fill="#A8FFF2"/>
<path opacity="0.56" d="M55.9487 189.64C57.1372 190.638 58.2533 191.688 59.5209 192.628C63.037 195.274 66.7968 195.175 71.1295 193.647C74.6983 192.391 75.3601 190.308 75.7223 187.683C75.7618 187.381 76.1733 187.048 76.5157 186.859C77.5923 186.257 78.7215 185.721 79.9726 185.086C80.7529 206.523 82.2377 228.008 87.5449 249.223L77.2993 250.688C76.3445 247.826 75.3535 244.844 74.3527 241.865C69.8718 228.5 65.4634 215.12 60.8542 201.78C59.6361 198.234 57.9142 194.81 56.4393 191.322C56.2121 190.786 56.0738 190.223 55.896 189.673L55.9487 189.64Z" fill="#A8FFF2"/>
<path d="M80.5981 282.245L99.5256 285.051L99.6836 285.325C99.0745 285.6 98.4984 285.96 97.8531 286.095C92.7336 287.15 87.591 287.373 82.3957 286.408C78.998 285.807 75.8792 284.403 73.411 282.363C72.3591 281.432 71.5873 280.307 71.1591 279.078C69.6051 274.846 68.2487 270.558 66.8133 266.296C66.5236 265.427 66.2207 264.561 65.9309 263.718C80.5125 263.992 94.9526 264.056 108.681 258.658C108.813 259.534 109.034 260.455 109.07 261.384C109.274 266.315 109.485 271.245 109.587 276.176C109.63 278.213 108.237 279.815 106.759 281.305C106.574 281.453 106.353 281.565 106.111 281.634C105.868 281.702 105.61 281.725 105.356 281.7C97.0037 280.48 88.661 279.213 80.1998 277.941C80.2569 277.72 80.3453 277.506 80.4632 277.303C81.092 276.586 81.3587 275.838 80.2821 275.31C79.2648 274.81 78.4614 275.349 77.9248 276.028C76.384 277.982 75.9494 280.115 77.0194 282.299C77.1962 282.606 77.4486 282.878 77.7601 283.098C78.0715 283.318 78.4351 283.48 78.8269 283.575C79.2318 283.635 79.8672 282.811 80.5981 282.245Z" fill="#EEEDED"/>
<path d="M92.2858 258.523C91.792 256.182 91.3179 253.944 90.8438 251.713C94.6563 250.649 104.49 251.817 108.046 253.821C103.308 256.673 98.0111 257.886 92.2858 258.523Z" fill="#AFDADA"/>
<path d="M89.4347 258.963L78.8763 259.694C78.6359 257.514 78.412 255.453 78.1618 253.166L87.8577 251.633C88.3976 254.134 88.8914 256.426 89.4347 258.963Z" fill="#AFDADA"/>
<path d="M75.3765 253.889C75.5576 255.917 75.7058 257.753 75.9132 259.853L65.6248 259.416L65.5128 259.007C68.1203 256.583 71.485 255.148 75.3765 253.889Z" fill="#ACD8D7"/>
<path opacity="0.56" d="M70.2998 185.02C73.1246 186.048 73.6185 187.219 71.8044 190.588L70.2998 185.02Z" fill="#A8FFF2"/>
<path opacity="0.56" d="M71.7583 182.062C70.4118 179.883 69.3813 177.64 69.6578 175.12L70.1221 175.021L72.2324 181.98L71.7583 182.062Z" fill="#A8FFF2"/>
<path opacity="0.56" d="M67.4092 186.982C66.8341 185.901 66.2569 184.822 65.6774 183.744L66.1219 183.571C66.7386 184.64 67.3554 185.708 67.9722 186.776L67.4092 186.982Z" fill="#A8FFF2"/>
<path d="M65.7828 183.19L65.6676 183.294C65.6223 183.219 65.5859 183.141 65.5589 183.06C65.5589 183.033 65.6182 182.989 65.6478 182.953L65.7828 183.19Z" fill="#6EA29A"/>
<path d="M68.0808 187.394C68.0281 187.444 67.9722 187.493 67.9195 187.545C67.8899 187.507 67.8339 187.466 67.8372 187.433C67.8617 187.356 67.8936 187.282 67.9326 187.21L68.0808 187.394Z" fill="#6EA29A"/>
<path d="M55.9223 189.681L55.6853 189.598L55.8071 189.434L55.9487 189.651L55.9223 189.681Z" fill="#B1DBDC"/>
<path d="M99.5947 116.065C99.0998 120.485 99.487 124.943 100.74 129.257C101.896 133.421 103.374 137.519 104.747 141.749C102.185 142.528 99.3751 142.528 96.8127 141.749C90.1425 139.841 86.0897 135.892 84.6575 130.162C83.8378 126.877 85.2732 124.115 87.8741 121.608C90.982 118.607 94.7879 116.807 99.5947 116.065Z" fill="#75EDA5"/>
<path d="M107.855 140.718C105.686 136.629 104.189 132.315 103.404 127.891C102.788 124.423 102.686 120.888 102.393 117.381C102.285 116.076 103.002 115.677 104.599 115.834C108.583 116.219 112.171 117.307 115.115 119.61C118.144 121.977 119.395 124.898 118.535 128.317C117.199 133.674 113.462 137.607 107.855 140.718ZM117.133 127.932C116.692 124.563 116.191 121.323 112.58 119.138C111.226 118.313 109.821 117.813 108.329 118.363C106.838 118.912 107.012 120.262 107.233 121.298C108.069 125.192 108.978 129.081 110.054 132.935C110.545 134.683 112.757 135.089 114.157 133.679C115.799 132.008 117.05 130.112 117.133 127.919V127.932Z" fill="#A8FFF2"/>
<path d="M49.4102 118.294C47.9023 123.761 49.7756 128.815 51.3856 133.877C52.5082 137.393 55.0762 140.05 58.757 141.969C58.9875 142.087 59.2114 142.216 59.4352 142.345C59.4715 142.367 59.4747 142.428 59.5636 142.62C55.0598 143.832 50.7995 143.445 47.0134 141.15C41.6897 137.898 39.3654 133.369 39.9942 127.894C40.5473 123.073 44.1425 120.179 49.4102 118.294Z" fill="#75EDA5"/>
<path d="M67.8471 131.025C67.8899 134.798 66.8857 137.17 65.0025 139.27C63.5308 140.919 62.7736 141.056 60.5941 140.039C57.4928 138.597 55.2573 136.467 54.3552 133.614C53.2971 130.313 52.4639 126.964 51.8596 123.585C51.593 122.062 52.0506 120.421 52.3831 118.863C52.6136 117.794 53.6572 117.42 54.9083 117.684C55.7623 117.832 56.5914 118.067 57.3775 118.382C63.9424 121.334 67.3071 125.995 67.8471 131.025ZM66.0593 132.731C65.9441 129.76 64.7194 127.336 63.4485 124.893C62.609 123.277 61.167 122.222 59.5274 121.334C58.869 120.968 57.5784 120.718 57.045 121.009C56.5117 121.301 56.1265 122.384 56.2615 123.041C57.1734 127.438 58.2039 131.813 59.2904 136.178C59.4451 136.799 60.0805 137.36 60.5809 137.89C61.3481 138.715 62.2271 138.734 63.3103 138.187C65.9836 136.84 65.5424 134.501 66.0593 132.731Z" fill="#A8FFF2"/>
<path d="M357.846 15.7124C357.876 15.7426 357.932 15.7756 357.928 15.8058C357.925 15.8361 357.869 15.8663 357.836 15.8965C357.806 15.8636 357.754 15.8306 357.754 15.8004C357.754 15.7701 357.813 15.7399 357.846 15.7124Z" fill="white"/>
<path d="M380.75 296.52C380.678 344.683 380.846 392.697 380.648 440.866H378.403C266.818 440.866 155.235 440.853 43.652 440.827C41.9498 440.827 40.1918 440.426 38.5654 439.962C35.2533 439.016 34.6146 435.996 37.2945 434.091C42.4997 430.375 47.7509 426.698 52.9758 422.998C64.0993 415.131 75.2229 407.259 86.3465 399.384L121.726 374.357C132.891 366.456 144.055 358.555 155.218 350.652L190.604 325.642C200.977 318.313 211.345 310.972 221.709 303.619C224.468 301.667 227.26 299.741 229.983 297.754C231.087 296.922 232.533 296.479 234.019 296.517C244.383 296.547 254.761 296.531 265.112 296.531H380.75V296.52ZM375.084 301.239H372.642C327.296 301.239 281.951 301.222 236.607 301.189C234.418 301.189 232.916 301.83 231.389 302.943C226.78 306.296 222.108 309.602 217.439 312.908C211.984 316.773 206.502 320.604 201.037 324.471C197.116 327.241 193.215 330.028 189.297 332.801C184.628 336.099 179.955 339.398 175.278 342.696C170.669 345.969 166.06 349.264 161.424 352.54C156.633 355.934 151.838 359.323 147.04 362.709C143.165 365.458 139.31 368.206 135.431 370.955C129.341 375.255 123.245 379.55 117.146 383.839C113.225 386.61 109.323 389.399 105.406 392.17C100.737 395.468 96.0643 398.766 91.387 402.064C86.7613 405.34 82.1686 408.635 77.533 411.909C72.1139 415.744 66.6882 419.569 61.2559 423.386C57.2064 426.239 53.1568 429.091 49.1073 431.942C47.2537 433.253 45.4298 434.597 43.2108 436.199H45.2915C154.567 436.199 263.843 436.209 373.119 436.229C374.722 436.229 375.094 435.847 375.094 434.545C375.059 390.662 375.059 346.779 375.094 302.896L375.084 301.239Z" fill="#060A0A"/>
<path d="M341.305 107.342C343.103 104.211 344.805 101.254 346.501 98.2969C346.958 97.4971 347.406 96.6011 348.733 96.8457C349.938 97.0683 350.257 97.9231 350.32 98.8548C350.899 107.448 351.48 116.041 352.061 124.635C352.061 124.863 352.091 125.091 352.101 125.322C352.137 126.24 351.63 126.88 350.527 126.916C349.424 126.952 348.881 126.311 348.789 125.421C348.664 124.052 348.554 122.678 348.46 121.298C348.102 115.858 347.747 110.418 347.396 104.978C347.378 104.621 347.206 104.282 346.912 104.022C345.74 106.061 344.634 108.128 343.36 110.121C342.948 110.766 342.043 111.695 341.463 111.646C340.631 111.572 339.62 110.854 339.159 110.184C337.842 108.235 336.779 106.171 335.61 104.156C335.444 103.921 335.263 103.693 335.07 103.472C334.928 105.261 334.803 106.77 334.688 108.296C334.326 113.045 333.967 117.796 333.611 122.549C333.539 123.574 333.173 124.473 331.764 124.385C330.447 124.316 330.207 123.448 330.273 122.461C330.813 114.6 331.297 106.737 331.919 98.8795C331.965 98.3024 332.841 97.4888 333.519 97.3184C334.059 97.1865 335.202 97.7307 335.534 98.2254C337.503 101.141 339.294 104.123 341.305 107.342Z" fill="#071418"/>
<path d="M304.764 103.299C301.627 103.752 298.713 104.145 295.816 104.61C294.63 104.799 293.663 104.684 293.386 103.598C293.126 102.576 293.936 102.092 295.032 101.922C299.602 101.213 304.185 100.548 308.751 99.8111C311.76 99.3301 314.753 98.7749 317.752 98.2555C318.184 98.1813 318.612 98.1098 319.043 98.0521C320.1 97.9092 320.939 98.151 321.157 99.1075C321.374 100.064 320.673 100.575 319.655 100.757C316.824 101.281 313.983 101.762 311.145 102.265C310.19 102.433 309.235 102.606 308.182 102.793C308.343 105.728 308.583 108.592 308.643 111.459C308.764 117.409 308.794 123.359 308.853 129.31C308.853 129.672 308.949 130.153 308.718 130.373C308.267 130.805 307.635 131.335 307.049 131.363C306.605 131.382 305.916 130.758 305.689 130.296C305.436 129.782 305.564 129.128 305.548 128.535C305.357 120.839 305.167 113.153 304.978 105.476C304.968 104.805 304.85 104.129 304.764 103.299Z" fill="#071418"/>
<path d="M279.983 174.84C277.884 174.792 275.892 174.057 274.435 172.795C272.978 171.532 272.173 169.843 272.194 168.09C272.215 166.337 273.059 164.661 274.546 163.423C276.032 162.184 278.041 161.483 280.141 161.469C281.205 161.462 282.26 161.632 283.244 161.969C284.228 162.306 285.122 162.803 285.874 163.432C286.625 164.061 287.219 164.808 287.621 165.63C288.023 166.453 288.224 167.334 288.214 168.222C288.203 169.11 287.981 169.987 287.56 170.803C287.139 171.618 286.527 172.356 285.761 172.972C284.995 173.588 284.089 174.07 283.097 174.391C282.105 174.712 281.047 174.864 279.983 174.84Z" fill="#071014"/>
<path d="M318.062 105.308C318.391 106.992 318.75 108.686 319.132 110.563C320.956 110.392 322.734 110.244 324.502 110.051C325.7 109.922 326.826 109.991 327.037 111.184C327.247 112.377 326.158 112.706 324.969 112.833C323.29 112.998 321.611 113.174 319.701 113.366C320.222 115.983 320.732 118.533 321.239 121.084C321.338 121.578 321.657 122.144 321.473 122.554C321.206 123.148 320.574 123.626 320.1 124.151C319.481 123.728 318.487 123.392 318.312 122.867C317.772 121.246 317.538 119.55 317.193 117.882C316.323 113.693 315.474 109.499 314.588 105.313C314.111 103.057 314.799 102.403 317.489 102.317C320.603 102.219 323.711 102.001 326.819 101.79C328.011 101.71 328.996 101.916 329.16 102.994C329.312 104.008 328.459 104.464 327.34 104.557C324.317 104.805 321.292 105.047 318.062 105.308Z" fill="#071418"/>
<path d="M117.133 127.919C117.05 130.118 115.799 132.009 114.17 133.663C112.77 135.073 110.548 134.666 110.068 132.918C108.991 129.071 108.092 125.176 107.246 121.282C107.025 120.245 106.887 118.885 108.342 118.346C109.798 117.808 111.24 118.302 112.593 119.121C116.191 121.309 116.692 124.549 117.133 127.919ZM108.632 122.057C108.783 122.776 109.003 123.483 109.291 124.173C109.873 125.379 111.082 125.594 112.326 124.819C114.094 123.719 113.508 121.345 111.217 120.342C109.702 119.679 108.619 120.229 108.632 122.057ZM111.118 129.279C111.075 130.164 111.348 131.027 112.688 131.047C113.9 131.063 114.548 130.351 114.594 129.367C114.641 128.383 113.936 127.688 112.79 127.595C111.493 127.49 111.21 128.329 111.118 129.279Z" fill="#141918"/>
<path d="M66.0593 132.731C65.5457 134.501 65.9836 136.84 63.3103 138.187C62.2238 138.737 61.3349 138.706 60.581 137.89C60.0805 137.36 59.4451 136.791 59.2904 136.178C58.2039 131.813 57.1734 127.435 56.2615 123.04C56.1265 122.389 56.4755 121.323 57.045 121.009C57.6146 120.696 58.8558 120.968 59.5274 121.334C61.1736 122.221 62.609 123.277 63.4486 124.893C64.7194 127.336 65.9441 129.76 66.0593 132.731ZM57.901 124.64C57.9339 126.668 59.3068 128.183 60.6435 128.125C61.7958 128.075 62.2732 127.485 62.2633 126.572C62.2633 125.245 60.6172 123.491 59.3694 123.686C58.7175 123.788 58.1907 124.439 57.901 124.64ZM64.321 132.869C63.9654 132.264 63.5638 131.368 62.9284 130.61C62.6782 130.307 61.7596 130.06 61.4106 130.227C60.9727 130.42 60.6402 131.025 60.5612 131.486C60.4591 132.099 60.6501 132.745 60.6995 133.377C60.7719 134.273 61.0946 135.065 62.3621 135.026C63.6922 134.993 64.1663 134.182 64.321 132.869Z" fill="#141918"/>
<path d="M375.084 301.239V302.888C375.084 346.769 375.084 390.652 375.084 434.536C375.084 435.839 374.706 436.221 373.109 436.221C263.835 436.188 154.56 436.178 45.2816 436.191H43.2009C45.4199 434.589 47.2439 433.245 49.0974 431.934C53.1469 429.079 57.202 426.227 61.2625 423.378C66.6882 419.552 72.1139 415.726 77.5396 411.901C82.1653 408.627 86.758 405.332 91.3936 402.056C96.0291 398.78 100.744 395.46 105.412 392.162C109.33 389.391 113.231 386.602 117.153 383.831C123.243 379.533 129.338 375.238 135.438 370.947C139.316 368.198 143.172 365.45 147.047 362.701C151.836 359.306 156.63 355.917 161.431 352.532C166.04 349.256 170.649 345.961 175.285 342.688C179.92 339.414 184.635 336.091 189.303 332.793C193.221 330.02 197.122 327.233 201.044 324.463C206.509 320.615 211.99 316.767 217.446 312.9C222.114 309.602 226.779 306.288 231.395 302.935C232.923 301.835 234.424 301.178 236.614 301.181C281.96 301.247 327.304 301.264 372.648 301.231L375.084 301.239Z" fill="#00423D"/>
<path d="M108.632 122.056C108.632 120.229 109.702 119.679 111.217 120.341C113.521 121.345 114.094 123.716 112.326 124.819C111.082 125.594 109.873 125.368 109.291 124.173C109.003 123.483 108.783 122.776 108.632 122.056Z" fill="#F5F5F5"/>
<path d="M111.118 129.28C111.21 128.329 111.493 127.49 112.79 127.595C113.949 127.688 114.641 128.356 114.594 129.367C114.548 130.379 113.9 131.063 112.688 131.047C111.348 131.028 111.075 130.165 111.118 129.28Z" fill="#EEEDED"/>
<path d="M57.901 124.64C58.1908 124.439 58.7175 123.788 59.3694 123.686C60.6139 123.491 62.2535 125.245 62.2633 126.572C62.2633 127.485 61.7958 128.076 60.6435 128.125C59.3068 128.183 57.934 126.668 57.901 124.64Z" fill="#F5F5F5"/>
<path d="M64.321 132.869C64.1663 134.183 63.6922 134.993 62.3621 135.029C61.0946 135.065 60.7719 134.273 60.6995 133.38C60.6501 132.748 60.4592 132.102 60.5612 131.489C60.6402 131.027 60.9728 130.423 61.4106 130.23C61.7596 130.076 62.6782 130.31 62.9284 130.612C63.5671 131.374 63.9655 132.264 64.321 132.869Z" fill="#F5F5F5"/>
</g>
<defs>
<clipPath id="clip0_172_11236">
<rect width="414" height="457.59" fill="white"/>
</clipPath>
</defs>
</svg>
