<svg width="319" height="358" viewBox="0 0 319 358" fill="none" xmlns="http://www.w3.org/2000/svg">
<path fill-rule="evenodd" clip-rule="evenodd" d="M197.47 0.596153C245.241 6.76458 268.012 60.8324 291.704 102.763C308.016 131.633 305.828 163.922 308.431 196.978C311.432 235.088 331.003 276.903 307.809 307.295C283.472 339.186 237.356 338.034 197.47 342.379C150.081 347.542 98.5074 362.566 60.1435 334.277C18.3663 303.471 -2.73874 248.79 0.285061 196.978C3.17891 147.392 40.0887 109.872 75.2857 74.8179C110.385 39.8616 148.336 -5.7482 197.47 0.596153Z" fill="#AFDFEA"/>
<path d="M85.4577 65.5783C84.8289 63.6685 109.649 40.3977 112.358 41.3428C145.721 52.9834 160.093 86.0502 151.082 106.497C140.516 130.474 96.1764 98.1318 85.4577 65.5783ZM54.6557 9.1915C62.6289 1.84758 78.2597 6.78461 93.8153 22.5132C96.8829 25.6149 70.7354 51.3469 67.7102 49.2395C44.6414 33.1693 46.6826 16.5354 54.6557 9.1915Z" fill="black"/>
<path d="M108.304 149.282C106.654 148.133 77.2449 165.24 77.3738 168.106C78.9613 203.406 106.52 226.654 128.692 223.883C154.691 220.633 136.418 168.884 108.304 149.282ZM63.1139 103.609C53.7925 109.142 54.0413 125.532 64.6503 144.944C66.7424 148.772 98.8902 131.098 97.7386 127.596C88.9562 100.888 72.4353 98.0754 63.1139 103.609Z" fill="black"/>
<path d="M222.638 268.411C220.726 267.788 197.53 292.677 198.483 295.383C210.223 328.712 243.332 342.985 263.752 333.913C287.697 323.275 255.223 279.032 222.638 268.411ZM166.159 237.777C158.839 245.772 163.823 261.388 179.598 276.897C182.709 279.955 208.363 253.731 206.246 250.712C190.107 227.692 173.48 229.782 166.159 237.777Z" fill="black"/>
<path d="M201.909 194.932C201.357 192.998 227.087 170.737 229.756 171.79C262.628 184.754 275.668 218.368 265.847 238.438C254.331 261.974 211.319 227.887 201.909 194.932ZM173.384 137.359C181.644 130.34 197.066 135.897 211.981 152.235C214.922 155.456 187.767 180.123 184.829 177.897C162.42 160.918 165.124 144.379 173.384 137.359Z" fill="black"/>
<path d="M151.006 60.6685C158.024 66.2419 160.305 79.251 160.891 87.7339C161.015 89.5321 161.425 92.6127 160.184 93.853" stroke="black" stroke-width="2" stroke-linecap="round"/>
<path d="M122.764 118.565C128.479 120.471 136.924 123.343 142.533 119.978" stroke="black" stroke-width="2" stroke-linecap="round"/>
<path d="M163.009 143.983C163.009 138.242 168.104 136.141 172.187 132.687" stroke="black" stroke-width="2" stroke-linecap="round"/>
<path d="M223.023 168.695C227.651 164.564 233.436 167.481 238.556 169.401" stroke="black" stroke-width="2" stroke-linecap="round"/>
<path d="M266.798 295.079C271.37 300.625 273.548 306.545 275.271 313.436" stroke="black" stroke-width="2" stroke-linecap="round"/>
<path d="M237.144 270.366C242.043 272.374 246.091 275.34 250.559 278.133" stroke="black" stroke-width="2" stroke-linecap="round"/>
<path d="M267.505 201.88C270.732 207.69 271.337 212.491 271.035 218.825" stroke="black" stroke-width="2" stroke-linecap="round"/>
<path d="M78.9883 193.407C81.024 199.209 84.8804 203.813 88.167 208.94" stroke="black" stroke-width="2" stroke-linecap="round"/>
<path d="M143.239 197.643C144.61 202.355 144.374 206.905 144.651 211.764" stroke="black" stroke-width="2" stroke-linecap="round"/>
<path d="M101.582 148.925C103.672 144.867 109.11 143.98 112.879 146.807" stroke="black" stroke-width="2" stroke-linecap="round"/>
<path d="M74.0449 98.0892C78.8708 96.9244 82.6712 100.203 86.7539 102.326" stroke="black" stroke-width="2" stroke-linecap="round"/>
<path d="M199.017 309.2C201.598 314.513 204.961 319.105 208.196 324.027" stroke="black" stroke-width="2" stroke-linecap="round"/>
<path d="M54.9824 104.444C52.5058 104.994 51.3466 111.821 50.7461 113.623" stroke="black" stroke-width="2" stroke-linecap="round"/>
<path d="M56.3945 4.18452C61.5593 1.50992 65.6807 3.17895 71.2217 3.47846" stroke="black" stroke-width="2" stroke-linecap="round"/>
<path d="M45.8027 52.9023C50.5217 58.3052 55.2203 63.7254 59.9238 69.1416" stroke="black" stroke-width="2" stroke-linecap="round"/>
<path d="M47.9219 74.083C49.0851 75.211 50.1577 76.0443 51.4522 76.9072" stroke="black" stroke-width="2" stroke-linecap="round"/>
<path d="M160.184 214.588C162.14 217.389 164.299 219.796 166.539 222.355" stroke="black" stroke-width="2" stroke-linecap="round"/>
<path d="M158.066 226.591L160.891 229.415" stroke="black" stroke-width="2" stroke-linecap="round"/>
<path d="M187.72 105.15C193.61 112.784 201.579 118.768 208.902 124.919" stroke="black" stroke-width="2" stroke-linecap="round"/>
<path d="M191.957 119.271C193.487 121.456 195.051 123.071 196.899 124.919" stroke="black" stroke-width="2" stroke-linecap="round"/>
</svg>
