<svg width="343" height="458" viewBox="0 0 343 458" fill="none" xmlns="http://www.w3.org/2000/svg">
<path d="M-10 326.106V453H209V309.732V168L-10 326.106Z" fill="#93FFCB"/>
<path d="M304.227 0C304.067 0.891281 305.197 1.86509 303.726 2.99569C303.484 1.85133 303.287 0.924291 303.088 0H304.227Z" fill="#353335"/>
<path d="M82.4482 283.089L91.3108 284.253C92.6204 284.426 93.4773 285.479 93.3264 286.973C92.4723 295.355 91.6182 303.754 90.6759 312.113C90.1834 316.432 89.4773 320.726 88.8396 325.243C91.2937 325.595 93.6965 326.069 96.1193 326.253C98.5421 326.437 101.05 326.333 103.521 326.465C105.759 326.58 106.428 327.361 106.653 329.766C106.915 329.491 107.254 329.232 107.41 328.899C107.536 328.624 107.436 328.269 107.436 327.947C107.436 318.138 107.436 308.326 107.436 298.513C107.436 297.781 107.456 297.047 107.53 296.312C107.672 294.937 108.512 294.164 109.907 293.982C110.519 293.915 111.134 293.887 111.749 293.897H147.547V292.296C147.547 282.483 147.547 272.671 147.547 262.862C147.547 259.5 148.316 258.766 151.837 258.763C162.466 258.763 173.087 258.763 183.7 258.763C191.522 258.763 199.344 258.755 207.165 258.738H208.66V256.648C208.66 197.046 208.668 137.443 208.685 77.8414C208.706 76.6091 208.897 75.385 209.255 74.202C209.605 72.9861 210.613 72.3561 211.922 72.3011C213.298 72.2406 214.673 72.2113 216.048 72.2131H326.288C327.142 72.2131 327.996 72.0948 328.827 72.2544C330.82 72.6367 332.01 74.2597 332.059 76.4962C332.09 77.8716 332.079 79.247 332.079 80.6225V258.719C334.581 258.719 336.981 258.719 339.378 258.719C342.017 258.703 342.908 259.522 342.908 262.053C342.908 318.218 342.908 374.383 342.908 430.546C342.908 438.43 342.974 446.312 342.999 454.204C342.999 456.71 341.704 457.962 339.082 458.006C338.655 458.006 338.228 458.006 337.801 458.006C222.772 458.006 107.742 458.006 -7.28812 458.006C-9.31801 458.006 -11.3507 457.846 -13.3806 457.788C-14.4881 457.758 -15.0404 457.288 -14.9977 456.176C-14.9037 453.756 -14.7728 451.332 -14.7756 448.908C-14.7756 443.781 -14.8639 438.65 -14.9151 433.52C-14.9151 433.107 -14.9151 432.695 -14.9151 432.282C-14.9417 422.654 -14.9673 413.026 -14.992 403.398C-14.992 401.728 -14.3372 400.939 -12.6347 400.708C-12.0677 400.646 -11.4969 400.623 -10.9265 400.639H24.9167V399.082C24.9167 389.225 24.9167 379.367 24.9167 369.51C24.9167 366.369 25.7224 365.535 29.0107 365.403C30.9039 365.326 32.8 365.356 34.7046 365.334C34.7274 365.334 34.7501 365.26 34.79 365.189C34.417 364.6 33.9359 364.028 33.6683 363.379C32.9822 361.745 33.8676 360.193 35.6327 359.802C35.7665 359.754 35.9086 359.732 36.0512 359.736C38.864 360.204 39.4676 358.567 40.091 356.328C44.017 342.351 46.7843 328.14 49.5999 313.934C50.901 307.371 52.3586 300.838 53.7109 294.285C53.9415 293.165 54.4198 291.84 54.0127 290.932C53.6796 290.192 52.2191 289.884 51.2198 289.474C46.1608 287.394 42.9978 283.821 41.6369 278.641C40.2533 273.299 38.5451 268.053 37.2014 262.708C36.5807 260.213 36.6178 257.575 36.1964 255.025C35.627 251.592 34.8868 248.183 34.2548 244.758C33.4451 240.252 31.1763 236.111 27.7751 232.93C24.6007 229.904 21.3495 226.958 18.0612 224.053C13.0819 219.651 8.17658 215.195 4.52962 209.638C0.259178 203.138 -2.05256 196.054 -1.85042 188.316C-1.67391 181.651 0.643518 175.585 4.09404 169.885C12.3161 156.324 24.2448 147.81 40.4498 145.403C50.1693 143.964 59.6155 145.441 68.7457 148.86C75.414 151.312 81.5764 154.893 86.9435 159.435C93.4716 164.989 96.9079 172.089 98.2716 180.27C99.7833 189.383 97.7762 198.046 94.6844 206.541C92.1876 213.401 89.3606 220.149 86.8382 227.002C83.8347 235.161 82.8382 243.683 82.7329 252.271C82.6873 255.935 83.5443 259.608 83.8717 263.275C84.3784 268.757 84.8026 274.25 83.7236 279.711C83.4987 280.831 82.9151 281.873 82.4482 283.089ZM33.3808 189.81L33.2583 189.593L33.153 189.758L33.358 189.84C33.5117 190.39 33.6427 190.957 33.8277 191.491C35.1032 194.982 36.5921 198.409 37.6455 201.958C41.6085 215.31 45.432 228.702 49.3181 242.079C50.1721 245.061 51.0262 248.046 51.8661 250.909L60.7258 249.443C56.1252 228.209 54.8412 206.717 54.1778 185.249C53.096 185.884 52.1195 186.421 51.1885 187.023C50.9038 187.213 50.5366 187.546 50.5024 187.849C50.1892 190.476 49.617 192.561 46.5309 193.818C42.7843 195.347 39.533 195.446 36.4925 192.797C35.3879 191.87 34.4085 190.819 33.3808 189.81ZM338.106 453.439V263.627H152.572V265.327C152.572 275.824 152.586 286.322 152.614 296.821C152.614 297.729 152.549 298.491 151.41 298.631C149.548 298.86 147.686 299.261 145.822 299.272C135.288 299.336 124.771 299.303 114.246 299.303H112.458V301.107C112.458 311.604 112.458 322.102 112.506 332.602C112.506 333.622 112.287 334.313 111.14 334.431C108.993 334.654 106.844 335.025 104.694 335.036C94.2147 335.1 83.7379 335.067 73.2582 335.067H71.4902V336.888L71.5158 368.248C71.5158 369.865 71.2311 370.159 69.5913 370.264C69.2126 370.286 68.8311 370.264 68.4525 370.264L31.7551 370.297H29.953V372.08C29.953 382.58 29.953 393.077 30.0128 403.574C30.0128 404.93 29.4149 405.395 28.2107 405.459C26.0384 405.577 23.8662 405.734 21.6968 405.734C11.7324 405.767 1.7823 405.734 -8.17353 405.734H-9.80484C-9.84185 406.201 -9.87316 406.43 -9.87601 406.655C-9.96142 416.558 -10.0449 426.455 -10.1265 436.345C-10.1664 441.385 -10.2006 446.428 -10.229 451.475C-10.229 453.423 -10.229 453.425 -8.27032 453.425H338.106V453.439ZM327.227 77.0876H213.548V258.686H327.227V77.0876ZM78.3229 250.824C78.34 250.615 78.3713 250.257 78.3884 249.897C78.8468 240.569 80.3329 231.428 83.7635 222.663C85.8702 217.283 88.0852 211.935 90.1151 206.532C93.2097 198.28 95.3762 189.895 93.9812 181.01C92.9449 174.408 90.4311 168.496 85.3749 163.792C78.6475 157.528 70.619 153.468 61.6853 151.053C53.9131 148.951 46.0412 148.379 38.0896 150.093C23.331 153.276 13.0933 161.944 6.33175 174.735C0.569497 185.645 1.37804 196.343 7.75523 206.763C10.3659 211.022 13.8677 214.57 17.5687 217.94C21.7082 221.712 25.9189 225.409 30.0441 229.2C34.884 233.634 37.7651 239.061 38.8128 245.43C39.4106 249.061 40.1708 252.664 40.8341 256.158L49.3323 251.537C49.281 251.322 49.2184 250.964 49.1188 250.618C45.9966 239.647 42.8754 228.676 39.7551 217.704C36.7658 207.116 33.7366 196.547 28.8769 186.572C28.7772 186.366 28.6149 186.118 28.6605 185.928C28.7772 185.431 28.8569 184.743 29.2071 184.536C29.5573 184.33 30.2064 184.627 30.6932 184.795C30.9978 184.9 31.311 185.395 31.4989 185.345C32.6377 184.999 33.1501 185.747 33.7566 186.385C35.3281 188.036 36.8313 189.755 38.4939 191.315C39.9971 192.723 41.8818 192.869 43.664 192.448C42.343 190.046 40.9708 187.771 39.812 185.373C39.2427 184.195 39.0035 182.85 38.7245 181.557C38.5053 180.534 38.79 179.434 39.8804 179.192C40.6491 179.021 41.5886 179.502 42.4426 179.772C42.7273 179.865 42.9494 180.196 43.459 180.652C43.2256 179.599 42.9579 178.894 42.9352 178.176C42.8551 176.777 42.9008 175.373 43.0718 173.981C43.2256 172.969 43.8889 172.078 45.0989 171.954C46.4142 171.822 47.0547 172.749 47.5416 173.712C47.935 174.492 48.2404 175.311 48.4526 176.155C49.1501 178.941 49.7878 181.739 50.491 184.721C50.9693 184.38 51.6156 184.157 51.7921 183.744C52.4759 182.162 53.0653 180.542 53.5572 178.894C53.8647 177.849 53.8163 176.694 54.1494 175.668C54.286 175.241 55.0177 174.724 55.4618 174.741C55.849 174.757 56.3444 175.404 56.5465 175.871C56.7486 176.339 56.6974 176.95 56.7059 177.497C56.7885 182.402 56.7714 187.309 56.9479 192.209C57.5173 208.477 58.6561 224.699 61.5657 240.764C62.0753 243.589 62.6248 246.406 63.1799 249.355C65.7991 249.355 68.3272 249.165 70.8098 249.41C73.2923 249.655 75.8005 250.329 78.3229 250.824ZM66.4625 365.34V363.81C66.4625 353.866 66.4853 343.924 66.4454 333.98C66.4454 332.186 67.0404 330.808 68.7372 330.079C69.5295 329.789 70.3726 329.65 71.2198 329.669C74.1834 329.623 77.1471 329.65 79.6382 329.65C80.0767 328.209 80.1051 326.751 80.871 325.961C81.708 325.1 83.2282 324.861 84.5521 324.311C86.1407 312.463 88.2531 300.513 88.7229 288.299C85.6396 287.823 82.6133 287.306 79.5699 286.924C78.817 286.868 78.063 287.016 77.392 287.35C75.6582 288.175 74.0724 289.366 72.2674 289.944C70.0128 290.633 67.6875 291.084 65.3322 291.289C63.1002 291.509 60.8283 291.336 58.8611 291.336C53.6198 314.218 50.1978 337.276 43.5473 359.989C49.412 360.688 55.0433 361.343 60.6689 362.044C61.5771 362.157 62.6959 362.226 63.2824 362.762C63.8689 363.299 63.9002 364.391 64.2134 365.354L66.4625 365.34ZM54.696 282.498C54.0639 283.072 53.5145 283.892 53.1643 283.821C52.8255 283.726 52.5111 283.564 52.2418 283.344C51.9724 283.124 51.7542 282.851 51.6013 282.544C50.6903 280.357 51.0519 278.223 52.3842 276.267C52.8483 275.587 53.543 275.048 54.4227 275.549C55.3536 276.077 55.123 276.825 54.5792 277.543C54.4774 277.746 54.4009 277.961 54.3515 278.181C61.6682 279.455 68.871 280.723 76.1051 281.945C76.325 281.969 76.5478 281.946 76.7575 281.878C76.9672 281.809 77.1586 281.697 77.318 281.549C78.5962 280.058 79.8005 278.454 79.7635 276.415C79.6752 271.48 79.493 266.545 79.3165 261.61C79.2852 260.68 79.0945 259.759 78.9806 258.881C67.1087 264.284 54.6219 264.226 42.0127 263.946C42.2633 264.79 42.5252 265.657 42.7757 266.526C44.017 270.795 45.19 275.084 46.5337 279.32C46.904 280.55 47.5714 281.676 48.481 282.608C50.6153 284.649 53.3123 286.055 56.2504 286.657C60.7429 287.622 65.1899 287.4 69.6169 286.343C70.1863 286.209 70.6731 285.834 71.1998 285.573L71.0632 285.298L54.696 282.498ZM64.8027 258.755C69.7536 258.117 74.3343 256.904 78.4311 254.048C75.3564 252.043 66.8525 250.874 63.5557 251.938C63.9657 254.18 64.3757 256.411 64.8027 258.755V258.755ZM62.3372 259.195C61.8675 256.667 61.4404 254.362 60.9735 251.858L52.5892 253.393C52.8056 255.682 52.9992 257.745 53.207 259.927L62.3372 259.195ZM50.1807 254.117C46.8156 255.377 43.9174 256.813 41.6398 259.239L41.7366 259.649L50.6334 260.086C50.4796 257.985 50.3373 256.147 50.1807 254.117V254.117ZM45.7907 185.186L47.086 190.759C48.6604 187.395 48.2248 186.214 45.7907 185.186ZM47.0519 182.226L47.4618 182.143L45.6369 175.178L45.2355 175.277C44.9964 177.8 45.8875 180.044 47.0519 182.226V182.226ZM43.291 187.15L43.7779 186.943C43.2445 185.876 42.7112 184.807 42.1779 183.736L41.7935 183.909C42.2851 184.991 42.7843 186.071 43.291 187.15ZM41.8846 183.354L41.7679 183.117C41.7423 183.153 41.6853 183.197 41.691 183.224C41.7144 183.305 41.7458 183.383 41.785 183.458L41.8846 183.354ZM43.8775 187.562L43.7466 187.378C43.7128 187.45 43.6852 187.525 43.664 187.601C43.664 187.634 43.7095 187.675 43.7352 187.714C43.7779 187.661 43.8263 187.609 43.8747 187.562H43.8775Z" fill="#101213"/>
<path d="M90.2659 127.593C89.836 132.627 86.8951 137.34 82.2403 141.097C76.8311 145.474 70.6788 146.082 64.8055 142.973C58.7443 139.769 54.9009 133.084 55.5643 126.961C55.9771 123.184 58.2518 120.496 61.0305 118.097C67.8205 112.238 78.4225 111.828 85.4005 117.145C88.5805 119.569 90.2745 122.873 90.2659 127.593ZM71.1229 116.169C66.9664 116.923 63.6753 118.713 60.9877 121.715C58.7386 124.226 57.4974 126.988 58.2063 130.275C59.4447 136.011 62.9493 139.964 68.7173 141.873C70.933 142.653 73.3627 142.653 75.5784 141.873C74.3941 137.639 73.113 133.538 72.1137 129.37C71.0301 125.053 70.6953 120.592 71.1229 116.169V116.169ZM78.266 140.844C83.1058 137.744 86.3457 133.807 87.493 128.446C88.2246 125.024 87.1542 122.1 84.535 119.731C81.9727 117.426 78.8866 116.337 75.4418 115.952C74.061 115.795 73.4489 116.194 73.5343 117.5C73.7877 121.01 73.876 124.548 74.4083 128.02C75.0912 132.443 76.3888 136.757 78.266 140.844Z" fill="#141918"/>
<path d="M46.3174 131.83C46.0327 137.593 43.9088 142.008 38.7046 144.484C33.3608 147.012 28.0598 146.409 23.5046 142.803C17.8961 138.379 15.8178 132.534 17.4406 125.607C18.6363 120.529 24.1623 116.108 29.4149 115.324C31.5644 115.003 33.6854 115.212 35.6469 116.21C42.2661 119.599 45.6882 124.999 46.3174 131.83ZM27.7267 118.4C23.1715 120.287 20.074 123.184 19.5929 128.028C19.0491 133.508 21.0591 138.041 25.6626 141.295C28.9366 143.606 32.6206 143.98 36.5153 142.767C36.4384 142.566 36.4355 142.492 36.4042 142.492C36.2106 142.363 36.017 142.233 35.8178 142.115C32.6348 140.189 30.4085 137.535 29.4434 134.017C28.0313 128.93 26.4114 123.871 27.7267 118.4ZM43.6697 131.142C43.2028 126.108 40.2932 121.442 34.6163 118.488C33.9366 118.172 33.2195 117.938 32.4811 117.789C31.3993 117.514 30.4882 117.899 30.2975 118.969C30.0128 120.529 29.6142 122.171 29.8448 123.695C30.3649 127.082 31.0835 130.438 31.9971 133.747C32.7772 136.597 34.7103 138.734 37.3921 140.178C39.2768 141.196 39.9316 141.062 41.2042 139.408C42.8384 137.293 43.7067 134.919 43.6697 131.142Z" fill="#141918"/>
<path d="M222.707 51.8591C222.826 48.4921 223.544 45.3038 225.403 42.4237C226.912 40.0854 229.639 38.7678 231.976 39.3977C233.019 39.6841 233.984 40.1884 234.803 40.8749C240.625 45.8265 242.063 56.6401 237.77 62.8818C237.248 63.6451 236.629 64.3412 235.925 64.9532C233.457 67.0604 230.47 67.1182 227.894 65.1403C224.668 62.6645 223.492 59.1737 222.937 55.4215C222.766 54.2386 222.778 53.042 222.707 51.8591ZM224.859 52.0159L225.127 52.0599C225.127 52.6101 225.084 53.1603 225.127 53.7105C225.426 57.0115 226.109 60.164 228.66 62.6013C230.846 64.6919 233.215 64.5269 235.054 62.1309C237.975 58.3347 238.149 54.0956 236.944 49.7052C236.218 47.0589 235.04 44.6354 232.865 42.7675C231.706 41.7745 230.254 41.3921 229.127 42.3384C227.954 43.3149 226.302 43.9889 226.032 45.8375C225.733 47.9061 225.26 49.9555 224.859 52.0159Z" fill="#212022"/>
<path d="M227.162 26.7961C228.016 23.5996 228.819 20.5572 229.633 17.5147C229.697 17.1533 229.818 16.8035 229.992 16.4776C230.197 16.1487 230.501 15.8877 230.863 15.7294C230.997 15.6826 231.47 16.142 231.549 16.4336C232.199 18.7691 232.91 21.0963 233.374 23.4676C234.109 27.195 234.744 30.9472 235.236 34.7104C235.356 35.6181 234.758 36.614 234.487 37.5713C233.938 36.746 233.064 35.9565 232.893 35.0487C232.324 32.2263 232.053 29.3544 231.629 26.521C231.444 25.1013 231.094 23.7062 230.587 22.3617C230.208 24.2525 229.828 26.1405 229.448 28.0258C229.32 28.6557 229.283 29.3324 228.996 29.8881C228.708 30.4438 228.224 31.0985 227.749 31.1562C227.273 31.214 226.445 30.7271 226.16 30.2595C225.306 28.9418 224.668 27.5086 223.942 26.1332C223.478 25.1449 222.88 24.22 222.166 23.3823C222.368 26.0094 222.601 28.6337 222.761 31.2635C222.883 33.2744 222.96 35.2908 222.946 37.3017C222.946 37.7363 222.451 38.1654 222.183 38.5973C221.81 38.2397 221.275 37.9454 221.101 37.5135C220.83 36.7803 220.671 36.0131 220.628 35.2358C220.193 29.7643 219.774 24.2901 219.421 18.8131C219.376 18.0566 219.655 16.8077 220.153 16.5932C221.258 16.12 221.739 17.3304 222.177 18.0676C223.863 20.9065 225.465 23.8087 227.162 26.7961Z" fill="#1A191B"/>
<path d="M303.848 25.6298C303.669 21.6053 303.484 17.8558 303.35 14.1064C303.313 13.2837 303.386 12.4598 303.569 11.6554C303.663 11.262 304.138 10.9594 304.46 10.6128C304.807 10.9842 305.411 11.3253 305.457 11.7269C305.699 13.8643 305.804 16.0182 305.952 18.1667C306.211 21.9546 306.499 25.7426 306.706 29.536C306.76 30.6731 306.692 31.8124 306.504 32.9361C306.444 33.3074 305.81 33.9016 305.525 33.8576C305.081 33.7888 304.415 33.3074 304.355 32.9278C303.845 29.6268 301.391 27.2858 299.953 24.4524C298.516 21.619 296.631 19.0222 294.934 16.3236C294.759 16.1546 294.568 16.0008 294.365 15.8642C294.484 17.1874 294.561 18.2382 294.675 19.2808C295.077 22.9697 295.555 26.6531 295.842 30.3503C295.902 31.1205 295.387 32.551 294.943 32.628C293.647 32.8508 293.65 31.5469 293.548 30.7024C293.066 26.7081 292.634 22.7074 292.252 18.7003C292.059 16.6509 291.968 14.5878 291.968 12.5329C291.968 12.0267 292.417 11.5206 292.659 11.0144C293.141 11.2372 293.798 11.3363 294.083 11.7021C296.429 14.8033 298.731 17.9347 300.99 21.0963C301.958 22.4828 302.797 23.9655 303.848 25.6298ZM294.453 15.7267C294.425 15.7542 294.376 15.7844 294.373 15.8147C294.37 15.8449 294.419 15.878 294.444 15.911C294.473 15.8807 294.524 15.8532 294.524 15.8202C294.524 15.7872 294.467 15.7569 294.442 15.7267H294.453Z" fill="#181719"/>
<path d="M291.051 54.5169L295.697 59.1934C295.894 59.3914 296.11 59.573 296.295 59.7821C296.882 60.4505 297.645 61.2208 296.802 62.0405C295.911 62.907 295.003 62.2193 294.342 61.5564C292.611 59.8123 290.949 58.005 289.058 56.0106C289.058 57.5153 289.058 58.844 289.058 60.1754C289.098 61.1315 289.059 62.089 288.941 63.0391C288.873 63.4297 288.329 63.9744 287.953 64.0129C287.578 64.0514 287.014 63.614 286.792 63.2427C286.493 62.7227 286.338 62.1372 286.342 61.5426C286.467 55.0423 286.59 48.5393 286.818 42.039C286.892 39.8383 288.648 38.7627 290.96 39.2303C293.943 39.8355 296.768 43.4529 296.913 46.8612C297.055 50.1623 295.313 52.6381 291.763 54.1813C291.595 54.2638 291.432 54.3436 291.051 54.5169ZM288.93 52.407C289.179 52.4003 289.427 52.3783 289.673 52.341C289.958 52.2694 290.217 52.1842 290.484 52.0879C292.799 51.2626 294.47 49.7139 294.678 47.3289C294.9 44.8779 293.915 42.7294 291.626 41.3678C291.132 41.1095 290.592 40.9425 290.035 40.8754C289.297 40.7543 288.91 41.0432 288.916 41.8574C288.947 45.3345 288.93 48.8144 288.93 52.407V52.407Z" fill="#212022"/>
<path d="M244.597 52.1015C245.798 51.6009 246.798 51.0507 247.871 50.7894C248.389 50.6628 249.047 51.0644 249.642 51.246C249.357 51.7687 249.229 52.4729 248.788 52.7755C247.677 53.543 246.416 54.1014 245.255 54.8056C244.919 55.0092 244.48 55.4246 244.492 55.7299C244.523 57.6947 244.676 59.6559 244.95 61.603C245.201 63.138 245.944 63.5039 247.512 63.1187C248.791 62.8024 250.023 62.3155 251.293 61.9496C252.563 61.5838 253.898 61.2536 255.205 60.907L255.555 61.3197C255.145 61.8533 254.82 62.4778 254.314 62.9042C252.265 64.6421 249.666 65.6549 246.943 65.7761C244.665 65.8916 243.099 64.9288 242.596 62.8134C242.123 60.7635 241.889 58.669 241.898 56.5689C241.898 51.5321 242.069 46.498 242.183 41.4612C242.225 39.6071 243.085 38.8423 245.03 38.8038C246.687 38.7736 248.341 38.625 249.995 38.6305C250.47 38.6305 250.946 38.9881 251.418 39.1807C251.062 39.4998 250.755 40.006 250.342 40.1022C248.839 40.4819 247.287 40.6854 245.787 41.0513C245.357 41.1558 244.685 41.5822 244.68 41.8765C244.569 45.2574 244.597 48.6437 244.597 52.1015Z" fill="#232224"/>
<path d="M258.57 37.7475C258.658 38.6195 258.744 39.4916 258.832 40.3636C259.347 45.3702 259.786 50.385 260.423 55.3751C260.611 56.8413 261.257 58.2882 261.895 59.6554C262.533 61.0226 263.285 61.1601 264.677 60.5577C267.216 59.4573 267.524 58.9402 267.467 55.961C267.393 50.6958 267.327 45.4307 267.339 40.1655C267.339 39.5163 267.854 38.8671 268.13 38.2207C268.415 38.8259 268.939 39.42 268.984 40.0445C269.297 45.1171 269.576 50.1924 269.739 55.2705C269.787 56.756 269.454 58.258 269.226 59.7434C269.178 60.1021 269.016 60.4374 268.762 60.7035C268.221 61.2164 267.634 61.6822 267.008 62.0954C263.669 64.2961 261.115 63.5781 259.524 59.9965C257.815 56.1453 257.471 52.019 257.303 47.8927C257.203 45.3757 257.277 42.8504 257.366 40.3333C257.394 39.464 257.702 38.603 257.878 37.7393L258.57 37.7475Z" fill="#232224"/>
<path d="M301.394 50.5803C301.511 52.935 301.491 55.1275 301.767 57.2869C301.966 58.8356 303.318 59.8507 304.955 59.947C306.51 60.0405 308.087 59.947 309.63 60.0185C310.812 60.0625 311.987 60.2083 313.246 60.3183C312.884 61.8616 311.896 62.3265 310.866 62.376C308.608 62.486 306.311 62.5988 304.084 62.3347C301.34 62.0101 299.421 59.5674 299.168 56.5359C299.077 55.3965 299.047 54.2534 299.079 53.1111C299.168 49.678 299.296 46.2504 299.412 42.8201C299.481 40.79 300.266 40.006 302.353 39.9152C304.289 39.8271 306.228 39.6786 308.164 39.6869C308.759 39.6869 309.787 40.0252 309.872 40.3691C310.1 41.3704 309.072 41.4529 308.36 41.5547C306.675 41.7968 304.981 41.9508 303.287 42.1351C302.832 42.1874 302.37 42.2231 301.81 42.2754V48.1678C303.464 48.3933 305.132 48.6107 306.795 48.8527C307.213 48.9133 307.728 48.9325 308.005 49.1773C308.506 49.623 308.859 50.2199 309.277 50.7563C308.654 51.0589 307.999 51.6696 307.415 51.6091C305.494 51.4165 303.597 50.9819 301.394 50.5803Z" fill="#212022"/>
<path d="M262.923 31.7753C265.721 31.5773 268.252 31.371 270.789 31.2252C271.816 31.152 272.848 31.188 273.867 31.3324C274.963 31.5112 274.954 32.2897 274.134 32.7079C273.112 33.2554 271.993 33.6119 270.835 33.7587C268.07 34.0558 265.283 34.2153 262.502 34.3089C261.536 34.3391 260.83 33.7339 260.722 32.6941C260.324 28.8814 259.953 25.0632 259.515 21.2533C259.327 19.6193 259.034 17.9962 258.724 16.3815C258.191 13.6306 258.795 12.8851 261.707 12.8439C263.506 12.8191 265.306 12.7448 267.102 12.7778C267.498 12.7778 267.888 13.1492 268.281 13.35C267.902 13.6251 267.555 14.0542 267.142 14.123C265.047 14.4669 262.934 14.7145 260.694 15.0143C261.098 17.1077 261.505 19.2011 261.938 21.4403C263.447 21.4403 265.001 21.3578 266.541 21.4733C267.447 21.5421 268.936 21.3853 268.887 22.6259C268.845 23.7538 267.484 23.7511 266.476 23.7263C265.052 23.685 263.655 23.608 261.975 23.5365C262.288 26.2543 262.601 28.9034 262.923 31.7753Z" fill="#1A191B"/>
<path d="M271.788 38.8008C274.217 44.7261 275.558 51.0091 277.909 57.0583C278.231 55.4765 278.479 53.8755 278.889 52.3185C279.887 48.5609 280.94 44.816 282.049 41.084C282.214 40.5338 282.863 40.1294 283.284 39.6563C283.467 40.289 283.908 40.974 283.788 41.5489C282.934 45.6257 281.969 49.686 281.01 53.7435C280.44 56.1808 279.871 58.6263 279.148 61.0278C278.957 61.6715 278.24 62.1721 277.764 62.7388C277.235 62.1281 276.409 61.5917 276.221 60.893C274.484 54.4862 272.842 48.0547 271.213 41.6204C270.997 40.7649 271.005 39.8544 270.911 38.9713L271.788 38.8008Z" fill="#222123"/>
<path d="M246.615 32.0091C248.267 32.8344 249.593 33.5276 250.94 34.1795C252.58 34.9718 253.613 34.8727 254.709 33.8742C255.806 32.8756 256.301 31.3406 255.541 30.001C254.743 28.663 253.798 27.4123 252.722 26.2708C251.162 24.557 249.38 23.0275 247.857 21.2862C246.459 19.6825 245.579 17.8064 245.833 15.6029C246.032 13.9111 247.304 12.6733 248.964 12.577C251.037 12.4504 252.759 13.4655 253.178 15.3278C252.403 15.1298 251.783 14.8547 251.142 14.8134C250.208 14.7612 248.805 14.5383 248.44 15.0032C247.954 15.6222 247.894 17.0444 248.318 17.7541C249.374 19.5064 250.738 21.1019 252.107 22.6589C253.724 24.4992 255.666 26.0975 257.126 28.0423C258.914 30.4218 258.584 33.2965 256.702 35.3927C255.239 37.0267 253.141 37.6264 251.065 36.9249C248.819 36.1601 247.068 34.9195 246.615 32.0091Z" fill="#1A191B"/>
<path d="M281.163 14.8547C281.326 16.8546 281.471 18.6729 281.616 20.4913C283.202 20.615 284.748 20.6536 286.282 20.8956C286.818 20.9809 287.264 21.5613 287.754 21.9162C287.247 22.3096 286.761 23.0165 286.234 23.0386C284.779 23.1238 283.307 22.9313 281.642 22.835C281.79 24.9201 281.926 26.9943 282.106 29.3078C283.666 29.0822 285.038 28.8291 286.425 28.7026C287.43 28.6118 288.847 28.0259 289.124 29.5554C289.374 30.9583 288.05 31.0243 287.003 31.1509C285.551 31.3242 284.101 31.5855 282.647 31.657C280.742 31.7478 279.939 31.0656 279.743 29.2363C279.524 27.1896 279.353 25.1347 279.264 23.0798C279.156 20.516 279.131 17.9467 279.125 15.3774C279.125 13.7681 279.743 13.0942 281.368 12.9291C283.489 12.7173 285.616 12.5798 287.743 12.4147C287.974 12.3625 288.215 12.3691 288.443 12.434C288.882 12.6804 289.307 12.9495 289.716 13.24C289.303 13.4765 288.916 13.8617 288.474 13.9249C286.094 14.2688 283.703 14.5356 281.163 14.8547Z" fill="#1A191B"/>
<path d="M238.166 18.0237C237.498 18.5624 236.8 19.0657 236.076 19.5312C235.771 19.7073 235.299 19.6137 234.903 19.644C234.88 19.2561 234.69 18.7637 234.863 18.4941C236.399 16.0562 238.681 14.1402 241.394 13.0116C241.818 12.8356 242.496 13.2317 243.054 13.361C242.857 13.8699 242.661 14.3761 242.459 14.8795C242.436 14.9203 242.397 14.9508 242.351 14.9648C239.472 15.9496 239.632 17.7569 240.412 20.1914C241.323 23.0523 241.653 26.0865 242.277 29.2693C242.971 28.7191 243.592 28.2157 244.247 27.748C244.697 27.4262 245.166 27.0548 245.685 26.9228C246.069 26.821 246.724 26.9228 246.937 27.1979C247.044 27.3887 247.1 27.6024 247.1 27.8196C247.1 28.0367 247.044 28.2504 246.937 28.4413C246.369 29.1086 245.741 29.7262 245.061 30.2871C244.079 31.1784 243.202 32.287 242.043 32.8647C240.819 33.4726 239.324 33.5799 237.932 33.833C237.872 33.833 237.488 33.0682 237.582 32.7326C237.676 32.397 238.134 32.1027 238.504 31.9376C239.825 31.3407 240.099 30.4136 239.874 29.063C239.304 25.6381 238.88 22.1858 238.388 18.7527C238.331 18.5052 238.257 18.2616 238.166 18.0237V18.0237Z" fill="#1A191B"/>
<path d="M301.206 5.13571C303.125 3.80154 305.038 4.28569 306.806 5.22373C308.634 6.18929 310.348 7.37766 310.202 9.93872C307.962 6.97879 305.286 4.83861 301.206 5.13571Z" fill="#353335"/>
<path d="M318.709 31.4343C316.819 33.9678 314.385 35.5963 311.748 37.4037C312.11 35.2992 316.807 31.2582 318.709 31.4343Z" fill="#2D2B2D"/>
<path d="M218.758 42.3082C217.431 41.6673 216.042 41.0483 214.727 40.3083C214.468 40.1653 214.499 39.5408 214.396 39.1365C214.781 39.0897 215.216 38.9081 215.535 39.0237C216.814 39.4652 218.064 39.9805 219.279 40.5669C219.598 40.7237 219.789 41.2684 219.848 41.6673C219.897 41.7855 219.305 42.0056 218.758 42.3082Z" fill="#2D2B2D"/>
<path d="M217.665 46.539C216.643 48.3353 215.028 48.8607 213.471 49.4439C213.298 49.5099 212.939 49.3229 212.785 49.1523C212.751 49.0524 212.744 48.9459 212.763 48.8425C212.783 48.7391 212.83 48.6422 212.899 48.5609C214.203 47.455 215.47 46.3024 217.665 46.539Z" fill="#2D2B2D"/>
<path d="M314.846 39.5902L313.73 38.6384C314.066 38.3634 314.399 38.1075 314.738 37.8462C314.779 37.8221 314.827 37.8115 314.874 37.8159C315.64 37.8544 316.406 37.8847 317.166 37.9672C317.217 37.9672 317.303 38.5174 317.237 38.5449C316.511 38.8998 315.757 39.2024 314.846 39.5902Z" fill="#2D2B2D"/>
<path d="M316.551 43.7992C315.606 43.4525 314.649 43.1334 313.73 42.7346C313.573 42.6685 313.494 42.2614 313.528 42.0303C313.545 41.9066 313.906 41.7057 314.06 41.7553C315.122 42.0028 316.275 42.1376 316.816 43.227L316.551 43.7992Z" fill="#2D2B2D"/>
<path d="M214.576 43.5903H217.269L217.295 44.2313L214.584 44.3743L214.576 43.5903Z" fill="#353335"/>
<path d="M307.486 2.9352C307.108 2.46205 306.732 2.10994 306.783 2.04117C307.21 1.44423 307.714 0.899556 308.207 0.338379C308.403 0.555697 308.807 0.888552 308.756 0.973829C308.368 1.64833 307.944 2.30299 307.486 2.9352V2.9352Z" fill="#353335"/>
<path d="M311.222 4.49772C311.31 4.22264 311.313 4.02732 311.398 3.98606C312.067 3.64771 312.75 3.33961 313.428 3.02051C313.505 3.29559 313.738 3.69172 313.636 3.80175C313.032 4.45371 312.326 4.95162 311.222 4.49772Z" fill="#2D2B2D"/>
<path d="M338.105 453.45H-8.27033C-10.229 453.45 -10.2376 453.45 -10.229 451.5C-10.2006 446.46 -10.1664 441.417 -10.1266 436.37C-10.0468 426.467 -9.96333 416.57 -9.87602 406.68C-9.87602 406.454 -9.84186 406.226 -9.80485 405.758H-8.17354C1.79084 405.758 11.7381 405.777 21.6968 405.758C23.8662 405.758 26.0384 405.588 28.2107 405.483C29.4149 405.42 30.0213 404.955 30.0128 403.599C29.9445 393.101 29.9615 382.604 29.953 372.104V370.322H31.7551L68.4525 370.288C68.8311 370.288 69.2126 370.288 69.5913 370.288C71.2397 370.184 71.5187 369.89 71.5158 368.272L71.4902 336.912V335.055H73.2582C83.7378 335.055 94.2147 335.088 104.694 335.025C106.844 335.025 108.993 334.643 111.14 334.42C112.279 334.302 112.509 333.611 112.506 332.591C112.464 322.091 112.467 311.593 112.458 301.096V299.294H114.246C124.78 299.294 135.296 299.327 145.822 299.264C147.686 299.264 149.548 298.851 151.41 298.623C152.549 298.483 152.617 297.721 152.614 296.813C152.582 286.312 152.568 275.814 152.572 265.318V263.618H338.105V453.45ZM314.248 296.785H214.251C205.289 296.785 196.315 296.802 187.364 296.772C186.079 296.733 184.828 297.177 183.874 298.009C181.52 299.998 179.105 301.927 176.72 303.88C167.754 311.228 158.788 318.576 149.822 325.923L119.222 350.955C109.566 358.861 99.9114 366.77 90.2602 374.682L59.6668 399.731C50.0478 407.617 40.4289 415.495 30.8099 423.366C26.2918 427.069 21.7509 430.75 17.2498 434.469C14.9438 436.375 15.4847 439.399 18.3488 440.345C19.7552 440.81 21.2755 441.211 22.7473 441.211C119.237 441.252 215.727 441.265 312.218 441.25H314.16C314.33 393.049 314.185 344.992 314.248 296.785Z" fill="#007D75"/>
<path d="M327.227 77.0874V258.686H213.548V77.0874H327.227ZM280.138 107.438C278.399 104.216 276.85 101.235 275.162 98.3268C274.877 97.8317 273.887 97.287 273.42 97.4191C272.833 97.5896 272.076 98.4039 272.036 98.9815C271.498 106.846 271.079 114.716 270.613 122.584C270.556 123.569 270.763 124.438 271.902 124.51C273.121 124.587 273.437 123.698 273.499 122.672C273.801 117.917 274.111 113.161 274.43 108.406C274.53 106.888 274.638 105.38 274.761 103.578C274.928 103.799 275.084 104.027 275.227 104.263C276.238 106.28 277.163 108.345 278.296 110.296C278.687 110.967 279.561 111.685 280.289 111.759C280.785 111.809 281.573 110.879 281.929 110.233C283.031 108.238 283.988 106.17 285.001 104.128C285.255 104.388 285.404 104.728 285.42 105.086C285.731 110.531 286.037 115.975 286.339 121.42C286.415 122.794 286.51 124.169 286.624 125.547C286.692 126.438 287.165 127.082 288.127 127.043C289.089 127.005 289.519 126.366 289.488 125.448C289.488 125.217 289.465 124.988 289.454 124.76C288.953 116.157 288.451 107.556 287.948 98.9568C287.894 98.0242 287.617 97.1687 286.575 96.9459C285.437 96.7011 285.041 97.5979 284.645 98.3984C283.165 101.345 281.693 104.304 280.138 107.438ZM248.537 103.391C248.611 104.216 248.714 104.899 248.728 105.575C248.899 113.267 249.063 120.96 249.22 128.655C249.22 129.249 249.124 129.904 249.343 130.418C249.539 130.881 250.134 131.505 250.519 131.486C251.025 131.458 251.572 130.936 251.962 130.495C252.161 130.275 252.082 129.794 252.079 129.431C252.028 123.475 252.002 117.52 251.897 111.564C251.845 108.695 251.638 105.828 251.498 102.891C252.403 102.703 253.229 102.53 254.06 102.362C256.514 101.859 258.971 101.378 261.42 100.852C262.299 100.665 262.909 100.156 262.718 99.2016C262.527 98.2471 261.804 98.0022 260.89 98.1453C260.517 98.203 260.147 98.2746 259.774 98.3488C257.181 98.8688 254.593 99.4244 251.991 99.9058C248.042 100.635 244.079 101.309 240.127 102.018C239.179 102.189 238.479 102.673 238.704 103.697C238.943 104.783 239.78 104.899 240.805 104.709C243.307 104.238 245.827 103.845 248.54 103.391H248.537ZM227.108 174.996C228.482 175.014 229.831 174.637 230.983 173.912C232.134 173.187 233.037 172.148 233.575 170.926C234.114 169.704 234.264 168.355 234.006 167.05C233.749 165.746 233.095 164.545 232.129 163.6C231.163 162.655 229.928 162.01 228.581 161.745C227.234 161.481 225.837 161.609 224.566 162.115C223.295 162.62 222.208 163.48 221.444 164.584C220.68 165.688 220.273 166.986 220.275 168.314C220.274 170.073 220.992 171.762 222.272 173.013C223.552 174.264 225.29 174.977 227.111 174.996H227.108ZM260.047 105.399C262.829 105.124 265.457 104.896 268.082 104.64C269.05 104.547 269.79 104.09 269.656 103.075C269.514 101.996 268.662 101.79 267.632 101.87C264.944 102.082 262.257 102.299 259.563 102.398C257.237 102.483 256.642 103.138 257.055 105.397C257.821 109.586 258.556 113.784 259.307 117.976C259.592 119.646 259.808 121.343 260.275 122.966C260.426 123.492 261.286 123.827 261.821 124.251C262.231 123.726 262.778 123.247 263.008 122.653C263.168 122.243 262.892 121.676 262.806 121.181C262.368 118.628 261.926 116.075 261.477 113.457C263.116 113.264 264.568 113.088 266.032 112.923C267.06 112.805 268.008 112.508 267.82 111.272C267.632 110.037 266.664 110.01 265.627 110.139C264.099 110.332 262.561 110.48 260.984 110.651C260.645 108.783 260.346 107.088 260.039 105.402L260.047 105.399Z" fill="#4BD3FF"/>
<path opacity="0.56" d="M78.3229 250.824C75.8005 250.326 73.3293 249.647 70.8126 249.399C68.2959 249.151 65.8019 249.344 63.1827 249.344C62.6133 246.395 62.0781 243.567 61.5685 240.753C58.6731 224.688 57.5287 208.466 56.9507 192.198C56.7742 187.298 56.7913 182.391 56.7087 177.486C56.7087 176.936 56.7571 176.339 56.5493 175.86C56.3415 175.381 55.8518 174.76 55.4646 174.73C55.0205 174.713 54.2888 175.23 54.1522 175.657C53.8191 176.691 53.8675 177.838 53.56 178.883C53.0681 180.531 52.4787 182.15 51.7949 183.733C51.6184 184.146 50.9721 184.369 50.4938 184.71C49.7906 181.728 49.1529 178.933 48.4554 176.143C48.2432 175.3 47.9378 174.481 47.5444 173.701C47.0575 172.738 46.4056 171.811 45.1017 171.943C43.8917 172.067 43.2284 172.958 43.0746 173.97C42.9036 175.362 42.8579 176.766 42.938 178.165C42.9607 178.878 43.2227 179.582 43.4618 180.641C42.9522 180.184 42.7387 179.854 42.4454 179.761C41.6056 179.486 40.6604 179.01 39.8832 179.18C38.7928 179.422 38.5081 180.523 38.7273 181.546C39.012 182.839 39.2455 184.184 39.8148 185.362C40.9736 187.747 42.3458 190.038 43.6668 192.437C41.8846 192.858 39.9999 192.712 38.4967 191.303C36.8341 189.744 35.3309 188.024 33.7594 186.374C33.153 185.736 32.6348 184.998 31.5017 185.334C31.3138 185.392 31.0006 184.897 30.696 184.784C30.2092 184.616 29.5373 184.333 29.2099 184.525C28.8825 184.718 28.78 185.419 28.6633 185.917C28.6177 186.107 28.78 186.355 28.8797 186.561C33.7394 196.536 36.7686 207.104 39.7579 217.693C42.8611 228.672 45.9852 239.643 49.1301 250.604C49.2298 250.951 49.2924 251.308 49.3436 251.523L40.8454 256.144C40.1821 252.653 39.422 249.05 38.8241 245.416C37.7764 239.039 34.8839 233.612 30.0555 229.186C25.9302 225.395 21.7195 221.698 17.5801 217.926C13.879 214.557 10.3772 211.008 7.76657 206.75C1.37798 196.329 0.569446 185.631 6.34309 174.721C13.1046 161.93 23.3423 153.265 38.101 150.079C46.0525 148.365 53.9244 148.937 61.6966 151.039C70.6304 153.454 78.6588 157.515 85.3862 163.778C90.4424 168.482 92.9563 174.402 93.9926 180.996C95.3876 189.881 93.221 198.277 90.1264 206.519C88.0965 211.924 85.8816 217.269 83.7748 222.65C80.3442 231.428 78.8581 240.569 78.3997 249.883C78.3713 250.257 78.34 250.604 78.3229 250.824Z" fill="#A8FFF2"/>
<path opacity="0.56" d="M33.3808 189.81C34.4085 190.808 35.3736 191.859 36.4697 192.8C39.5103 195.449 42.7615 195.35 46.5081 193.82C49.5942 192.563 50.1665 190.478 50.4796 187.851C50.5138 187.548 50.8697 187.216 51.1657 187.026C52.0967 186.423 53.0732 185.887 54.1551 185.251C54.8298 206.708 56.1138 228.212 60.7031 249.446L51.8433 250.912C51.0177 248.048 50.1608 245.064 49.2953 242.082C45.4206 228.704 41.6085 215.313 37.6227 201.96C36.5694 198.412 35.0804 194.984 33.805 191.493C33.6085 190.957 33.4889 190.393 33.3352 189.843L33.3808 189.81Z" fill="#A8FFF2"/>
<path d="M54.6959 282.498L71.0631 285.306L71.1998 285.581C70.6731 285.856 70.1749 286.217 69.6169 286.352C65.1898 287.408 60.7429 287.631 56.2504 286.665C53.3123 286.063 50.6153 284.658 48.481 282.616C47.5714 281.685 46.9039 280.558 46.5337 279.329C45.1899 275.092 44.017 270.801 42.7757 266.534C42.5252 265.665 42.2632 264.799 42.0127 263.954C54.6219 264.229 67.1087 264.292 78.9805 258.89C79.0944 259.767 79.2851 260.689 79.3165 261.619C79.493 266.554 79.6752 271.489 79.7634 276.424C79.8005 278.462 78.5962 280.066 77.3179 281.557C77.1585 281.705 76.9671 281.818 76.7574 281.886C76.5477 281.955 76.325 281.977 76.1051 281.953C68.8823 280.732 61.6681 279.463 54.3514 278.19C54.4008 277.969 54.4773 277.755 54.5792 277.552C55.123 276.834 55.3536 276.085 54.4226 275.557C53.5429 275.056 52.8482 275.596 52.3842 276.275C51.0518 278.231 50.676 280.366 51.6013 282.553C51.7542 282.86 51.9724 283.132 52.2417 283.352C52.5111 283.572 52.8254 283.735 53.1643 283.829C53.5144 283.89 54.0639 283.064 54.6959 282.498Z" fill="#EEEDED"/>
<path d="M64.8028 258.755C64.3757 256.411 63.9657 254.172 63.5558 251.938C66.8526 250.873 75.3565 252.043 78.4312 254.048C74.3344 256.903 69.7536 258.117 64.8028 258.755Z" fill="#AFDADA"/>
<path d="M62.3372 259.195L53.207 259.927C52.9992 257.745 52.8056 255.682 52.5892 253.393L60.9735 251.858C61.4404 254.362 61.8675 256.656 62.3372 259.195Z" fill="#AFDADA"/>
<path d="M50.1807 254.117C50.3373 256.147 50.4654 257.984 50.6448 260.086L41.748 259.649L41.6512 259.239C43.906 256.813 46.8156 255.377 50.1807 254.117Z" fill="#ACD8D7"/>
<path opacity="0.56" d="M45.7906 185.186C48.2333 186.214 48.6604 187.386 47.0917 190.759L45.7906 185.186Z" fill="#A8FFF2"/>
<path opacity="0.56" d="M47.0519 182.225C45.8875 180.044 44.9964 177.799 45.2356 175.277L45.637 175.178L47.4619 182.143L47.0519 182.225Z" fill="#A8FFF2"/>
<path opacity="0.56" d="M43.2911 187.15C42.7938 186.068 42.2946 184.987 41.7936 183.909L42.1779 183.736C42.7112 184.805 43.2446 185.874 43.7779 186.943L43.2911 187.15Z" fill="#A8FFF2"/>
<path d="M41.8846 183.353L41.785 183.458C41.7458 183.383 41.7144 183.305 41.691 183.224C41.691 183.196 41.7423 183.152 41.7679 183.117L41.8846 183.353Z" fill="#6EA29A"/>
<path d="M43.8718 187.562C43.8263 187.612 43.7779 187.661 43.7323 187.714C43.7067 187.675 43.6583 187.634 43.6611 187.601C43.6823 187.524 43.7099 187.45 43.7437 187.378L43.8718 187.562Z" fill="#6EA29A"/>
<path d="M33.3579 189.851L33.153 189.769L33.2583 189.604L33.3807 189.821L33.3579 189.851Z" fill="#B1DBDC"/>
<path d="M71.123 116.169C70.695 120.593 71.0298 125.055 72.1137 129.373C73.113 133.541 74.3913 137.642 75.5785 141.876C73.3627 142.656 70.9331 142.656 68.7173 141.876C62.9493 139.967 59.4447 136.014 58.2063 130.278C57.4974 126.991 58.7387 124.226 60.9878 121.717C63.6753 118.714 66.9664 116.912 71.123 116.169Z" fill="#75EDA5"/>
<path d="M78.2659 140.844C76.3905 136.752 75.0957 132.433 74.4168 128.006C73.8845 124.534 73.7962 120.997 73.5428 117.487C73.4489 116.18 74.0695 115.781 75.4503 115.938C78.8951 116.323 81.9983 117.412 84.5435 119.718C87.1627 122.086 88.2445 125.01 87.5015 128.432C86.3456 133.794 83.1143 137.73 78.2659 140.844ZM86.2887 128.047C85.9072 124.675 85.4744 121.432 82.3513 119.245C81.1812 118.419 79.9656 117.919 78.6759 118.469C77.3862 119.019 77.5371 120.37 77.7279 121.407C78.451 125.305 79.2368 129.197 80.1677 133.054C80.5919 134.803 82.5051 135.211 83.715 133.799C85.1357 132.127 86.2175 130.229 86.2887 128.034V128.047Z" fill="#A8FFF2"/>
<path d="M27.7267 118.4C26.4228 123.871 28.0427 128.93 29.4348 133.997C30.4057 137.516 32.6263 140.176 35.8092 142.096C36.0085 142.214 36.2021 142.343 36.3957 142.473C36.427 142.495 36.4298 142.555 36.5067 142.748C32.6121 143.961 28.9281 143.573 25.6541 141.276C21.0505 138.022 19.0406 133.488 19.5844 128.009C20.0626 123.184 23.1715 120.287 27.7267 118.4Z" fill="#75EDA5"/>
<path d="M43.6697 131.142C43.7067 134.919 42.8384 137.293 41.2099 139.395C39.9373 141.045 39.2825 141.183 37.3978 140.165C34.716 138.721 32.7829 136.589 32.0029 133.733C31.0878 130.43 30.3674 127.078 29.8449 123.696C29.6143 122.172 30.01 120.529 30.2975 118.97C30.4968 117.899 31.3993 117.525 32.4811 117.789C33.2196 117.938 33.9366 118.172 34.6164 118.488C40.2932 121.443 43.2028 126.108 43.6697 131.142ZM42.1238 132.85C42.0242 129.877 40.9651 127.451 39.8662 125.005C39.1402 123.387 37.8932 122.331 36.4754 121.443C35.906 121.077 34.79 120.826 34.3288 121.118C33.8676 121.41 33.5345 122.493 33.6512 123.151C34.4399 127.552 35.331 131.932 36.2704 136.3C36.4043 136.922 36.9537 137.483 37.3865 138.014C38.0498 138.839 38.8099 138.858 39.7466 138.311C42.0583 136.963 41.6768 134.622 42.1238 132.85Z" fill="#A8FFF2"/>
<path d="M294.442 15.7266C294.467 15.7568 294.516 15.7898 294.513 15.8201C294.51 15.8504 294.462 15.8806 294.433 15.9109C294.407 15.8779 294.362 15.8449 294.362 15.8146C294.362 15.7843 294.413 15.7541 294.442 15.7266Z" fill="white"/>
<path d="M314.248 296.785C314.185 344.991 314.331 393.049 314.16 441.261H312.218C215.727 441.261 119.237 441.248 22.7474 441.222C21.2755 441.222 19.7552 440.821 18.3488 440.356C15.4848 439.409 14.9325 436.386 17.2499 434.48C21.7509 430.761 26.2919 427.08 30.81 423.377C40.4289 415.503 50.0479 407.624 59.6668 399.742L90.2603 374.693C99.9153 366.785 109.569 358.876 119.222 350.966L149.822 325.933C158.791 318.598 167.758 311.25 176.72 303.891C179.106 301.938 181.52 300.009 183.874 298.02C184.829 297.188 186.079 296.744 187.365 296.783C196.327 296.813 205.3 296.796 214.251 296.796H314.248V296.785ZM309.348 301.509H307.236C268.024 301.509 228.813 301.492 189.602 301.459C187.709 301.459 186.411 302.1 185.09 303.214C181.104 306.57 177.064 309.879 173.027 313.189C168.31 317.056 163.57 320.891 158.844 324.762C155.453 327.534 152.079 330.324 148.691 333.099C144.654 336.401 140.614 339.702 136.569 343.003C132.583 346.279 128.598 349.577 124.589 352.856C120.446 356.253 116.3 359.645 112.151 363.034C108.8 365.785 105.466 368.536 102.112 371.287C96.8453 375.591 91.5746 379.89 86.3002 384.183C82.9094 386.956 79.5358 389.748 76.1479 392.521C72.1109 395.822 68.0701 399.123 64.0255 402.424C60.0255 405.703 56.054 409.001 52.0455 412.278C47.3594 416.116 42.6676 419.945 37.9701 423.765C34.4683 426.621 30.9666 429.475 27.4648 432.329C25.862 433.641 24.2847 434.986 22.3659 436.59H24.1652C118.66 436.59 213.154 436.6 307.649 436.62C309.035 436.62 309.357 436.238 309.357 434.934C309.327 391.012 309.327 347.089 309.357 303.167L309.348 301.509Z" fill="#060A0A"/>
<path d="M280.138 107.438C281.693 104.304 283.165 101.345 284.631 98.3846C285.027 97.5841 285.414 96.6873 286.561 96.9322C287.603 97.155 287.879 98.0105 287.933 98.9431C288.435 107.544 288.937 116.145 289.44 124.746C289.44 124.975 289.465 125.203 289.474 125.434C289.505 126.353 289.067 126.994 288.113 127.029C287.159 127.065 286.689 126.424 286.61 125.533C286.501 124.163 286.407 122.788 286.325 121.407C286.016 115.962 285.709 110.517 285.405 105.072C285.39 104.715 285.241 104.375 284.987 104.115C283.973 106.156 283.017 108.224 281.915 110.219C281.559 110.865 280.776 111.795 280.275 111.746C279.555 111.671 278.681 110.953 278.282 110.282C277.143 108.332 276.224 106.266 275.213 104.249C275.07 104.014 274.914 103.785 274.746 103.565C274.624 105.355 274.516 106.866 274.416 108.392C274.103 113.146 273.793 117.901 273.485 122.658C273.423 123.684 273.106 124.584 271.888 124.496C270.749 124.427 270.541 123.558 270.598 122.57C271.065 114.703 271.484 106.833 272.022 98.9678C272.062 98.3901 272.819 97.5759 273.405 97.4053C273.872 97.2733 274.86 97.818 275.148 98.3131C276.85 101.232 278.399 104.216 280.138 107.438Z" fill="#071418"/>
<path d="M248.54 103.391C245.827 103.845 243.307 104.239 240.802 104.704C239.777 104.893 238.94 104.778 238.701 103.691C238.476 102.668 239.176 102.184 240.124 102.013C244.076 101.303 248.039 100.638 251.988 99.9006C254.59 99.4192 257.178 98.8635 259.771 98.3436C260.144 98.2693 260.514 98.1978 260.887 98.14C261.801 97.997 262.527 98.239 262.715 99.1963C262.903 100.154 262.297 100.665 261.417 100.847C258.969 101.372 256.512 101.854 254.058 102.357C253.232 102.525 252.406 102.698 251.495 102.885C251.635 105.823 251.843 108.69 251.894 111.559C251.999 117.514 252.025 123.47 252.076 129.426C252.076 129.789 252.159 130.27 251.959 130.49C251.569 130.922 251.023 131.453 250.516 131.48C250.132 131.5 249.537 130.875 249.34 130.413C249.121 129.899 249.232 129.244 249.218 128.65C249.053 120.947 248.888 113.254 248.725 105.57C248.717 104.899 248.614 104.222 248.54 103.391Z" fill="#071418"/>
<path d="M227.111 174.996C225.296 174.948 223.573 174.213 222.313 172.949C221.053 171.686 220.358 169.995 220.376 168.24C220.393 166.486 221.124 164.808 222.409 163.569C223.694 162.329 225.432 161.627 227.248 161.613C228.167 161.607 229.08 161.777 229.931 162.114C230.782 162.451 231.555 162.949 232.205 163.578C232.855 164.208 233.368 164.955 233.716 165.779C234.063 166.602 234.237 167.483 234.228 168.372C234.219 169.261 234.027 170.139 233.663 170.956C233.299 171.772 232.77 172.51 232.107 173.126C231.445 173.743 230.662 174.226 229.804 174.547C228.946 174.868 228.031 175.021 227.111 174.996Z" fill="#071014"/>
<path d="M260.039 105.402C260.324 107.088 260.634 108.783 260.964 110.662C262.541 110.491 264.079 110.343 265.608 110.15C266.644 110.021 267.618 110.09 267.8 111.284C267.982 112.477 267.04 112.808 266.012 112.934C264.56 113.099 263.108 113.275 261.457 113.468C261.907 116.087 262.348 118.639 262.786 121.192C262.872 121.687 263.148 122.254 262.988 122.664C262.758 123.258 262.211 123.737 261.801 124.262C261.266 123.839 260.406 123.503 260.255 122.977C259.788 121.354 259.586 119.657 259.287 117.987C258.536 113.795 257.801 109.597 257.035 105.408C256.623 103.149 257.218 102.495 259.544 102.409C262.237 102.31 264.924 102.093 267.612 101.881C268.642 101.801 269.494 102.008 269.636 103.086C269.767 104.101 269.03 104.558 268.062 104.651C265.448 104.899 262.832 105.141 260.039 105.402Z" fill="#071418"/>
<path d="M86.2888 128.034C86.2176 130.234 85.1358 132.127 83.7265 133.783C82.5166 135.194 80.5949 134.787 80.1792 133.038C79.2482 129.186 78.471 125.288 77.7394 121.39C77.5486 120.353 77.429 118.992 78.6874 118.452C79.9458 117.913 81.1927 118.408 82.3628 119.228C85.4746 121.418 85.9073 124.661 86.2888 128.034ZM78.9379 122.166C79.0683 122.886 79.2588 123.594 79.5073 124.284C80.0112 125.492 81.0561 125.707 82.1322 124.931C83.661 123.83 83.1543 121.454 81.1728 120.45C79.8632 119.787 78.9265 120.337 78.9379 122.166ZM81.0874 129.395C81.0504 130.281 81.2867 131.145 82.4454 131.164C83.4931 131.181 84.0539 130.468 84.0938 129.483C84.1336 128.499 83.5244 127.803 82.5336 127.709C81.4119 127.605 81.1671 128.444 81.0874 129.395Z" fill="#141918"/>
<path d="M42.1237 132.85C41.6796 134.622 42.0583 136.963 39.7465 138.311C38.807 138.861 38.0383 138.831 37.3864 138.014C36.9536 137.483 36.4042 136.913 36.2704 136.3C35.3309 131.932 34.4398 127.549 33.6512 123.151C33.5344 122.499 33.8362 121.431 34.3288 121.118C34.8213 120.804 35.8946 121.077 36.4754 121.442C37.8988 122.331 39.1401 123.387 39.8661 125.005C40.965 127.45 42.0241 129.877 42.1237 132.85ZM35.069 124.752C35.0974 126.782 36.2846 128.298 37.4405 128.24C38.4369 128.19 38.8497 127.599 38.8412 126.686C38.8412 125.357 37.4177 123.602 36.3387 123.797C35.775 123.899 35.3195 124.551 35.069 124.752ZM40.6205 132.988C40.3131 132.383 39.9657 131.486 39.4163 130.727C39.1999 130.424 38.4056 130.176 38.1038 130.344C37.7252 130.537 37.4376 131.142 37.3693 131.604C37.281 132.218 37.4462 132.864 37.4889 133.497C37.5515 134.394 37.8305 135.186 38.9266 135.147C40.0768 135.114 40.4867 134.303 40.6205 132.988Z" fill="#141918"/>
<path d="M309.348 301.509V303.159C309.348 347.08 309.348 391.002 309.348 434.926C309.348 436.23 309.021 436.612 307.64 436.612C213.148 436.579 118.653 436.569 24.1566 436.582H22.3573C24.2762 434.978 25.8534 433.633 27.4562 432.321C30.958 429.464 34.4645 426.609 37.9757 423.757C42.6675 419.928 47.3593 416.099 52.0511 412.27C56.0511 408.994 60.0226 405.695 64.0312 402.416C68.0397 399.137 72.1165 395.814 76.1535 392.513C79.5414 389.74 82.9151 386.948 86.3058 384.175C91.5727 379.873 96.8434 375.574 102.118 371.279C105.472 368.528 108.805 365.777 112.156 363.027C116.298 359.628 120.444 356.236 124.595 352.848C128.58 349.569 132.566 346.271 136.575 342.995C140.583 339.718 144.66 336.393 148.697 333.092C152.085 330.316 155.459 327.527 158.849 324.754C163.575 320.903 168.315 317.051 173.033 313.181C177.07 309.88 181.104 306.562 185.095 303.206C186.416 302.106 187.715 301.448 189.608 301.451C228.82 301.517 268.031 301.534 307.242 301.501L309.348 301.509Z" fill="#00423D"/>
<path d="M78.9379 122.166C78.9379 120.337 79.8631 119.787 81.1727 120.45C83.1656 121.454 83.661 123.828 82.1322 124.931C81.056 125.706 80.0112 125.481 79.5073 124.284C79.2587 123.594 79.0683 122.886 78.9379 122.166Z" fill="#F5F5F5"/>
<path d="M81.0873 129.395C81.167 128.444 81.4119 127.604 82.5336 127.709C83.5357 127.803 84.1336 128.471 84.0937 129.483C84.0539 130.496 83.493 131.181 82.4453 131.164C81.2866 131.145 81.0503 130.281 81.0873 129.395Z" fill="#EEEDED"/>
<path d="M35.069 124.752C35.3195 124.551 35.775 123.899 36.3387 123.797C37.4149 123.602 38.8327 125.357 38.8412 126.686C38.8412 127.599 38.4369 128.19 37.4405 128.24C36.2846 128.298 35.0974 126.782 35.069 124.752Z" fill="#F5F5F5"/>
<path d="M40.6206 132.988C40.4867 134.303 40.0768 135.114 38.9266 135.15C37.8305 135.186 37.5515 134.394 37.4889 133.5C37.4462 132.867 37.2811 132.22 37.3693 131.607C37.4376 131.145 37.7252 130.54 38.1038 130.347C38.4056 130.193 39.1999 130.427 39.4163 130.729C39.9686 131.491 40.3131 132.383 40.6206 132.988Z" fill="#F5F5F5"/>
</svg>
