<svg width="110" height="60" viewBox="0 0 110 60" fill="none" xmlns="http://www.w3.org/2000/svg">
<path d="M25.9901 0C25.1649 0.48969 24.3093 0.925642 23.4286 1.30517C18.1472 3.87421 12.8658 6.4344 7.58434 8.98575C5.27812 10.1095 2.97631 11.2466 0.674493 12.3703C0.529254 12.4411 0.375213 12.4854 0.234375 12.5429V38.0268C1.86281 38.8099 3.49125 39.6152 5.11088 40.3673C7.67677 41.5751 10.2559 42.7653 12.8261 43.9687C14.5074 44.7518 16.1842 45.5481 17.8655 46.3268C18.3716 46.5613 18.4024 46.5348 18.354 45.9994C18.3056 45.4641 18.1736 44.8137 18.1736 44.2297C18.1371 42.5311 17.8034 40.8523 17.1877 39.2701C16.1358 36.3987 14.4546 33.8326 12.5401 31.3727C11.0129 29.4039 9.52086 27.4174 8.87389 25.015C8.22691 22.6126 8.14769 20.3296 9.08514 18.0202C10.1923 15.2535 12.044 12.8514 14.4326 11.0829C16.6275 9.4868 19.0733 8.27242 21.6681 7.49033C24.3766 6.61604 27.1886 6.10723 30.0303 5.97723C33.7626 5.80788 37.4936 6.33747 41.0333 7.539C41.0562 7.55306 41.0818 7.56228 41.1084 7.5661C41.135 7.56993 41.162 7.56827 41.188 7.56123C41.2139 7.5542 41.2382 7.54193 41.2592 7.52518C41.2803 7.50842 41.2978 7.48754 41.3106 7.46379C40.6108 7.11869 39.911 6.77802 39.22 6.43293L32.3498 2.97313L26.4258 0H25.9901Z" fill="white"/>
<path d="M95.4144 16.6669C94.5341 18.587 93.6539 20.5249 92.8177 22.4627C91.2831 25.9343 89.753 29.4133 88.2272 32.8996C88.1656 33.0368 88.1348 33.2359 87.9367 33.2447C87.7387 33.2536 87.6947 33.0456 87.6375 32.9129C86.5196 30.4058 85.4046 27.8987 84.2926 25.3916C83.003 22.4671 81.7355 19.5382 80.4239 16.6226C79.7946 15.2246 78.3422 14.4813 76.5773 14.5521C75.8783 14.566 75.2015 14.8015 74.6435 15.2249C74.0855 15.6484 73.6749 16.2382 73.4701 16.9102C73.0564 18.149 72.7439 19.4144 72.3918 20.6664C71.5864 23.5113 70.7854 26.3428 69.9932 29.2053C69.0821 32.4837 68.1887 35.7621 67.2864 39.0405C66.8155 40.7439 66.3534 42.4517 65.8648 44.1506C65.7152 44.6771 65.9397 44.7921 66.4634 44.7833C67.2776 44.7833 68.0962 44.7833 68.9105 44.7833C69.7247 44.7833 70.4597 44.7833 71.2343 44.7833H71.9649C73.3336 44.8054 72.9903 44.8319 73.5361 43.0136C74.0554 41.2792 74.4868 39.5272 74.9621 37.784C75.4374 36.0409 75.8951 34.3729 76.3705 32.674C76.8106 31.1388 77.2507 29.6079 77.6908 27.9754C77.9414 28.2528 78.1344 28.5777 78.2586 28.931C79.4953 31.7272 80.7144 34.5278 81.9511 37.3372C82.7742 39.1998 83.4916 41.1067 84.4642 42.9118C84.9323 43.7343 85.6892 44.3514 86.5865 44.6419C87.4838 44.9325 88.4566 44.8756 89.3143 44.4824C90.2908 44.0211 91.0524 43.1985 91.4401 42.1862L97.4873 28.555C97.5462 28.3176 97.6787 28.1053 97.8658 27.9488C97.9318 28.1258 97.989 28.2497 98.0243 28.3913C98.592 30.4132 99.1598 32.4306 99.7143 34.457C100.595 37.6779 101.466 40.9002 102.329 44.1241C102.348 44.2342 102.388 44.3393 102.448 44.4335C102.508 44.5277 102.586 44.6091 102.677 44.6729C102.768 44.7366 102.871 44.7816 102.98 44.8051C103.089 44.8286 103.201 44.8302 103.31 44.8098C105.238 44.7833 107.17 44.8098 109.098 44.8098C109.648 44.8098 109.89 44.6992 109.731 44.1462C109.164 42.1243 108.618 40.1024 108.063 38.076C107.509 36.0497 106.945 34.0322 106.391 32.0103C105.907 30.2406 105.436 28.4709 104.947 26.7012C104.415 24.7766 103.887 22.8476 103.328 20.9275C102.888 19.4719 102.641 17.9765 102.047 16.5695C101.875 16.1548 101.619 15.781 101.295 15.4723C100.97 15.1636 100.585 14.9269 100.163 14.7777C99.7054 14.6068 99.2212 14.5184 98.7328 14.5167C98.0306 14.5124 97.3423 14.7139 96.7522 15.0965C96.1621 15.4792 95.6956 16.0264 95.41 16.6713" fill="white"/>
<path d="M17.5754 15.2105C16.4267 17.1572 16.5455 19.0995 17.5754 21.055C17.6914 21.2998 17.8819 21.5011 18.1192 21.63C18.3566 21.7588 18.6285 21.8085 18.8957 21.7718C21.6333 21.7452 24.3664 21.7718 27.1039 21.7718C27.9842 21.7718 27.9842 21.7718 27.9842 22.5903C27.9842 26.4984 27.9842 30.408 27.9842 34.3191C27.9842 37.5886 27.9842 40.8626 27.9842 44.1322C27.9842 44.61 28.103 44.8135 28.6972 44.8047C30.0527 44.7781 31.4083 44.8047 32.7639 44.8047H34.2999C35.3209 44.8047 35.3209 44.8047 35.3209 43.8756C35.3209 36.9265 35.3209 29.9788 35.3209 23.0327C35.3209 21.7718 35.1845 21.7806 36.3596 21.7895H45.0255C45.4656 21.7895 45.7385 21.7541 45.7781 21.2453C45.941 19.2986 45.8882 17.343 45.9938 15.3919C46.0378 14.5956 45.9938 14.5779 45.1136 14.5779H32.0201C27.6189 14.5779 23.2177 14.5779 18.8473 14.5779C18.5971 14.5473 18.3433 14.5909 18.1174 14.7033C17.8914 14.8157 17.703 14.992 17.5754 15.2105Z" fill="white"/>
<path d="M71.859 14.5422H47.9386C46.9263 14.5422 46.9131 14.5422 46.9131 15.4845C46.9131 20.2244 46.9131 24.9643 46.9131 29.7042C46.9131 34.4441 46.9131 39.2032 46.9131 43.9814C46.9131 44.7336 46.9483 44.7601 47.7933 44.7645H53.1364C54.197 44.7645 54.197 44.7645 54.197 43.8177C54.197 36.7949 54.197 29.7706 54.197 22.7448C54.197 21.7494 54.197 21.7449 55.3193 21.7449C60.4863 21.7449 65.3628 21.7449 69.9532 21.7449C70.521 21.7449 70.8071 21.568 70.9391 21.0724C71.4585 19.139 72.0086 17.2144 72.5323 15.281C72.7348 14.5377 72.7216 14.5156 71.9382 14.5156H71.8722" fill="white"/>
<path d="M55.2842 27.3377C55.3062 29.0764 55.2842 30.8196 55.2842 32.5583C55.2842 33.0494 55.469 33.2574 56.0192 33.2574C59.6634 33.2574 63.3075 33.2574 66.9517 33.2574C67.132 33.2868 67.3165 33.2433 67.465 33.1363C67.6134 33.0294 67.7137 32.8677 67.7439 32.6866C68.2104 30.9435 68.721 29.2047 69.1875 27.4615C69.3856 26.7315 69.2931 26.6475 68.4789 26.6475H62.3173C60.2399 26.6475 58.1626 26.6475 56.0896 26.6475C55.5527 26.6475 55.2974 26.8067 55.3062 27.3465" fill="white"/>
<path d="M0.000976562 48.8711V48.9729H110V48.8711H0.000976562Z" fill="white"/>
<path d="M104.428 51.149C103.891 51.1403 103.359 51.2401 102.861 51.4422C102.364 51.6444 101.912 51.9448 101.532 52.3258C101.187 52.6908 100.917 53.1206 100.737 53.5907C100.557 54.0607 100.472 54.5617 100.485 55.065C100.498 55.5684 100.609 56.0642 100.813 56.5242C101.017 56.9841 101.309 57.3992 101.673 57.7456C102.032 58.1044 102.459 58.3884 102.928 58.5813C103.397 58.7741 103.899 58.872 104.406 58.8693C105.22 58.8693 106.03 58.8693 106.844 58.8693C107.658 58.8693 108.398 58.8693 109.177 58.8693C109.687 58.8693 109.841 58.7056 109.832 58.3605C109.832 57.781 109.832 57.2058 109.832 56.6262C109.832 56.0466 109.832 55.4405 109.832 54.8565C109.832 54.4804 109.665 54.3212 109.133 54.33C107.812 54.33 106.461 54.3566 105.128 54.33C104.472 54.33 104.415 54.5689 104.419 54.945C104.423 55.3211 104.419 55.5954 105.101 55.5777C105.581 55.5777 106.065 55.5777 106.545 55.5777C106.91 55.5777 107.275 55.5777 107.641 55.5777C108.006 55.5777 108.266 55.6927 108.244 56.0201C108.224 56.3472 108.224 56.6752 108.244 57.0023C108.244 57.3164 108.103 57.4447 107.658 57.4447C107.002 57.4447 106.338 57.4447 105.687 57.4447H104.542C104.034 57.4525 103.536 57.2975 103.121 57.0023C102.859 56.8181 102.637 56.5841 102.465 56.3134C102.294 56.0427 102.178 55.7408 102.122 55.4249C102.067 55.1089 102.075 54.7852 102.144 54.472C102.213 54.1589 102.343 53.8626 102.526 53.6C102.79 53.2556 103.135 52.9829 103.53 52.8067C103.925 52.6306 104.358 52.5565 104.789 52.5913H108.094C109.344 52.5913 109.348 52.5913 109.309 51.64C109.309 51.3171 109.163 51.1489 108.684 51.1534C108.116 51.1534 107.548 51.1534 106.98 51.1534H106.039C105.497 51.1534 104.96 51.1534 104.419 51.1534" fill="white"/>
<path d="M46.2049 51.1186C44.8538 51.1186 43.4982 51.1186 42.147 51.1186H40.611C40.2953 51.1127 39.9801 51.1484 39.6736 51.2248C38.4721 51.5522 37.7327 52.5521 37.9571 53.5918C38.2388 54.8749 39.097 55.5252 40.5978 55.5474C41.2712 55.5474 41.949 55.5474 42.6268 55.5474C43.3045 55.5474 43.8635 55.5474 44.4797 55.5474C45.2631 55.5474 45.6372 55.8615 45.6416 56.4322C45.646 57.003 45.2279 57.3967 44.3696 57.4056C43.1681 57.4056 41.971 57.4056 40.7695 57.4056H39.3435C38.0892 57.4056 38.1112 57.4056 38.1156 58.3347C38.1156 58.7284 38.3268 58.8523 38.833 58.8435C39.81 58.8435 40.7827 58.8435 41.7597 58.8435H44.3036C46.0025 58.8435 46.9443 58.2727 47.1468 57.0384C47.3844 55.6359 46.8387 54.1803 44.0087 54.2997C42.9745 54.344 41.9314 54.2997 40.8927 54.2997C40.0125 54.2997 39.5724 54.0077 39.5988 53.4149C39.6252 52.822 40.0037 52.53 40.8971 52.53H45.5403C46.8607 52.53 46.8607 52.53 46.8123 51.5257C46.8123 51.2204 46.6758 51.0833 46.2357 51.0833" fill="white"/>
<path d="M14.3451 56.8436C14.0865 56.6112 13.8796 56.3265 13.7379 56.0082C13.5963 55.6899 13.5231 55.3452 13.5231 54.9965C13.5231 54.6478 13.5963 54.303 13.7379 53.9847C13.8796 53.6664 14.0865 53.3817 14.3451 53.1493C14.8227 52.7682 15.4167 52.565 16.0264 52.5742C16.5985 52.5742 17.1707 52.5742 17.7384 52.5742C19.358 52.5742 20.2207 53.052 20.608 54.2023C20.7335 54.5474 20.7781 54.9169 20.7385 55.2822C20.6988 55.6474 20.5758 55.9986 20.3791 56.3083C20.1319 56.7023 19.7787 57.0179 19.3604 57.2183C18.9421 57.4188 18.4758 57.496 18.0157 57.4409C17.6988 57.4409 17.3819 57.4409 17.065 57.4409H16.4709C15.7053 57.5169 14.9392 57.3023 14.3231 56.8392M15.8151 51.1451C14.7506 51.1397 13.7254 51.5488 12.9543 52.2866C12.5249 52.7081 12.207 53.2308 12.0295 53.8072C11.8519 54.3835 11.8204 54.9954 11.9377 55.5871C12.0765 56.4868 12.5345 57.3056 13.2272 57.8922C14.2395 58.777 15.5906 58.985 17.0826 58.8699C17.2543 58.8699 17.4215 58.8699 17.5932 58.8699C19.7321 59.0248 21.2065 58.0293 21.8579 56.7817C22.1728 56.2247 22.3401 55.5957 22.344 54.9551C22.3478 54.3145 22.1881 53.6836 21.8799 53.1228C21.1889 51.7955 19.8334 51.1363 17.9189 51.1318H16.7482C16.4401 51.1318 16.1276 51.1318 15.8195 51.1318" fill="white"/>
<path d="M32.926 51.6403C32.9524 53.2463 32.926 54.8523 32.926 56.5557L29.5811 53.556L27.1297 51.3439C27.0159 51.2305 26.876 51.1469 26.7225 51.1006C26.569 51.0543 26.4066 51.0467 26.2494 51.0784C26.0973 51.0982 25.9561 51.1686 25.8484 51.2785C25.7407 51.3884 25.6727 51.5313 25.6553 51.6846C25.6462 51.7772 25.6462 51.8706 25.6553 51.9633C25.6553 54.0869 25.6553 56.2106 25.6553 58.3343C25.6553 58.7767 25.9237 58.874 26.4563 58.8829C26.9888 58.8917 27.2485 58.7502 27.2397 58.3166C27.2177 56.8964 27.2397 55.4762 27.2397 54.056C27.2397 53.8923 27.1693 53.7153 27.3541 53.5206L29.5151 55.4806C30.6594 56.5247 31.7993 57.5733 32.948 58.613C33.1052 58.7962 33.3238 58.915 33.5623 58.9468C33.8009 58.9787 34.0428 58.9213 34.242 58.7855C34.3418 58.7005 34.4185 58.5913 34.4647 58.4682C34.5109 58.3451 34.5251 58.2122 34.506 58.0821C34.506 55.9275 34.506 53.7728 34.506 51.6182C34.506 51.2023 34.3388 51.0386 33.749 51.0342H33.7226C33.1241 51.0342 32.9348 51.1935 32.9436 51.6315" fill="white"/>
<path d="M95.89 51.1184C95.5511 51.2069 95.6611 51.4635 95.6611 51.6537C95.6611 53.1049 95.6611 54.5605 95.6611 56.0117C95.6611 56.1665 95.7271 56.339 95.5511 56.5116L94.2703 55.3657L89.8384 51.3838C89.7256 51.2681 89.5866 51.1815 89.4334 51.1314C89.2801 51.0813 89.117 51.0693 88.9581 51.0963C88.8037 51.111 88.6582 51.176 88.5438 51.2814C88.4294 51.3868 88.3524 51.5269 88.3244 51.6803C88.2996 51.771 88.2877 51.8649 88.2891 51.959C88.2891 54.1136 88.2891 56.2727 88.2891 58.4273C88.2891 58.8697 88.6016 58.9007 89.0594 58.9007C89.5171 58.9007 89.8868 58.8653 89.8692 58.4052C89.8384 57.6088 89.8692 56.8125 89.8692 56.0161C89.8692 55.2197 89.8692 54.3968 89.8692 53.5871L90.0144 53.5517C90.2565 53.7641 90.5073 53.9942 90.745 54.1933L95.5863 58.6397C95.7065 58.7748 95.8606 58.8748 96.0326 58.9293C96.2045 58.9838 96.3878 58.9907 96.5634 58.9494C96.722 58.9284 96.8669 58.8479 96.969 58.724C97.071 58.6001 97.1227 58.4419 97.1135 58.2813C97.1135 56.0013 97.1135 53.7199 97.1135 51.4369C97.1135 51.313 97.1443 51.1582 96.9419 51.114C96.7613 51.0731 96.5768 51.0523 96.3917 51.052C96.2179 51.0513 96.0448 51.0736 95.8768 51.1184" fill="white"/>
<path d="M58.1101 51.7773C58.1101 53.1046 58.1101 54.4009 58.1101 55.7105C58.1101 56.9272 57.2695 57.5244 55.6367 57.5377H54.7564C52.996 57.5377 52.2962 57.0732 52.0893 55.768C52.0767 55.6119 52.0767 55.4551 52.0893 55.299C52.0893 54.0956 52.0673 52.8922 52.0893 51.6932C52.0893 51.2508 51.8913 51.0827 51.2839 51.1048C50.4873 51.1313 50.4037 51.1535 50.4037 51.6932C50.4037 53.1754 50.3377 54.6575 50.5005 56.1396C50.6633 57.6218 51.6404 58.5597 53.4889 58.8562C54.5569 59.0158 55.6425 59.0158 56.7106 58.8562C58.2774 58.6394 59.184 57.9138 59.5405 56.7856C59.8486 55.8122 59.6462 54.8256 59.7122 54.016C59.7122 53.0957 59.7122 52.348 59.7122 51.5959C59.7122 51.4322 59.7606 51.2464 59.4877 51.1535C59.3241 51.0933 59.1514 51.0618 58.9772 51.0605C58.5018 51.0605 58.1453 51.3304 58.1409 51.764" fill="white"/>
<path d="M8.16554 51.1181C7.39093 51.1181 6.61632 51.1181 5.84171 51.1181H4.2881C2.46601 51.1181 1.09725 51.8481 0.44147 53.1046C-0.0278379 53.9975 -0.127487 55.0405 0.164196 56.0069C0.577906 57.5112 1.92467 59.0464 4.85585 58.8606C5.23435 58.8385 5.61726 58.8606 6.00016 58.8606C6.76156 58.8606 7.52737 58.8606 8.28877 58.8606C8.69368 58.8606 8.87413 58.7323 8.86532 58.4403C8.8532 58.2931 8.8532 58.1451 8.86532 57.9978C8.92254 57.5554 8.66727 57.3829 8.05551 57.3961C6.84958 57.4227 5.63926 57.3961 4.42894 57.3961C3.03817 57.3961 2.22835 56.9537 1.81024 55.9627C1.60298 55.4648 1.55379 54.9147 1.6694 54.3876C1.88066 53.3745 2.75209 52.4498 4.61379 52.525C5.34878 52.556 6.08818 52.5471 6.81437 52.525C7.25449 52.525 7.69461 52.525 8.16114 52.525C8.62766 52.525 8.86973 52.3834 8.84332 52.025C8.82947 51.8779 8.82947 51.7298 8.84332 51.5826C8.88293 51.211 8.67607 51.0605 8.17874 51.0605H8.14353" fill="white"/>
<path d="M79.095 51.1188C77.1013 51.1188 75.1076 51.1188 73.1138 51.1188C71.7935 51.1188 71.7935 51.1188 71.8331 52.0966C71.8331 52.4151 72.0047 52.539 72.4317 52.539H73.2723C73.6508 52.539 74.0249 52.539 74.4034 52.539C74.8699 52.539 75.0416 52.6673 75.0328 53.0124C75.0328 53.8973 75.0328 54.7821 75.0328 55.667C75.0328 56.5519 75.0328 57.4367 75.0328 58.3216C75.0328 58.4853 74.9843 58.6711 75.2528 58.764C75.9878 59.0427 76.7008 58.733 76.7008 58.1269C76.7008 56.4412 76.7008 54.7512 76.7008 53.0655C76.7008 52.6231 76.8945 52.4727 77.4754 52.4948C77.8759 52.4948 78.2808 52.4948 78.6813 52.4948H79.3195C79.7156 52.4948 79.9049 52.3576 79.8961 52.0523C79.882 51.9052 79.882 51.7571 79.8961 51.6099C79.9621 51.1675 79.7024 51.0215 79.1259 51.0215H79.0862" fill="white"/>
<path d="M63.972 51.1183C63.4439 51.1183 63.0918 51.1537 63.0918 51.658C63.127 52.7685 63.0918 53.8702 63.0918 54.9851C63.0918 56.1 63.0918 57.1707 63.0918 58.2635C63.0918 58.7059 63.2678 58.8785 63.8972 58.8696C65.8249 58.849 67.7541 58.849 69.6848 58.8696C70.2965 58.8696 70.565 58.7192 70.4858 58.2768C70.4708 58.1682 70.4708 58.058 70.4858 57.9494C70.5298 57.5689 70.3141 57.4185 69.786 57.4229C69.1654 57.4229 68.5449 57.4229 67.9243 57.4229C67.1453 57.4229 66.3663 57.4229 65.5873 57.4229C64.9447 57.4229 64.7422 57.2813 64.751 56.8079C64.7819 55.0913 64.751 53.3702 64.773 51.6536C64.773 51.2112 64.5442 51.1006 64.0204 51.1006H63.9764" fill="white"/>
<path d="M82.7719 52.0918L82.8034 57.9402C82.8064 58.4925 83.2565 58.9381 83.8088 58.9355L83.961 58.9348C84.5133 58.9323 84.9586 58.4825 84.9556 57.9302L84.9241 52.0818C84.9211 51.5295 84.471 51.0839 83.9187 51.0864L83.7665 51.0872C83.2142 51.0897 82.7689 51.5395 82.7719 52.0918Z" fill="white"/>
</svg>
