<svg width="97" height="97" viewBox="0 0 97 97" fill="none" xmlns="http://www.w3.org/2000/svg">
<ellipse opacity="0.35" cx="48.4998" cy="48.5" rx="48.4998" ry="48.5" fill="#D9D9D9"/>
<path d="M60.9018 70.424V65.5519C60.9018 62.9675 59.8751 60.489 58.0477 58.6616C56.2203 56.8342 53.7419 55.8076 51.1575 55.8076H31.669C29.0847 55.8076 26.6062 56.8342 24.7788 58.6616C22.9514 60.489 21.9248 62.9675 21.9248 65.5519V70.424" stroke="black" stroke-width="6.09016" stroke-linecap="round" stroke-linejoin="round"/>
<path d="M41.4129 46.0637C46.7945 46.0637 51.1572 41.7011 51.1572 36.3195C51.1572 30.9378 46.7945 26.5752 41.4129 26.5752C36.0313 26.5752 31.6687 30.9378 31.6687 36.3195C31.6687 41.7011 36.0313 46.0637 41.4129 46.0637Z" stroke="black" stroke-width="6.09016" stroke-linecap="round" stroke-linejoin="round"/>
<path d="M75.5181 70.4247V65.5526C75.5165 63.3936 74.7979 61.2962 73.4752 59.5898C72.1524 57.8835 70.3004 56.6648 68.21 56.125" stroke="black" stroke-width="6.09016" stroke-linecap="round" stroke-linejoin="round"/>
<path d="M58.4658 26.8916C60.5618 27.4283 62.4196 28.6473 63.7463 30.3564C65.073 32.0656 65.7931 34.1677 65.7931 36.3314C65.7931 38.495 65.073 40.5971 63.7463 42.3063C62.4196 44.0154 60.5618 45.2344 58.4658 45.7711" stroke="black" stroke-width="6.09016" stroke-linecap="round" stroke-linejoin="round"/>
</svg>
