<svg width="97" height="97" viewBox="0 0 97 97" fill="none" xmlns="http://www.w3.org/2000/svg">
<ellipse opacity="0.35" cx="48.4998" cy="48.5" rx="48.4998" ry="48.5" fill="#D9D9D9"/>
<path d="M48.8323 23.752V72.9163" stroke="black" stroke-width="5.58685" stroke-linecap="round" stroke-linejoin="round"/>
<path d="M60.0059 32.6904H43.2454C41.171 32.6904 39.1815 33.5145 37.7147 34.9813C36.2479 36.4482 35.4238 38.4376 35.4238 40.512C35.4238 42.5865 36.2479 44.5759 37.7147 46.0427C39.1815 47.5096 41.171 48.3336 43.2454 48.3336H54.4191C56.4935 48.3336 58.4829 49.1577 59.9498 50.6245C61.4166 52.0914 62.2407 54.0808 62.2407 56.1552C62.2407 58.2297 61.4166 60.2191 59.9498 61.686C58.4829 63.1528 56.4935 63.9769 54.4191 63.9769H35.4238" stroke="black" stroke-width="5.58685" stroke-linecap="round" stroke-linejoin="round"/>
</svg>
