<svg width="97" height="97" viewBox="0 0 97 97" fill="none" xmlns="http://www.w3.org/2000/svg">
<circle opacity="0.35" cx="48.5" cy="48.5" r="48.5" fill="#D9D9D9"/>
<path d="M48.5001 55.2063C52.2028 55.2063 55.2044 52.2047 55.2044 48.5021C55.2044 44.7994 52.2028 41.7979 48.5001 41.7979C44.7975 41.7979 41.7959 44.7994 41.7959 48.5021C41.7959 52.2047 44.7975 55.2063 48.5001 55.2063Z" stroke="black" stroke-width="4.7324" stroke-linecap="round" stroke-linejoin="round"/>
<path d="M65.0373 55.2044C64.7398 55.8784 64.6511 56.6261 64.7825 57.3511C64.9139 58.076 65.2595 58.7449 65.7747 59.2716L65.9088 59.4057C66.3244 59.8208 66.654 60.3137 66.879 60.8563C67.1039 61.3989 67.2197 61.9805 67.2197 62.5679C67.2197 63.1552 67.1039 63.7368 66.879 64.2794C66.654 64.822 66.3244 65.3149 65.9088 65.73C65.4937 66.1456 65.0008 66.4753 64.4582 66.7002C63.9156 66.9251 63.334 67.0409 62.7467 67.0409C62.1593 67.0409 61.5777 66.9251 61.0351 66.7002C60.4925 66.4753 59.9996 66.1456 59.5845 65.73L59.4504 65.596C58.9237 65.0808 58.2548 64.7352 57.5298 64.6037C56.8049 64.4723 56.0572 64.561 55.3832 64.8585C54.7222 65.1418 54.1585 65.6121 53.7614 66.2117C53.3644 66.8113 53.1513 67.5138 53.1484 68.233V68.6129C53.1484 69.7982 52.6775 70.9351 51.8393 71.7733C51.0012 72.6115 49.8643 73.0824 48.6789 73.0824C47.4936 73.0824 46.3567 72.6115 45.5185 71.7733C44.6803 70.9351 44.2095 69.7982 44.2095 68.6129V68.4117C44.1921 67.672 43.9527 66.9547 43.5223 66.3529C43.0919 65.7511 42.4903 65.2927 41.7959 65.0373C41.1219 64.7398 40.3742 64.6511 39.6493 64.7825C38.9243 64.9139 38.2554 65.2595 37.7287 65.7747L37.5946 65.9088C37.1795 66.3244 36.6866 66.654 36.144 66.879C35.6014 67.1039 35.0198 67.2197 34.4324 67.2197C33.8451 67.2197 33.2635 67.1039 32.7209 66.879C32.1783 66.654 31.6854 66.3244 31.2703 65.9088C30.8547 65.4937 30.5251 65.0008 30.3001 64.4582C30.0752 63.9156 29.9594 63.334 29.9594 62.7467C29.9594 62.1593 30.0752 61.5777 30.3001 61.0351C30.5251 60.4925 30.8547 59.9996 31.2703 59.5845L31.4044 59.4504C31.9196 58.9237 32.2652 58.2548 32.3966 57.5298C32.528 56.8049 32.4393 56.0572 32.1418 55.3832C31.8585 54.7222 31.3882 54.1585 30.7886 53.7614C30.1891 53.3644 29.4865 53.1513 28.7674 53.1484H28.3875C27.2021 53.1484 26.0652 52.6775 25.2271 51.8393C24.3889 51.0012 23.918 49.8643 23.918 48.6789C23.918 47.4936 24.3889 46.3567 25.2271 45.5185C26.0652 44.6803 27.2021 44.2095 28.3875 44.2095H28.5886C29.3283 44.1921 30.0456 43.9527 30.6475 43.5223C31.2493 43.0919 31.7077 42.4903 31.963 41.7959C32.2605 41.1219 32.3493 40.3742 32.2178 39.6493C32.0864 38.9243 31.7408 38.2554 31.2256 37.7287L31.0915 37.5946C30.6759 37.1795 30.3463 36.6866 30.1214 36.144C29.8964 35.6014 29.7807 35.0198 29.7807 34.4324C29.7807 33.8451 29.8964 33.2635 30.1214 32.7209C30.3463 32.1783 30.6759 31.6854 31.0915 31.2703C31.5066 30.8547 31.9995 30.5251 32.5421 30.3001C33.0847 30.0752 33.6663 29.9594 34.2537 29.9594C34.841 29.9594 35.4226 30.0752 35.9652 30.3001C36.5078 30.5251 37.0007 30.8547 37.4158 31.2703L37.5499 31.4044C38.0766 31.9196 38.7455 32.2652 39.4705 32.3966C40.1954 32.528 40.9431 32.4393 41.6171 32.1418H41.7959C42.4569 31.8585 43.0206 31.3882 43.4177 30.7886C43.8147 30.1891 44.0278 29.4865 44.0307 28.7674V28.3875C44.0307 27.2021 44.5016 26.0652 45.3398 25.2271C46.1779 24.3889 47.3148 23.918 48.5002 23.918C49.6855 23.918 50.8224 24.3889 51.6606 25.2271C52.4988 26.0652 52.9697 27.2021 52.9697 28.3875V28.5886C52.9725 29.3077 53.1856 30.0103 53.5827 30.6098C53.9797 31.2094 54.5434 31.6798 55.2044 31.963C55.8784 32.2605 56.6261 32.3493 57.3511 32.2178C58.076 32.0864 58.7449 31.7408 59.2716 31.2256L59.4057 31.0915C59.8208 30.6759 60.3137 30.3463 60.8563 30.1214C61.3989 29.8964 61.9805 29.7807 62.5679 29.7807C63.1552 29.7807 63.7368 29.8964 64.2794 30.1214C64.822 30.3463 65.3149 30.6759 65.73 31.0915C66.1456 31.5066 66.4753 31.9995 66.7002 32.5421C66.9251 33.0847 67.0409 33.6663 67.0409 34.2537C67.0409 34.841 66.9251 35.4226 66.7002 35.9652C66.4753 36.5078 66.1456 37.0007 65.73 37.4158L65.596 37.5499C65.0808 38.0766 64.7352 38.7455 64.6037 39.4705C64.4723 40.1954 64.561 40.9431 64.8585 41.6171V41.7959C65.1418 42.4569 65.6121 43.0206 66.2117 43.4177C66.8113 43.8147 67.5138 44.0278 68.233 44.0307H68.6129C69.7982 44.0307 70.9351 44.5016 71.7733 45.3398C72.6115 46.1779 73.0824 47.3148 73.0824 48.5002C73.0824 49.6855 72.6115 50.8224 71.7733 51.6606C70.9351 52.4988 69.7982 52.9697 68.6129 52.9697H68.4117C67.6926 52.9725 66.99 53.1856 66.3905 53.5827C65.7909 53.9797 65.3206 54.5434 65.0373 55.2044V55.2044Z" stroke="black" stroke-width="4.7324" stroke-linecap="round" stroke-linejoin="round"/>
</svg>
