<svg width="97" height="97" viewBox="0 0 97 97" fill="none" xmlns="http://www.w3.org/2000/svg">
<ellipse opacity="0.35" cx="48.4998" cy="48.5" rx="48.4998" ry="48.5" fill="#D9D9D9"/>
<path d="M54.8801 35.0512C54.3641 35.5347 54.075 36.1849 54.075 36.862C54.075 37.5391 54.3641 38.1893 54.8801 38.6729L59.3863 42.8119C59.9127 43.2859 60.6205 43.5514 61.3577 43.5514C62.0949 43.5514 62.8027 43.2859 63.3292 42.8119L73.9469 33.0592C75.3631 35.9338 75.7919 39.1365 75.1762 42.2406C74.5604 45.3447 72.9294 48.2027 70.5005 50.4337C68.0715 52.6648 64.96 54.1629 61.5806 54.7285C58.2012 55.2941 54.7145 54.9002 51.5849 53.5994L32.1238 71.475C31.0034 72.5042 29.4838 73.0824 27.8992 73.0824C26.3147 73.0824 24.7951 72.5042 23.6747 71.475C22.5543 70.4459 21.9248 69.0501 21.9248 67.5947C21.9248 66.1392 22.5543 64.7434 23.6747 63.7143L43.1358 45.8386C41.7196 42.9641 41.2908 39.7613 41.9066 36.6573C42.5223 33.5532 44.1533 30.6952 46.5823 28.4641C49.0112 26.2331 52.1227 24.7349 55.5021 24.1694C58.8815 23.6038 62.3683 23.9977 65.4978 25.2985L54.9083 35.0253L54.8801 35.0512Z" stroke="black" stroke-width="5.45105" stroke-linecap="round" stroke-linejoin="round"/>
</svg>
