<svg width="97" height="97" viewBox="0 0 97 97" fill="none" xmlns="http://www.w3.org/2000/svg">
<ellipse opacity="0.35" cx="48.4998" cy="48.5" rx="48.4998" ry="48.5" fill="#D9D9D9"/>
<path d="M70.278 73.0839V67.6211C70.278 64.7234 69.1269 61.9444 67.078 59.8954C65.029 57.8464 62.25 56.6953 59.3523 56.6953H37.5009C34.6032 56.6953 31.8242 57.8464 29.7753 59.8954C27.7263 61.9444 26.5752 64.7234 26.5752 67.6211V73.0839" stroke="black" stroke-width="5.28664" stroke-linecap="round" stroke-linejoin="round"/>
<path d="M48.4264 45.7704C54.4605 45.7704 59.3521 40.8788 59.3521 34.8447C59.3521 28.8106 54.4605 23.9189 48.4264 23.9189C42.3923 23.9189 37.5007 28.8106 37.5007 34.8447C37.5007 40.8788 42.3923 45.7704 48.4264 45.7704Z" stroke="black" stroke-width="5.28664" stroke-linecap="round" stroke-linejoin="round"/>
</svg>
