<svg width="97" height="97" viewBox="0 0 97 97" fill="none" xmlns="http://www.w3.org/2000/svg">
<ellipse opacity="0.35" cx="48.4998" cy="48.5" rx="48.4998" ry="48.5" fill="#D9D9D9"/>
<path d="M73.0817 46.2527V48.5142C73.0786 53.8152 71.3621 58.9731 68.1882 63.2189C65.0142 67.4646 60.5529 70.5705 55.4695 72.0735C50.3861 73.5765 44.953 73.3961 39.9806 71.559C35.0081 69.7219 30.7627 66.3267 27.8776 61.8797C24.9924 57.4327 23.622 52.1722 23.9708 46.8827C24.3196 41.5933 26.3688 36.5582 29.813 32.5286C33.2571 28.499 37.9115 25.6906 43.0821 24.5224C48.2527 23.3541 53.6625 23.8886 58.5045 26.0461" stroke="black" stroke-width="4.75783" stroke-linecap="round" stroke-linejoin="round"/>
<path d="M73.0822 28.8496L48.5001 53.4564L41.1255 46.0817" stroke="black" stroke-width="4.75783" stroke-linecap="round" stroke-linejoin="round"/>
</svg>
