<svg width="97" height="97" viewBox="0 0 97 97" fill="none" xmlns="http://www.w3.org/2000/svg">
<ellipse opacity="0.35" cx="48.4998" cy="48.5" rx="48.4998" ry="48.5" fill="#D9D9D9"/>
<path d="M33.6126 60.9035V58.1967C33.6126 56.761 33.0422 55.384 32.027 54.3688C31.0117 53.3536 29.6348 52.7832 28.199 52.7832H17.372C15.9363 52.7832 14.5593 53.3536 13.5441 54.3688C12.5288 55.384 11.9585 56.761 11.9585 58.1967V60.9035" stroke="black" stroke-width="3.38345" stroke-linecap="round" stroke-linejoin="round"/>
<path d="M85.0405 60.9035V58.1967C85.0405 56.761 84.4702 55.384 83.455 54.3688C82.4397 53.3536 81.0628 52.7832 79.627 52.7832H68.8C67.3642 52.7832 65.9873 53.3536 64.9721 54.3688C63.9568 55.384 63.3865 56.761 63.3865 58.1967V60.9035" stroke="black" stroke-width="3.38345" stroke-linecap="round" stroke-linejoin="round"/>
<path d="M22.7853 47.37C25.7751 47.37 28.1989 44.9463 28.1989 41.9565C28.1989 38.9667 25.7751 36.543 22.7853 36.543C19.7955 36.543 17.3718 38.9667 17.3718 41.9565C17.3718 44.9463 19.7955 47.37 22.7853 47.37Z" stroke="black" stroke-width="3.38345" stroke-linecap="round" stroke-linejoin="round"/>
<path d="M74.2136 47.37C77.2034 47.37 79.6271 44.9463 79.6271 41.9565C79.6271 38.9667 77.2034 36.543 74.2136 36.543C71.2238 36.543 68.8 38.9667 68.8 41.9565C68.8 44.9463 71.2238 47.37 74.2136 47.37Z" stroke="black" stroke-width="3.38345" stroke-linecap="round" stroke-linejoin="round"/>
<line x1="40.7171" y1="48.3844" x2="56.281" y2="48.3844" stroke="black" stroke-width="3.38345" stroke-linecap="round"/>
</svg>
