<svg width="1440" height="584" viewBox="0 0 1440 584" fill="none" xmlns="http://www.w3.org/2000/svg">
<g clip-path="url(#clip0_172_10745)">
<path d="M1581.46 0H-34.9055V581.804H1581.46V0Z" fill="#C4FFE5"/>
<path d="M189.5 103.5C198.3 89.9 220.5 83.8333 230.5 82.5L248 198.5C234.4 201.3 213.333 197.333 204.5 195C196.167 191.667 178.7 179.2 175.5 156C171.5 127 178.5 120.5 189.5 103.5Z" fill="#90BDA9"/>
<path d="M1214.5 165.5L1270.5 110.5V582H1214.5V165.5Z" fill="#90BDA9"/>
<path d="M914.055 531.093C914.055 531.093 862.158 550.795 851.489 580.517L850.352 582.292L839.035 581.973C839.035 581.973 827.246 563.557 847.279 557.576L848.575 556.449C848.575 556.449 874.284 530.765 890.451 529.957C906.619 529.15 914.055 531.093 914.055 531.093Z" fill="#093B36"/>
<path d="M225.63 361.165L223.374 423.191C223.374 423.191 216.578 434.498 206.532 413.18C206.532 413.18 202.322 406.719 200.065 413.82C197.808 420.92 199.737 425.126 199.737 425.126C199.737 425.126 205.236 439.024 219.466 442.255C219.466 442.255 224.637 441.926 223.348 455.176L223.668 484.251L257.941 484.57L258.269 475.846C258.269 475.846 259.886 469.066 266.69 468.738C277.359 463.892 278.007 451.912 278.007 451.912C278.007 451.912 278.007 438.662 268.635 445.451L266.041 450.617C266.041 450.617 258.934 456.11 256.341 448.354L256.585 420.171C256.585 420.171 257.191 415.965 263.987 415.443C270.782 414.922 280.23 402.967 280.23 402.967C280.23 402.967 286.537 382.979 277.931 382.011C277.931 382.011 273.923 381.406 271.38 392.426C268.837 403.447 257.444 400.09 257.444 400.09C257.444 400.09 254.075 398.408 254.918 389.557C255.76 380.707 255.28 360.113 255.28 360.113C255.28 360.113 250.067 345.702 239.996 345.576C229.925 345.45 225.63 361.165 225.63 361.165Z" fill="#4EB270"/>
<path d="M809.933 109.836L815.752 121.143L821.579 126.476L834.673 132.13L846.799 134.552L862.806 135.192L865.552 123.885L842.428 114.841L824.972 110.963L809.933 109.836Z" fill="#442E1A"/>
<path d="M852.053 135.923L853.266 147.474L855.691 146.094L859.169 147.634L862.722 137.942L863.286 135.032H860.053C859.809 135.032 852.533 134.712 852.533 134.712L852.053 135.923Z" fill="#442E1A"/>
<path d="M815.474 121.706L811.348 127.519C811.348 127.519 808.56 135.393 808.678 135.764C808.796 136.134 809.049 144.117 809.049 144.117L808.805 145.573L805.891 146.902L803.828 151.108L803.222 154.869L806.017 160.682L803.104 164.232L802.986 171.131C802.986 171.131 802.144 180.704 813.529 182.639C824.913 184.574 844.938 184.944 844.938 184.944C844.938 184.944 857.67 178.525 852.575 167.379C852.575 167.379 861.67 163.256 862.402 154.171C862.402 154.171 860.945 144.361 854.394 146.902L853.266 147.474L852.786 136.958L852.062 134.771C852.062 134.771 828.93 134.552 815.474 121.706Z" fill="url(#paint0_linear_172_10745)"/>
<path d="M813.773 180.099L813.655 184.827L814.623 196.815C814.623 196.815 821.41 200.575 824.812 200.811C828.214 201.046 832.93 209.661 832.93 209.661L834.875 214.38L836.812 207.961L838.875 199.969L849.064 193.307L848.576 182.639L845.788 184.583L834.269 184.827L818.143 183.144L813.773 180.099Z" fill="url(#paint1_linear_172_10745)"/>
<path d="M834.833 135.436L834.269 139.877L845.502 143.108L846.066 138.91L834.833 135.436Z" fill="#442E1A"/>
<path d="M812.922 132.693L822.707 132.609L823.431 133.577V136.807L822.059 137.539H812.762L812.518 136.488L812.922 132.693Z" fill="#442E1A"/>
<path d="M813.655 187.249C813.655 187.249 808.072 189.908 808.443 196.209C808.669 200.067 809.113 203.909 809.773 207.717L827.962 248.182L833.418 257.874C833.418 257.874 836.088 259.809 838.269 259.329C840.45 258.85 841.544 254.113 841.544 254.113L848.938 234.857L853.544 215.196L855.363 196.175V190C855.363 190 853.182 185.878 849.544 184.549L849.182 186.366L849.906 190.362C849.906 190.362 846.395 196.419 839.843 199.086L838.386 201.147L834.875 215.314L832.206 207.078L827.844 202.115L825.318 200.777L818.893 199.204C818.893 199.204 808.923 197.058 813.655 187.249Z" fill="#1B1C1B"/>
<path d="M883.016 200.053C883.016 200.053 883.496 242.739 891.74 248.224L910.821 272.781L909.979 274.716L900.632 285.863L890.771 295.234L881.231 302.982L880.751 304.598L882.528 332.359L884.144 333.327L905.836 317.553L933.321 293.325L944.15 281.698C945.484 279.703 946.124 277.325 945.972 274.931C945.82 272.537 944.884 270.259 943.308 268.448C937.809 261.508 931.519 253.751 931.519 253.751L920.522 236.791L907.268 218.056L894.637 203.031C894.637 203.031 892.574 197.908 887.782 198.514C882.991 199.119 883.016 200.053 883.016 200.053Z" fill="#1B1C1B"/>
<path d="M776.469 208.525C776.469 208.525 785.033 219.832 780.023 263.931L776.949 272.167L769.371 284.601L793.462 303.824L795.079 313.196L794.237 337.096L777.741 328.684L751.738 311.101L743.174 304.321L736.867 297.372L734.762 291.718L737.338 282.498L765.472 228.228L774.204 212.395L776.469 208.525Z" fill="#1B1C1B"/>
<path d="M855.363 191.641C855.363 191.641 858.276 189.462 861.308 194.165L878.284 198.287C878.284 198.287 883.134 197.681 883.496 200.104C883.858 202.527 883.622 212.58 883.622 212.58C883.622 212.58 883.858 220.942 883.984 221.548C884.111 222.154 885.441 231.357 885.441 231.357L887.74 240.443L890.266 246.256L892.085 251.346C892.085 251.346 891.715 255.106 890.14 255.712C888.565 256.317 888.683 264.797 888.683 264.797L884.473 282.599L879.993 295.563L883.025 333.117L885.685 357.514H794.498L794.254 331.703L794.498 310.268L790.128 290.397L781.21 266.11L780.562 254.332L781.454 239.231V228.959L778.869 215.39L776.924 208.281L789.622 205.757L798.346 202.123L802.556 198.968L805.588 197.286L807.171 197.647L812.99 216.912L827.414 247.316L832.467 256.646L834.648 258.824L839.136 258.942L840.955 256.04L849.443 233.267L853.544 212.672L854.883 201.526L855.363 191.641Z" fill="#105476"/>
<path d="M819.244 357.379L819 334.244L904.487 334L904.605 357.497L819.244 357.379Z" fill="#66BEA6"/>
<path d="M918.257 356.967C918.257 356.967 935.157 301.729 960.621 296.639C984.873 286.948 1008.62 304.152 1008.62 304.152L1019.41 312.262L1026.32 321.112L1030.2 332.376L1030.93 344.852L1029.72 356.967H918.257Z" fill="#093B36"/>
<path d="M717.617 235.664V330.635L671.539 330.45C669.518 324.536 668.163 318.416 667.497 312.203C666.655 302.991 666.369 289.909 666.369 289.909L668.626 263.418L638.715 267.136L640.332 329.482L608.973 328.515L607.028 254.736L717.617 235.664Z" fill="#093B36"/>
<path d="M667.413 264.293L639.524 268.045L640.256 304.27L641.587 330.433L642.681 343.641C642.681 343.641 644.98 348.849 643.523 349.942C642.067 351.036 629.941 357.085 629.941 357.085H691.656C691.656 357.085 681.484 349.698 678.478 345.593C675.472 341.488 669.99 327.666 669.99 327.666C669.99 327.666 666.352 307.677 666.832 301.14C667.094 296.651 666.973 292.148 666.47 287.68L668.154 270.476L669.122 263.939L667.413 264.293Z" fill="#093B36"/>
<path d="M596.848 285.409L597.976 331.123L609.133 330.963L608.165 283.339C608.165 283.339 603.955 278.653 601.37 279.781C598.784 280.908 596.848 285.409 596.848 285.409Z" fill="#4EB270"/>
<path d="M618.548 331.165C618.548 331.165 619.154 349.454 614.666 355.638C609.209 356.605 598.902 355.755 598.902 355.755C598.902 355.755 591.627 350.792 591.391 331.409L618.548 331.165Z" fill="#66BEA6"/>
<path d="M732.976 356.807C732.976 356.807 736.345 341.302 750.441 341.134C764.537 340.966 769.808 356.319 769.808 356.319L732.976 356.807Z" fill="#093B36"/>
<path d="M804.434 527.862L804.763 555.961C804.763 555.961 817.394 553.058 829.663 563.717L830.749 564.609V527.778L804.434 527.862Z" fill="#2A83C6"/>
<path d="M851.001 528.384L851.489 563.515C851.489 563.515 861.796 552.856 877.593 555.035L877.105 526.685L851.001 528.384Z" fill="#2A83C6"/>
<path d="M851.489 564.121L851.363 582.049H895.378C895.378 582.049 880.574 568.361 877.315 559.275L877.189 554.674C877.189 554.674 860.457 552.495 851.489 564.121Z" fill="#1C1C1C"/>
<path d="M830.749 565.214L831.111 581.804H786.978C786.978 581.804 801.647 568.117 805.773 556.129C805.773 556.129 817.419 551.889 830.749 565.214Z" fill="#1C1C1C"/>
<path d="M962.558 528.989C962.558 528.989 990.531 545.461 999.255 560.326C999.255 560.326 1010.25 565.012 1007.51 574.376C1004.76 583.739 1000.06 582.132 1000.06 582.132L991.98 581.804C991.98 581.804 979.349 576.799 983.736 565.82L984.064 563.717C984.064 563.717 966.76 545.301 956.739 541.263C946.718 537.225 934.104 528.989 934.104 528.989H962.558Z" fill="#093B36"/>
<path d="M920.033 528.021C920.033 528.021 914.375 551.114 915.511 558.383C915.511 558.383 909.044 570.161 912.926 576.638C916.808 583.116 927.477 581.484 927.477 581.484C927.477 581.484 940.243 576.319 930.382 560.646L928.606 558.383L932.647 528.501L920.033 528.021Z" fill="#093B36"/>
<path d="M481.653 393.545V445.88C481.653 445.88 492.6 452.905 489.897 460.897L490.141 581.796H459.338V554.875H354.079V581.282L323.521 581.762L324.498 452.434C324.498 452.434 328.624 443.23 334.687 443.474L336.143 441.792L335.899 388.497L355.545 377.351L465.157 377.595L481.653 393.545Z" fill="#00996B"/>
<path d="M149.398 391.981V444.308C149.398 444.308 160.345 451.341 157.642 459.333L157.886 580.231H127.083V553.311H21.833V579.727L-8.72565 580.206L-7.75727 450.828C-7.75727 450.828 -3.63113 441.624 2.43176 441.86L3.88853 440.177L3.64433 386.874L23.2898 375.728L132.902 375.971L149.398 391.981Z" fill="#00996B"/>
<path d="M177.776 480.373L305.181 481.988C305.181 481.988 300.33 564.365 273.182 579.575H214.961C214.961 579.575 190.078 573.409 177.776 480.373Z" fill="#49DEFF"/>
<path d="M1269.83 109.836L1269.95 581.443L1580.61 581.804L1580.48 109.836H1269.83Z" fill="#0B7F76"/>
<path d="M237.38 178.955C262.224 178.955 282.364 158.835 282.364 134.015C282.364 109.195 262.224 89.0742 237.38 89.0742C212.537 89.0742 192.397 109.195 192.397 134.015C192.397 158.835 212.537 178.955 237.38 178.955Z" fill="#FAFAFA"/>
<path d="M272.493 134.779C272.962 107.128 247.693 94.7937 235 92.0829L251.989 87C265.268 91.744 292.412 107.433 294.755 132.238C297.098 157.042 282.062 172.392 274.251 176.967L243.787 179C253.161 175.781 272.025 162.43 272.493 134.779Z" fill="#DBDBDB"/>
<path fill-rule="evenodd" clip-rule="evenodd" d="M298.498 138.617C298.498 170.197 272.873 195.798 241.262 195.798C209.652 195.798 184.027 170.197 184.027 138.617C184.027 107.036 209.652 81.4355 241.262 81.4355C272.873 81.4355 298.498 107.036 298.498 138.617ZM282.364 134.015C282.364 158.835 262.224 178.955 237.38 178.955C212.537 178.955 192.397 158.835 192.397 134.015C192.397 109.195 212.537 89.0742 237.38 89.0742C262.224 89.0742 282.364 109.195 282.364 134.015Z" fill="#1B1C1B"/>
<path d="M1571.78 117.626H1279.14V581.686H1571.78V117.626Z" fill="#093B36"/>
<path d="M1300.38 142.544L1301.72 242.975L1315.91 243.337L1315.42 141.089L1300.38 142.544Z" fill="#0B7F76"/>
<path d="M1321.97 147.146L1322.33 242.975L1336.64 243.093L1337.24 147.996L1321.97 147.146Z" fill="#0B7F76"/>
<path d="M1343.55 166.773L1344.03 241.999H1357.86V166.529L1343.55 166.773Z" fill="#091C27"/>
<path d="M1376.41 131.397L1376.16 242.975L1391.81 243.093L1391.69 131.885L1376.41 131.397Z" fill="#091C27"/>
<path d="M1404.18 146.784V242.605L1419.34 242.731L1419.09 145.455L1404.18 146.784Z" fill="#0B7F76"/>
<path d="M1423.09 151.386L1423.34 242.849H1434.74L1434.49 150.78L1423.09 151.386Z" fill="#091C27"/>
<path d="M1285.1 276.289L1298.56 269.744L1337.73 347.696L1324.21 354.906L1285.1 276.289Z" fill="#091C27"/>
<path d="M1307.48 278.889L1342.64 354.241L1354.04 348.369L1316.27 275.558L1307.48 278.889Z" fill="#091C27"/>
<path d="M1364.65 249.873L1364.89 357.21L1380.17 357.454L1380.41 250.605L1364.65 249.873Z" fill="#091C27"/>
<path d="M1382.76 356.647L1384.05 276.693H1395.69L1396.01 357.127L1382.76 356.647Z" fill="#091C27"/>
<path d="M1401.51 268.129L1401.67 357.455L1430.12 357.127L1427.87 267.321L1401.51 268.129Z" fill="#0B7F76"/>
<path d="M1440.56 251.329L1438.13 357.691L1463.84 357.211L1464.32 251.329H1440.56Z" fill="#091C27"/>
<path d="M1298.44 364.724L1298.69 464.061L1314.45 463.573V366.171L1298.44 364.724Z" fill="#091C27"/>
<path d="M1322.94 367.869L1322.69 464.06H1329.72L1329.97 365.935L1322.94 367.869Z" fill="#0B7F76"/>
<path d="M1349.86 367.146L1350.34 463.817L1361.25 464.061L1361.74 367.626L1349.86 367.146Z" fill="#0B7F76"/>
<path d="M1370.23 373.927L1422.37 451.702L1412.67 460.905L1360.77 380.472L1370.23 373.927Z" fill="#091C27"/>
<path d="M1423.58 370.049L1422.85 463.572L1435.71 463.816L1436.19 369.805L1423.58 370.049Z" fill="#091C27"/>
<path d="M1311.71 484.722L1311.43 580.105C1311.43 580.371 1311.48 580.634 1311.58 580.88C1311.68 581.126 1311.83 581.35 1312.02 581.538C1312.2 581.726 1312.43 581.876 1312.67 581.978C1312.92 582.08 1313.18 582.132 1313.45 582.132H1351.45C1351.98 582.132 1352.5 581.92 1352.87 581.543C1353.25 581.166 1353.46 580.655 1353.46 580.122L1353.75 486.573C1353.76 486.188 1353.63 485.814 1353.39 485.514C1353.15 485.215 1352.81 485.01 1352.43 484.935C1352.05 484.861 1351.66 484.922 1351.33 485.107C1350.99 485.293 1350.73 485.592 1350.59 485.95C1344.87 500.395 1331.94 522.453 1315.59 483.931C1315.4 483.507 1315.08 483.159 1314.67 482.946C1314.25 482.733 1313.78 482.667 1313.33 482.76C1312.88 482.852 1312.47 483.098 1312.17 483.455C1311.88 483.812 1311.72 484.259 1311.71 484.722Z" fill="#0B7F76"/>
<path d="M1361.09 487.153L1361.77 580.45C1361.77 580.935 1361.97 581.4 1362.31 581.744C1362.65 582.087 1363.12 582.282 1363.6 582.284H1401.98C1402.47 582.284 1402.93 582.091 1403.27 581.749C1403.62 581.407 1403.81 580.942 1403.81 580.458L1404.1 486.505C1404.1 486.133 1403.97 485.772 1403.73 485.485C1403.49 485.199 1403.16 485.004 1402.79 484.935C1402.43 484.866 1402.05 484.928 1401.72 485.108C1401.39 485.289 1401.14 485.578 1401.01 485.925C1395.44 500.058 1381.38 521.864 1365.45 486.505C1364.32 483.982 1361.1 484.402 1361.09 487.153Z" fill="#091C27"/>
<path d="M1410.08 483.275L1410.56 581.805L1452.6 581.485L1452.76 484.891H1449.85C1449.85 484.891 1446.13 502.179 1435.3 506.217C1424.47 510.255 1413.8 487.154 1413.8 487.154L1412.51 482.796L1410.08 483.275Z" fill="#091C27"/>
<path d="M833.268 340.952L834.84 346.796H834.864L836.76 340.952H838.632L840.408 346.796H840.432L842.136 340.952H844.584L841.692 350H839.292L837.708 344.756H837.684L835.908 350H833.52L830.82 340.952H833.268ZM850.322 342.944H847.526V344.456H850.178V346.448H847.526V348.008H850.322V350H845.174V340.952H850.322V342.944ZM854.124 340.952V348.008H856.944V350H851.772V340.952H854.124ZM864.181 341.168V343.988C863.941 343.668 863.637 343.424 863.269 343.256C862.901 343.088 862.517 343.004 862.117 343.004C861.397 343.004 860.813 343.248 860.365 343.736C859.925 344.216 859.705 344.808 859.705 345.512C859.705 346.224 859.929 346.812 860.377 347.276C860.833 347.74 861.425 347.972 862.153 347.972C862.537 347.972 862.909 347.888 863.269 347.72C863.629 347.544 863.933 347.308 864.181 347.012V349.82C863.965 349.892 863.761 349.952 863.569 350C863.377 350.056 863.189 350.104 863.005 350.144C862.861 350.176 862.713 350.2 862.561 350.216C862.417 350.232 862.265 350.24 862.105 350.24C861.473 350.24 860.865 350.128 860.281 349.904C859.705 349.672 859.181 349.344 858.709 348.92C858.213 348.472 857.845 347.96 857.605 347.384C857.373 346.8 857.257 346.172 857.257 345.5C857.257 344.884 857.369 344.288 857.593 343.712C857.825 343.136 858.157 342.628 858.589 342.188C859.021 341.748 859.529 341.4 860.113 341.144C860.697 340.88 861.301 340.74 861.925 340.724C861.941 340.724 861.957 340.724 861.973 340.724C861.997 340.724 862.017 340.724 862.033 340.724C862.409 340.724 862.773 340.764 863.125 340.844C863.485 340.924 863.837 341.036 864.181 341.18V341.168ZM870.183 340.652C871.487 340.66 872.647 341.1 873.663 341.972C874.679 342.836 875.187 343.952 875.187 345.32C875.187 346.784 874.715 347.98 873.771 348.908C872.835 349.836 871.639 350.3 870.183 350.3C868.735 350.3 867.539 349.836 866.595 348.908C865.651 347.98 865.179 346.784 865.179 345.32C865.179 343.952 865.687 342.836 866.703 341.972C867.719 341.1 868.879 340.664 870.183 340.664V340.652ZM870.183 342.932C869.479 342.94 868.875 343.188 868.371 343.676C867.875 344.156 867.627 344.708 867.627 345.332C867.627 346.108 867.875 346.752 868.371 347.264C868.875 347.776 869.479 348.032 870.183 348.032C870.887 348.032 871.487 347.776 871.983 347.264C872.487 346.752 872.739 346.108 872.739 345.332C872.739 344.708 872.487 344.156 871.983 343.676C871.487 343.188 870.887 342.944 870.183 342.944V342.932ZM875.736 350L877.272 340.952H879.588L881.424 345.788L883.368 340.952H885.708L887.076 350H884.724L884.064 344.792H884.04L881.868 350H880.932L878.856 344.792H878.832L878.076 350H875.736ZM893.225 342.944H890.429V344.456H893.081V346.448H890.429V348.008H893.225V350H888.077V340.952H893.225V342.944Z" fill="#1D1D1B"/>
<path d="M561.599 357.127L1032.89 357.287L1033.21 582.133L1015.91 581.804L1016.56 531.093L580.68 531.412L581 582.133H561.11L561.599 357.127Z" fill="#00AE7A"/>
<path d="M1074.43 477.79L1212.53 477.143C1212.53 477.143 1212.21 513.317 1203.48 530.142C1201.55 541.449 1190.85 560.193 1190.85 560.193C1190.85 560.193 1182.43 576.017 1171.48 582.158C1165.34 583.126 1122.64 581.83 1122.64 581.83C1122.64 581.83 1082.52 559.52 1074.43 477.79Z" fill="#49DEFF"/>
<path d="M1142.34 479.565L1154.63 467.931L1180.01 440.657L1182.93 437.098C1182.93 437.098 1211.7 429.989 1231.59 448.405C1231.59 448.405 1242.26 427.895 1208.01 415.595L1194.43 413.492L1198.79 397.18L1199.28 380.22L1197.82 367.778L1185.05 379.084L1173.73 390.559L1159.83 411.069L1150.59 433.085L1148.81 436.316L1152.17 411.919L1152.65 395.094L1152.01 384.754L1148.45 372.64L1139.56 355.815L1127.43 338.047L1122.1 331.746L1124.52 378.748L1124.85 405.399L1104.8 382.786L1087.05 366.625L1077.19 359.356L1086.24 392.704C1086.24 392.704 1094 418.228 1100.95 424.849V425.977C1100.95 425.977 1068.46 422.426 1053.1 443.424C1053.1 443.424 1048.57 453.764 1051.97 460.25C1051.97 460.25 1069.26 444.266 1096.1 448.615C1096.1 448.615 1113.73 449.263 1120.03 458.475L1127.61 467.678L1133.6 480.6L1142.34 479.565Z" fill="#4EB270"/>
<path d="M815.133 194L813 182C816.982 183.6 835.993 184.667 845 185C838.173 190.6 822.244 193.333 815.133 194Z" fill="#B78C6E"/>
<path d="M819 354.5C810.2 320.9 817.5 267.501 823.5 253C829.5 238.5 811.059 218.036 806.5 197.5C804.1 196.3 801.833 199.334 801 201L792.5 205C790.333 205.834 785.4 207.4 783 207C780.6 206.6 778 207.834 777 208.5L779.5 216C783.1 237.2 781.667 257.167 780.5 264.5L782 267.5L788 283.5L794.5 308.5V337.5V357.5H819V354.5Z" fill="#0C3C54"/>
<path d="M230 580C211.2 524.8 223.833 491.333 232.5 481.5L177.5 480.5L182 508C184 516.667 189.5 538.1 195.5 554.5C201.5 570.9 210.667 578.333 214.5 580H230Z" fill="#31B1CD"/>
<path d="M1122.5 531.5C1111.3 493.9 1127.17 479.5 1136.5 477L1075 478.5V484L1079.5 506.5L1087 531.5C1089.67 537.167 1096 550.7 1100 559.5C1104 568.3 1116.67 577.833 1122.5 581.5H1165.5C1155.83 580.5 1133.7 569.1 1122.5 531.5Z" fill="#31B1CD"/>
<path d="M460.5 455.5L355 377.5L336 388.5V443C329.2 443.4 324.833 449.833 323.5 453V581.5H355V555.5H459.5L460.5 455.5Z" fill="#006A4A"/>
<path d="M128 455.5L22.5 377.5L3.5 388.5V443C-3.3 443.4 -7.66667 449.833 -9 453V581.5H22.5V555.5H127L128 455.5Z" fill="#006A4A"/>
<path d="M236 354.5C239.6 347.7 246.833 349.334 250 351C248 347 242.5 345.667 240 345.5L234.5 347C230.9 347.4 226.667 357.5 225 362.5L223.5 421.5C223.167 423.5 221.6 427.3 218 426.5C214.4 425.7 210.833 421.167 209.5 419L207 413C206.167 412.167 204.2 410.5 203 410.5C201.8 410.5 200.5 412.167 200 413C199.833 415.333 199.6 420.9 200 424.5C200.4 428.1 203.167 431.333 204.5 432.5C206.5 434.833 212 439.9 218 441.5C224 443.1 224.167 445.833 223.5 447V481H256C242 475.4 236.833 442.333 236 426.5C234.5 405.333 232.4 361.3 236 354.5Z" fill="#3B8554"/>
<path d="M1012 358C1016 315.6 981.333 298.333 963.5 295C957.1 295 945.167 306.667 940 312.5L933.5 323C927.9 329.4 921.167 349 918.5 358H1012Z" fill="#052724"/>
<path d="M891 531L766.76 357L561 357.5V582H577.565V531H891Z" fill="#008960"/>
<path d="M815.5 132.5C814.7 129.7 817.833 126.333 819.5 125L816 121C814.667 122.833 811.6 127.4 810 131C808.4 134.6 808.333 142.167 808.5 145.5L805 148L804 152.5L804.5 156.5L805 161L803.5 165V174L806.5 180L810.5 181.5L821.5 183.5C805.1 173.9 811 162.167 816 157.5C815.5 155.833 814.4 151.3 814 146.5C813.6 141.7 815.167 138.5 816 137.5H813L812.5 135.5V133L815.5 132.5Z" fill="#B78C6E"/>
<path d="M818 154L830 146L821.5 155.5L829.5 163.5L818 154Z" fill="#B78C6E"/>
<path d="M819.112 357.211V357.691" stroke="#1D1D1B" stroke-width="3" stroke-miterlimit="10"/>
<path d="M905.449 357.211V357.455" stroke="#1D1D1B" stroke-width="3" stroke-miterlimit="10"/>
<path d="M905.449 357.211L905.516 333.059L819.027 333.303L819.112 357.211" stroke="#1D1D1B" stroke-width="3" stroke-miterlimit="10"/>
<path d="M1016.48 582.259V583.151" stroke="#1D1D1B" stroke-width="3" stroke-miterlimit="10"/>
<path d="M1016.48 581.805V582.26" stroke="#1D1D1B" stroke-width="3" stroke-miterlimit="10"/>
<path d="M607.929 282.431L609.453 329.348L640.879 329.567" stroke="#1D1D1B" stroke-width="3" stroke-miterlimit="10"/>
<path d="M670.882 329.777L717.129 330.106V236.312L607.028 254.719L607.929 282.431" stroke="#1D1D1B" stroke-width="3" stroke-miterlimit="10"/>
<path d="M670.899 329.777C661.847 301.611 669.131 263.931 669.131 263.931L639.061 267.809C639.061 267.809 639.313 305.801 640.896 329.566" stroke="#1D1D1B" stroke-width="3" stroke-miterlimit="10"/>
<path d="M670.899 329.777C674.208 340.074 679.707 349.127 688.532 354.544L693.147 357.211" stroke="#1D1D1B" stroke-width="3" stroke-miterlimit="10"/>
<path d="M625.672 357.21C635.128 354.998 645.612 351.616 643.406 347.763C642.319 345.862 641.503 338.787 640.879 329.566" stroke="#1D1D1B" stroke-width="3" stroke-miterlimit="10"/>
<path d="M1029.04 357.211C1034.82 332.074 1024.96 318.849 1024.96 318.849C1024.96 318.849 1008.8 296.555 977.429 293.653C939.713 292.61 923.966 339.014 919.25 357.211" stroke="#1D1D1B" stroke-width="3" stroke-miterlimit="10"/>
<path d="M748.369 341.319C749.18 341.188 749.999 341.115 750.82 341.1C763.703 340.798 768.613 352.71 770.002 357.211" stroke="#1D1D1B" stroke-width="3" stroke-miterlimit="10"/>
<path d="M733.136 357.211C734.273 353.181 737.018 346.443 743.098 343.111" stroke="#1D1D1B" stroke-width="3" stroke-miterlimit="10"/>
<path d="M743.098 343.111C744.744 342.206 746.537 341.6 748.395 341.319" stroke="#1D1D1B" stroke-width="3" stroke-miterlimit="10"/>
<path d="M758.238 352.239C756.066 345.114 752.074 342.287 748.395 341.303" stroke="#1D1D1B" stroke-width="3" stroke-miterlimit="10"/>
<path d="M741.38 357.211C741.382 352.461 741.948 347.728 743.064 343.111" stroke="#1D1D1B" stroke-width="3" stroke-miterlimit="10"/>
<path d="M598.776 331.165L591.265 331.283C591.265 331.283 592.157 356.159 601.934 356.319C611.71 356.479 613.58 356.403 613.58 356.403C617.79 354.72 618.691 340.654 618.834 330.879L598.776 331.199" stroke="#1D1D1B" stroke-width="3" stroke-miterlimit="10"/>
<path d="M598.776 331.165L597.572 285.61C597.572 285.61 598.06 280.403 602.666 280.041C603.671 279.991 604.673 280.181 605.588 280.597C606.504 281.013 607.307 281.641 607.929 282.43" stroke="#1D1D1B" stroke-width="3" stroke-miterlimit="10"/>
<path d="M805.091 556.129L805.201 531.412" stroke="#1D1D1B" stroke-width="3" stroke-miterlimit="10"/>
<path d="M805.091 556.137V559.191C805.091 559.191 794.784 577.698 786.844 581.804" stroke="#1D1D1B" stroke-width="3" stroke-miterlimit="10"/>
<path d="M877.399 531.412L877.416 535.206" stroke="#1D1D1B" stroke-width="3" stroke-miterlimit="10"/>
<path d="M877.416 535.206L877.484 550.786" stroke="#1D1D1B" stroke-width="3" stroke-miterlimit="10"/>
<path d="M877.501 555.279V559.486C877.501 559.486 887.311 577.077 895.184 581.771C895.47 581.939 895.748 582.091 896.026 582.225" stroke="#1D1D1B" stroke-width="3" stroke-miterlimit="10"/>
<path d="M896.026 582.259C896.465 582.477 896.925 582.652 897.399 582.78" stroke="#1D1D1B" stroke-width="3" stroke-miterlimit="10"/>
<path d="M877.501 555.279L877.484 550.787" stroke="#1D1D1B" stroke-width="3" stroke-miterlimit="10"/>
<path d="M919.25 357.211H905.449" stroke="#1D1D1B" stroke-width="3" stroke-miterlimit="10"/>
<path d="M693.13 357.211H625.672" stroke="#1D1D1B" stroke-width="3" stroke-miterlimit="10"/>
<path d="M919.25 357.211H1029.04" stroke="#1D1D1B" stroke-width="3" stroke-miterlimit="10"/>
<path d="M919.436 531.412H916.059" stroke="#1D1D1B" stroke-width="3" stroke-miterlimit="10"/>
<path d="M693.13 357.211H733.136" stroke="#1D1D1B" stroke-width="3" stroke-miterlimit="10"/>
<path d="M741.38 357.211H733.136" stroke="#1D1D1B" stroke-width="3" stroke-miterlimit="10"/>
<path d="M625.672 357.211H561.683V581.804" stroke="#1D1D1B" stroke-width="3" stroke-miterlimit="10"/>
<path d="M935.368 531.412H932.606" stroke="#1D1D1B" stroke-width="3" stroke-miterlimit="10"/>
<path d="M919.436 531.412H932.606" stroke="#1D1D1B" stroke-width="3" stroke-miterlimit="10"/>
<path d="M965.042 531.412H1016.48V581.804" stroke="#1D1D1B" stroke-width="3" stroke-miterlimit="10"/>
<path d="M935.368 531.412H965.042" stroke="#1D1D1B" stroke-width="3" stroke-miterlimit="10"/>
<path d="M1029.04 357.211H1033.01V581.804" stroke="#1D1D1B" stroke-width="3" stroke-miterlimit="10"/>
<path d="M1033.01 581.805H1016.48" stroke="#1D1D1B" stroke-width="3" stroke-miterlimit="10"/>
<path d="M877.399 531.412H884.043" stroke="#1D1D1B" stroke-width="3" stroke-miterlimit="10"/>
<path d="M905.449 357.211H819.112" stroke="#1D1D1B" stroke-width="3" stroke-miterlimit="10"/>
<path d="M916.059 531.412H884.043" stroke="#1D1D1B" stroke-width="3" stroke-miterlimit="10"/>
<path d="M830.682 531.412H805.201" stroke="#1D1D1B" stroke-width="3" stroke-miterlimit="10"/>
<path d="M770.027 357.211H819.112" stroke="#1D1D1B" stroke-width="3" stroke-miterlimit="10"/>
<path d="M561.683 581.804H580.84V531.412H805.201" stroke="#1D1D1B" stroke-width="3" stroke-miterlimit="10"/>
<path d="M830.682 531.412H851.38" stroke="#1D1D1B" stroke-width="3" stroke-miterlimit="10"/>
<path d="M741.38 357.211H770.027" stroke="#1D1D1B" stroke-width="3" stroke-miterlimit="10"/>
<path d="M851.38 531.412H877.4" stroke="#1D1D1B" stroke-width="3" stroke-miterlimit="10"/>
<path d="M830.926 581.804L830.85 565.492" stroke="#1D1D1B" stroke-width="3" stroke-miterlimit="10"/>
<path d="M830.85 565.492L830.682 531.412" stroke="#1D1D1B" stroke-width="3" stroke-miterlimit="10"/>
<path d="M851.472 551.35L851.38 531.412" stroke="#1D1D1B" stroke-width="3" stroke-miterlimit="10"/>
<path d="M851.624 581.804L851.54 563.658" stroke="#1D1D1B" stroke-width="3" stroke-miterlimit="10"/>
<path d="M851.54 563.65L851.472 551.351" stroke="#1D1D1B" stroke-width="3" stroke-miterlimit="10"/>
<path d="M805.091 556.129C806.167 555.716 807.307 555.496 808.459 555.481C812.702 555.36 816.918 556.197 820.792 557.93C824.666 559.664 828.099 562.249 830.833 565.492" stroke="#1D1D1B" stroke-width="3" stroke-miterlimit="10"/>
<path d="M805.091 556.129V556.138" stroke="#1D1D1B" stroke-width="3" stroke-miterlimit="10"/>
<path d="M851.54 563.649C854.92 560.335 859.024 557.85 863.529 556.39C868.034 554.931 872.817 554.536 877.501 555.237" stroke="#1D1D1B" stroke-width="3" stroke-miterlimit="10"/>
<path d="M851.54 563.649V563.658" stroke="#1D1D1B" stroke-width="3" stroke-miterlimit="10"/>
<path d="M877.484 550.787C889.015 541.979 902.1 535.415 916.059 531.438" stroke="#1D1D1B" stroke-width="3" stroke-miterlimit="10"/>
<path d="M919.436 531.412C917.191 540.358 915.823 549.501 915.352 558.711C915.352 558.711 905.811 576.151 917.288 580.357C928.766 584.563 933.136 576.992 933.136 576.992C933.136 576.992 935.393 566.173 931.191 561.487L928.665 559.637" stroke="#1D1D1B" stroke-width="3" stroke-miterlimit="10"/>
<path d="M932.606 531.412C931.107 540.935 929.237 553.512 928.623 559.595" stroke="#1D1D1B" stroke-width="3" stroke-miterlimit="10"/>
<path d="M928.623 559.604C928.522 560.647 928.463 561.488 928.446 562.127" stroke="#1D1D1B" stroke-width="3" stroke-miterlimit="10"/>
<path d="M928.623 559.603V559.595" stroke="#1D1D1B" stroke-width="3" stroke-miterlimit="10"/>
<path d="M984.628 564.693C985.159 565.434 985.673 566.182 986.161 566.948" stroke="#1D1D1B" stroke-width="3" stroke-miterlimit="10"/>
<path d="M984.628 564.693C972.149 547.262 949.337 536.611 935.367 531.412" stroke="#1D1D1B" stroke-width="3" stroke-miterlimit="10"/>
<path d="M984.628 564.693C984.159 565.519 983.754 566.38 983.416 567.268C980.662 574.376 988.266 579.045 988.266 579.045C989.735 580.139 991.326 581.059 993.007 581.788" stroke="#1D1D1B" stroke-width="3" stroke-miterlimit="10"/>
<path d="M1003.2 581.805C1004.72 580.745 1005.93 579.291 1006.7 577.598C1012.36 566.132 999.424 560.638 999.424 560.638C987.55 544.52 975.004 535.956 965.042 531.404" stroke="#1D1D1B" stroke-width="3" stroke-miterlimit="10"/>
<path d="M926.989 560.958C926.989 560.958 923.435 573.712 925.532 579.205" stroke="#1D1D1B" stroke-width="3" stroke-miterlimit="10"/>
<path d="M988.106 566.627C988.106 566.627 999.744 562.589 1000.74 573.408C1001.73 584.227 996.375 580.677 996.375 580.677" stroke="#1D1D1B" stroke-width="3" stroke-miterlimit="10"/>
<path d="M1143.3 477.378L1145.61 477.369" stroke="#1D1D1B" stroke-width="3" stroke-miterlimit="10"/>
<path d="M1142.84 477.386L1143.3 477.378" stroke="#1D1D1B" stroke-width="3" stroke-miterlimit="10"/>
<path d="M1146.99 477.353L1145.61 477.369" stroke="#1D1D1B" stroke-width="3" stroke-miterlimit="10"/>
<path d="M1146.99 477.353L1211.83 476.898C1216.77 475.561 1205.49 560.689 1172.06 581.805" stroke="#1D1D1B" stroke-width="3" stroke-miterlimit="10"/>
<path d="M1132.55 477.454L1138.02 477.42" stroke="#1D1D1B" stroke-width="3" stroke-miterlimit="10"/>
<path d="M1132.55 477.453L1074.6 477.865C1073.08 474.408 1084.78 565.029 1123.69 581.804" stroke="#1D1D1B" stroke-width="3" stroke-miterlimit="10"/>
<path d="M1139.96 477.403H1139.81L1138.78 477.412" stroke="#1D1D1B" stroke-width="3" stroke-miterlimit="10"/>
<path d="M1138.78 477.411L1138.02 477.42" stroke="#1D1D1B" stroke-width="3" stroke-miterlimit="10"/>
<path d="M1142.84 477.386L1140.66 477.403" stroke="#1D1D1B" stroke-width="3" stroke-miterlimit="10"/>
<path d="M1172.09 581.805L1125.53 582.537C1124.91 582.312 1124.29 582.068 1123.69 581.805" stroke="#1D1D1B" stroke-width="3" stroke-miterlimit="10"/>
<path d="M1139.96 477.403H1140.66" stroke="#1D1D1B" stroke-width="3" stroke-miterlimit="10"/>
<path d="M1146.2 446.823C1145.42 449.668 1144.79 452.552 1144.31 455.463" stroke="#1D1D1B" stroke-width="3" stroke-miterlimit="10"/>
<path d="M1144.31 455.471C1143.16 462.702 1142.67 470.023 1142.84 477.344" stroke="#1D1D1B" stroke-width="3" stroke-miterlimit="10"/>
<path d="M1150.68 434.986C1155.52 425.454 1163.25 417.639 1175.48 415.115C1177.72 414.652 1179.9 414.274 1181.98 414.038" stroke="#1D1D1B" stroke-width="3" stroke-miterlimit="10"/>
<path d="M1183.23 436.761C1215.52 431.175 1231.75 448.539 1231.75 448.539C1234.9 441.27 1230.29 430.611 1230.29 430.611C1230.29 430.611 1219.67 415.031 1194.77 413.559" stroke="#1D1D1B" stroke-width="3" stroke-miterlimit="10"/>
<path d="M1181.98 414.039C1186.22 413.491 1190.51 413.334 1194.77 413.568" stroke="#1D1D1B" stroke-width="3" stroke-miterlimit="10"/>
<path d="M1146.99 477.353C1147.18 476.68 1147.39 475.965 1147.62 475.216" stroke="#1D1D1B" stroke-width="3" stroke-miterlimit="10"/>
<path d="M1150.68 434.986C1148.8 438.752 1147.3 442.698 1146.22 446.764" stroke="#1D1D1B" stroke-width="3" stroke-miterlimit="10"/>
<path d="M1183.23 436.762C1179.04 437.49 1174.92 438.516 1170.88 439.832C1157.93 447.404 1150.85 464.734 1147.63 475.208" stroke="#1D1D1B" stroke-width="3" stroke-miterlimit="10"/>
<path d="M1217.2 429.652C1209.23 425.567 1200.61 422.923 1191.72 421.845C1180.05 420.575 1166.57 422.594 1156.35 434.254C1146.14 445.914 1143.3 462.529 1143.3 477.377" stroke="#1D1D1B" stroke-width="3" stroke-miterlimit="10"/>
<path d="M1128.87 440.412C1129.73 441.534 1130.53 442.695 1131.27 443.895" stroke="#1D1D1B" stroke-width="3" stroke-miterlimit="10"/>
<path d="M1102.04 426.354C1104.06 426.615 1106.15 426.96 1108.31 427.406C1116.54 429.033 1123.87 433.679 1128.84 440.429" stroke="#1D1D1B" stroke-width="3" stroke-miterlimit="10"/>
<path d="M1102.04 426.355C1067.77 421.964 1053.51 442.911 1053.51 442.911C1053.51 442.911 1048.9 453.579 1052.05 460.847C1052.05 460.847 1072.42 439.042 1112.93 452.123C1122.25 457.558 1128.53 468.107 1132.52 477.471" stroke="#1D1D1B" stroke-width="3" stroke-miterlimit="10"/>
<path d="M1140.66 477.402C1140.55 475.871 1140.4 474.307 1140.21 472.691" stroke="#1D1D1B" stroke-width="3" stroke-miterlimit="10"/>
<path d="M1066.67 441.926C1066.67 441.926 1088.08 430.149 1108.31 434.935C1115.78 436.665 1122.51 440.732 1127.51 446.545C1129.85 449.237 1131.85 452.207 1133.47 455.387" stroke="#1D1D1B" stroke-width="3" stroke-miterlimit="10"/>
<path d="M1137.69 475.889C1136.49 470.227 1135 463.118 1133.48 455.37" stroke="#1D1D1B" stroke-width="3" stroke-miterlimit="10"/>
<path d="M1131.27 443.903C1132 447.815 1132.75 451.668 1133.47 455.37" stroke="#1D1D1B" stroke-width="3" stroke-miterlimit="10"/>
<path d="M1125.41 407.006C1126.68 417.942 1128.91 431.226 1131.31 443.887" stroke="#1D1D1B" stroke-width="3" stroke-miterlimit="10"/>
<path d="M1137.7 475.905C1137.81 476.418 1137.91 476.923 1138.02 477.42" stroke="#1D1D1B" stroke-width="3" stroke-miterlimit="10"/>
<path d="M1146.22 446.73C1150.03 428.685 1154.42 402.875 1151.96 384.829C1149.05 363.512 1122.13 331.771 1122.13 331.771C1122.13 331.771 1122.26 333.26 1122.44 335.851" stroke="#1D1D1B" stroke-width="3" stroke-miterlimit="10"/>
<path d="M1144.26 455.698L1144.31 455.471" stroke="#1D1D1B" stroke-width="3" stroke-miterlimit="10"/>
<path d="M1144.31 455.463C1144.89 452.88 1145.55 449.97 1146.2 446.823" stroke="#1D1D1B" stroke-width="3" stroke-miterlimit="10"/>
<path d="M1125.41 407.005C1124.77 401.982 1124.4 396.927 1124.32 391.863C1124.89 372.227 1123.17 345.854 1122.44 335.859" stroke="#1D1D1B" stroke-width="3" stroke-miterlimit="10"/>
<path d="M1144.31 455.472V455.463" stroke="#1D1D1B" stroke-width="3" stroke-miterlimit="10"/>
<path d="M1146.22 446.73C1146.22 446.761 1146.22 446.793 1146.22 446.824" stroke="#1D1D1B" stroke-width="3" stroke-miterlimit="10"/>
<path d="M1131.27 443.904V443.896" stroke="#1D1D1B" stroke-width="3" stroke-miterlimit="10"/>
<path d="M1140.21 472.624C1141.11 455.606 1142.48 431.974 1143.96 414.114C1145.86 391.072 1130.63 353.888 1122.44 335.817" stroke="#1D1D1B" stroke-width="3" stroke-miterlimit="10"/>
<path d="M1140.21 472.691C1140.12 474.323 1140.03 475.897 1139.96 477.402" stroke="#1D1D1B" stroke-width="3" stroke-miterlimit="10"/>
<path d="M1077.98 360.357C1091.02 375.315 1123.64 415.595 1128.44 438.217C1128.59 438.949 1128.74 439.681 1128.87 440.396" stroke="#1D1D1B" stroke-width="3" stroke-miterlimit="10"/>
<path d="M1130.28 450.07C1129.95 446.949 1129.51 443.744 1128.87 440.421" stroke="#1D1D1B" stroke-width="3" stroke-miterlimit="10"/>
<path d="M1125.41 407.006C1109.49 382.929 1077.35 358.894 1077.35 358.894C1077.35 358.894 1088.02 404.448 1095.78 416.562C1096.88 418.245 1099.22 422.376 1102.07 426.33" stroke="#1D1D1B" stroke-width="3" stroke-miterlimit="10"/>
<path d="M1138.78 477.411L1137.7 475.905" stroke="#1D1D1B" stroke-width="3" stroke-miterlimit="10"/>
<path d="M1147.62 475.216L1145.61 477.369" stroke="#1D1D1B" stroke-width="3" stroke-miterlimit="10"/>
<path d="M1183.23 436.762C1180.41 440.604 1177.22 444.162 1173.71 447.387L1147.6 475.149" stroke="#1D1D1B" stroke-width="3" stroke-miterlimit="10"/>
<path d="M1147.63 475.207L1147.62 475.216" stroke="#1D1D1B" stroke-width="3" stroke-miterlimit="10"/>
<path d="M1194.78 413.568C1199.22 398.789 1200.31 383.206 1197.96 367.954L1197.25 368.493" stroke="#1D1D1B" stroke-width="3" stroke-miterlimit="10"/>
<path d="M1150.68 434.987C1157.72 400.259 1191.94 372.632 1197.25 368.526" stroke="#1D1D1B" stroke-width="3" stroke-miterlimit="10"/>
<path d="M1181.98 414.038C1187.36 402.648 1193.71 381.17 1197.25 368.492" stroke="#1D1D1B" stroke-width="3" stroke-miterlimit="10"/>
<path d="M1270.06 581.804V109.836L1580.73 110.324V581.804" stroke="#1D1D1B" stroke-width="3" stroke-miterlimit="10"/>
<path d="M1279.77 357.211V464.06" stroke="#1D1D1B" stroke-width="3" stroke-miterlimit="10"/>
<path d="M1572.24 243.093V118.072H1279.77V243.093" stroke="#1D1D1B" stroke-width="3" stroke-miterlimit="10"/>
<path d="M1279.77 464.061V581.081" stroke="#1D1D1B" stroke-width="3" stroke-miterlimit="10"/>
<path d="M1279.77 243.093V357.211" stroke="#1D1D1B" stroke-width="3" stroke-miterlimit="10"/>
<path d="M1391.81 243.093H1404.42" stroke="#1D1D1B" stroke-width="3" stroke-miterlimit="10"/>
<path d="M1419.46 243.093H1423.34" stroke="#1D1D1B" stroke-width="3" stroke-miterlimit="10"/>
<path d="M1391.81 243.093H1376.54" stroke="#1D1D1B" stroke-width="3" stroke-miterlimit="10"/>
<path d="M1444.68 243.093H1434.74" stroke="#1D1D1B" stroke-width="3" stroke-miterlimit="10"/>
<path d="M1315.97 243.093H1322.43" stroke="#1D1D1B" stroke-width="3" stroke-miterlimit="10"/>
<path d="M1423.34 243.093H1434.74" stroke="#1D1D1B" stroke-width="3" stroke-miterlimit="10"/>
<path d="M1358.02 243.093H1376.54" stroke="#1D1D1B" stroke-width="3" stroke-miterlimit="10"/>
<path d="M1336.72 243.093H1344.12" stroke="#1D1D1B" stroke-width="3" stroke-miterlimit="10"/>
<path d="M1279.77 243.093H1302.01" stroke="#1D1D1B" stroke-width="3" stroke-miterlimit="10"/>
<path d="M1315.97 243.093H1302.01" stroke="#1D1D1B" stroke-width="3" stroke-miterlimit="10"/>
<path d="M1401.76 357.211H1430.02" stroke="#1D1D1B" stroke-width="3" stroke-miterlimit="10"/>
<path d="M1365.35 357.211H1380.41" stroke="#1D1D1B" stroke-width="3" stroke-miterlimit="10"/>
<path d="M1383.11 357.211H1380.41" stroke="#1D1D1B" stroke-width="3" stroke-miterlimit="10"/>
<path d="M1401.76 357.211H1396.16" stroke="#1D1D1B" stroke-width="3" stroke-miterlimit="10"/>
<path d="M1365.35 357.211H1279.77" stroke="#1D1D1B" stroke-width="3" stroke-miterlimit="10"/>
<path d="M1430.02 357.211H1438.06" stroke="#1D1D1B" stroke-width="3" stroke-miterlimit="10"/>
<path d="M1279.77 464.061H1298.69" stroke="#1D1D1B" stroke-width="3" stroke-miterlimit="10"/>
<path d="M1436.43 464.061H1441.28" stroke="#1D1D1B" stroke-width="3" stroke-miterlimit="10"/>
<path d="M1350.09 464.061H1329.72" stroke="#1D1D1B" stroke-width="3" stroke-miterlimit="10"/>
<path d="M1298.69 464.061H1314.69" stroke="#1D1D1B" stroke-width="3" stroke-miterlimit="10"/>
<path d="M1322.94 464.061H1329.72" stroke="#1D1D1B" stroke-width="3" stroke-miterlimit="10"/>
<path d="M1322.94 464.061H1314.69" stroke="#1D1D1B" stroke-width="3" stroke-miterlimit="10"/>
<path d="M1361.74 464.061H1422.76" stroke="#1D1D1B" stroke-width="3" stroke-miterlimit="10"/>
<path d="M1436.43 464.061H1422.76" stroke="#1D1D1B" stroke-width="3" stroke-miterlimit="10"/>
<path d="M354.332 581.805H323.639" stroke="#1D1D1B" stroke-width="3" stroke-miterlimit="10"/>
<path d="M323.639 581.805H158.374" stroke="#1D1D1B" stroke-width="3" stroke-miterlimit="10"/>
<path d="M561.683 581.805H490.141" stroke="#1D1D1B" stroke-width="3" stroke-miterlimit="10"/>
<path d="M490.141 581.805H459.456" stroke="#1D1D1B" stroke-width="3" stroke-miterlimit="10"/>
<path d="M158.374 581.805H127.681" stroke="#1D1D1B" stroke-width="3" stroke-miterlimit="10"/>
<path d="M127.681 581.805H45.8489H22.5657" stroke="#1D1D1B" stroke-width="3" stroke-miterlimit="10"/>
<path d="M354.332 581.805H459.456" stroke="#1D1D1B" stroke-width="3" stroke-miterlimit="10"/>
<path d="M22.5656 581.805H-8.13617" stroke="#1D1D1B" stroke-width="3" stroke-miterlimit="10"/>
<path d="M1016.48 582.259H1019.3" stroke="#1D1D1B" stroke-width="3" stroke-miterlimit="10"/>
<path d="M1016.48 582.259H981.572H971.383H896.026" stroke="#1D1D1B" stroke-width="3" stroke-miterlimit="10"/>
<path d="M896.026 582.259H873.56H830H817.512H809.302H765.211H559.216" stroke="#1D1D1B" stroke-width="3" stroke-miterlimit="10"/>
<path d="M1016.16 581.805H1016.48" stroke="#1D1D1B" stroke-width="3" stroke-miterlimit="10"/>
<path d="M1270.06 581.805H1311.78" stroke="#1D1D1B" stroke-width="3" stroke-miterlimit="10"/>
<path d="M1410.49 581.805H1403.69" stroke="#1D1D1B" stroke-width="3" stroke-miterlimit="10"/>
<path d="M1361.5 581.805H1353.98" stroke="#1D1D1B" stroke-width="3" stroke-miterlimit="10"/>
<path d="M1270.06 581.805H1172.09" stroke="#1D1D1B" stroke-width="3" stroke-miterlimit="10"/>
<path d="M1123.69 581.805H1033.01" stroke="#1D1D1B" stroke-width="3" stroke-miterlimit="10"/>
<path d="M1172.09 581.805H1123.69" stroke="#1D1D1B" stroke-width="3" stroke-miterlimit="10"/>
<path d="M1361.5 581.805H1403.69" stroke="#1D1D1B" stroke-width="3" stroke-miterlimit="10"/>
<path d="M1315.97 243.092L1315.66 141.173L1300.78 142.14L1302.01 243.092" stroke="#1D1D1B" stroke-width="3" stroke-miterlimit="10"/>
<path d="M1336.72 243.093L1337.33 147.954L1322.13 146.986L1322.43 243.093" stroke="#1D1D1B" stroke-width="3" stroke-miterlimit="10"/>
<path d="M1336.72 243.093H1322.43" stroke="#1D1D1B" stroke-width="3" stroke-miterlimit="10"/>
<path d="M1358.03 243.093V167.336C1358.03 167.336 1344.12 167.984 1344.12 167.017V243.093" stroke="#1D1D1B" stroke-width="3" stroke-miterlimit="10"/>
<path d="M1358.02 243.093H1344.12" stroke="#1D1D1B" stroke-width="3" stroke-miterlimit="10"/>
<path d="M1391.81 243.093V131.886H1378.72" stroke="#1D1D1B" stroke-width="3" stroke-miterlimit="10"/>
<path d="M1376.54 243.093V132.13" stroke="#1D1D1B" stroke-width="3" stroke-miterlimit="10"/>
<path d="M1419.46 243.093V145.455L1404.42 146.423V243.093" stroke="#1D1D1B" stroke-width="3" stroke-miterlimit="10"/>
<path d="M1419.46 243.093H1404.42" stroke="#1D1D1B" stroke-width="3" stroke-miterlimit="10"/>
<path d="M1423.34 243.092V151.024C1424.06 151.024 1434.74 150.536 1434.74 150.536V243.076" stroke="#1D1D1B" stroke-width="3" stroke-miterlimit="10"/>
<path d="M1324.39 355.032L1338.21 347.763L1298.69 269.744L1285.35 276.525L1324.39 355.032Z" stroke="#1D1D1B" stroke-width="3" stroke-miterlimit="10"/>
<path d="M1307.42 278.948L1342.82 354.3L1354.22 348.487L1316.14 275.313L1307.42 278.948Z" stroke="#1D1D1B" stroke-width="3" stroke-miterlimit="10"/>
<path d="M1380.41 357.21V251.084L1364.89 249.873L1365.35 357.21" stroke="#1D1D1B" stroke-width="3" stroke-miterlimit="10"/>
<path d="M1396.16 357.211L1395.94 276.769H1383.81C1383.81 277.829 1383.26 341.218 1383.11 357.211" stroke="#1D1D1B" stroke-width="3" stroke-miterlimit="10"/>
<path d="M1396.16 357.211H1383.11" stroke="#1D1D1B" stroke-width="3" stroke-miterlimit="10"/>
<path d="M1430.02 357.211L1428.19 267.565L1401.76 268.289V357.211" stroke="#1D1D1B" stroke-width="3" stroke-miterlimit="10"/>
<path d="M1464.08 357.211V251.817L1440.56 251.329L1438.06 357.211" stroke="#1D1D1B" stroke-width="3" stroke-miterlimit="10"/>
<path d="M1464.08 357.211H1438.06" stroke="#1D1D1B" stroke-width="3" stroke-miterlimit="10"/>
<path d="M1314.69 464.061V366.171L1298.69 365.203V464.061" stroke="#1D1D1B" stroke-width="3" stroke-miterlimit="10"/>
<path d="M1329.72 464.06V366.17C1329.72 366.17 1324.15 366.414 1322.94 367.625V464.06" stroke="#1D1D1B" stroke-width="3" stroke-miterlimit="10"/>
<path d="M1361.74 379.875V367.626L1350.09 366.658V464.06" stroke="#1D1D1B" stroke-width="3" stroke-miterlimit="10"/>
<path d="M1361.74 380.994V379.875" stroke="#1D1D1B" stroke-width="3" stroke-miterlimit="10"/>
<path d="M1361.74 464.06V380.993" stroke="#1D1D1B" stroke-width="3" stroke-miterlimit="10"/>
<path d="M1350.09 464.061H1361.74" stroke="#1D1D1B" stroke-width="3" stroke-miterlimit="10"/>
<path d="M1361.74 380.993L1412.67 460.662L1422.37 451.946L1369.98 373.927L1361.74 379.875" stroke="#1D1D1B" stroke-width="3" stroke-miterlimit="10"/>
<path d="M1361.74 379.875L1361.25 380.228L1361.74 380.994" stroke="#1D1D1B" stroke-width="3" stroke-miterlimit="10"/>
<path d="M1436.43 464.061V370.049H1423.34V459.694L1422.76 464.061" stroke="#1D1D1B" stroke-width="3" stroke-miterlimit="10"/>
<path d="M1454.31 464.06L1453.41 370.536H1441.28V464.06" stroke="#1D1D1B" stroke-width="3" stroke-miterlimit="10"/>
<path d="M1353.98 581.805V485.749C1353.97 485.417 1353.85 485.096 1353.64 484.844C1353.42 484.592 1353.12 484.424 1352.8 484.371C1352.47 484.318 1352.13 484.382 1351.85 484.552C1351.56 484.723 1351.35 484.989 1351.24 485.303C1348.32 493.8 1342.89 504.652 1334.1 505.249C1325.18 504.946 1318.81 493.556 1315.22 484.773C1315.06 484.391 1314.77 484.076 1314.41 483.88C1314.04 483.685 1313.62 483.623 1313.22 483.703C1312.81 483.784 1312.45 484.002 1312.19 484.321C1311.92 484.641 1311.78 485.041 1311.78 485.454V581.805" stroke="#1D1D1B" stroke-width="3" stroke-miterlimit="10"/>
<path d="M1353.98 581.805H1311.78" stroke="#1D1D1B" stroke-width="3" stroke-miterlimit="10"/>
<path d="M1403.69 581.804V486.177C1403.75 485.843 1403.67 485.5 1403.47 485.225C1403.27 484.95 1402.97 484.764 1402.64 484.709C1402.3 484.655 1401.96 484.735 1401.68 484.933C1401.41 485.131 1401.22 485.431 1401.17 485.765C1398.31 494.355 1392.83 505.855 1383.77 506.46C1374.58 506.149 1368.1 494.052 1364.57 485.185C1364.43 484.838 1364.17 484.551 1363.85 484.372C1363.52 484.193 1363.14 484.134 1362.77 484.203C1362.4 484.272 1362.07 484.467 1361.83 484.753C1361.59 485.04 1361.46 485.4 1361.45 485.774V581.804" stroke="#1D1D1B" stroke-width="3" stroke-miterlimit="10"/>
<path d="M1452.68 581.805V486.253C1452.68 485.959 1452.57 485.676 1452.37 485.454C1452.18 485.232 1451.91 485.086 1451.62 485.041C1451.33 484.995 1451.03 485.054 1450.78 485.207C1450.53 485.359 1450.34 485.596 1450.24 485.875C1447.4 494.481 1441.9 506.065 1432.79 506.696C1422.98 506.376 1416.25 492.58 1412.91 483.654C1412.81 483.382 1412.61 483.155 1412.36 483.012C1412.1 482.87 1411.81 482.82 1411.52 482.872C1411.23 482.923 1410.97 483.073 1410.78 483.296C1410.6 483.519 1410.49 483.8 1410.49 484.091V581.805" stroke="#1D1D1B" stroke-width="3" stroke-miterlimit="10"/>
<path d="M1410.49 581.805H1452.68" stroke="#1D1D1B" stroke-width="3" stroke-miterlimit="10"/>
<path d="M335.891 443.374V443.408" stroke="#1D1D1B" stroke-width="3" stroke-miterlimit="10"/>
<path d="M482.133 445.612V393.924L465.401 377.208H355.536L335.891 388.111V443.374" stroke="#1D1D1B" stroke-width="3" stroke-miterlimit="10"/>
<path d="M459.784 512.677L460.062 455.336C460.062 455.336 462.656 444.509 475.219 445.157C476.892 445.242 478.548 445.525 480.154 445.998C488.457 448.404 490.099 455.252 490.099 455.252V581.804" stroke="#1D1D1B" stroke-width="3" stroke-miterlimit="10"/>
<path d="M459.582 555.322L459.784 512.678" stroke="#1D1D1B" stroke-width="3" stroke-miterlimit="10"/>
<path d="M459.582 555.321L459.456 581.804" stroke="#1D1D1B" stroke-width="3" stroke-miterlimit="10"/>
<path d="M335.891 443.374C337.071 443.21 338.263 443.159 339.453 443.223C352.084 443.87 354.332 453.234 354.332 453.234V512.678" stroke="#1D1D1B" stroke-width="3" stroke-miterlimit="10"/>
<path d="M354.332 512.678V555.322" stroke="#1D1D1B" stroke-width="3" stroke-miterlimit="10"/>
<path d="M354.332 581.804V555.321" stroke="#1D1D1B" stroke-width="3" stroke-miterlimit="10"/>
<path d="M335.891 443.374C335.238 443.464 334.591 443.593 333.954 443.761C331.649 444.407 329.548 445.631 327.85 447.317C326.152 449.003 324.914 451.095 324.253 453.394L323.639 581.805" stroke="#1D1D1B" stroke-width="3" stroke-miterlimit="10"/>
<path d="M459.784 512.678H354.332" stroke="#1D1D1B" stroke-width="3" stroke-miterlimit="10"/>
<path d="M459.582 555.321H354.332" stroke="#1D1D1B" stroke-width="3" stroke-miterlimit="10"/>
<path d="M3.03809 442.111V442.305" stroke="#1D1D1B" stroke-width="3" stroke-miterlimit="10"/>
<path d="M149.272 444.501V392.821L132.54 376.105H22.6835L3.03809 387.008V442.111" stroke="#1D1D1B" stroke-width="3" stroke-miterlimit="10"/>
<path d="M128.026 511.222L128.304 453.881C128.304 453.881 130.889 443.063 143.503 443.702C145.173 443.787 146.827 444.069 148.43 444.543C156.724 446.949 158.374 453.797 158.374 453.797V581.805" stroke="#1D1D1B" stroke-width="3" stroke-miterlimit="10"/>
<path d="M127.816 553.866L127.681 581.805" stroke="#1D1D1B" stroke-width="3" stroke-miterlimit="10"/>
<path d="M127.816 553.866L128.026 511.222" stroke="#1D1D1B" stroke-width="3" stroke-miterlimit="10"/>
<path d="M3.03808 442.111C2.75177 442.17 2.46547 442.229 2.19601 442.305C-0.110609 442.95 -2.21328 444.175 -3.91146 445.863C-5.60964 447.551 -6.84669 449.645 -7.50462 451.946L-8.13617 581.804" stroke="#1D1D1B" stroke-width="3" stroke-miterlimit="10"/>
<path d="M3.03809 442.111C4.56821 441.791 6.13407 441.675 7.69472 441.766C20.3257 442.414 22.5656 451.778 22.5656 451.778V511.222" stroke="#1D1D1B" stroke-width="3" stroke-miterlimit="10"/>
<path d="M22.5657 581.805V553.866" stroke="#1D1D1B" stroke-width="3" stroke-miterlimit="10"/>
<path d="M22.5657 511.222V553.866" stroke="#1D1D1B" stroke-width="3" stroke-miterlimit="10"/>
<path d="M128.026 511.222H22.5657" stroke="#1D1D1B" stroke-width="3" stroke-miterlimit="10"/>
<path d="M127.816 553.866H22.5657" stroke="#1D1D1B" stroke-width="3" stroke-miterlimit="10"/>
<path d="M177.776 480.439C177.776 480.439 187.805 568.31 215.61 579.936H270.917L272.601 579.415C300.389 567.78 305.181 481.727 305.181 481.727L177.776 480.439Z" stroke="#1D1D1B" stroke-width="3" stroke-miterlimit="10"/>
<path d="M258.614 481.256V475.249C258.599 473.984 259.018 472.752 259.801 471.757C260.583 470.762 261.683 470.065 262.917 469.781C268.559 468.578 273.654 464.96 276.887 456.691C280.929 446.36 274.622 443.609 274.622 443.609C274.622 443.609 269.932 441.186 267.186 448.783L267.102 449.01C264.913 454.663 256.475 453.04 256.475 446.974V421.585C256.468 420.285 256.921 419.024 257.755 418.026C258.589 417.028 259.749 416.358 261.031 416.133C271.405 414.4 278.074 406.038 280.011 403.262C280.408 402.698 280.694 402.065 280.853 401.394C281.577 398.416 283.506 389.482 281.695 386.251C280.011 380.674 276.769 382.668 275.068 384.224C274.347 384.885 273.818 385.728 273.536 386.664C272.289 390.811 270.757 398.441 264.113 400.124C262.723 400.503 261.283 400.667 259.844 400.612C258.45 400.497 257.153 399.856 256.214 398.82C255.276 397.785 254.767 396.431 254.791 395.034L255.086 361.384C255.094 360.784 255.003 360.187 254.816 359.617C253.798 356.445 249.815 346.3 240.543 346.022C229.546 345.702 226.152 359.751 226.152 359.751C224.165 359.373 224.275 423.814 223.727 423.234C223.727 423.234 217.909 431.184 209.547 419.7C209.13 419.125 208.824 418.478 208.646 417.791C208.082 415.595 206.339 410.219 202.667 410.833C198.819 411.447 199.459 421.029 199.77 424.159C199.835 424.828 200.027 425.479 200.335 426.077C201.968 429.308 208.056 439.807 218.86 441.708C220.161 441.92 221.346 442.583 222.206 443.582C223.065 444.581 223.544 445.851 223.559 447.168L223.685 480.877" stroke="#1D1D1B" stroke-width="3" stroke-miterlimit="10"/>
<path d="M248.055 178.775C272.171 173.089 287.106 148.948 281.414 124.855C275.723 100.762 251.559 85.8405 227.443 91.527C203.327 97.2135 188.391 121.354 194.083 145.447C199.775 169.54 223.939 184.462 248.055 178.775Z" stroke="#1D1D1B" stroke-width="3" stroke-miterlimit="10"/>
<path d="M281.688 179.998C303.944 157.763 303.944 121.712 281.688 99.4768C259.431 77.2415 223.347 77.2415 201.09 99.4768C178.834 121.712 178.834 157.763 201.09 179.998C223.347 202.233 259.431 202.233 281.688 179.998Z" stroke="#1D1D1B" stroke-width="3" stroke-miterlimit="10"/>
<path d="M222.467 111.511L228.37 128.403" stroke="#1D1D1B" stroke-width="2" stroke-miterlimit="10"/>
<path d="M222.467 111.511C223.151 110.84 224.041 110.419 224.994 110.316C226.77 110.316 220.623 104.335 220.623 104.335C220.623 104.335 218.847 102.24 218.038 103.494L218.687 112.705C218.687 112.705 219.007 113.833 220.303 113.185C221.079 112.69 221.809 112.127 222.484 111.502" fill="#1B1C1B"/>
<path d="M222.467 111.511C223.151 110.84 224.041 110.419 224.994 110.316C226.77 110.316 220.623 104.335 220.623 104.335C220.623 104.335 218.847 102.24 218.038 103.494L218.687 112.705C218.687 112.705 219.007 113.833 220.303 113.185C221.079 112.69 221.809 112.127 222.484 111.502" stroke="#1D1D1B" stroke-miterlimit="10"/>
<path d="M254.693 141.141L240.479 139.197" stroke="#1D1D1B" stroke-width="2" stroke-miterlimit="10"/>
<path d="M254.693 141.14C254.921 141.867 254.9 142.648 254.634 143.361C253.986 144.631 260.529 142.419 260.529 142.419C260.529 142.419 262.676 141.914 262.045 140.871L255.232 137.985C255.232 137.985 254.306 137.8 254.298 138.961C254.376 139.699 254.52 140.428 254.727 141.14" fill="#1B1C1B"/>
<path d="M254.693 141.14C254.921 141.867 254.9 142.648 254.634 143.361C253.986 144.631 260.529 142.419 260.529 142.419C260.529 142.419 262.676 141.914 262.045 140.871L255.232 137.985C255.232 137.985 254.306 137.8 254.298 138.961C254.376 139.699 254.52 140.428 254.727 141.14" stroke="#1D1D1B" stroke-miterlimit="10"/>
<path d="M234.517 134.301C234.517 133.773 234.361 133.258 234.068 132.819C233.774 132.38 233.357 132.039 232.87 131.837C232.382 131.635 231.845 131.582 231.327 131.685C230.81 131.788 230.334 132.042 229.961 132.415C229.587 132.788 229.333 133.263 229.23 133.78C229.127 134.298 229.18 134.834 229.382 135.321C229.584 135.808 229.926 136.225 230.365 136.518C230.804 136.811 231.32 136.967 231.848 136.967C232.199 136.967 232.546 136.898 232.87 136.764C233.193 136.63 233.488 136.434 233.736 136.186C233.983 135.939 234.18 135.645 234.314 135.321C234.448 134.998 234.517 134.651 234.517 134.301V134.301Z" fill="#1B1C1B" stroke="#1D1D1B" stroke-width="2" stroke-miterlimit="10"/>
<path d="M877.416 535.206C879.378 534.045 881.627 532.724 884.043 531.412" stroke="#1D1D1B" stroke-width="3" stroke-miterlimit="10"/>
<path d="M839.136 581.805C837.359 579.912 835.877 576.9 835.641 572.113C834.993 559.191 847.927 557.576 847.927 557.576C848.927 555.403 850.113 553.32 851.472 551.351" stroke="#1D1D1B" stroke-width="3" stroke-miterlimit="10"/>
<path d="M820.198 155.971C822.971 158.821 826.005 161.406 829.259 163.694C829.499 163.833 829.785 163.872 830.054 163.803C830.324 163.733 830.555 163.561 830.698 163.323C830.834 163.081 830.871 162.795 830.802 162.526C830.733 162.257 830.563 162.024 830.328 161.876C827.572 159.927 824.984 157.752 822.589 155.373C825.424 152.362 828.338 149.431 831.33 146.582C832.315 145.648 830.825 144.159 829.84 145.093C826.741 148.038 823.726 151.072 820.796 154.196C820.606 154.227 820.427 154.309 820.281 154.434C820.134 154.559 820.024 154.721 819.962 154.904C819.901 155.086 819.89 155.282 819.932 155.47C819.973 155.658 820.065 155.831 820.198 155.971V155.971Z" fill="black"/>
<path d="M834.782 141.358C836.121 141.855 837.57 142.2 838.942 142.545C840.315 142.889 841.923 143.386 843.414 143.798C844.668 144.143 846.605 144.875 847.119 143.091C847.261 142.468 847.357 141.836 847.405 141.199C847.564 140.477 847.657 139.742 847.683 139.003C847.664 138.663 847.537 138.338 847.318 138.078C847.099 137.817 846.802 137.634 846.47 137.556C845.755 137.32 845.014 137.16 844.289 136.959C841.553 136.21 838.959 134.99 836.147 134.561H836.088C833.806 134.056 833.351 136.967 833.3 138.591C833.258 139.81 833.519 140.887 834.782 141.358ZM843.169 138.835L844.609 139.23C844.879 139.297 845.216 139.356 845.527 139.449C845.527 139.583 845.527 139.735 845.485 139.844C845.485 140.181 845.392 140.526 845.342 140.87L845.216 141.779L845.165 142.116L844.786 141.989L843.624 141.678L841.308 141.03L836.677 139.718C836.305 139.641 835.939 139.537 835.582 139.407C835.372 139.306 835.448 139.407 835.405 139.222C835.352 138.395 835.449 137.565 835.692 136.773C835.715 136.713 835.744 136.653 835.776 136.597V136.597C837.398 136.883 838.983 137.352 840.5 137.993C841.401 138.321 842.277 138.591 843.169 138.835Z" fill="black"/>
<path d="M817.554 138.557C818.926 138.557 820.307 138.557 821.688 138.557C822.859 138.557 824.105 138.195 824.459 136.874C824.575 136.279 824.612 135.671 824.568 135.066C824.622 134.427 824.582 133.783 824.45 133.156C824.254 132.605 823.883 132.134 823.393 131.815C822.903 131.496 822.322 131.346 821.739 131.389C820.417 131.339 819.078 131.457 817.756 131.49L813.545 131.616C813.067 131.625 812.607 131.806 812.252 132.126C811.896 132.446 811.667 132.883 811.609 133.358C811.534 133.772 811.498 134.191 811.499 134.611C811.499 135.108 811.398 135.613 811.415 136.109C811.422 136.727 811.663 137.319 812.09 137.767C812.516 138.215 813.096 138.485 813.714 138.523C814.992 138.613 816.274 138.624 817.554 138.557V138.557ZM813.562 134.687C813.562 134.426 813.562 134.014 813.604 133.846C813.647 133.678 813.604 133.745 813.604 133.694L818.935 133.543C819.853 133.543 820.787 133.442 821.705 133.476C821.882 133.476 822.202 133.476 822.337 133.619C822.471 133.762 822.438 134.208 822.438 134.46C822.438 134.948 822.438 135.444 822.438 135.932C822.454 136.066 822.454 136.202 822.438 136.336L822.261 136.403C821.352 136.504 820.436 136.521 819.524 136.454H816.484H814.96C814.55 136.505 814.135 136.488 813.731 136.403C813.209 136.243 813.545 135.116 813.562 134.687Z" fill="black"/>
<path d="M834.058 175.481C835.932 175.395 837.764 174.892 839.418 174.008C841.073 173.125 842.508 171.882 843.62 170.372C844.732 168.863 845.491 167.123 845.843 165.282C846.195 163.441 846.13 161.545 845.654 159.732C845.573 159.471 845.394 159.252 845.154 159.12C844.915 158.989 844.633 158.955 844.37 159.028C844.106 159.1 843.881 159.272 843.742 159.507C843.603 159.742 843.56 160.022 843.624 160.287C844.021 161.788 844.077 163.359 843.789 164.885C843.501 166.411 842.876 167.853 841.96 169.107C841.044 170.361 839.859 171.395 838.492 172.134C837.125 172.873 835.61 173.297 834.058 173.377C832.711 173.461 832.703 175.565 834.058 175.481Z" fill="black"/>
<path d="M805.184 198.606H805.066C805.151 198.632 805.193 198.615 805.184 198.606Z" fill="black"/>
<path d="M802.599 200.214C802.625 200.19 802.645 200.161 802.658 200.129C802.641 200.159 802.621 200.187 802.599 200.214V200.214Z" fill="black"/>
<path d="M943.982 267.935C936.403 259.96 930.627 250.504 924.69 241.301C918.754 232.074 912.354 223.154 905.516 214.574C901.567 209.627 897.5 204.781 893.373 199.994C892.204 198.749 890.648 197.935 888.957 197.685C887.267 197.434 885.541 197.762 884.06 198.615C883.409 198.05 882.637 197.642 881.803 197.42C880.682 197.098 879.501 197.035 878.351 197.235C872.878 195.878 867.387 194.588 861.88 193.365C861.865 193.312 861.842 193.261 861.813 193.214C860.785 191.531 859.009 190.034 856.895 190.177C856.656 190.193 856.419 190.232 856.188 190.295C855.523 187.199 852.617 184.683 849.611 183.918C849.611 183.741 849.611 183.573 849.611 183.396C851.629 181.418 853.108 178.958 853.906 176.249C854.705 173.54 854.798 170.672 854.175 167.917C858.259 165.494 861.905 161.448 862.983 156.762C863.373 155.116 863.356 153.4 862.935 151.761C862.514 150.123 861.701 148.612 860.567 147.356C863.312 139.945 865.619 132.331 866.208 124.423C866.295 124.314 866.356 124.187 866.386 124.051C866.416 123.915 866.415 123.774 866.383 123.639C866.35 123.503 866.287 123.377 866.199 123.27C866.11 123.162 865.998 123.076 865.872 123.018C852.442 116.382 838.038 111.929 823.204 109.827C818.994 109.23 814.783 108.809 810.573 108.565C810.411 108.547 810.246 108.573 810.098 108.641C809.949 108.709 809.822 108.817 809.731 108.952C809.587 108.968 809.446 109.01 809.318 109.079C809.082 109.224 808.911 109.454 808.84 109.722C808.77 109.99 808.805 110.275 808.939 110.517C810.669 114.136 812.691 117.608 814.985 120.898C812.188 124.216 810.109 128.076 808.878 132.236C807.648 136.395 807.293 140.765 807.836 145.068C806.75 145.373 805.756 145.942 804.943 146.724C804.13 147.507 803.525 148.478 803.18 149.552C802.376 152.162 802.358 154.95 803.129 157.569C803.417 158.669 803.847 159.727 804.409 160.716C803.615 161.653 803.011 162.736 802.632 163.904L802.573 164.03C801.978 165.751 801.811 167.59 802.085 169.389C802.201 171.295 802.457 173.191 802.851 175.059C803.601 178.189 805.217 180.654 808.207 182.017L808.341 182.059C808.341 182.059 808.409 182.109 808.459 182.118C809.664 182.471 810.876 182.782 812.097 183.06C812.214 183.077 812.333 183.077 812.451 183.06C812.577 184.246 812.703 185.424 812.821 186.61C811.155 187.688 809.784 189.163 808.828 190.901C807.873 192.64 807.364 194.587 807.348 196.571C806.295 196.381 805.215 196.407 804.173 196.646C803.506 196.85 802.893 197.201 802.38 197.673L802.304 197.731L802.06 197.874C801.827 198.015 801.607 198.175 801.403 198.354C800.963 198.773 800.668 199.321 800.561 199.919C799.347 200.716 798.081 201.43 796.771 202.056C795.324 202.824 793.824 203.491 792.283 204.049C789.451 204.923 786.549 205.556 783.61 205.942C783.568 205.942 783.534 205.942 783.492 205.942C781.855 205.851 780.214 206.042 778.642 206.506C777.227 206.965 776.029 207.926 775.273 209.206C763.588 228.599 752.889 248.568 743.216 269.037C740.448 274.82 737.737 280.624 735.082 286.452C733.928 288.52 733.589 290.944 734.13 293.249C734.602 295.504 735.957 297.22 737.296 299.029C742.121 305.7 749.085 310.411 755.704 315.122C763.334 320.651 771.237 325.795 779.383 330.534C784.02 333.181 788.749 335.663 793.572 337.979C793.572 344.39 793.572 350.792 793.572 357.202C793.572 357.481 793.683 357.749 793.88 357.946C794.077 358.143 794.345 358.254 794.624 358.254C794.903 358.254 795.171 358.143 795.369 357.946C795.566 357.749 795.677 357.481 795.677 357.202C795.677 350.624 795.677 344.042 795.677 337.458C795.715 337.309 795.715 337.153 795.677 337.003C795.677 330.7 795.677 324.393 795.677 318.083L798.582 330.181C799.424 333.68 800.098 337.424 802.321 340.369C803.121 341.437 804.948 340.368 804.14 339.309C802.228 336.785 801.613 333.655 800.856 330.635C799.98 326.973 799.101 323.327 798.22 319.699L793.05 298.17C792.788 297.06 792.519 295.95 792.207 294.805C792.46 295.285 792.713 295.756 792.974 296.227C793.631 297.413 795.449 296.353 794.793 295.167C790.168 286.866 786.529 278.054 783.947 268.911C783.972 268.846 783.989 268.778 783.997 268.709C786.389 252.305 790.734 235.689 787.593 219.074C786.876 215.257 785.709 211.538 784.115 207.995C787.151 207.593 790.144 206.917 793.058 205.976C794.656 205.378 796.214 204.678 797.723 203.881C798.641 203.41 799.576 202.939 800.468 202.417C800.561 202.989 800.696 203.553 800.839 204.1C802.127 210.83 804.956 217.383 807.895 223.575C810.548 229.161 813.562 234.562 816.417 240.047C817.899 242.908 819.364 245.785 820.627 248.746C820.703 248.953 820.857 249.122 821.057 249.217C821.77 251.233 822.614 253.2 823.583 255.106C824.425 256.856 825.41 258.58 826.109 260.398C826.564 261.491 826.875 262.661 827.364 263.763C827.811 264.712 828.434 265.568 829.2 266.286C830.463 267.453 831.849 268.48 833.334 269.349C833.41 269.525 833.543 269.671 833.713 269.761C834.463 270.065 835.271 270.2 836.079 270.156C836.748 270.167 837.417 270.145 838.083 270.089C838.25 270.075 838.413 270.029 838.563 269.954H838.614C842.167 268.356 844.222 264.999 846.192 261.836C848.163 258.673 849.418 254.971 851.245 251.623C851.288 251.556 851.319 251.482 851.338 251.404C853.788 244.035 856.019 236.581 857.754 229.001C859.285 222.105 860.468 215.136 861.299 208.121C861.832 203.996 862.156 199.846 862.268 195.687C867.191 196.809 872.103 197.964 877.004 199.153C875.305 211.227 876.277 223.526 879.85 235.185C880.815 238.409 881.994 241.565 883.378 244.632C884.757 248.562 886.47 252.368 888.498 256.006C887.763 269.312 884.568 282.367 879.075 294.511C878.959 294.634 878.883 294.79 878.856 294.957C878.295 296.112 877.733 297.253 877.172 298.381C875.291 301.996 873.078 305.429 870.562 308.636C869.72 309.679 871.21 311.16 872.052 310.116C874.753 306.697 877.132 303.036 879.159 299.18C880.018 310.503 880.86 321.833 881.686 333.167C881.708 333.352 881.776 333.529 881.883 333.681C881.991 333.834 882.134 333.957 882.301 334.04C882.468 334.124 882.653 334.164 882.84 334.159C883.026 334.153 883.208 334.102 883.37 334.009C883.524 334.139 883.717 334.214 883.918 334.221C884.12 334.229 884.318 334.169 884.481 334.051C901.3 323.038 916.96 310.354 931.225 296.193C935.278 292.223 939.233 288.159 943.089 284.004C945.162 281.921 946.511 279.229 946.938 276.323C947.434 273.151 946.02 270.249 943.982 267.935ZM793.572 335.657C785.559 331.734 777.777 327.358 770.263 322.55C766.322 320.027 762.474 317.385 758.676 314.651C755.392 312.279 752.032 309.999 748.841 307.5C745.162 304.801 741.885 301.595 739.107 297.977C737.97 296.437 736.707 294.965 736.235 293.064C735.721 291.201 735.956 289.211 736.892 287.52C736.933 287.45 736.966 287.377 736.993 287.301C746.365 266.791 756.302 246.517 767.375 226.865C770.345 221.57 773.407 216.332 776.562 211.15C781.741 223.769 780.772 237.919 779.981 251.287C779.753 255.098 779.551 258.908 779.484 262.728C779.353 262.863 779.263 263.032 779.223 263.216C777.631 270.939 772.697 277.189 768.747 283.886C768.646 284.003 768.567 284.137 768.512 284.281C767.498 285.998 766.587 287.773 765.783 289.598C765.244 290.826 767.063 291.895 767.594 290.658C768.258 289.155 768.997 287.687 769.808 286.258C777.749 292.076 785.34 298.354 792.544 305.06L793.58 309.351C793.563 318.117 793.56 326.886 793.572 335.657ZM788.056 286.334C789.269 291.381 790.478 296.429 791.685 301.477C785.049 295.447 778.101 289.769 770.869 284.466C774.238 278.729 778.322 273.286 780.402 266.968C780.741 267.599 781.186 268.168 781.715 268.65C783.379 274.69 785.495 280.596 788.048 286.317C788.051 286.322 788.054 286.328 788.056 286.334V286.334ZM784.343 253.962C783.669 258 782.962 262.03 782.338 266.076C782.254 265.941 782.178 265.807 782.111 265.672C782.061 265.571 782.018 265.479 781.968 265.386C781.917 265.294 781.968 265.302 781.968 265.268C781.884 265.05 781.808 264.839 781.732 264.621C781.656 264.402 781.656 264.368 781.623 264.242C781.741 249.402 784.334 234.436 781.37 219.714C780.647 216.118 779.541 212.609 778.069 209.248V209.248C778.494 208.937 778.966 208.695 779.467 208.533C780.219 208.305 780.997 208.175 781.783 208.146C781.846 208.194 781.917 208.231 781.993 208.256C788.738 222.473 786.852 238.878 784.343 253.962ZM838.083 257.891H837.982H837.528C837.211 257.911 836.893 257.911 836.576 257.891H836.408H836.323L835.886 257.798L835.465 257.68L835.262 257.605C835.027 257.47 834.782 257.344 834.555 257.192C834.555 257.142 834.462 257.108 834.412 257.058C830.028 249.561 826.043 241.838 822.471 233.923C818.943 226.267 815.221 218.612 812.223 210.729C811.423 208.609 810.708 206.472 810.093 204.302C812.257 207.213 815.272 209.56 817.781 212.117C819.305 213.657 820.787 215.272 822.396 216.727C822.46 216.828 822.544 216.915 822.642 216.982C822.74 217.05 822.851 217.098 822.968 217.123V217.123H823.052C823.208 217.151 823.368 217.146 823.522 217.108C823.676 217.071 823.82 217.001 823.945 216.904L824.012 216.845L824.097 216.761V216.719C824.193 216.614 824.265 216.488 824.306 216.351C824.347 216.214 824.356 216.069 824.332 215.928C824.529 213.337 824.717 210.743 824.897 208.146C824.998 206.868 825.073 205.58 825.183 204.302C825.16 203.922 825.245 203.543 825.427 203.208C825.73 202.88 826.395 203.015 826.8 203.065C830.259 205.972 832.633 209.963 833.536 214.389C833.531 214.408 833.531 214.428 833.536 214.447C834.771 228.917 836.579 243.317 838.959 257.647C838.704 257.733 838.442 257.797 838.176 257.84L838.083 257.891ZM815.187 189.327C814.985 187.409 814.783 185.499 814.59 183.581C824.91 185.492 835.408 186.274 845.898 185.912C846.097 185.938 846.3 185.903 846.479 185.811V185.811L846.555 185.769C846.891 185.567 847.211 185.348 847.523 185.121C847.523 185.617 847.523 186.105 847.523 186.593C847.506 186.702 847.506 186.812 847.523 186.921C847.523 188.822 847.523 190.732 847.523 192.633C846.411 193.517 845.3 194.4 844.155 195.258C842.434 196.647 840.581 197.864 838.622 198.892C838.508 198.955 838.408 199.04 838.329 199.143C838.249 199.246 838.191 199.364 838.159 199.49C837.651 200.239 837.283 201.074 837.073 201.955C836.16 204.645 835.512 207.417 835.136 210.233C835.115 210.389 835.115 210.548 835.136 210.704C835.052 210.973 834.976 211.242 834.892 211.545C833.28 206.669 830.02 202.505 825.671 199.767C825.475 199.645 825.244 199.592 825.014 199.616C821.899 199.364 818.648 198.657 816.072 196.814L815.853 196.638C815.857 196.601 815.857 196.565 815.853 196.528C815.667 194.111 815.446 191.711 815.187 189.327V189.327ZM840.567 254.105C838.507 241.301 836.916 228.435 835.793 215.507C835.942 215.384 836.053 215.22 836.113 215.036C836.643 213.253 837.182 211.469 837.713 209.694C837.754 209.543 837.761 209.384 837.732 209.229C837.703 209.074 837.638 208.929 837.544 208.803C837.827 207.218 838.198 205.651 838.656 204.108C838.959 203.082 839.498 202.056 839.709 201.021C839.767 200.802 839.708 200.794 839.902 200.97C840.096 201.147 840.256 201.29 840.424 201.467C840.732 201.827 841.014 202.21 841.266 202.611C843.675 206.211 843.927 210.662 844.172 214.851C844.247 216.197 846.352 216.206 846.277 214.851V214.75C849.279 212.36 851.631 209.253 853.114 205.715C853.114 205.715 853.114 205.648 853.114 205.606C852.963 207.086 852.794 208.567 852.617 210.039C851.451 220.901 848.962 231.58 845.207 241.839C843.734 245.961 842.075 250.016 840.567 254.122V254.105ZM850.066 186.248H850.125L850.394 186.374C850.571 186.458 850.74 186.551 850.916 186.652L851.413 186.972L851.658 187.14L851.725 187.19L851.792 187.241C852.091 187.502 852.372 187.784 852.634 188.082C852.769 188.225 852.887 188.368 853.013 188.511V188.553L853.173 188.78C853.391 189.105 853.585 189.445 853.754 189.798C853.79 189.878 853.821 189.959 853.847 190.042C853.903 190.202 853.951 190.365 853.99 190.53C853.99 190.665 854.049 190.799 854.074 190.934C854.069 190.993 854.069 191.052 854.074 191.111C854.074 191.203 854.074 191.296 854.074 191.388L853.897 192.642C853.847 192.863 853.813 193.088 853.796 193.315C853.348 197.156 852.458 200.933 851.144 204.571C850.001 207.399 848.237 209.935 845.982 211.991C845.62 207.7 844.82 203.376 841.923 200.028C841.772 199.86 841.603 199.692 841.426 199.523C842.757 198.682 844.02 197.748 845.258 196.814C846.496 195.881 847.784 194.854 849.03 193.853C849.146 193.803 849.247 193.725 849.325 193.626L850.706 192.532C850.867 192.398 850.972 192.21 851.001 192.002C851.43 190.732 851.843 189.176 851.363 187.872C851.039 187.079 850.442 186.428 849.679 186.038L849.847 186.097L850.066 186.248ZM853.207 136.033C856.129 136.201 859.051 136.243 861.964 136.201C861.072 139.516 859.986 142.771 858.807 145.985L858.504 145.808C857.833 145.443 857.082 145.252 856.318 145.252C855.555 145.252 854.803 145.443 854.133 145.808C854.222 142.53 853.911 139.253 853.207 136.05V136.033ZM853.308 119.771C856.971 121.176 860.558 122.758 864.086 124.474C863.803 127.715 863.27 130.93 862.495 134.09C847.279 134.376 831.153 132.356 818.783 122.758C816.014 118.928 813.529 114.902 811.348 110.711C825.715 111.586 839.865 114.647 853.308 119.788V119.771ZM804.704 152.396C804.889 150.116 805.933 147.827 808.139 147.121C808.693 149.954 809.643 152.695 810.96 155.264C811.028 155.39 811.095 155.517 811.154 155.651C811.184 155.705 811.21 155.761 811.23 155.819C811.279 155.943 811.322 156.069 811.356 156.198L811.407 156.408C811.407 156.476 811.407 156.535 811.407 156.602C811.401 156.641 811.401 156.681 811.407 156.72V156.77H811.348L811.146 156.871C811.085 156.9 811.024 156.925 810.96 156.947L810.48 157.14L809.428 157.552L808.956 157.738C807.924 157.994 806.952 158.448 806.093 159.075C805.041 157.012 804.562 154.706 804.704 152.396V152.396ZM811.348 156.863V156.913V156.863ZM809.074 180.115C808.028 179.669 807.105 178.98 806.379 178.105C805.571 176.932 805.027 175.597 804.788 174.193C804.468 172.56 804.257 170.907 804.156 169.246C803.971 167.905 804.037 166.542 804.35 165.225C804.4 165.159 804.437 165.085 804.46 165.006C804.546 164.666 804.653 164.332 804.78 164.005C804.78 163.955 804.923 163.677 804.78 163.912C804.78 163.837 804.847 163.761 804.889 163.685C804.956 163.533 805.032 163.384 805.116 163.239C805.277 162.949 805.454 162.668 805.647 162.398L805.723 162.297L805.841 162.154C805.952 162.016 806.07 161.884 806.194 161.759H806.245C806.402 161.673 806.535 161.548 806.632 161.397L806.952 161.111L807.154 160.968C807.289 160.875 807.424 160.783 807.567 160.699L807.702 160.632H807.769L809.318 160.026L809.529 159.942L810.135 159.698L811.272 159.252C811.653 159.127 812.017 158.957 812.358 158.747C812.717 158.504 813.005 158.17 813.194 157.781C813.383 157.391 813.467 156.958 813.436 156.526C813.348 155.738 813.093 154.978 812.687 154.297C811.352 151.703 810.426 148.919 809.941 146.044C809.945 146.022 809.945 145.999 809.941 145.977C809.94 145.859 809.917 145.742 809.874 145.632C809.26 141.604 809.495 137.493 810.563 133.561C811.632 129.629 813.511 125.964 816.08 122.8L816.83 123.885C816.891 124.061 817.002 124.216 817.15 124.331C826.926 131.902 838.808 135.065 850.908 136.008C851.932 140.303 852.217 144.741 851.75 149.131C851.533 150.249 851.252 151.353 850.908 152.438C850.835 152.706 850.871 152.993 851.009 153.235C851.146 153.478 851.373 153.657 851.641 153.733C851.911 153.799 852.195 153.759 852.437 153.621C852.678 153.483 852.857 153.258 852.937 152.993C853.286 151.869 853.567 150.726 853.78 149.569C853.78 149.518 853.78 149.476 853.78 149.426C853.78 149.375 853.78 149.426 853.78 149.426L853.83 148.829C854.094 148.415 854.458 148.074 854.887 147.836C855.316 147.598 855.798 147.471 856.289 147.466C857.19 147.607 858.016 148.052 858.63 148.728C860.13 150.162 861.004 152.13 861.063 154.204C861.063 159.193 857.173 163.685 853.072 166.175C852.894 166.105 852.699 166.086 852.511 166.121C852.322 166.155 852.147 166.242 852.006 166.37C851.864 166.499 851.761 166.665 851.708 166.849C851.655 167.033 851.655 167.228 851.708 167.412C852.65 170.454 852.563 173.721 851.459 176.707C850.356 179.694 848.297 182.234 845.603 183.935C834.833 184.153 824.004 183.649 813.453 181.369C813.279 181.326 813.097 181.326 812.922 181.369C812.806 181.259 812.664 181.181 812.51 181.142C811.44 180.755 810.253 180.452 809.074 180.115V180.115ZM812.644 189.369C812.071 190.176 811.715 191.117 811.61 192.101C811.505 193.085 811.656 194.08 812.047 194.989C813.183 197.647 815.836 199.296 818.438 200.281C820.289 200.951 822.22 201.378 824.181 201.551C823.912 201.764 823.693 202.034 823.541 202.342C822.918 203.553 823.036 205.177 822.943 206.506C822.769 208.957 822.589 211.402 822.404 213.842C821.276 212.723 820.181 211.562 819.036 210.426C817.352 208.685 815.474 207.061 813.764 205.379C811.626 203.2 809.554 200.533 809.344 197.378C809.248 195.883 809.496 194.385 810.068 193C810.64 191.615 811.521 190.379 812.644 189.386V189.369ZM835.212 267.977C835.38 268.011 835.288 268.003 835.212 267.994V267.977ZM853.468 237.692C852.247 242.049 850.891 246.365 849.468 250.656C847.784 253.802 846.639 257.209 844.795 260.271C842.95 263.334 841.073 266.429 837.864 267.977C837.334 268.019 836.795 268.036 836.264 268.028C835.911 268.028 835.557 268.028 835.203 267.969L835.136 267.918C833.574 267.031 832.112 265.979 830.774 264.781C829.166 263.207 828.753 261.071 827.886 259.052C826.286 255.291 824.214 251.825 822.901 247.922C822.858 247.785 822.788 247.659 822.693 247.552C822.599 247.445 822.483 247.359 822.353 247.299C820.038 242.049 817.259 237.019 814.581 231.954C811.685 226.478 808.939 220.967 806.59 215.238C804.979 211.469 803.749 207.549 802.919 203.536C802.834 203.208 802.75 202.888 802.683 202.56C802.683 202.417 802.624 202.266 802.599 202.123V201.946C802.599 201.946 802.599 201.812 802.599 201.77V201.736C802.603 201.686 802.603 201.635 802.599 201.584C802.599 201.484 802.599 201.391 802.599 201.29C802.586 201.083 802.586 200.875 802.599 200.667V200.617C802.603 200.567 802.603 200.516 802.599 200.466L802.649 200.272V200.23C802.654 200.208 802.654 200.185 802.649 200.163C802.649 200.07 802.7 200.095 802.649 200.163L802.716 200.028L802.784 199.952L802.851 199.894C802.91 199.849 802.972 199.81 803.036 199.776L803.449 199.515C803.592 199.414 803.727 199.305 803.862 199.195L803.971 199.111C804.067 199.034 804.169 198.964 804.274 198.901L804.443 198.808C804.603 198.758 804.771 198.699 804.94 198.657H805.032C805.1 198.657 805.125 198.657 805.125 198.657H805.344C805.622 198.657 805.899 198.657 806.186 198.657H806.565C807.963 206.54 811.019 213.909 814.295 221.169C817.916 229.186 821.469 237.246 825.41 245.112C827.566 249.411 829.848 253.651 832.307 257.79C832.358 257.948 832.438 258.097 832.542 258.227L832.627 258.32C832.682 258.395 832.744 258.465 832.812 258.53C833.81 259.433 835.088 259.968 836.433 260.044C837.88 260.197 839.34 259.934 840.643 259.287C840.801 259.203 840.928 259.07 841.005 258.908C841.057 258.83 841.1 258.745 841.132 258.656C844.121 249.73 848.138 241.183 850.63 232.089C853.333 222.212 854.681 212.025 855.531 201.803C855.802 199.229 855.942 196.643 855.952 194.055C855.952 193.895 855.952 193.744 855.952 193.584L856.002 193.222C856.016 193.069 856.062 192.921 856.139 192.787C856.216 192.654 856.321 192.539 856.447 192.451C856.573 192.363 856.717 192.303 856.869 192.277C857.02 192.25 857.176 192.257 857.325 192.297C857.878 192.408 858.398 192.645 858.845 192.99C859.291 193.334 859.653 193.776 859.901 194.282C859.983 194.418 860.092 194.535 860.221 194.627C860.016 202.277 859.239 209.9 857.897 217.434C856.795 224.268 855.317 231.037 853.468 237.709V237.692ZM885.467 243.791C885.467 243.791 885.467 243.732 885.467 243.707C880.582 232.666 878.198 220.685 878.486 208.617C878.556 205.467 878.837 202.325 879.328 199.212C879.53 199.212 879.732 199.212 879.926 199.212H880.33H880.498C880.766 199.251 881.03 199.307 881.29 199.38C881.408 199.38 881.517 199.448 881.635 199.481L881.837 199.557C881.879 199.557 882.056 199.666 881.913 199.557C881.77 199.448 881.913 199.557 881.98 199.599L882.174 199.692L882.469 199.86L882.612 199.961L882.713 200.053C882.208 212.672 882.401 225.67 886.14 237.826C887.134 241.08 888.428 244.234 890.005 247.249C890.038 247.341 890.084 247.429 890.14 247.509C890.182 247.588 890.232 247.661 890.292 247.728C890.334 247.782 890.373 247.838 890.409 247.896C890.603 248.738 890.881 249.478 891.117 250.269C891.256 250.697 891.357 251.136 891.42 251.581C891.428 251.732 891.428 251.884 891.42 252.035C891.42 252.111 891.42 252.187 891.42 252.262V252.305V252.355C891.395 252.472 891.361 252.588 891.319 252.7C891.308 252.737 891.294 252.774 891.277 252.809C891.277 252.86 891.218 252.919 891.184 252.978C891.144 253.045 891.099 253.11 891.049 253.171V253.171L890.729 253.508C890.544 253.684 890.35 253.844 890.148 254.012C888.374 250.757 886.865 247.364 885.635 243.867L885.467 243.791ZM890.982 253.23C890.982 253.171 890.982 253.23 890.982 253.23V253.23ZM889.298 268.154C889.968 264.21 890.438 260.234 890.704 256.242C891.824 255.4 893.037 254.441 893.34 252.969C893.382 252.758 893.407 252.545 893.416 252.33C898.687 259.573 904.362 266.539 910.03 273.446C901.776 284.017 892.212 293.498 881.568 301.662C881.408 299.584 881.256 297.514 881.096 295.445C885.033 286.767 887.791 277.603 889.298 268.196V268.154ZM944.984 276.281C944.573 278.629 943.443 280.792 941.75 282.472C928.183 297.219 913.286 310.685 897.247 322.702C892.885 325.932 888.422 329.017 883.858 331.956C883.156 322.674 882.455 313.395 881.753 304.118C892.834 295.753 902.783 285.989 911.352 275.069C911.857 275.683 912.362 276.306 912.876 276.92C913.718 277.963 915.217 276.466 914.366 275.431C906.703 266.177 899.049 256.923 892.186 247.03C892.127 246.873 892.028 246.734 891.9 246.626L891.807 246.491C885.913 235.454 884.582 222.532 884.481 210.216C884.481 207.078 884.532 203.94 884.65 200.81C884.714 200.737 884.767 200.655 884.81 200.567C885.894 199.835 887.212 199.535 888.506 199.725H888.582L888.86 199.776C889.028 199.818 889.197 199.851 889.357 199.902C889.648 199.98 889.93 200.087 890.199 200.222C890.823 200.513 891.377 200.934 891.824 201.458C899.15 209.947 906.266 218.62 912.876 227.672C919.377 236.564 924.993 246.037 931.182 255.131C934.536 260.197 938.299 264.98 942.432 269.433C943.325 270.328 944.015 271.404 944.455 272.588C944.896 273.772 945.076 275.037 944.984 276.298V276.281Z" fill="black"/>
<path d="M829.478 211.243L829.385 211.184L829.495 211.26L829.478 211.243Z" fill="black"/>
<path d="M830.597 209.468C830.155 209.17 829.652 208.974 829.125 208.894C828.598 208.814 828.06 208.852 827.549 209.005C827.14 209.137 826.76 209.345 826.429 209.619C825.944 210.074 825.602 210.659 825.444 211.304C825.285 211.949 825.317 212.626 825.537 213.254C825.784 213.95 826.258 214.542 826.884 214.936C827.44 215.277 828.084 215.45 828.736 215.432C829.396 215.432 830.04 215.23 830.581 214.852C831.167 214.422 831.598 213.814 831.81 213.119C831.991 212.489 831.991 211.822 831.81 211.192C831.617 210.495 831.189 209.885 830.597 209.468V209.468ZM827.549 211.588C827.547 211.61 827.547 211.633 827.549 211.655C827.535 211.635 827.526 211.612 827.524 211.588H827.549ZM829.747 212.639C829.701 212.729 829.651 212.816 829.595 212.9V212.9C829.595 212.9 829.595 212.9 829.545 212.951L829.444 213.052C829.366 213.103 829.284 213.148 829.2 213.186H829.098H828.913C828.762 213.199 828.61 213.199 828.459 213.186H828.307L828.164 213.136C828.08 213.096 827.998 213.051 827.92 213.001V213.001C827.939 213.016 827.956 213.033 827.97 213.052L827.844 212.942L827.743 212.833C827.692 212.749 827.642 212.673 827.6 212.589C827.557 212.505 827.6 212.522 827.6 212.48C827.596 212.421 827.596 212.362 827.6 212.303C827.587 212.152 827.587 212 827.6 211.849C827.6 211.781 827.6 211.714 827.6 211.655L827.65 211.495C827.678 211.437 827.709 211.381 827.743 211.327L827.802 211.243V211.201L827.894 211.117L828.004 211.041H828.063L828.383 210.957C828.542 210.944 828.703 210.944 828.863 210.957H829.04L829.284 211.049L829.418 211.117L829.52 211.184H829.578H829.528L829.629 211.285C829.629 211.352 829.722 211.42 829.755 211.487V211.571C829.76 211.635 829.76 211.7 829.755 211.764C829.772 211.913 829.772 212.062 829.755 212.21C829.759 212.266 829.759 212.323 829.755 212.379C829.768 212.477 829.766 212.576 829.747 212.673V212.639Z" fill="black"/>
<path d="M827.878 213.06C827.751 212.941 827.802 213 827.878 213.06V213.06Z" fill="black"/>
<path d="M819.953 149.466C820.398 145.54 820.054 142.277 819.185 142.178C818.316 142.08 817.251 145.184 816.806 149.11C816.361 153.037 816.704 156.299 817.573 156.398C818.443 156.496 819.508 153.393 819.953 149.466Z" fill="black"/>
<path d="M838.953 152.466C839.398 148.54 839.054 145.277 838.185 145.178C837.316 145.08 836.251 148.184 835.806 152.11C835.361 156.037 835.704 159.299 836.573 159.398C837.443 159.496 838.508 156.393 838.953 152.466Z" fill="black"/>
<path d="M857.721 260V270M857.721 260H853M857.721 260H862.442M866.488 270V265M866.488 265V260H871.209M866.488 265H869.86M875.256 270V260L878.628 264L882 260V270" stroke="#00A4FA" stroke-width="3" stroke-linecap="round" stroke-linejoin="round"/>
</g>
<defs>
<linearGradient id="paint0_linear_172_10745" x1="819" y1="129" x2="875.5" y2="299" gradientUnits="userSpaceOnUse">
<stop stop-color="#FDE4C1"/>
<stop offset="1" stop-color="#FBBDC8"/>
</linearGradient>
<linearGradient id="paint1_linear_172_10745" x1="823.205" y1="184.053" x2="851.558" y2="277.816" gradientUnits="userSpaceOnUse">
<stop stop-color="#FDE4C1"/>
<stop offset="1" stop-color="#FBBDC8"/>
</linearGradient>
<clipPath id="clip0_172_10745">
<rect width="1622" height="584" fill="white" transform="translate(-40)"/>
</clipPath>
</defs>
</svg>
