<svg width="80" height="63" viewBox="0 0 80 63" fill="none" xmlns="http://www.w3.org/2000/svg">
<path d="M23.1295 18.8329C26.0084 18.8329 28.8873 18.8329 31.7661 18.8329C31.9501 18.8329 32.135 18.8309 32.319 18.8288C32.7554 18.8226 33.0599 18.6189 33.2214 18.2094C33.3154 17.9696 33.4074 17.7289 33.4851 17.4829C33.9592 15.9796 34.4263 14.4743 34.9005 12.972C35.1917 12.049 35.4942 11.1291 35.7906 10.2082C36.3874 8.35506 36.9853 6.50293 37.58 4.64875C37.996 3.35432 38.4037 2.0568 38.8227 0.763405C38.8892 0.559671 38.975 0.355937 39.0885 0.174841C39.2366 -0.0628484 39.4932 -0.0566746 39.6362 0.184101C39.7394 0.360053 39.81 0.556584 39.8825 0.748999C40.4916 2.348 40.9638 3.9933 41.4788 5.62317C41.7915 6.61509 42.1288 7.5998 42.4548 8.5876C42.5549 8.89114 42.652 9.19468 42.7512 9.49823C43.2683 11.0736 43.7864 12.6489 44.3015 14.2242C44.4139 14.5669 44.5069 14.9157 44.6173 15.2594C44.8942 16.1216 45.1763 16.9829 45.4573 17.8441C45.5023 17.981 45.5544 18.1157 45.5891 18.2557C45.6872 18.6457 45.584 18.9708 45.2529 19.2075C45.0782 19.333 44.8973 19.4513 44.7133 19.5625C43.9918 19.9946 43.2836 20.4535 42.5417 20.8466C41.1293 21.5947 39.6965 22.3046 38.2678 23.0198C37.8131 23.2472 37.3501 23.4571 36.879 23.6474C35.2674 24.2977 33.6598 24.9593 32.0298 25.5592C29.9031 26.3412 27.7202 26.938 25.5107 27.4371C25.4014 27.4618 25.2889 27.4782 25.1786 27.4988C24.731 27.5832 24.3314 27.4834 23.9604 27.2128C23.1398 26.6139 22.311 26.0264 21.4842 25.4347C20.1393 24.4737 18.7903 23.5198 17.4505 22.5516C16.1526 21.6132 14.8639 20.6635 13.5752 19.7127C13.4363 19.6108 13.3085 19.4832 13.2063 19.3454C13.1041 19.2075 13.1562 19.0398 13.3054 18.9688C13.4148 18.9173 13.5415 18.8823 13.6621 18.8761C14.1935 18.8515 14.726 18.8257 15.2584 18.8247C17.8808 18.8196 20.5041 18.8226 23.1265 18.8226C23.1265 18.8257 23.1265 18.8288 23.1265 18.8309L23.1295 18.8329Z" fill="#C92127"/>
<path d="M35.9255 58.0956C35.9377 56.7878 36.2126 55.7053 36.9331 54.7731C37.7711 53.6906 38.8799 53.0928 40.2361 52.9848C41.6464 52.8726 42.9443 53.1833 44.05 54.1156C44.9555 54.878 45.5462 55.8442 45.7475 57.0142C45.8845 57.8106 45.8007 58.6286 45.5564 59.3983C45.3122 60.1679 44.9596 60.9118 44.3955 61.5138C43.631 62.3298 42.6796 62.7681 41.5881 62.8967C40.4844 63.0274 39.4236 62.8535 38.4303 62.3349C37.0987 61.6393 36.2872 60.5486 36.0236 59.0597C35.9592 58.6955 35.9469 58.323 35.9244 58.0966L35.9255 58.0956ZM42.7736 57.9701C42.7603 57.967 42.747 57.9649 42.7327 57.9618C42.7266 57.8383 42.7276 57.7138 42.7113 57.5914C42.6326 56.9895 42.4241 56.4462 41.9182 56.0809C41.0363 55.444 39.9734 55.6281 39.3674 56.5357C38.7542 57.4525 38.7849 58.4249 39.2652 59.3777C39.5136 59.8695 39.9694 60.1525 40.5151 60.2307C41.4011 60.3572 42.3148 59.8088 42.5702 58.9301C42.6612 58.6173 42.7072 58.2901 42.7726 57.9701H42.7736Z" fill="#201E20"/>
<path d="M26.9629 60.2495C26.9629 59.7545 26.9629 59.2596 26.9629 58.7647C26.9629 58.6505 26.9629 58.5373 26.9752 58.4241C27.014 58.0506 27.3349 57.7717 27.7079 57.7645C28.2833 57.7532 28.8607 57.7727 29.436 57.8005C29.946 57.8252 30.4539 57.9147 30.9659 57.818C31.3767 57.7409 31.715 57.5608 31.9184 57.1626C32.0993 56.8076 31.9991 56.3693 31.6731 56.1429C31.48 56.0091 31.25 55.9145 31.0231 55.8455C30.273 55.6181 29.4912 55.6089 28.7074 55.6582C28.4897 55.6716 28.272 55.6757 28.0554 55.6572C27.8796 55.6418 27.6905 55.6654 27.5117 55.6377C27.202 55.5893 26.9946 55.402 26.9793 55.0882C26.9557 54.5953 26.9568 54.0994 26.9823 53.6055C26.9987 53.2896 27.1908 53.1147 27.5096 53.0509C27.6292 53.0272 27.7529 53.0107 27.8745 53.0118C28.8259 53.0241 29.7794 53.0179 30.7298 53.0663C31.4953 53.1054 32.2505 53.2392 32.97 53.5365C34.18 54.0366 34.7727 54.9812 34.8821 56.2499C34.9199 56.6862 34.8739 57.1358 34.8105 57.5721C34.7206 58.1864 34.4283 58.7184 34.0359 59.1948C33.9735 59.2699 33.9081 59.344 33.8468 59.4201C33.6639 59.6506 33.6332 59.9696 33.76 60.2361C33.8325 60.3873 33.9224 60.5293 34.0062 60.6744C34.2127 61.0294 34.4304 61.3793 34.6256 61.7404C34.7063 61.8906 34.7656 62.0625 34.7932 62.2312C34.8412 62.5296 34.7042 62.6716 34.3782 62.7447C34.3292 62.756 34.2791 62.7601 34.229 62.7622C33.7927 62.7766 33.3563 62.7848 32.9189 62.7982C32.3088 62.8167 31.855 62.543 31.5351 62.0367C31.388 61.8032 31.2715 61.549 31.1397 61.3052C31.0518 61.1426 30.97 60.9749 30.8647 60.8236C30.736 60.6374 30.5541 60.5304 30.318 60.5324C30.0973 60.5345 29.9368 60.6363 29.8724 60.8432C29.8244 60.9975 29.8121 61.1652 29.7999 61.3278C29.7764 61.6324 29.7815 61.94 29.7416 62.2425C29.7069 62.5049 29.4831 62.6994 29.2204 62.7087C28.642 62.7292 28.0615 62.7323 27.4831 62.7015C27.1704 62.685 26.9864 62.4483 26.9721 62.1047C26.9496 61.5696 26.9547 61.0335 26.9476 60.4974C26.9476 60.4151 26.9476 60.3328 26.9476 60.2505C26.9517 60.2505 26.9557 60.2505 26.9598 60.2505L26.9629 60.2495Z" fill="#201E20"/>
<path d="M74.6169 53.0514C75.3997 53.0195 76.299 53.0555 77.1871 53.2356C77.6194 53.3231 78.0404 53.4517 78.4328 53.6647C79.136 54.0464 79.604 54.6144 79.8135 55.3964C80.0455 56.2597 80.0619 57.124 79.8616 57.9956C79.7696 58.3948 79.5989 58.7518 79.3485 59.0729C79.2729 59.1696 79.1942 59.2653 79.1186 59.363C78.8161 59.7582 78.7956 60.0596 79.0583 60.5021C79.2474 60.82 79.4569 61.1267 79.6439 61.4467C79.7522 61.6329 79.8503 61.8284 79.9218 62.0311C80.0506 62.3964 79.9065 62.6372 79.5274 62.7061C79.3577 62.737 79.1809 62.7473 79.0082 62.7463C78.6597 62.7463 78.3123 62.7257 77.9638 62.7236C77.4937 62.7216 77.137 62.5209 76.8876 62.1227C76.719 61.8521 76.5596 61.5763 76.3848 61.3098C76.2561 61.1133 76.1212 60.9178 75.9669 60.7398C75.8166 60.5659 75.6112 60.4887 75.3833 60.5628C75.1616 60.6348 75.0757 60.8272 75.0451 61.0392C75.0164 61.2429 75.0072 61.4498 74.9929 61.6545C74.9848 61.7677 74.9919 61.8819 74.9807 61.9941C74.9326 62.4705 74.7282 62.6907 74.2561 62.7082C73.7451 62.7277 73.2321 62.7144 72.7211 62.6989C72.5934 62.6948 72.4585 62.6475 72.341 62.5909C72.0875 62.4684 71.9679 62.2647 71.9792 61.9684C72.018 60.9394 72.0446 59.9094 72.0763 58.8794C72.0793 58.7765 72.0793 58.6726 72.0875 58.5707C72.1284 58.0203 72.3716 57.7692 72.9286 57.7568C73.4293 57.7455 73.9311 57.7671 74.4319 57.7867C74.7589 57.8001 75.0849 57.8515 75.4119 57.8566C75.6971 57.8618 75.9863 57.8515 76.2673 57.8031C76.8049 57.7116 77.1023 57.3555 77.1217 56.8287C77.1431 56.2443 76.8621 55.8306 76.3378 55.6835C75.9566 55.5765 75.5673 55.5929 75.1779 55.6156C74.5545 55.6516 73.9311 55.6928 73.3077 55.7226C73.1248 55.7308 72.9378 55.7226 72.7569 55.6948C72.4074 55.6434 72.1836 55.4458 72.1529 55.0939C72.1151 54.6617 72.1039 54.2213 72.1386 53.7902C72.1693 53.4157 72.4626 53.1152 72.8335 53.071C73.0696 53.0432 73.3087 53.0504 73.5458 53.0494C73.8637 53.0473 74.1805 53.0494 74.6179 53.0494L74.6169 53.0514Z" fill="#C92127"/>
<path d="M49.6402 62.9966C48.8911 63.0223 48.1583 62.8793 47.4593 62.5953C47.1783 62.4811 46.9146 62.3123 46.6663 62.1354C46.4138 61.9543 46.3167 61.6826 46.3832 61.3688C46.4935 60.8502 46.6969 60.3666 46.9463 59.9036C47.0679 59.6772 47.2518 59.6278 47.4992 59.7142C47.6249 59.7585 47.7444 59.8192 47.865 59.8747C48.5344 60.1845 49.2375 60.3553 49.9743 60.3707C50.143 60.3738 50.3259 60.346 50.4812 60.2812C50.7326 60.1773 50.7796 59.9365 50.6039 59.7255C50.5272 59.6329 50.425 59.5496 50.3167 59.4992C49.9733 59.3397 49.6269 59.1833 49.2733 59.0516C48.7838 58.8684 48.283 58.7192 47.7935 58.5361C46.9013 58.2027 46.4711 57.4999 46.3413 56.5934C46.2493 55.9493 46.3208 55.3216 46.6254 54.7289C46.8134 54.3626 47.0669 54.0591 47.3878 53.8121C47.9171 53.4057 48.5129 53.1495 49.1711 53.027C50.1644 52.8418 51.1496 52.8634 52.1245 53.1227C52.3984 53.1958 52.6713 53.3048 52.9166 53.4458C53.3478 53.6938 53.4868 54.0786 53.3325 54.5561C53.2058 54.9481 53.0596 55.334 52.9002 55.7136C52.7438 56.0861 52.565 56.1509 52.1961 55.976C51.6422 55.7147 51.0607 55.5624 50.4536 55.5151C50.2738 55.5006 50.0837 55.5202 49.9079 55.5634C49.7137 55.6118 49.5482 55.7322 49.5226 55.9575C49.4991 56.1684 49.6228 56.3135 49.7883 56.4102C49.9467 56.5018 50.1154 56.5883 50.2901 56.6376C50.7623 56.7724 51.2354 56.9216 51.7178 57.0009C52.8798 57.1912 53.915 58.39 53.916 59.6669C53.916 60.1155 53.868 60.5487 53.7014 60.9685C53.3713 61.7968 52.7203 62.2712 51.9365 62.586C51.2058 62.8803 50.4393 63.0059 49.6422 62.9956L49.6402 62.9966Z" fill="#C92127"/>
<path d="M0.00157894 60.2949C0.00157894 59.8514 -0.00250889 59.408 0.00362286 58.9645C0.00668874 58.769 0.0179303 58.5725 0.0455232 58.379C0.0925333 58.0539 0.285684 57.8584 0.609645 57.8193C0.832432 57.7925 1.05931 57.7874 1.28414 57.7915C1.81658 57.8028 2.348 57.8316 2.88044 57.845C3.34134 57.8563 3.80122 57.8316 4.2468 57.6968C4.54419 57.6073 4.77413 57.4272 4.91312 57.1432C5.16043 56.6411 4.93866 56.0453 4.40418 55.8467C4.17833 55.7624 3.9259 55.7233 3.6837 55.7181C3.02862 55.7048 2.37355 55.7212 1.71847 55.7243C1.39144 55.7253 1.06237 55.7459 0.73739 55.7181C0.266266 55.678 0.0659624 55.4897 0.0353036 55.0215C0.0077107 54.5924 0.0209962 54.1562 0.0557428 53.7271C0.0853796 53.3608 0.343935 53.121 0.718994 53.0624C0.92032 53.0305 1.12676 53.0099 1.33013 53.013C2.29179 53.0253 3.2555 53.0264 4.21614 53.0747C4.99589 53.1138 5.75419 53.2867 6.4481 53.6746C6.98667 53.9751 7.36275 54.4227 7.61926 54.9824C8.11389 56.0618 8.18543 57.1566 7.77051 58.2545C7.48028 59.0211 6.89163 59.6426 6.14662 59.976C5.46599 60.2805 4.74449 60.4215 4.00051 60.44C3.85743 60.4441 3.71333 60.4359 3.57128 60.4513C3.15228 60.4966 2.95402 60.7096 2.93154 61.1356C2.92234 61.3105 2.92745 61.4865 2.92132 61.6614C2.91621 61.8054 2.91007 61.9495 2.8927 62.0925C2.84058 62.5247 2.67809 62.7202 2.25398 62.7397C1.72358 62.7655 1.1891 62.7583 0.659721 62.7192C0.235608 62.6873 0.0577867 62.4856 0.0424573 62.0555C0.0220181 61.469 0.0373475 60.8804 0.0373475 60.2939H0.00157894V60.2949Z" fill="#201E20"/>
<path d="M66.5812 53.0607C66.7651 53.0607 66.9501 53.0525 67.134 53.0628C67.5592 53.0854 67.8719 53.2871 68.0548 53.6781C68.1376 53.8551 68.2163 54.0341 68.2889 54.2163C68.6312 55.0662 68.9777 55.914 69.3088 56.7681C69.6399 57.6221 69.9404 58.4885 70.2837 59.3374C70.5842 60.0813 70.9245 60.8088 71.2474 61.5435C71.3098 61.6844 71.3823 61.8223 71.4345 61.9674C71.5367 62.2473 71.4743 62.4582 71.2066 62.5889C71.0185 62.6805 70.7998 62.7504 70.5934 62.7545C70.1243 62.7659 69.6532 62.7412 69.1841 62.7113C68.8295 62.6887 68.5168 62.4634 68.387 62.131C68.2173 61.6988 68.0763 61.2554 67.9159 60.8201C67.5929 59.9403 67.2669 59.0616 66.9358 58.1849C66.8786 58.0327 66.807 57.8783 66.712 57.7476C66.5638 57.5439 66.3798 57.5367 66.2306 57.7384C66.11 57.901 66.0119 58.0893 65.9414 58.2796C65.6297 59.1192 65.3282 59.963 65.0288 60.8067C64.8847 61.2142 64.7508 61.6258 64.6159 62.0363C64.4698 62.4829 64.1632 62.7082 63.6982 62.7113C63.2486 62.7144 62.7979 62.7165 62.3482 62.7124C62.247 62.7124 62.1438 62.6949 62.0457 62.6671C61.7371 62.5806 61.5971 62.3728 61.6768 62.0631C61.7637 61.7246 61.874 61.3901 62.0007 61.065C62.4821 59.8272 62.9726 58.5934 63.4621 57.3587C63.876 56.3164 64.294 55.2751 64.712 54.2348C64.7692 54.0918 64.8346 53.9518 64.8939 53.8088C65.0932 53.3283 65.4642 53.0957 65.967 53.0659C66.1714 53.0535 66.3768 53.0638 66.5812 53.0638C66.5812 53.0628 66.5812 53.0618 66.5812 53.0597V53.0607Z" fill="#C92127"/>
<path d="M21.8132 53.0103C22.7974 53.0103 23.7805 53.0082 24.7647 53.0123C24.9374 53.0123 25.1132 53.0288 25.2818 53.0658C25.5342 53.1214 25.7253 53.2891 25.7355 53.5484C25.758 54.0927 25.758 54.6391 25.7253 55.1824C25.71 55.4355 25.5168 55.6032 25.2573 55.6506C25.107 55.6773 24.9527 55.6907 24.7994 55.6959C24.5235 55.7061 24.2455 55.6948 23.9696 55.7113C23.6753 55.7288 23.4279 55.9449 23.3717 56.2361C23.3217 56.4954 23.3012 56.7608 23.2828 57.0253C23.2133 58.0254 23.2583 59.0245 23.3022 60.0247C23.3298 60.6534 23.3217 61.2831 23.3247 61.9118C23.3247 62.0034 23.3033 62.096 23.2859 62.1865C23.2287 62.4829 23.0529 62.6907 22.7565 62.7051C22.176 62.7339 21.5915 62.7525 21.012 62.7164C20.5941 62.6907 20.404 62.4376 20.3907 62.0116C20.3774 61.5887 20.3846 61.1658 20.3846 60.7429C20.3846 59.4433 20.3866 58.1427 20.3846 56.8431C20.3846 56.6579 20.3774 56.4717 20.3488 56.2896C20.2875 55.8986 20.1086 55.7319 19.7152 55.7092C19.429 55.6928 19.1418 55.7061 18.8547 55.6989C18.7014 55.6948 18.5481 55.6825 18.3968 55.6598C18.1107 55.6187 17.9012 55.4458 17.8818 55.1649C17.844 54.6432 17.8388 54.1174 17.8624 53.5947C17.8767 53.285 18.0923 53.0977 18.404 53.0535C18.5552 53.0319 18.7096 53.0175 18.8618 53.0165C19.846 53.0134 20.8291 53.0144 21.8132 53.0144V53.0103Z" fill="#201E20"/>
<path d="M58.1071 53.0503C58.9982 53.0503 59.8894 53.0503 60.7795 53.0503C60.943 53.0503 61.1076 53.0493 61.2711 53.0637C61.7187 53.1038 61.9466 53.323 61.968 53.7726C61.9864 54.1626 61.9885 54.5567 61.9578 54.9467C61.9231 55.4066 61.7095 55.6032 61.2527 55.6525C61.0493 55.6742 60.8439 55.6772 60.6395 55.6875C60.4923 55.6947 60.3431 55.6875 60.197 55.7112C59.8812 55.7606 59.6482 56.0343 59.6196 56.3533C59.5716 56.8842 59.5276 57.4182 59.5266 57.9512C59.5245 58.9411 59.5593 59.9299 59.5736 60.9198C59.5787 61.2593 59.5828 61.601 59.5624 61.9395C59.5337 62.4179 59.312 62.669 58.8378 62.6989C58.3401 62.7308 57.8383 62.7287 57.3406 62.7019C57.0003 62.6844 56.7142 62.4272 56.6671 62.0877C56.6395 61.888 56.6334 61.6853 56.6334 61.4837C56.6314 59.896 56.6324 58.3083 56.6314 56.7196C56.6314 56.5961 56.6314 56.4716 56.6171 56.3492C56.5762 55.9726 56.3973 55.776 56.0223 55.7081C55.8721 55.6803 55.7177 55.6762 55.5645 55.67C55.3192 55.6618 55.0719 55.6742 54.8276 55.6536C54.4689 55.6227 54.2584 55.4447 54.1807 55.0959C54.0887 54.6812 54.0622 54.2583 54.1337 53.8364C54.2226 53.3086 54.4771 53.0822 55.0044 53.0606C55.311 53.0472 55.6186 53.0503 55.9262 53.0493C56.6528 53.0483 57.3805 53.0493 58.1071 53.0493V53.0503Z" fill="#C92127"/>
<path d="M57.8424 11.6411C57.9855 11.8253 58.1418 11.9992 58.2675 12.1947C58.4065 12.4118 58.428 12.6546 58.3309 12.9016C58.2634 13.0724 58.2072 13.2494 58.1285 13.415C58.0079 13.6702 57.8383 13.7556 57.5593 13.7165C57.3794 13.6918 57.2006 13.6558 57.0207 13.6249C55.6758 13.0703 54.2686 12.7071 52.8869 12.2636C50.7398 11.5753 48.5374 11.1277 46.329 10.7058C46.1287 10.6677 45.9284 10.6276 45.7271 10.5936C45.3735 10.5329 45.12 10.3354 44.9984 10.003C44.8155 9.50088 44.655 8.99052 44.4925 8.48118C44.4649 8.39475 44.4588 8.29803 44.4598 8.20645C44.4608 7.92658 44.6049 7.75577 44.8839 7.73931C45.118 7.7249 45.3561 7.73005 45.5881 7.7568C48.3412 8.07372 51.0157 8.74357 53.6217 9.67375C54.9594 10.1512 56.2594 10.7336 57.5031 11.4312C57.6186 11.496 57.7289 11.5711 57.8424 11.6421V11.6411Z" fill="#201E20"/>
<path d="M55.0095 16.4645C55.1189 16.5839 55.2384 16.695 55.3365 16.8236C55.5225 17.0644 55.5348 17.2825 55.312 17.4863C54.9032 17.8577 54.4709 18.2035 54.0346 18.542C53.8598 18.6778 53.6268 18.7148 53.4204 18.6356C53.1822 18.544 52.937 18.471 52.6937 18.3918C51.962 18.2055 51.2354 17.9956 50.4976 17.8382C49.6085 17.6488 48.7112 17.4976 47.8149 17.3422C47.3857 17.2681 47.1057 17.0304 46.9841 16.6199C46.8389 16.127 46.7153 15.628 46.5855 15.131C46.5681 15.062 46.5671 14.988 46.5661 14.9159C46.5589 14.5404 46.7255 14.3407 47.0995 14.3665C47.6177 14.4025 48.1338 14.4786 48.6488 14.5507C50.2431 14.7739 51.7944 15.1721 53.3039 15.7309C53.8496 15.9325 54.3779 16.1805 54.9145 16.4069C54.9472 16.4275 54.9809 16.4491 55.0136 16.4697L55.0105 16.4655L55.0095 16.4645Z" fill="#201E20"/>
<path d="M13.2462 55.659C12.4071 55.659 11.5681 55.661 10.7291 55.6569C10.5768 55.6569 10.4225 55.6384 10.2723 55.6116C9.95442 55.555 9.76434 55.3503 9.69791 55.0416C9.60287 54.6043 9.60082 54.1618 9.69178 53.7225C9.76434 53.3747 9.97895 53.1586 10.3285 53.0958C10.4889 53.067 10.6534 53.0526 10.8159 53.0516C12.4429 53.0495 14.0699 53.0516 15.6968 53.0557C15.8695 53.0557 16.0433 53.0742 16.2139 53.103C16.4878 53.1493 16.6534 53.3304 16.7014 53.5949C16.7913 54.0949 16.7954 54.6002 16.7085 55.1002C16.6483 55.447 16.45 55.6178 16.0995 55.6476C15.7837 55.6744 15.4658 55.6816 15.149 55.6847C14.5144 55.6898 13.8808 55.6867 13.2462 55.6867C13.2462 55.6775 13.2462 55.6682 13.2462 55.659Z" fill="#C92127"/>
<path d="M13.2022 62.7548C12.3938 62.7548 11.5854 62.7579 10.7771 62.7528C10.5512 62.7517 10.3233 62.7373 10.1026 62.6982C9.84197 62.6509 9.65189 62.4266 9.6386 62.1601C9.61918 61.7701 9.61203 61.376 9.64678 60.9871C9.6897 60.5127 9.98198 60.2534 10.4633 60.2318C10.9743 60.2092 11.4863 60.2051 11.9973 60.2051C13.2758 60.2061 14.5552 60.2143 15.8337 60.2215C15.9461 60.2215 16.0596 60.2236 16.171 60.2349C16.4816 60.2689 16.7126 60.4438 16.7341 60.7515C16.7678 61.232 16.7678 61.7187 16.7382 62.1992C16.7198 62.4997 16.5154 62.6622 16.2067 62.7096C16.0453 62.7343 15.8818 62.7476 15.7182 62.7487C14.8792 62.7528 14.0402 62.7507 13.2012 62.7507V62.7538L13.2022 62.7548Z" fill="#201E20"/>
<path d="M13.1787 56.5874C14.0187 56.5874 14.8578 56.5854 15.6978 56.5895C15.8705 56.5895 16.0453 56.6049 16.217 56.6296C16.5195 56.6728 16.7136 56.8673 16.7341 57.1606C16.7647 57.6112 16.7709 58.0671 16.7341 58.5157C16.7055 58.8645 16.4919 59.0374 16.1342 59.0641C15.7571 59.0909 15.3779 59.094 14.9988 59.096C13.6171 59.1022 12.2344 59.1053 10.8527 59.1053C10.6279 59.1053 10.401 59.095 10.1792 59.061C9.84403 59.0096 9.65803 58.8213 9.63964 58.4869C9.61715 58.0763 9.61306 57.6627 9.63453 57.2532C9.65497 56.8663 9.85016 56.6646 10.2314 56.6358C10.6698 56.6018 11.1102 56.6008 11.5507 56.5957C12.0934 56.5895 12.636 56.5946 13.1787 56.5946C13.1787 56.5936 13.1787 56.5915 13.1787 56.5905V56.5874Z" fill="#201E20"/>
<path d="M55.0126 16.4671C54.9799 16.4465 54.9462 16.4249 54.9135 16.4043C54.9462 16.4249 54.9799 16.4465 55.0126 16.4671Z" fill="#E52421"/>
<path d="M43.6035 41.2452L55.9814 49.9873L51.5747 36.1797L43.6035 41.2452Z" fill="#201E20"/>
<path d="M42.6817 42.0167L43.4389 41.4961L41.6219 42.6413C41.9786 42.4386 42.3311 42.2297 42.6817 42.0167Z" fill="#C92127"/>
<path d="M61.0974 21.5166C60.9216 20.8436 60.6324 20.1974 60.3677 19.5513C60.1623 19.0481 60.1142 18.5593 60.334 18.0531C60.383 17.9399 60.4157 17.8195 60.4576 17.7032C60.6467 17.1774 60.7611 16.6383 60.8112 16.0785C60.9267 14.7934 60.4985 13.7068 59.5726 12.8569C59.0575 12.3835 58.4229 12.0419 57.8424 11.6406C57.9855 11.8248 58.1419 11.9987 58.2676 12.1942C58.4065 12.4113 58.428 12.6541 58.3309 12.9011C58.2635 13.0719 58.2073 13.2489 58.1286 13.4145C58.008 13.6697 57.8383 13.7551 57.5593 13.716C57.3795 13.6913 57.2006 13.6553 57.0208 13.6245C57.0596 13.6564 57.0984 13.6883 57.1383 13.7181C57.4398 13.9445 57.5072 14.1605 57.3243 14.4867C56.9646 15.1308 56.5619 15.7462 56.0468 16.2802C55.8118 16.5241 55.5379 16.6033 55.2129 16.4932C55.1485 16.4716 55.077 16.4726 55.0085 16.4623C55.1179 16.5817 55.2374 16.6928 55.3366 16.8214C55.5226 17.0622 55.5348 17.2803 55.312 17.4841C54.9033 17.8555 54.471 18.2013 54.0346 18.5398C53.8598 18.6756 53.6268 18.7127 53.4204 18.6334C53.1823 18.5418 52.937 18.4688 52.6938 18.3896C52.7316 18.4235 52.7704 18.4564 52.8072 18.4914C53.0382 18.7075 53.0525 18.8999 52.841 19.1294C52.751 19.2271 52.6468 19.3136 52.5395 19.3918C52.1654 19.6634 51.7832 19.9237 51.4082 20.1954C50.1798 21.0834 48.9166 21.923 47.6044 22.6793C46.233 23.4695 44.8359 24.2145 43.442 24.9615C41.7506 25.868 40.0072 26.6665 38.2484 27.429C37.1293 27.9136 35.998 28.3684 34.8708 28.8366C34.4641 29.0053 34.0614 29.1874 33.6486 29.3397C32.3609 29.8141 31.0701 30.2823 29.7763 30.7412C29.2286 30.9356 28.9026 31.2999 28.7391 31.8638C28.2536 33.5358 27.7426 35.1996 27.248 36.8686C27.1928 37.0538 27.154 37.2514 27.1499 37.4438C27.1438 37.7587 27.3267 37.9223 27.6394 37.8924C27.7999 37.877 27.9613 37.8286 28.1146 37.7762C28.9956 37.4716 29.8765 37.1639 30.7554 36.8532C33.2009 35.9889 35.5668 34.927 37.9449 33.8929C40.092 32.9596 42.1553 31.8607 44.2309 30.7854C44.7256 30.5292 45.5207 30.0868 46 29.8028C47.2284 29.0753 48.4649 28.3591 49.6729 27.5987C50.7919 26.8939 51.867 26.1212 52.9196 25.3165C54.2983 24.2629 55.6309 23.1485 56.8971 21.9611C57.1669 21.7079 57.4469 21.462 57.7382 21.2346C57.9109 21.0998 58.104 20.9784 58.3064 20.8961C58.8143 20.6893 59.2916 20.9969 59.3181 21.5474C59.3386 21.9631 59.2006 22.3346 59.0207 22.6937C58.3698 23.9943 57.4132 25.0521 56.3657 26.0316C55.8935 26.4731 55.3969 26.8898 54.9022 27.3065C54.0857 27.9949 53.2855 28.7059 52.4352 29.35C51.1762 30.3049 49.8752 31.2032 48.6019 32.1395C47.1435 33.2117 45.5963 34.1398 44.0317 35.0432C42.1288 36.1422 40.1768 37.1433 38.1769 38.0488C36.461 38.8247 34.7737 39.6694 32.9894 40.2848C32.7032 40.3835 32.4202 40.4895 32.1412 40.6058C30.5602 41.2592 28.9394 41.7942 27.3093 42.3077C26.8208 42.461 26.3426 42.6472 25.8571 42.8108C25.4596 42.9446 25.1939 43.2008 25.0631 43.6052C24.9363 43.9972 24.7871 44.3821 24.6625 44.7741C24.1709 46.3258 23.6844 47.8785 23.2 49.4322C23.1541 49.5783 23.1152 49.7316 23.1081 49.8839C23.0938 50.1658 23.2419 50.3284 23.523 50.3583C23.6231 50.3685 23.7294 50.3644 23.8285 50.3449C24.0902 50.2955 24.3508 50.242 24.6093 50.1761C26.0728 49.8026 27.4718 49.2408 28.8668 48.6738C30.2628 48.1069 31.6424 47.4998 33.018 46.8855C34.3179 46.3042 35.6128 45.7094 36.8943 45.0869C38.1482 44.4778 39.3889 43.8377 40.6234 43.1895C40.9597 43.0135 41.2918 42.8294 41.6219 42.6421L43.3664 41.5421L52.2727 35.9271C52.9513 35.3951 53.5553 34.9043 54.1388 34.3909C55.2415 33.4206 56.3105 32.4153 57.313 31.3359C58.2645 30.3111 59.1965 29.2698 60.0488 28.1605C60.5527 27.5061 60.9553 26.7879 61.1689 25.9761C61.5613 24.482 61.4816 22.989 61.0974 21.5155V21.5166Z" fill="#C92127"/>
</svg>
