<svg width="460" height="503" viewBox="0 0 460 503" fill="none" xmlns="http://www.w3.org/2000/svg">
<ellipse rx="78.1035" ry="78.0711" transform="matrix(-1 0 0 1 340.906 413.611)" fill="#4DB26E"/>
<ellipse rx="78.1035" ry="78.0711" transform="matrix(-1 0 0 1 78.1035 110.071)" fill="#55A6DD"/>
<path d="M342.824 317.84C356.088 317.241 370.263 317.25 382.862 317.782C370.242 327.484 354.213 326.595 342.824 317.84V317.84Z" fill="black"/>
<path d="M432.254 327.205C432.254 332.623 401.472 337.024 363.512 337.024C325.552 337.024 294.758 332.623 294.758 327.205C294.758 322.988 313.36 319.393 339.477 318.01C352.309 329.648 372.271 330.413 386.275 317.943C413.053 319.281 432.254 322.921 432.254 327.205V327.205Z" fill="black"/>
<path d="M387.917 316.365C386.819 317.487 385.643 318.538 384.354 319.539C413.489 320.865 429.406 324.779 430.537 327.201C429.152 330.147 405.87 335.32 363.508 335.32C321.146 335.32 297.851 330.151 296.479 327.201C297.589 324.82 313.048 320.977 341.381 319.593C340.259 318.741 338.829 317.478 337.844 316.431C317.687 317.553 293.054 320.333 293.054 327.201C293.054 338.594 360.627 338.719 363.508 338.719C366.388 338.719 433.954 338.594 433.954 327.201C433.954 320.183 408.285 317.441 387.917 316.365ZM345.122 319.435C356.583 318.974 369.527 318.974 380.601 319.377C382.101 318.409 383.606 317.241 384.741 316.215C369.103 315.488 356.512 315.525 340.94 316.273C342.142 317.358 343.559 318.451 345.126 319.435H345.122Z" fill="black"/>
<path d="M363.321 442.713C362.381 442.713 361.621 441.953 361.621 441.018L361.371 344.719C361.371 343.78 362.128 343.016 363.067 343.016H363.071C364.011 343.016 364.772 343.776 364.772 344.711L365.021 441.01C365.021 441.949 364.264 442.713 363.325 442.713H363.321Z" fill="black"/>
<path d="M341.556 442.007C340.795 441.455 340.625 440.395 341.178 439.631L362.157 410.699C362.714 409.93 363.658 409.967 363.545 409.996C364.094 409.996 364.605 410.266 364.925 410.711L385.423 439.576C385.967 440.341 385.784 441.405 385.02 441.949C384.255 442.493 383.191 442.315 382.646 441.546L363.52 414.613L343.929 441.625C343.376 442.385 342.312 442.556 341.552 442.003L341.556 442.007Z" fill="black"/>
<path d="M339.98 315.746C334.16 309.809 331.047 302.009 331.217 293.786C331.371 286.311 334.297 279.16 339.452 273.647C339.776 273.298 340.283 273.102 340.711 273.107C353.689 273.244 369.077 273.389 384.823 273.426C385.301 273.426 385.759 273.63 386.079 273.983C391.37 279.805 394.197 287.296 394.035 295.083C393.47 322.482 359.246 335.391 339.98 315.746V315.746ZM341.439 276.518C337.17 281.338 334.75 287.467 334.621 293.857C334.468 301.162 337.236 308.088 342.411 313.365C359.525 330.817 390.128 319.507 390.635 295.012C390.772 288.347 388.44 281.915 384.054 276.825C368.874 276.788 354.055 276.651 341.439 276.518V276.518Z" fill="black"/>
<path d="M361.163 276.156C360.232 276.019 359.592 275.159 359.725 274.228C360.448 269.28 359.155 264.04 356.246 259.968C351.76 266.762 343.434 263.658 343.122 258.476C342.848 253.839 348.938 249.676 355.015 253.893C355.036 253.794 355.053 253.698 355.073 253.607C357.414 240.988 348.859 228.788 336.172 226.702C335.245 226.549 334.618 225.676 334.771 224.749C334.925 223.823 335.798 223.195 336.729 223.349C343.692 224.496 350.01 228.464 354.063 234.235C358.889 241.104 359.941 249.925 357.854 256.511C362.011 261.356 364.044 268.224 363.092 274.727C362.955 275.662 362.086 276.302 361.163 276.165V276.156ZM347.707 259.935C349.773 261.115 352.263 260.388 353.86 257.296C352.791 256.378 351.494 255.622 350.06 255.526C347.392 255.348 344.985 258.381 347.707 259.935ZM366.276 275.346C365.524 274.785 365.366 273.721 365.927 272.965C369.019 268.806 370.096 263.113 368.733 258.111C368.134 255.913 367.132 253.864 366.554 251.463C364.414 242.537 371.023 240.805 373.28 238.37C374.793 236.741 375.433 234.078 374.993 231.252C374.565 228.481 373.259 225.809 371.996 223.229C371.584 222.385 371.933 221.367 372.777 220.956C373.621 220.544 374.64 220.893 375.051 221.737C376.36 224.417 377.844 227.45 378.352 230.733C378.958 234.639 378.015 238.266 375.77 240.688C373.974 242.62 371.472 243.622 370.354 245.305C368.163 248.6 370.994 253.494 372.008 257.221C373.638 263.205 372.353 270.019 368.65 274.997C368.088 275.753 367.02 275.907 366.268 275.346H366.276Z" fill="black"/>
<path d="M391.574 287.088C373.255 295.56 351.236 295.618 332.875 287.242C333.345 291.704 333.682 298.51 334.812 300.584C351.851 305.985 373.03 306.305 389.936 300.496C391.171 295.88 392.214 291.821 391.578 287.088H391.574Z" fill="black"/>
<path d="M458.3 444.167H326.221C325.282 444.167 324.521 443.407 324.521 442.468C324.521 441.529 325.282 440.769 326.221 440.769H458.3C459.24 440.769 460 441.529 460 442.468C460 443.407 459.24 444.167 458.3 444.167Z" fill="black"/>
<path d="M414.608 303.401C414.533 303.401 414.454 303.396 414.379 303.384C413.448 303.259 412.795 302.403 412.92 301.473C415.427 282.754 411.611 263.437 402.17 247.078C401.701 246.264 401.979 245.225 402.794 244.755C403.605 244.286 404.648 244.564 405.118 245.379C414.932 262.386 418.898 282.467 416.291 301.921C416.179 302.777 415.447 303.396 414.608 303.396V303.401Z" fill="black"/>
<path d="M432.15 281.79C431.21 281.732 430.5 280.922 430.558 279.987C431.156 270.517 429.257 261.014 425.058 252.505C424.643 251.661 424.988 250.643 425.831 250.228C426.671 249.812 427.694 250.157 428.109 251.001C432.57 260.042 434.59 270.139 433.954 280.203C433.896 281.129 433.098 281.848 432.15 281.794V281.79Z" fill="black"/>
<path d="M118.018 284.524C122.869 315.779 162.567 329.723 196.187 320.794C197.339 320.487 198.785 319.464 198.149 318.459C197.854 317.994 197.243 317.869 196.699 317.786C175.723 314.628 152.632 312.837 134.084 300.584C124.977 294.567 117.324 285.958 113.811 275.624C113.936 280.855 116.276 285.999 120.142 289.535M262.131 481.393C255.368 474.138 251.062 464.627 250.072 454.759C250.505 459.055 220.509 448.514 218.95 448.21C221.511 462.919 250.451 475.933 262.131 481.393ZM349.911 453.03C346.685 448.293 343.46 443.557 340.23 438.824C341.93 441.317 321.645 448.692 323.22 453.138C325.473 459.491 345.488 454.381 349.907 453.034L349.911 453.03Z" fill="#C9C8C7"/>
<path d="M322.626 451.815L340.906 441.295L350.323 452.923C346.445 455.137 336.474 456.798 335.921 456.798C335.367 456.798 329.273 457.352 325.396 455.691C322.294 454.362 322.257 452.553 322.626 451.815Z" fill="#195C2F"/>
<path d="M209.626 57.5064C209.626 51.4933 210.291 45.872 208.246 40.9731C207.764 39.818 204.922 40.0008 204.087 40.973C198.3 47.7168 178.358 58.192 162.783 52.0469C160.946 51.1619 159.059 52.6006 156.494 53.708C152.017 56.4765 151.763 62.2141 153.376 65.8997C154.652 68.8207 156.818 70.5866 159.059 72.0409C156.556 84.0242 155.342 99.0823 154.395 112.325C154.328 113.26 155.031 114.074 155.97 114.14C156.872 114.215 157.72 113.525 157.787 112.566C158.755 99.0076 160.16 84.7846 162.783 72.8429C162.937 72.1365 162.222 70.5493 161.607 70.1711C158.88 68.4966 157.475 66.7806 156.494 64.5368C155.517 62.3055 156.461 59.2765 157.907 58.192C158.992 57.3776 160.418 57.1407 161.607 57.5064C176.39 58.192 185.807 55.9228 203.533 44.2952C205.491 48.201 206.856 53.3295 206.856 57.5064C206.856 68.1041 206.217 83.6921 198.547 90.8056C199.096 91.9857 199.655 91.9228 199.655 93.0204C208.784 84.7247 209.626 70.1711 209.626 57.5064Z" fill="black"/>
<path d="M329.193 499.597H209.135C208.196 499.597 207.435 500.357 207.435 501.296C207.435 502.235 208.196 502.996 209.135 502.996H329.193C330.132 502.996 330.893 502.235 330.893 501.296C330.893 500.357 330.132 499.597 329.193 499.597Z" fill="black"/>
<path d="M155.188 57.4565C152.461 60.3734 153.284 65.692 157.624 68.239C158.908 68.9911 160.476 69.5313 161.141 70.9025C161.735 72.1282 161.386 73.5991 161.028 74.9204C160.247 77.8082 159.603 82.0714 158.821 84.9592C159.174 81.3401 158.85 75.9883 157.271 72.7432C153.97 65.962 145.274 68.2847 154.71 32.6464C155.625 29.1977 156.809 25.3792 159.84 23.7088C162.134 22.4415 164.894 22.7614 167.467 22.4041C174.152 21.4775 172.127 15.7892 177.622 15.4485C179.14 15.3571 180.624 15.8848 181.85 16.803C184.12 18.5025 187.196 18.3238 189.066 16.1715C196.615 7.50391 207.502 9.31138 211.775 15.8141C213.924 19.0842 214.07 23.634 212.432 27.1201C211.368 29.3847 211.783 32.1146 213.554 33.8431C218.617 38.7835 217.927 46.7239 211.891 50.5009C209.472 52.0175 206.163 51.3776 204.413 48.5106C202.518 45.4068 198.373 44.9248 195.888 47.5259C191.107 52.5369 185.124 54.448 178.606 55.9231C174.087 56.9452 170.851 57.4524 165.866 57.4524C162.22 57.0493 158.659 53.7336 155.184 57.4524L155.188 57.4565Z" fill="black"/>
<path d="M158.223 88.0256C157.354 87.8677 156.751 87.0658 156.834 86.189C157.175 82.6904 156.809 77.6835 155.446 74.8789C152.387 68.6005 143.109 70.0797 152.769 33.6062C155.267 24.1658 158.435 22.6742 164.732 22.3002C167.11 22.1589 169.417 22.0467 170.864 19.7864C172.543 17.1396 173.778 15.357 177.224 15.1451C179.053 15.0329 180.969 15.6313 182.578 16.8362C184.182 18.0371 186.252 17.875 187.491 16.4498C195.788 6.92217 207.993 8.80027 212.906 16.2753C215.3 19.9193 215.612 25.1298 213.679 29.2392C212.914 30.868 213.23 32.8334 214.448 34.0217C220.338 39.7682 219.436 48.9967 212.503 53.3347C209.186 55.408 204.833 54.336 202.73 50.8873C201.283 48.5189 198.934 47.6089 196.332 49.0217C187.469 55.4081 181.376 56.8499 167.405 57.5839C164.387 56.6573 160.763 57.282 158.913 56.8499C155.525 56.0562 152.881 65.0396 158.198 68.1601C158.456 68.3096 158.726 68.4509 158.996 68.5922C162.425 70.3913 163.614 72.2071 162.384 76.7486C161.644 79.4786 160.962 83.8913 160.177 86.7874C159.973 87.5394 159.092 88.1752 158.227 88.0173L158.223 88.0256ZM157.445 71.6296C158.227 72.714 158.776 73.7819 159.25 75.2777C159.798 73.0215 159.428 72.6683 157.445 71.6296ZM177.432 18.5398C175.382 18.6645 174.991 19.7157 173.728 21.6188C172.373 23.7337 170.128 25.1049 167.405 25.483C161.278 26.3306 158.713 24.4567 156.061 34.4746C153.829 42.9012 151.447 51.9178 151.979 60.685C152.91 57.523 154.482 52.7363 158.027 53.559L160.642 54.1615C162.982 54.8263 163.435 54.8263 165.672 55.4081C178.052 54.1615 181.929 55.4081 194.67 45.9563C197.92 42.5533 203.096 44.9538 205.577 49.0217C205.677 49.1338 206.313 50.4884 208.038 50.8956C208.957 51.1117 209.901 50.9538 210.703 50.4552C215.782 47.2765 216.36 40.6367 212.079 36.4566C209.805 34.2378 209.21 30.7558 210.607 27.7932C212.058 24.7143 211.842 20.8376 210.071 18.1451C206.4 12.5565 196.885 10.8529 190.068 18.6853C187.666 21.4442 183.571 21.8265 180.549 19.562C179.651 18.8889 178.566 18.4817 177.444 18.544L177.432 18.5398ZM191.024 111.39C190.097 111.39 189.341 110.646 189.324 109.719C189.249 105.107 189.079 104.534 188.996 99.7513C188.979 98.8122 189.727 98.0394 190.667 98.0228C191.627 98.0228 192.201 98.7582 192.217 99.7014C192.292 104.314 192.641 104.883 192.724 109.665C192.741 110.604 191.993 111.377 191.053 111.394H191.024V111.39ZM135.664 23.2808C134.882 22.7573 134.674 21.7019 135.198 20.9207C144.996 6.31968 162.978 -1.93235 179.959 0.386195C180.89 0.515003 181.543 1.37095 181.414 2.3017C181.285 3.23244 180.433 3.88479 179.497 3.75598C163.78 1.60364 147.116 9.2698 138.025 22.8154C137.497 23.5966 136.441 23.8002 135.664 23.2808ZM116.563 142.229C115.757 142.229 115.042 141.655 114.892 140.833C113.899 135.415 115.811 129.68 119.88 125.862C120.562 125.222 121.643 125.251 122.283 125.937C122.927 126.622 122.894 127.698 122.208 128.338C119.024 131.326 117.465 135.988 118.238 140.218C118.409 141.14 117.793 142.029 116.871 142.196C116.767 142.216 116.663 142.225 116.563 142.225V142.229Z" fill="black"/>
<path d="M150.025 171.647C149.402 168.131 148.047 164.35 144.779 162.547C141.454 160.71 136.927 161.645 134.238 164.213C131.548 166.781 130.555 170.637 130.954 174.244C131.332 177.655 132.824 180.863 134.3 184.008C136.458 188.604 138.615 193.203 140.772 197.799C144.21 205.128 148.163 196.461 148.724 192.725C149.797 185.57 151.327 178.943 150.03 171.643L150.025 171.647Z" fill="#C9C8C7"/>
<path d="M138.519 189.85H138.507C137.568 189.842 136.811 189.073 136.819 188.134C136.828 187.091 136.84 185.791 137.326 184.54C137.95 182.932 139.293 181.76 140.826 181.486C141.105 181.436 141.392 181.415 141.679 181.403C141.841 181.395 142.061 181.382 142.136 181.361C142.369 181.287 142.743 180.614 142.992 180.165C143.574 179.114 144.568 177.352 146.667 177.443C147.606 177.485 148.334 178.278 148.292 179.217C148.251 180.136 147.502 180.9 146.584 180.846C146.417 181.008 146.147 181.49 145.968 181.818C145.428 182.795 144.684 184.129 143.158 184.607C142.668 184.76 142.219 184.781 141.853 184.802C141.712 184.81 141.571 184.81 141.433 184.835C141.014 184.91 140.66 185.363 140.502 185.774C140.245 186.443 140.236 187.32 140.228 188.167C140.22 189.102 139.459 189.854 138.528 189.854L138.519 189.85ZM146.588 179.143L146.513 180.842L146.588 179.143ZM146.126 235.544C145.283 235.544 144.551 234.917 144.439 234.061L142.464 218.591C142.344 217.66 143.005 216.809 143.936 216.688C144.863 216.576 145.719 217.228 145.84 218.159L147.814 233.628C147.935 234.559 147.274 235.411 146.343 235.531C146.268 235.54 146.197 235.544 146.126 235.544V235.544ZM143.092 213.277C142.236 213.277 141.496 212.629 141.404 211.76L140.818 206.346C140.714 205.411 141.392 204.572 142.327 204.472C143.275 204.372 144.102 205.046 144.202 205.98L144.788 211.399C144.888 212.334 144.214 213.173 143.279 213.273C143.217 213.281 143.154 213.281 143.096 213.281L143.092 213.277ZM180.566 185.878C178.97 185.878 178.246 183.867 179.493 182.857C180.321 182.188 179.764 180.264 178.965 178.69C177.382 175.561 176.621 172.44 179.256 170.101C176.06 168.676 174.929 164.729 175.744 161.67C176.554 158.633 178.82 156.302 180.636 154.428C181.289 153.755 182.366 153.738 183.043 154.391C183.721 155.043 183.733 156.119 183.081 156.796C181.455 158.467 179.618 160.366 179.032 162.547C178.575 164.255 179.227 166.54 180.886 167.089C181.11 167.159 182.303 167.413 182.943 168.385C184.195 170.301 182.357 171.904 181.667 172.507C181.538 172.619 181.414 172.727 181.302 172.835C180.474 173.633 181.227 175.623 182 177.152C184.515 182.122 182.852 184.515 181.634 185.5C181.318 185.753 180.94 185.878 180.566 185.878V185.878Z" fill="black"/>
<path d="M253.892 176.961C253.306 177.568 252.633 178.179 251.772 178.32C250.575 178.52 249.395 177.709 248.829 176.691C248.01 175.22 248.276 175.981 246.256 145.158C249.129 149.662 252.005 154.171 254.882 158.675C257.438 154.91 258.972 150.539 259.325 146.068C258.668 151.042 261.03 155.741 260.801 160.752C260.527 166.69 258.141 172.557 253.896 176.957L253.892 176.961Z" fill="#C9C8C7"/>
<path d="M162.026 307.208C160.185 307.066 157.657 305.683 156.547 304.735C146.193 295.922 136.274 287.047 128.68 275.425C126.09 271.466 126.772 272.459 124.727 267.776C124.349 266.916 124.743 265.914 125.604 265.536C126.464 265.158 127.466 265.553 127.844 266.413C129.865 271.038 129.133 269.891 131.527 273.564C138.872 284.808 148.595 293.5 158.75 302.143C159.611 302.874 161.469 303.751 162.3 303.813C162.916 303.867 163.988 303.543 164.383 303.231C162.766 301.686 156.551 296.055 155.803 295.27C155.155 294.593 155.18 293.517 155.857 292.864C156.539 292.216 157.616 292.241 158.264 292.918C159.179 293.874 166.291 300.256 167.309 301.337C167.471 301.507 167.592 301.711 167.671 301.931C168.843 305.201 165.185 307.469 162.022 307.199L162.026 307.208Z" fill="black"/>
<path d="M164.919 303.759C164.229 303.123 164.184 302.047 164.824 301.357C165.46 300.667 166.536 300.622 167.226 301.261C168.922 302.824 171.35 302.732 171.919 302.346C171.944 301.328 170.822 300.289 170.132 299.745C168.864 298.752 165.414 294.584 163.98 293.608C163.202 293.08 163.003 292.021 163.531 291.244C164.059 290.467 165.119 290.267 165.896 290.795C167.783 292.079 171.25 296.296 172.231 297.065C175.074 299.292 175.465 301.457 175.291 302.882C175.137 304.116 174.268 305.117 172.892 305.62C170.676 306.435 167.28 305.932 164.923 303.759H164.919Z" fill="black"/>
<path d="M171.953 301.428C171.275 300.775 171.259 299.699 171.911 299.022C172.564 298.349 173.641 298.328 174.318 298.98C177.003 301.573 180.603 300.285 179.207 297.21C178.82 296.354 179.198 295.349 180.055 294.958C180.911 294.567 181.917 294.95 182.308 295.802C185.192 302.155 177.523 306.8 171.957 301.423L171.953 301.428Z" fill="black"/>
<path d="M170.88 290.479C170.115 289.934 169.932 288.875 170.473 288.11C171.017 287.341 172.077 287.163 172.846 287.703C179.115 292.141 183.729 296.732 185.803 295.739C185.911 295.685 186.015 295.618 186.094 295.357C186.46 294.152 185.595 291.613 184.552 289.855C180.74 283.452 175.648 279.667 169.384 275.387C168.606 274.855 168.411 273.8 168.939 273.023C169.471 272.246 170.527 272.051 171.304 272.578C177.693 276.945 183.317 281.13 187.478 288.118C189.569 291.634 190.966 297.031 187.283 298.805C182.831 300.949 178.379 295.785 170.884 290.483L170.88 290.479Z" fill="black"/>
<path d="M179.61 282.368C179.543 281.433 180.246 280.619 181.185 280.548C183.23 280.398 184.714 277.889 182.989 274.577C180.902 270.576 177.481 268.34 172.215 267.547C165.165 266.483 155.4 264.015 151.975 254.89C151.647 254.009 152.091 253.029 152.969 252.7C153.85 252.368 154.831 252.817 155.159 253.694C157.287 259.361 162.866 262.693 172.722 264.181C179.065 265.137 183.409 268.025 186.003 273.002C188.938 278.632 185.774 283.623 181.426 283.934C180.454 283.997 179.672 283.27 179.606 282.36L179.61 282.368ZM171.953 301.423C171.275 300.771 171.259 299.695 171.911 299.017C172.564 298.344 173.64 298.323 174.318 298.976C177.003 301.569 180.603 300.281 179.206 297.206C178.82 296.35 179.198 295.344 180.054 294.954C180.911 294.563 181.917 294.945 182.307 295.797C185.192 302.15 177.523 306.796 171.957 301.419L171.953 301.423ZM286.178 187.873C285.289 187.578 284.802 186.614 285.098 185.724C288.124 176.587 292.197 166.931 292.887 157.586C292.925 157.009 292.592 155.878 292.056 154.752C290.585 153.676 289.354 153.211 287.612 152.675C285.139 151.914 287.255 152.301 270.37 145.935C262.214 142.86 261.74 142.553 261.241 142.628C261.233 142.632 261.221 142.636 261.212 142.64C261.138 142.669 260.946 142.848 260.763 143.866C259.836 149.047 257.754 154.071 256.964 158.646C256.702 160.158 254.715 160.578 253.867 159.294C253.713 159.065 253.564 158.845 253.41 158.625C228.053 121.092 226.69 118.507 222.317 115.046C216.157 110.251 211.451 111.884 198.573 111.602C197.634 111.581 196.89 110.804 196.91 109.865C196.931 108.884 197.771 108.161 198.648 108.203C204.289 108.323 206.396 108.24 207.369 108.215C214.781 108.036 220.18 108.199 226.017 113.754C229.832 117.286 230.477 118.62 254.503 154.166C255.493 150.456 256.74 147.074 257.421 143.268C258.07 139.723 260.186 138.381 263.873 139.827C271.737 142.885 279.781 145.723 287.571 149.068C288.327 149.392 292.014 150.439 292.75 151.158C294.259 152.155 294.596 152.234 294.895 152.808C295.357 153.701 296.417 155.974 296.292 157.84C295.564 167.704 291.433 177.477 288.336 186.809C288.041 187.694 287.085 188.184 286.187 187.889L286.178 187.873ZM261.208 142.628C261.208 142.628 261.208 142.628 261.204 142.628C261.204 142.628 261.204 142.628 261.208 142.628Z" fill="black"/>
<path d="M291.137 154.038C290.214 153.863 289.607 152.97 289.786 152.047C290.588 147.846 292.696 143.326 294.491 139.378C296.69 134.529 299.243 130.748 302.29 127.819C305.644 124.595 309.672 122.583 313.571 120.643C316.942 118.964 318.202 118.329 318.909 117.577C320.185 116.218 318.871 114.381 317.159 115.025C316.086 115.416 303.495 121.744 302.352 122.305C301.508 122.721 300.49 122.376 300.074 121.532C299.658 120.689 300.003 119.671 300.847 119.255C302.007 118.686 302.502 118.424 309.369 115.009C314.211 112.599 314.81 112.258 315.982 111.834C321.02 109.944 325.136 115.91 321.394 119.903C320.089 121.295 318.156 122.164 315.093 123.689C311.256 125.6 307.631 127.403 304.655 130.27C300.066 134.687 297.518 141.036 297.314 141.41C295.68 145.004 293.826 149.081 293.14 152.683C292.966 153.605 292.072 154.212 291.149 154.033L291.137 154.038Z" fill="black"/>
<path d="M296.724 116.089C296.242 115.283 296.504 114.24 297.311 113.758C299.231 112.607 301.139 111.518 303.043 110.426C309.199 106.902 310.791 105.664 314.083 104.854C315.738 104.446 318.178 104.064 320.298 105.419C323.303 107.347 322.006 111.905 319.496 113.908C318.764 114.493 317.691 114.373 317.105 113.642C316.519 112.906 316.64 111.838 317.371 111.252C318.082 110.687 319.08 108.68 318.46 108.282C317.675 107.779 316.577 107.737 314.898 108.153C312.08 108.847 310.583 110.027 304.73 113.372C302.843 114.452 300.956 115.532 299.056 116.671C298.242 117.157 297.202 116.887 296.72 116.085L296.724 116.089Z" fill="black"/>
<path d="M294.455 109.915C294.039 109.072 294.388 108.054 295.232 107.638C307.104 102.016 311.061 99.2905 314.661 99.0371C316.91 98.8667 318.718 100.761 319.267 102.615C320.389 106.404 316.353 109.067 315.073 106.745C314.619 105.922 314.919 104.887 315.742 104.435C315.908 104.343 316.187 104.189 316.008 103.579C315.8 102.881 315.235 102.44 314.902 102.428C312.308 102.61 308.654 104.995 296.737 110.688C295.893 111.103 294.875 110.754 294.459 109.911L294.455 109.915Z" fill="black"/>
<path d="M294.571 102.133C294.081 101.331 294.334 100.284 295.136 99.7933C296.454 98.9913 305.287 94.7365 307.902 94.6659C312.096 94.5412 316.232 97.537 314.478 101.405C314.092 102.261 313.082 102.639 312.225 102.253C311.369 101.867 310.991 100.857 311.377 100.001C311.548 99.6312 311.473 99.4692 311.377 99.3196C310.912 98.6174 309.349 98.0315 307.994 98.0689C306.514 98.1104 298.686 101.617 296.907 102.702C296.105 103.188 295.058 102.939 294.571 102.137V102.133ZM263.141 141.805C262.352 141.294 262.127 140.243 262.634 139.454C263.919 137.463 263.266 134.297 264.077 131.335C264.326 130.429 265.261 129.897 266.168 130.146C267.074 130.396 267.606 131.33 267.356 132.236C266.666 134.754 267.402 138.336 265.49 141.299C264.979 142.088 263.927 142.312 263.137 141.805H263.141Z" fill="black"/>
<path d="M281.776 129.522C280.962 129.057 280.679 128.018 281.145 127.204C284.092 122.047 279.922 112.972 286.731 107.845C288.373 106.603 290.219 106.008 291.778 105.098C293.045 104.359 293.852 103.42 293.781 102.763C293.727 102.206 292.979 101.429 291.815 101.068C287.509 99.7259 277.686 103.694 273.903 110.6C271.339 115.287 270.254 121.482 269.223 127.258C269.04 128.18 268.142 128.778 267.219 128.591C266.3 128.409 265.702 127.511 265.885 126.589C266.978 120.485 268.125 114.073 270.919 108.967C273.87 103.578 280.288 99.0528 286.893 97.7148C293.212 96.4226 296.878 99.3769 297.173 102.418C297.389 104.488 296.051 106.536 293.503 108.028C291.948 108.938 290.015 109.623 288.785 110.554C283.58 114.472 287.679 122.629 284.1 128.891C283.788 129.439 282.591 129.988 281.78 129.522H281.776ZM118.218 268.785C113.587 256.959 108.387 243.048 105.273 227.587C105.099 226.743 104.932 225.891 104.766 225.027C104.592 224.105 105.194 223.216 106.117 223.037C107.04 222.858 107.929 223.465 108.108 224.387C108.27 225.235 108.432 226.07 108.607 226.905C111.538 241.469 116.376 254.699 120.803 266.063C128.069 263.69 132.322 261.472 137.642 258.405C140.249 256.905 142.942 255.355 145.831 254.117C149.485 252.521 153.031 252.247 157.109 251.961C153.484 245.4 150.77 238.062 149.028 230.105C148.887 229.461 148.758 228.821 148.629 228.181C147.44 222.094 146.8 215.603 146.733 208.885C146.684 203.699 145.624 199.278 144.501 194.599C143.632 190.968 142.73 187.207 142.29 182.965C142.194 182.03 142.872 181.195 143.807 181.099C144.742 181.004 145.578 181.681 145.673 182.616C146.089 186.634 146.962 190.282 147.806 193.806C148.924 198.464 150.076 203.279 150.13 208.851C150.192 215.362 150.811 221.645 151.959 227.52C152.083 228.135 152.204 228.754 152.341 229.373C154.22 237.941 157.263 245.749 161.386 252.575C161.69 253.078 161.715 253.706 161.444 254.229C161.174 254.753 160.655 255.102 160.069 255.147C159.221 255.218 158.402 255.272 157.608 255.33C153.571 255.613 150.383 255.833 147.178 257.233C144.464 258.397 141.858 259.897 139.338 261.347C133.361 264.787 128.614 267.214 120.296 269.786C119.436 270.052 118.529 269.607 118.209 268.78L118.218 268.785ZM105.265 169.494C104.421 169.494 103.69 168.867 103.577 168.007C102.916 162.792 104.97 131.384 112.772 121.964C113.965 120.522 115.374 118.873 117.025 117.51C121.206 114.073 126.498 111.767 134.192 110.031C134.226 110.022 134.263 110.018 134.296 110.01C139.925 108.755 145.532 108.065 150.961 106.96C151.871 106.777 152.777 107.367 152.969 108.285C153.156 109.208 152.561 110.105 151.643 110.292C146.181 111.402 140.415 112.125 134.957 113.346C129.474 114.481 123.522 116.579 119.199 120.132C117.781 121.303 116.547 122.749 115.403 124.133C108.466 132.51 106.379 162.946 106.965 167.579C107.086 168.509 106.425 169.361 105.489 169.482C105.419 169.49 105.344 169.494 105.273 169.494H105.265ZM104.787 214.885C103.926 214.885 103.187 214.232 103.095 213.36C102.837 210.867 102.634 208.315 102.497 205.777C102.093 198.231 102.097 187.278 102.497 176.479C102.534 175.54 103.357 174.825 104.259 174.842C105.198 174.879 105.93 175.669 105.897 176.604C105.498 187.303 105.494 198.139 105.893 205.59C106.03 208.07 106.225 210.567 106.479 213.006C106.574 213.941 105.897 214.777 104.961 214.872C104.903 214.876 104.841 214.88 104.783 214.88L104.787 214.885ZM252.915 180.368C252.13 179.853 251.91 178.797 252.425 178.012C253.244 176.766 253.227 175.041 253.206 173.217C253.173 169.993 253.294 168.314 254.927 165.867C255.788 164.57 256.399 163.951 253.992 160.719C253.431 159.967 253.589 158.899 254.341 158.338C255.094 157.777 256.158 157.935 256.723 158.687C259.99 163.083 259.45 165.214 257.758 167.753C257.575 168.027 257.388 168.298 257.239 168.588C255.73 171.435 257.746 176.113 255.272 179.878C254.757 180.659 253.705 180.883 252.915 180.368V180.368ZM238.899 160.96C238.583 157.71 236.899 154.611 234.276 152.446C233.549 151.848 233.449 150.775 234.048 150.052C234.646 149.325 235.719 149.226 236.442 149.824C239.755 152.554 241.887 156.497 242.286 160.631C242.378 161.566 241.692 162.397 240.757 162.489C239.797 162.576 238.99 161.874 238.899 160.96V160.96ZM231.404 163.939L230.664 160.702C230.456 159.788 231.026 158.874 231.944 158.666C232.867 158.458 233.773 159.032 233.981 159.946L234.721 163.187C234.929 164.101 234.355 165.015 233.441 165.223C232.535 165.431 231.612 164.865 231.404 163.943V163.939Z" fill="black"/>
<path d="M147.681 114.252C147.161 113.471 147.373 112.416 148.159 111.897C148.94 111.377 150 111.589 150.516 112.374C155.371 119.696 164.782 124.383 173.915 124.025C182.59 123.689 192.429 117.273 196.802 109.096C197.247 108.265 198.278 107.957 199.105 108.398C199.932 108.838 200.248 109.873 199.803 110.7C194.828 120.007 183.995 127.042 174.048 127.424C163.398 127.827 153.151 122.5 147.685 114.252H147.681ZM163.344 264.285C163.19 264.285 163.036 264.264 162.887 264.223C161.98 263.969 161.453 263.03 161.706 262.128C165.048 250.153 168.951 237.077 172.73 224.429C176.45 211.968 180.3 199.083 183.596 187.291C183.791 186.584 184.419 186.086 185.151 186.048C224.254 184.133 259.113 184.582 299.247 184.968C300.34 184.981 301.143 186.003 300.885 187.066C298.84 195.559 296.367 204.593 292.866 216.347C292.6 217.249 291.644 217.756 290.751 217.49C289.849 217.224 289.337 216.277 289.603 215.375C292.804 204.634 295.136 196.187 297.069 188.346C258.211 187.972 224.291 187.578 186.539 189.381C183.309 200.874 179.589 213.331 175.989 225.393C172.215 238.025 168.315 251.088 164.982 263.034C164.774 263.786 164.088 264.277 163.344 264.277V264.285ZM168.702 266.437C167.763 266.404 167.031 265.614 167.064 264.675C167.097 263.736 167.921 263.013 168.827 263.038C182.823 263.549 195.763 263.828 209.489 263.799C230.356 263.765 248.925 263.051 275.67 262.303C278.588 251.67 281.789 241.158 284.89 230.982C285.708 228.298 286.519 225.626 287.33 222.958C287.6 222.057 288.556 221.554 289.45 221.824C290.347 222.094 290.859 223.045 290.584 223.943C289.778 226.615 288.963 229.291 288.144 231.975C284.935 242.516 281.614 253.415 278.621 264.418C278.426 265.141 277.777 265.652 277.029 265.673C249.565 266.433 230.664 267.169 209.501 267.202C195.539 267.227 182.79 266.957 168.706 266.441L168.702 266.437Z" fill="black"/>
<path d="M324.267 395.494C306.231 361.377 284.819 306.899 258.552 275.433C258.357 275.304 256.124 272.981 251.531 269.412C251.02 269.013 250.957 268.307 251.327 267.825C251.373 267.766 251.419 267.712 251.477 267.679C251.273 267.463 251.07 267.272 250.866 267.068C226.44 265.61 202.244 265.132 177.972 265.39C181.962 266.478 184.889 268.336 186.601 272.1C188.314 275.865 187.782 281.611 183.779 282.687C186.285 285.214 188.917 287.994 189.416 291.509C189.927 295.024 187.021 299.162 183.542 298.448C184.224 300.318 183.475 302.599 181.829 303.708C180.183 304.818 177.793 304.672 176.305 303.347C175.025 306.567 170.282 307.722 167.675 305.453C166.395 307.631 163.39 308.275 160.95 307.597C158.51 306.908 156.514 305.204 154.598 303.55C142.747 293.325 130.222 281.998 126.835 266.715C124.27 267.363 121.888 268.735 120.051 270.638C118.122 262.951 115.353 255.663 111.966 248.495C112.148 272.653 115.154 293.582 137.281 307.493C158.613 320.906 184.053 321.791 208.483 318.579H208.495C217.029 317.478 225.8 315.696 225.917 315.679C252.329 350.885 286.153 418.185 313.829 455.477C324.151 450.047 335.99 442.597 346.311 437.166C338.962 423.279 331.625 409.377 324.276 395.49L324.267 395.494ZM326.296 427.123C324.562 426.238 323.186 424.684 322.393 423.097C321.112 420.533 320.884 417.62 320.692 415.048C320.559 413.573 322.837 413.361 322.95 414.878C323.141 417.35 323.336 419.91 324.425 422.087C325.706 424.626 328.096 425.835 329.505 425.602C330.964 425.548 331.138 427.671 329.709 427.858C328.777 427.983 327.884 428.561 327.268 429.446C325.003 432.716 328.557 435.845 331.296 434.98C331.899 434.789 332.531 435.126 332.726 435.716C332.909 436.318 332.581 436.95 331.991 437.145C330.34 437.635 328.719 437.369 327.285 436.543C323.586 434.411 323.386 429.832 326.3 427.123H326.296ZM202.273 292.257C202.647 291.746 203.349 291.633 203.861 291.995C204.904 292.747 206.666 292.348 207.298 291.214C207.826 290.208 209.352 290.536 209.431 291.667C209.443 291.962 209.659 292.178 209.817 292.302C211.243 293.362 212.835 291.945 213.924 290.557C214.801 289.448 215.633 288.118 216.996 287.167C217.516 286.813 218.222 286.951 218.572 287.462C218.933 287.985 218.8 288.687 218.289 289.036C216.285 290.408 214.61 294.933 210.927 294.933C209.892 294.933 208.811 294.529 208.013 293.732C206.346 294.916 204.081 294.97 202.535 293.836C202.023 293.474 201.911 292.759 202.273 292.261V292.257ZM258.564 321.38C259.018 320.939 259.733 320.939 260.173 321.38C274.144 335.486 290.975 376.547 301.504 393.055C301.999 393.828 301.405 394.8 300.553 394.8C300.178 394.8 299.804 394.609 299.588 394.269C289.188 377.956 272.136 336.671 258.564 322.979C258.124 322.539 258.124 321.824 258.564 321.38V321.38ZM133.099 293.183C132.791 293.183 132.496 293.071 132.272 292.83C130.243 290.711 128.63 288.251 127.508 285.53C127.271 284.952 127.541 284.283 128.119 284.046C128.697 283.809 129.354 284.079 129.595 284.657C130.617 287.117 132.068 289.34 133.918 291.268C134.624 292.011 134.067 293.183 133.103 293.183H133.099Z" fill="black"/>
<path d="M325.776 394.7C314.27 372.957 300.715 341.257 285.376 313.264C284.632 312.828 276.484 298.256 270.644 289.751C267.186 284.752 263.407 280.057 258.552 275.432C258.519 275.411 258.494 275.387 258.473 275.353C252.308 269.524 251.182 269.677 251.099 268.63C250.978 267.675 252.129 267.006 252.915 267.621C254.773 269.079 255.16 269.403 256.76 270.749C255.226 269.046 253.298 267.047 252.055 265.842C251.76 265.56 251.373 265.389 250.966 265.364C227.509 264.026 204.966 263.407 177.947 263.686C177.107 263.698 176.392 264.334 176.28 265.169C176.176 266.021 176.712 266.815 177.527 267.026C181.438 268.09 183.696 269.815 185.059 272.798C186.302 275.536 186.198 280.265 183.334 281.042C182.091 281.378 181.634 282.949 182.573 283.888C185.146 286.485 187.325 288.878 187.732 291.745C188.069 294.126 186.111 297.238 183.887 296.777C182.59 296.511 181.492 297.762 181.937 299.021C182.345 300.155 181.871 301.618 180.873 302.299C179.875 302.981 178.333 302.877 177.435 302.071C176.521 301.277 175.149 301.634 174.725 302.719C173.881 304.842 170.523 305.681 168.781 304.161C167.97 303.471 166.736 303.674 166.195 304.593C165.31 306.101 163.065 306.429 161.411 305.951C159.291 305.361 157.474 303.787 155.708 302.266C142.688 291.018 131.64 280.543 128.497 266.349C128.293 265.435 127.354 264.808 126.423 265.069C124.461 265.556 122.623 266.407 121.002 267.575C119.198 261.122 116.737 254.615 113.503 247.768C113.163 247.053 112.356 246.666 111.587 246.837C110.806 247.02 110.261 247.709 110.261 248.515C110.431 270.882 112.585 293.976 136.37 308.931C153.642 319.78 173.378 322.501 192.321 321.728H192.333C208.732 321.076 224.453 317.636 225.189 317.544C235.182 331.264 247.312 350.81 247.939 352.077C263.403 375.358 276.788 400.85 277.598 402.063C289.429 422.028 301.338 441.503 312.453 456.482C312.936 457.131 313.842 457.388 314.607 456.969C325.315 451.338 336.975 443.98 347.101 438.67C347.495 438.454 347.791 438.092 347.928 437.66C348.323 436.405 348.688 438.42 325.776 394.692V394.7ZM265.539 287.382L265.552 287.403C287.612 318.674 307.199 366.874 322.771 396.283L344.004 436.463C334.472 441.566 323.943 448.122 314.32 453.275C286.773 415.729 254.973 352.015 227.284 314.665C226.898 314.145 226.245 313.875 225.584 314.008C199.122 319.248 165.289 323.079 138.182 306.051C118.845 293.898 114.738 275.702 113.877 257.133C119.061 270.226 117.639 271.759 119.606 272.279C121.435 272.76 121.43 270.575 125.616 268.888C129.869 284.441 143.457 296.175 153.484 304.838C155.433 306.517 157.645 308.432 160.492 309.226C162.932 309.915 166.025 309.533 168.024 307.684C171.109 309.105 174.887 308.075 176.883 305.665C180.906 307.327 185.308 304.614 185.491 300.109C189.087 299.361 191.652 295.115 191.107 291.267C190.629 287.947 188.555 285.259 186.572 283.115C190.48 279.82 190.172 271.556 184.997 267.039C210.732 266.906 228.431 267.579 250.134 268.718C255.783 274.294 261.033 280.925 265.548 287.378L265.539 287.382Z" fill="black"/>
<path d="M224.424 319.66C224.478 319.078 224.736 317.52 224.753 317.37C227.8 321.018 234.014 331.41 236.512 335.736C232.206 329.869 228.39 324.878 224.42 319.66H224.424ZM247.719 355.884C239.568 343.373 232.763 334.389 224.004 322.847C219.831 357.334 221.136 420.084 216.314 451.252C231.67 455.777 248.841 458.349 264.675 461.07C266.421 439.098 268.179 417.138 269.937 395.166C261.615 382.647 248.272 356.436 247.719 355.884V355.884ZM260.161 396.28C256.581 411.13 256.411 411.309 256.669 412.842C256.827 413.781 257.463 414.816 258.381 414.994C259.283 415.169 259.591 416.278 258.972 416.897C257.201 418.701 255.193 420.741 254.412 423.188C253.742 425.274 254.241 428.153 256.216 429.163C256.852 429.508 257.03 430.31 256.615 430.842C254.004 434.411 252.803 438.982 253.327 443.382C253.393 443.993 252.953 444.562 252.329 444.641H252.204C251.639 444.641 251.14 444.221 251.07 443.644C250.537 439.073 251.635 434.349 254.121 430.468C251.93 428.598 251.398 425.149 252.25 422.511C253.023 420.084 254.644 418.148 256.266 416.436C255.255 415.63 254.632 414.383 254.441 413.216C254.075 411.055 254.432 410.411 257.97 395.744C258.12 395.133 258.731 394.759 259.329 394.904C259.94 395.05 260.314 395.665 260.169 396.276L260.161 396.28ZM231.998 388.921C233.154 388.489 232.838 386.1 232.543 384.716C231.557 380.021 232.123 376.111 234.164 373.435C234.538 372.936 235.253 372.832 235.752 373.219C236.25 373.593 236.342 374.307 235.968 374.806C233.902 377.515 234.176 381.438 234.766 384.251C235.548 387.99 234.879 390.284 232.784 391.04C232.218 391.277 231.545 390.969 231.32 390.371C231.104 389.781 231.412 389.137 232.002 388.921H231.998ZM229.176 422.806L230.784 422.365C231.387 422.195 232.01 422.557 232.181 423.159C232.339 423.761 231.99 424.385 231.387 424.555C229.861 424.954 229.795 425.033 229.471 425.033C228.972 425.033 228.519 424.705 228.382 424.206C228.211 423.595 228.564 422.972 229.176 422.81V422.806ZM227.554 429.45C227.737 428.847 228.369 428.511 228.972 428.677C229.562 428.86 229.911 429.491 229.733 430.094L227.114 438.923C226.923 439.567 226.237 439.871 225.709 439.696C225.106 439.513 224.769 438.89 224.936 438.292L227.554 429.45Z" fill="black"/>
<path d="M227.226 317.869V317.857C226.3 316.565 225.95 315.979 225.343 315.792C224.795 315.555 224.109 315.638 223.598 316.12C223.011 316.656 223.095 317.109 222.758 319.236C223.157 319.17 223.552 319.091 223.951 319.033C232.102 329.707 238.974 338.782 246.069 349.269C241.11 340.348 233.882 327.019 227.231 317.865L227.226 317.869ZM237.718 341.258C248.555 360.43 259.995 383.129 268.192 395.607L263.121 459.072C248.06 456.579 231.753 453.887 218.206 450.035C222.725 418.718 221.619 359.192 225.489 324.804C224.163 323.047 224.076 322.943 222.529 320.915C218.098 355.087 219.495 419.636 214.623 450.986C214.498 451.838 215.01 452.64 215.824 452.881C231.304 457.447 248.406 459.99 264.38 462.745C264.837 462.795 265.266 462.754 265.719 462.417C266.837 461.536 265.881 464.698 271.584 395.877C261.155 377.163 250.151 358.569 237.718 341.254V341.258Z" fill="black"/>
<path d="M271.472 266.999C261.666 267.144 252.105 267.406 242.482 266.205C253.56 276.489 253.02 275.965 265.54 287.384C265.54 287.396 265.553 287.404 265.553 287.404C267.332 289.025 269.115 290.658 270.907 292.291C270.919 292.312 270.927 292.312 270.927 292.312C272.096 293.388 273.264 294.464 274.432 295.544C267.731 284.791 261.35 277.046 251.532 269.413C251.27 269.209 251.124 268.927 251.099 268.632C251.045 268.2 251.299 267.784 251.474 267.68C251.873 267.319 252.484 267.285 252.916 267.622C254.774 269.08 255.161 269.405 256.761 270.751C256.773 270.772 256.782 270.772 256.782 270.784C266.035 278.741 271.651 286.702 277.321 295.897C277.333 295.897 277.333 295.91 277.333 295.91C278.41 297.643 279.486 299.425 280.588 301.262C282.392 289.482 280.667 273.767 271.468 267.003L271.472 266.999Z" fill="black"/>
<path d="M272.481 265.628C272.174 265.411 271.812 265.312 271.438 265.299C261.977 265.449 252.092 265.686 242.698 264.518C242.232 264.46 241.791 264.597 241.438 264.859C240.898 265.287 240.694 265.918 240.815 266.537C240.956 267.24 241.351 267.489 242.232 268.308C253.339 278.695 268.378 292.166 277.765 300.971C275.482 297.194 273.096 293.33 270.64 289.76C267.718 287.072 248.65 269.724 247.32 268.403C248.579 268.507 249.839 268.586 251.099 268.64C250.978 267.684 252.129 267.015 252.915 267.63C253.393 268.004 253.867 268.378 254.333 268.752C257.766 268.943 268.378 268.76 270.902 268.719C278.139 274.465 280.304 286.835 279.307 297.755C278.65 297.144 277.989 296.529 277.332 295.918C278.409 297.651 279.486 299.433 280.587 301.27V301.282C280.724 301.499 281.435 302.674 281.472 302.733C281.905 302.483 282.2 302.043 282.266 301.54C284.241 288.705 281.971 272.629 272.477 265.636L272.481 265.628Z" fill="black"/>
<path d="M247.691 226.141C248.006 220.61 242.708 215.81 235.857 215.42C229.006 215.03 223.197 219.197 222.882 224.728C222.567 230.259 227.865 235.058 234.716 235.448C241.567 235.839 247.376 231.671 247.691 226.141Z" fill="black"/>
<path d="M336.069 479.524C332.768 476.582 330.05 472.801 327.418 469.144C322.862 462.812 322.671 463.281 319.425 456.621C318.344 454.402 317.226 452.108 315.501 449.453C314.989 448.668 315.214 447.612 316 447.101C316.785 446.59 317.841 446.811 318.352 447.6C320.194 450.43 321.358 452.819 322.484 455.129C325.585 461.49 325.585 460.759 330.183 467.154C332.706 470.661 335.312 474.284 338.334 476.977C342.861 481.007 348.36 482.773 353.033 481.713C356.371 480.953 359.954 478.177 360.345 474.342C360.656 471.251 358.898 468.139 357.227 465.467C351.831 456.845 345.114 446.117 337.561 438.268C336.908 437.59 336.929 436.514 337.607 435.862C338.284 435.209 339.361 435.23 340.014 435.908C347.812 444.01 354.629 454.905 360.112 463.659C362.086 466.809 364.156 470.52 363.732 474.683C363.238 479.553 359.147 483.808 353.789 485.025C347.575 486.438 340.961 483.866 336.073 479.511L336.069 479.524Z" fill="black"/>
<path d="M256.427 500.602C244.659 499.617 232.954 487.36 227.957 479.361C221.809 469.522 219.261 459.433 219.935 447.604C219.989 446.669 220.82 445.958 221.73 446.004C222.67 446.058 223.385 446.86 223.335 447.799C222.703 458.889 225.089 468.346 230.846 477.558C236.437 486.504 247.403 496.43 256.714 497.212C259.262 497.423 261.175 497.232 262.729 496.605C264.525 495.878 265.83 494.477 266.134 492.948C266.624 490.455 264.612 487.755 263.078 485.536C257.733 477.803 251.003 466.642 249.294 457.397C249.124 456.475 249.735 455.586 250.658 455.415C251.576 455.245 252.47 455.856 252.641 456.778C254.241 465.433 260.721 476.141 265.88 483.604C267.988 486.649 270.207 489.878 269.472 493.605C268.952 496.248 266.857 498.603 264.005 499.759C261.599 500.731 258.984 500.814 256.432 500.602H256.427Z" fill="black"/>
<path d="M137.842 342.791C129.478 342.43 121.027 341.241 113.08 339.06C112.173 338.811 111.641 337.876 111.891 336.97C112.14 336.064 113.075 335.532 113.982 335.782C121.784 337.922 129.998 339.048 137.991 339.397C169.109 340.755 208.458 330.517 223.826 320.545C226.062 319.078 227.895 322.249 225.601 323.449C225.355 323.607 225.106 323.753 224.848 323.89C201.35 337.564 162.118 343.859 137.842 342.8V342.791Z" fill="black"/>
<path d="M65.7624 187.091C65.6543 187.091 65.5504 187.083 65.4382 187.062C64.5154 186.887 63.9126 185.994 64.0872 185.072C65.6668 176.811 67.5956 168.605 69.8153 160.681C77.1563 134.454 97.8074 116.242 123.721 113.151C124.656 113.039 125.5 113.704 125.612 114.639C125.725 115.569 125.06 116.417 124.124 116.529C99.6073 119.454 80.0536 136.727 73.0951 161.6C70.9044 169.432 68.9964 177.543 67.4335 185.712C67.2755 186.526 66.5647 187.095 65.7624 187.095V187.091Z" fill="black"/>
<path d="M104.949 336.438C97.429 333.621 90.1546 329.678 83.9069 324.389C81.9158 322.702 80.0618 320.919 78.4032 319.087C61.9422 301.137 59.1945 275.724 58.5585 258.169C57.7771 236.857 59.0615 215.537 62.3787 194.791C62.5283 193.864 63.3971 193.229 64.3282 193.382C65.2552 193.532 65.887 194.404 65.7374 195.331C62.4535 215.857 61.1815 236.957 61.9588 258.044C62.6281 276.501 65.3841 299.857 80.9181 316.797C84.3891 320.628 88.733 324.243 93.7378 327.272C97.5039 329.57 101.677 331.581 106.146 333.255C107.027 333.584 107.472 334.564 107.144 335.445C106.815 336.322 105.838 336.771 104.953 336.442L104.949 336.438Z" fill="black"/>
<path d="M227.226 317.857V317.869C226.715 318.725 225.875 318.713 224.516 318.933V318.946C213.592 320.23 192.804 326.928 172.502 326.928C137.264 326.928 105.236 312.788 91.0445 280.253C80.881 256.956 78.0585 228.011 83.0842 198.772C83.2421 197.841 84.14 197.23 85.0462 197.388C85.9773 197.546 86.6008 198.419 86.4429 199.349C81.5212 227.941 84.2647 256.195 94.1663 278.89C106.167 306.393 130.696 321.36 167.119 323.379C178.799 324.019 187.138 322.415 192.33 321.734C199.251 320.587 207.461 318.775 208.479 318.58C214.22 317.387 219.673 316.261 225.48 315.327C226.399 315.181 227.285 315.804 227.43 316.731C227.488 317.113 227.422 317.508 227.226 317.853V317.857Z" fill="black"/>
<path d="M92.8572 328.727C75.2988 375.41 60.833 417.11 43.9687 461.391C43.6778 462.151 42.5346 461.802 42.7342 461.013C54.6393 413.553 64.7737 364.49 78.9069 317.566L79.6717 317.94C83.5168 322.183 87.9646 325.756 92.8614 328.727H92.8572Z" fill="black"/>
<path d="M41.0834 460.601C52.9595 413.258 63.1395 364.02 77.2769 317.075C77.4224 316.597 77.7674 316.207 78.2288 316.007C78.6861 315.808 79.2098 315.82 79.6588 316.041L80.4236 316.415C80.6149 316.51 80.7894 316.639 80.9349 316.797C84.726 320.977 89.074 324.434 93.7463 327.272C94.4446 327.696 94.7439 328.56 94.4571 329.325C77.2603 375.051 62.2417 418.198 45.5686 461.997C44.5211 464.743 40.3768 463.451 41.0917 460.601H41.0834ZM79.7876 320.549C67.7661 360.945 58.5088 403.335 48.6031 444.288C63.1146 405.45 75.2983 370.643 90.7783 329.433C86.6755 326.823 83.0424 323.881 79.7918 320.549H79.7876Z" fill="black"/>
<path d="M170.743 339.497C179.71 381.123 192.982 422.362 204.364 463.311C204.688 464.483 206.708 463.959 206.546 462.746C200.988 421.004 194.562 381.942 188.618 337.474" fill="black"/>
<path d="M202.726 463.768C191.431 423.131 178.046 381.48 169.08 339.858C168.885 338.94 169.467 338.034 170.385 337.839C171.304 337.644 172.206 338.225 172.406 339.144C180.753 377.902 192.99 416.827 203.769 454.909C198.448 415.996 192.508 379.448 186.93 337.706C186.805 336.775 187.458 335.919 188.389 335.795C189.32 335.674 190.176 336.322 190.301 337.253C196.129 380.865 202.746 421.344 208.229 462.525C208.666 465.816 203.615 466.984 202.721 463.772L202.726 463.768Z" fill="black"/>
<path d="M138.835 341.915C134.678 393.268 131.81 439.647 127.142 489.961C126.394 440.204 123.156 390.388 123.314 340.157C128.347 341.474 133.618 341.312 138.835 341.915V341.915Z" fill="black"/>
<path d="M127.076 491.66C126.173 491.623 125.454 490.892 125.438 489.986C124.694 440.278 121.451 390.413 121.609 340.153C121.613 339.035 122.669 338.233 123.742 338.512C126.909 339.343 130.172 339.555 133.631 339.779C135.393 339.895 137.218 340.012 139.026 340.224C139.937 340.327 140.602 341.138 140.527 342.052C136.374 393.351 133.514 439.622 128.834 490.119C128.755 490.975 128.036 491.685 127.076 491.66ZM125.01 342.28C124.96 381.301 126.926 420.346 128.115 459.292C131.195 422.042 133.851 382.547 137.002 343.44C133.011 343.086 129.004 343.037 125.01 342.28Z" fill="black"/>
<path d="M190.858 108.593C190.014 108.593 189.428 107.978 189.341 107.122C189.146 105.194 189.133 103.507 189.141 102.074C189.146 101.118 189.038 100.258 188.979 99.4104C188.963 99.1777 188.946 98.9741 188.934 98.7996C189.141 97.4499 189.141 97.2705 190.238 95.7888C192.247 93.5641 192.641 93.7058 194.67 93.0202C195.534 92.7252 196.412 92.1224 196.886 91.7817C197.63 91.2457 200.209 89.6981 199.492 91.2456C201.317 90.8054 199.862 93.0281 199.118 93.5641C198.241 94.1957 197.143 94.5697 196.083 94.9312C194.18 95.5752 192.895 96.0863 192.388 97.2705C192.249 97.589 192.202 97.9187 192.247 98.4477C192.263 98.6306 192.23 99.1652 192.247 99.4104C192.317 100.387 192.359 101.122 192.355 102.144C192.346 103.557 192.338 105.02 192.517 106.765C192.608 107.679 191.947 108.493 191.033 108.589C190.975 108.593 190.916 108.597 190.862 108.597L190.858 108.593Z" fill="black"/>
<path d="M190.123 63.576C190.527 62.1807 190.336 60.8996 189.696 60.7146C189.057 60.5296 188.211 61.5107 187.807 62.9061C187.403 64.3015 187.594 65.5826 188.233 65.7676C188.873 65.9526 189.719 64.9714 190.123 63.576Z" fill="black"/>
<path d="M204.004 66.2902C204.661 66.1863 205.011 64.939 204.784 63.5042C204.557 62.0694 203.84 60.9904 203.183 61.0942C202.525 61.1981 202.176 62.4454 202.402 63.8802C202.629 65.315 203.346 66.394 204.004 66.2902Z" fill="black"/>
<path d="M187.218 59.3612C187.351 59.2241 187.497 59.0995 187.638 58.9707C187.729 58.8917 187.53 59.0455 187.63 58.9748C187.667 58.9499 187.7 58.9208 187.738 58.8959C187.821 58.8377 187.904 58.7837 187.991 58.7297C188.153 58.6299 188.328 58.551 188.498 58.4637C188.606 58.4097 188.374 58.5094 188.486 58.4637C188.527 58.4471 188.569 58.4305 188.611 58.4139C188.706 58.3765 188.802 58.3474 188.897 58.3183C189.068 58.2643 189.242 58.2227 189.421 58.1895C189.475 58.177 189.533 58.1729 189.587 58.1604C189.708 58.1396 189.442 58.1729 189.567 58.1604C189.658 58.1521 189.745 58.1438 189.837 58.1396C190.028 58.1313 190.219 58.1313 190.411 58.1396C190.456 58.1396 190.502 58.148 190.544 58.1521C190.706 58.1646 190.452 58.1355 190.556 58.1521C190.66 58.1687 190.756 58.1853 190.855 58.2061C191.279 58.2975 191.774 58.0815 191.878 57.6244C191.973 57.2047 191.753 56.6978 191.296 56.6022C189.413 56.1992 187.388 56.7768 186.042 58.1729C185.738 58.4845 185.705 59.0413 186.042 59.3488C186.378 59.6562 186.894 59.6812 187.218 59.3488V59.3612Z" fill="black"/>
<path d="M202.567 58.2466C202.704 58.2009 202.841 58.1801 202.978 58.1427C202.712 58.2092 202.92 58.151 203.012 58.1468C203.082 58.1468 203.153 58.1468 203.224 58.1468C203.294 58.1468 203.365 58.1593 203.436 58.1635C203.153 58.1427 203.386 58.1593 203.469 58.1759C203.614 58.2092 203.756 58.2549 203.897 58.3047C203.984 58.3338 203.693 58.2092 203.835 58.2798C203.868 58.2964 203.901 58.3089 203.93 58.3255C203.993 58.3588 204.055 58.392 204.117 58.4294C204.18 58.4668 204.238 58.5042 204.296 58.5457C204.354 58.5873 204.392 58.6579 204.246 58.5042C204.271 58.5291 204.3 58.5499 204.329 58.5707C204.437 58.6662 204.533 58.766 204.624 58.874C204.691 58.9488 204.508 58.7078 204.583 58.8241C204.604 58.8532 204.624 58.8823 204.641 58.9114C204.683 58.9779 204.724 59.0444 204.758 59.115C204.961 59.5014 205.531 59.6468 205.896 59.4142C206.291 59.1607 206.412 58.6912 206.196 58.2757C205.46 56.8671 203.631 56.1275 202.122 56.6386C201.711 56.7757 201.399 57.2161 201.54 57.6607C201.673 58.0679 202.122 58.392 202.563 58.2424L202.567 58.2466Z" fill="black"/>
<path d="M187.57 78.1443C187.96 79.9226 189.681 81.2647 191.494 81.2772C191.93 81.2772 192.346 80.8949 192.325 80.4462C192.304 79.9974 191.959 79.6193 191.494 79.6152C191.406 79.6152 191.319 79.6152 191.228 79.6027C191.153 79.5944 191.041 79.5528 191.273 79.611C191.232 79.5985 191.186 79.5985 191.144 79.5902C190.986 79.5612 190.828 79.5154 190.679 79.4614C190.637 79.4448 190.596 79.4282 190.554 79.4116C190.787 79.4905 190.65 79.4531 190.592 79.424C190.513 79.3866 190.434 79.3451 190.359 79.2994C190.288 79.2578 190.222 79.2163 190.151 79.1706C190.114 79.1456 190.08 79.1207 190.043 79.0958C189.972 79.0459 190.213 79.2329 190.072 79.1166C189.939 79.0085 189.818 78.8922 189.702 78.7675C189.673 78.7343 189.644 78.701 189.615 78.6678C189.569 78.6138 189.515 78.4974 189.635 78.6969C189.594 78.6263 189.54 78.5639 189.498 78.4974C189.457 78.431 189.415 78.3603 189.378 78.2897C189.345 78.2274 189.232 77.9407 189.332 78.2107C189.27 78.0445 189.216 77.8783 189.174 77.708C189.083 77.2842 188.563 76.9933 188.152 77.1263C187.703 77.2717 187.47 77.6914 187.57 78.1484V78.1443Z" fill="black"/>
<path d="M197.052 63.3691C196.881 65.2431 196.865 67.1253 196.998 69.0034C197.031 69.4522 197.355 69.8344 197.829 69.8344C198.253 69.8344 198.694 69.4522 198.66 69.0034C198.527 67.1253 198.544 65.2431 198.714 63.3691C198.756 62.9204 198.303 62.5381 197.883 62.5381C197.401 62.5381 197.093 62.9204 197.052 63.3691Z" fill="black"/>
<path d="M198.066 69.9379C198.419 69.8798 198.843 69.8756 199.159 70.0293C199.063 69.9836 199.279 70.1041 199.184 70.0501L199.246 70.1124C199.209 70.0543 199.213 70.0709 199.267 70.154C199.358 70.3202 199.271 70.0875 199.317 70.2786C199.317 70.2786 199.375 70.5363 199.354 70.4074C199.454 71.0473 199.325 71.6 198.951 72.0861C199.042 71.9656 198.884 72.1484 198.88 72.1567C198.876 72.1651 198.689 72.3271 198.814 72.2315C198.751 72.2814 198.685 72.3188 198.614 72.3603C198.51 72.4185 198.614 72.3811 198.481 72.4185C198.107 72.5307 197.716 72.5182 197.284 72.5058C196.32 72.4767 195.355 72.4435 194.387 72.4102C193.938 72.3936 193.555 72.8008 193.555 73.2412C193.555 73.7024 193.938 74.0556 194.387 74.0723C195.006 74.093 195.621 74.1138 196.241 74.1346C196.827 74.1553 197.417 74.2052 198.003 74.172C199.109 74.1096 200.082 73.5986 200.593 72.5889C201.029 71.7288 201.208 70.5944 200.863 69.672C200.356 68.3257 198.88 68.1305 197.621 68.3424C197.176 68.4172 196.931 68.9656 197.039 69.3645C197.168 69.834 197.617 70.021 198.061 69.9462L198.066 69.9379Z" fill="black"/>
</svg>
