<svg width="396" height="458" viewBox="0 0 396 458" fill="none" xmlns="http://www.w3.org/2000/svg">
<ellipse opacity="0.51" cx="190.291" cy="267.347" rx="190.291" ry="190.653" fill="#D9D9D9"/>
<g clip-path="url(#clip0_276_6091)">
<path d="M134.157 0C134.16 0.0736738 134.169 0.146947 134.186 0.218831L112.569 0.261185L112.513 0H134.157Z" fill="#5D5A5E"/>
<path d="M131.5 446.5C109.1 447.3 86.1667 440.5 77.5 437L89.5 426C96 421.5 114.9 412.5 138.5 412.5C162.1 412.5 178 425.5 183 432C175.167 436.5 153.9 445.7 131.5 446.5Z" fill="#27AB68"/>
<path d="M112.569 0.260128L134.186 0.217773C135.332 1.00603 136.241 1.93077 136.241 3.46023C136.231 11.1075 136.231 18.7541 136.241 26.3998V27.7034C138.275 27.7034 140.257 27.7034 142.239 27.7034C142.983 27.7034 143.725 27.6092 144.469 27.6092C156.623 27.6092 168.778 27.5834 180.93 27.6092C184.933 27.6092 188.935 27.6845 192.918 27.8728C194.535 27.9481 196.251 28.1551 197.706 28.7928C199.006 29.3599 200.169 30.4658 201.12 31.5694C207.82 39.3484 214.48 47.1636 221.1 55.0148C222.668 56.8643 222.607 57.9938 220.846 59.6832C213.656 66.5705 206.436 73.4248 199.26 80.3286C197.961 81.5804 196.367 81.6439 194.787 81.6792C191.849 81.7451 188.902 81.6533 185.968 81.651C170.208 81.651 154.447 81.651 138.684 81.651H137.251V94.3949H163.154C163.702 94.3949 164.253 94.3949 164.802 94.4255C166.888 94.5714 167.862 95.5597 167.862 97.6609C167.876 110.524 167.876 123.387 167.862 136.25C167.862 138.907 167.756 141.571 167.53 144.218C167.295 146.99 166.629 148.338 163.057 148.359C154.669 148.403 146.28 148.436 137.891 148.458C137.74 148.458 137.587 148.498 137.298 148.535V410.817C137.917 410.817 138.571 410.831 139.226 410.817C150.399 410.53 160.804 413.273 170.452 418.855C175.25 421.629 179.732 424.853 183.515 428.956C183.812 429.269 184.088 429.602 184.339 429.952C185.079 431.022 185.01 432.161 184.182 432.938C183.353 433.714 182.082 433.716 181.093 432.832C180.311 432.126 179.593 431.352 178.847 430.61L175.841 428.001L175.565 427.803C175.431 427.707 175.299 427.608 175.167 427.509L173.23 426.137L170.935 424.448L169.522 423.742L168.305 422.991L167.363 422.25L166.156 421.688L164.762 420.911L162.627 420.029L160.385 419.012L157.612 418.071L157.198 417.864C157.182 417.832 157.154 417.806 157.12 417.793C157.086 417.78 157.048 417.78 157.014 417.794L153.038 416.697L152.76 416.596L151.84 416.417C151.167 416.227 150.484 416.077 149.794 415.968C145.516 415.497 141.243 414.998 136.954 414.671C134.539 414.526 132.117 414.515 129.701 414.641C128.503 414.685 127.321 415.132 126.118 415.224C120.209 415.673 114.566 417.224 109.066 419.321C105.457 420.697 101.924 422.274 98.3572 423.763L93.6606 426.311L91.7655 427.446L90.3529 428.337L88.2342 429.872L87.7633 430.213L87.0689 430.728L85.7858 431.728L84.9006 432.434L83.5423 433.636C83.2143 433.927 82.8862 434.215 82.5582 434.502L80.3782 436.658C79.7356 439.048 79.4625 439.298 77.4543 439.354C75.3544 438.044 75.0319 435.792 76.7905 433.888C80.3476 430.036 84.4369 426.815 88.8345 423.982C95.5675 419.641 102.854 416.518 110.535 414.309C111.411 414.057 111.689 413.695 111.687 412.784C111.666 325.735 111.66 238.686 111.668 151.637V148.451H110.422C92.8978 148.451 75.3725 148.451 57.8463 148.451C55.9629 148.451 54.0796 148.451 52.2339 148.215C51.2464 148.065 50.3251 147.628 49.5854 146.957C43.135 140.886 36.748 134.744 30.3446 128.624C29.523 127.838 28.6967 127.064 27.8869 126.271C26.4744 124.859 26.3967 123.565 27.7032 122.036C34.0407 114.566 40.3876 107.101 46.7439 99.6422C47.7091 98.5057 48.6061 97.3056 49.6655 96.2656C50.2117 95.7314 51.0168 95.2302 51.7489 95.1573C54.9742 94.8255 58.2159 94.4702 61.4529 94.4514C77.7227 94.3832 93.9925 94.4185 110.262 94.4185H111.595V81.6486H110.375C104.692 81.6486 99.007 81.691 93.3216 81.6298C90.6661 81.6039 88.0058 81.4698 85.3644 81.2133C83.9001 81.0721 82.384 80.7262 81.666 79.1333C81.5222 78.8564 81.4297 78.5559 81.3929 78.2462C81.2728 76.1285 81.0986 74.0343 81.0963 71.9283C81.068 58.4785 81.0633 45.0286 81.0821 31.5788C81.0821 28.5199 81.9344 27.6187 84.9736 27.6092C92.4599 27.5873 99.9478 27.5873 107.437 27.6092C108.485 27.6092 109.53 27.7151 110.648 27.774C110.699 27.5207 110.734 27.2645 110.752 27.0069C110.752 19.1243 110.745 11.2432 110.731 3.36376C110.728 1.94724 111.795 1.19663 112.569 0.260128ZM163.345 144.004C163.385 143.782 163.414 143.558 163.432 143.333C163.432 128.867 163.439 114.4 163.453 99.9339C163.453 99.0798 163.06 98.9927 162.375 98.9927C153.874 98.9339 145.37 98.7809 136.869 98.7951C110.964 98.8311 85.0576 98.9002 59.1505 99.0021C57.5426 99.0021 55.9347 99.0539 54.3291 98.9833C53.411 98.9433 52.813 99.261 52.2268 99.9575C47.3756 105.711 42.504 111.452 37.612 117.179C35.7208 119.4 33.8249 121.63 31.9243 123.869C32.0323 124.033 32.1502 124.19 32.2774 124.339C38.9947 130.755 45.7159 137.167 52.4411 143.575C52.7312 143.818 53.0941 143.957 53.4722 143.971C55.0001 144.02 56.5327 144.013 58.0582 144.015C81.7319 144.033 105.407 144.047 129.084 144.058C140.099 144.058 151.113 144.044 162.128 144.015L163.345 144.004ZM217.065 57.1608C216.761 56.7819 216.53 56.4761 216.281 56.1819C209.757 48.5111 203.236 40.8356 196.72 33.1553C196.476 32.8356 196.158 32.5804 195.792 32.4118C195.427 32.2432 195.026 32.1665 194.625 32.1882C176.203 32.1529 157.782 32.0517 139.36 32.0423C126.744 32.0423 114.128 32.1529 101.512 32.2023C96.6127 32.2212 91.7137 32.2023 86.8122 32.2023C86.4003 32.2023 85.9859 32.247 85.5928 32.2706V77.1356C85.8494 77.1638 86.0048 77.1967 86.1578 77.1967C104.031 77.2234 121.905 77.2454 139.779 77.2626C158.163 77.2626 176.547 77.1826 194.928 77.1732C195.31 77.1944 195.692 77.1337 196.049 76.9953C196.405 76.857 196.728 76.644 196.995 76.3708C201.624 71.9001 206.285 67.4858 210.932 63.0457C212.962 61.1021 214.989 59.1514 217.065 57.1608ZM116.157 148.498V412.643L132.637 410.56V148.498H116.157ZM115.178 4.49321V27.6869H131.69V4.4885L115.178 4.49321ZM132.625 94.4161V81.7098H116.04C116.04 85.6817 116.04 89.583 116.04 93.4749C116.04 94.1808 116.442 94.4349 117.181 94.4302C121.136 94.3926 125.089 94.4114 129.044 94.4114L132.625 94.4161Z" fill="#101714"/>
<path d="M314.535 231.939C319.345 233.586 323.326 236.673 326.822 240.492C333.837 248.158 333.677 259.288 329.774 266.375C326.201 272.946 321.224 278.65 315.197 283.082C314.947 283.268 314.693 283.446 314.479 283.599C316.169 289.428 317.351 295.324 318.356 301.247C318.867 304.259 319.265 307.29 319.769 310.304C319.828 310.652 320.223 311.158 320.534 311.217C322.059 311.511 323.613 311.645 325.15 311.89C330.146 312.69 334.767 314.652 339.391 316.577C350.023 321.003 359.317 327.575 368.249 334.716C377.492 342.139 385.817 350.638 393.045 360.032C393.879 361.11 394.762 362.178 395.4 363.367C396.207 364.865 395.513 366.376 395.082 367.868C390.708 382.995 384.641 397.358 375.709 410.401C365.179 425.778 351.628 437.611 334.473 445.117C327.789 448.043 320.794 450.201 313.622 451.548C308.711 452.475 303.786 453.301 298.791 453.41C293.442 453.527 288.081 453.772 282.74 453.581C278.293 453.424 273.855 452.786 269.427 452.24C257.489 450.767 245.906 447.791 234.559 443.84C232.089 442.981 229.615 442.12 227.091 441.444C224.796 440.83 224.245 438.99 224.433 436.993C226.081 419.665 229.895 402.744 234.305 385.951C236.729 376.715 239.423 367.55 241.979 358.35C242.102 357.912 242.215 357.409 242.116 356.983C241.202 353.623 240.232 350.277 239.253 346.83C238.794 346.83 238.293 346.83 237.794 346.83C229.627 346.997 221.477 346.764 213.444 345.145C210.118 344.472 206.864 343.425 203.585 342.524C202.525 342.234 201.937 341.474 201.511 340.462C196.861 329.591 194.42 318.083 191.882 306.626C189.952 297.92 188.4 289.112 187.002 280.298C186.394 276.458 186.432 272.488 186.482 268.58C186.515 266.093 188.186 264.229 190.013 262.698C192.939 260.272 195.964 257.966 198.959 255.613C199.293 255.347 199.634 255.09 200.079 254.747C195.708 249.085 193.959 242.73 195.42 235.746C196.882 228.762 200.529 223.346 207.46 220.609C204.465 213.571 202.815 206.211 201.591 198.743C201.033 195.342 200.788 191.886 200.098 188.516C198.961 182.956 198.78 177.309 198.822 171.711C198.883 163.897 200.447 156.168 203.429 148.946C205.247 144.515 208.496 141.167 212.173 138.218C213.745 136.959 215.339 135.715 217.018 134.602C219.137 133.19 221.222 131.642 223.544 130.677C230.321 127.853 237.111 125.06 244.421 123.752C254.751 121.9 265.081 121.891 275.444 123.244C278.627 123.66 281.8 124.206 284.969 124.679C286.309 124.879 287.709 124.86 288.971 125.265C291.146 125.989 293.281 126.825 295.37 127.768C300.625 130.048 305.541 133.038 309.98 136.656C313.963 139.912 316.647 144.117 318.959 148.579C319.941 150.461 320.607 152.558 321.16 154.626C322.102 158.179 322.886 161.777 323.634 165.377C324.327 168.697 325.101 172.022 325.464 175.386C326.512 184.841 325.813 194.407 323.399 203.609C321.817 209.623 320.233 215.642 318.425 221.593C317.368 225.082 315.866 228.44 314.535 231.939ZM295.316 132.945C292.839 131.926 290.438 130.564 287.862 129.964C283.86 129.023 279.75 128.472 275.658 128.016C270.824 127.474 265.974 127.096 261.107 126.879C258.377 126.79 255.644 126.94 252.94 127.326C248.743 127.884 244.51 128.416 240.426 129.477C236.478 130.503 232.694 132.164 228.852 133.585C224.257 135.263 219.926 137.589 215.989 140.491C212.773 142.877 209.868 145.381 208.234 149.303C205.108 156.765 203.721 164.527 203.368 172.518C203.272 174.723 203.62 176.949 203.801 179.161C204.023 181.838 204.178 184.528 204.55 187.185C205.25 192.151 206.025 197.106 206.876 202.051C207.832 207.749 209.428 213.322 211.634 218.663C211.824 219.115 212.269 219.458 212.597 219.851C212.836 219.532 212.967 219.145 212.971 218.746C213.051 208.719 213.084 198.693 213.237 188.667C213.274 185.94 213.515 183.221 213.96 180.53C214.599 176.632 215.806 172.848 217.543 169.299C218.27 167.817 219.459 166.374 221.262 166.45C222.809 166.511 224.368 167.109 225.855 167.645C228.758 168.692 231.56 170.038 234.5 170.939C241.741 173.168 249.289 174.236 256.865 174.104C259.796 174.066 262.729 174.01 265.655 173.848C268.294 173.702 270.924 173.337 273.563 173.193C274.245 173.138 274.93 173.242 275.564 173.499C276.198 173.756 276.763 174.157 277.214 174.671C280.23 177.965 283.507 181.024 286.36 184.429C288.883 187.508 291.19 190.756 293.265 194.152C294.678 196.415 295.589 198.99 296.724 201.425C296.731 201.62 296.757 201.814 296.801 202.004C299.035 208.623 299.591 215.489 299.77 222.397C299.874 226.398 299.789 230.379 299.789 234.541C300.403 234.158 300.902 233.875 301.373 233.551C303.102 232.313 305.168 231.632 307.294 231.6C308.923 231.6 309.785 231.322 310.354 229.593C311.501 226.158 313.269 222.917 314.295 219.456C316.226 212.957 317.902 206.38 319.5 199.79C320.277 196.587 321.061 193.286 321.089 190.022C321.132 185.21 321.544 180.403 320.602 175.542C319.585 170.283 319.126 164.909 317.645 159.73C316.722 156.504 315.927 153.214 314.655 150.127C312.737 145.47 309.361 141.877 305.361 138.863C302.242 136.508 298.981 134.385 295.316 132.945ZM295.893 240.852C295.205 235.003 295.069 229.132 295.123 223.249C295.144 220.979 295.066 218.698 294.901 216.425C294.32 208.425 292.413 200.82 287.919 194.015C284.595 188.98 280.51 184.603 276.383 180.245C275.446 179.235 274.186 178.581 272.819 178.398C271.269 178.183 269.704 178.096 268.139 178.137C263.169 178.257 258.195 178.669 253.23 178.582C242.845 178.42 232.624 175.976 223.289 171.424C222.842 171.208 222.39 171 221.907 170.772C221.752 171.073 221.634 171.271 221.543 171.478C218.718 177.85 217.564 184.561 217.51 191.479C217.498 193.001 217.656 194.538 217.649 196.051C217.625 199.968 217.512 203.886 217.505 207.816C217.484 219.346 217.453 230.875 217.519 242.405C217.547 246.899 216.316 250.509 212.006 252.695C209.455 253.991 207.01 255.486 204.694 257.166C200.729 260.039 196.873 263.069 193.066 266.152C192.278 266.789 191.654 267.872 191.383 268.865C190.366 272.467 190.98 276.114 191.487 279.717C193.06 290.85 195.218 301.893 197.951 312.8C199.816 320.285 201.482 327.827 204.256 335.055C205.619 338.62 205.635 338.62 209.287 339.573C217.762 341.789 226.427 342.413 235.159 342.305C238.909 342.255 242.671 342.38 246.384 341.646C246.814 341.662 247.244 341.651 247.672 341.611C255.913 340.307 264.026 338.294 271.92 335.594C278.604 333.34 285.077 330.505 291.267 327.123C293.039 326.151 294.409 325.182 295.109 323.187C296.465 319.332 297.774 315.525 297.698 311.334C297.618 306.948 297.898 302.558 297.858 298.157C297.816 293.451 297.623 288.769 297.409 284.079C297.336 282.486 296.994 280.905 296.775 279.322C297.331 279.948 297.825 280.627 298.252 281.348C299.537 283.305 301.326 284.129 303.605 283.465C305.328 282.971 307.103 282.498 308.673 281.668C316.226 277.667 321.709 271.55 325.744 264.163C328.526 259.072 328.675 253.598 326.45 248.269C324.541 243.702 320.908 240.574 316.798 237.965C313.707 236.007 310.392 235.584 306.87 236.217C305.189 236.478 303.638 237.28 302.454 238.501C300.594 240.457 298.798 242.471 296.968 244.457C296.812 244.574 296.643 244.673 296.465 244.753C296.248 243.382 296.069 242.125 295.893 240.852ZM233.186 439.891C233.733 440.11 234.128 440.284 234.519 440.419C237.108 441.291 239.672 442.273 242.304 442.993C247.566 444.433 252.823 445.936 258.162 447.021C263.718 448.151 269.351 448.932 274.98 449.645C278.997 450.164 283.039 450.466 287.088 450.551C291.139 450.626 295.203 450.315 299.259 450.122C301.362 450.06 303.46 449.889 305.545 449.612C308.925 449.1 312.291 448.492 315.642 447.786C323.866 446.044 331.809 443.171 339.245 439.251C346.105 435.658 352.447 431.305 358.043 425.999C361.981 422.253 365.659 418.243 369.054 413.999C374.541 407.149 378.941 399.584 382.708 391.645C386.301 384.064 389.147 376.216 391.68 368.24C392.061 367.042 392.151 365.993 391.138 365.018C390.526 364.428 390.091 363.661 389.533 363.011C385.611 358.463 381.792 353.816 377.705 349.418C375.075 346.636 372.252 344.041 369.259 341.653C364.265 337.601 359.204 333.62 353.992 329.86C347.718 325.335 340.808 321.928 333.593 319.153C329.404 317.542 325.174 316.135 320.501 316.252C320.654 317.558 320.802 318.902 320.972 320.252C321.417 323.761 321.986 327.26 322.283 330.782C322.474 333.055 322.486 335.408 320.461 337.135C319.39 338.046 318.389 339.041 317.356 339.994C317.12 340.259 316.854 340.495 316.565 340.7C314.267 342.027 312.009 343.434 309.641 344.62C303.836 347.526 298.023 350.434 292.124 353.143C284.797 356.508 277.163 359.063 269.37 361.12C263.103 362.767 256.752 363.978 250.245 364.009C248.597 364.009 246.949 363.658 245.285 363.463C244.96 364.355 244.578 365.181 244.357 366.051C241.817 375.666 239.218 385.264 236.805 394.911C235.293 400.954 233.994 407.055 232.744 413.159C231.769 417.919 230.959 422.717 230.192 427.512C229.686 430.658 229.368 433.835 229.015 437.002C228.949 437.585 228.779 438.287 229.615 438.581C230.451 438.875 231.287 439.214 232.146 439.543C236.506 433.649 241.365 428.3 247.507 424.23C242.33 429.03 237.492 434.131 233.186 439.891ZM301.731 288.592V289.553C301.731 295.983 301.745 302.412 301.731 308.847C301.731 313.577 301.966 318.304 300.34 322.914C299.299 325.881 297.792 328.49 295.137 330.05C291.415 332.222 287.576 334.185 283.637 335.933C273.179 340.601 262.214 343.698 250.963 345.695C248.7 346.098 246.403 346.3 244.107 346.597C244.072 346.712 244.058 346.832 244.065 346.952C245.162 350.667 246.278 354.38 247.361 358.103C247.636 359.058 248.211 359.322 249.171 359.355C255.146 359.559 260.959 358.491 266.708 357.058C280.437 353.632 293.345 348.147 305.806 341.498C310.044 339.236 314.018 336.747 316.925 332.853C317.286 332.335 317.474 331.715 317.459 331.083C317.398 329.521 317.179 327.963 317.014 326.405C315.896 315.817 314.674 305.228 312.485 294.783C311.878 291.887 311.178 289.009 310.559 286.294L301.731 288.592ZM213.032 224.369C210.066 224.134 206.254 225.76 204.086 228.193C199.929 232.878 198.763 238.391 199.95 244.408C200.522 247.304 202.069 249.819 203.717 252.074C206.542 250.751 209.185 249.464 211.872 248.295C212.731 247.921 213.023 247.375 213.145 246.532C213.423 244.605 212.863 242.949 211.601 241.44C209.986 242.302 208.352 243.219 206.676 244.055C205.48 244.648 204.322 244.323 203.799 243.349C203.276 242.375 203.625 241.276 204.741 240.549C205.068 240.334 205.421 240.16 205.762 239.972L210.186 237.534C209.55 235.946 208.934 234.475 208.366 232.972C207.829 231.56 208.19 230.384 209.244 229.939C210.377 229.454 211.457 230.021 212.107 231.459C212.399 232.104 212.672 232.76 213.016 233.558L213.032 224.369Z" fill="#0D0D0D"/>
<path d="M184.707 181.311C183.632 185.624 181.326 189.171 178.323 192.273C175.891 194.788 173.368 197.216 170.802 199.595C168.091 202.11 167.222 205.159 168.382 208.573C169.541 211.988 171.07 215.327 172.459 218.688C172.707 219.294 173.126 219.844 173.309 220.465C173.515 221.048 173.513 221.683 173.304 222.265C173.095 222.846 172.691 223.337 172.16 223.654C171.018 224.419 169.852 224.313 168.77 223.506C168.406 223.23 168.097 222.888 167.858 222.5C165.001 217.825 162.85 212.876 162.119 207.399C161.564 203.23 162.702 199.536 165.632 196.502C167.89 194.158 170.271 191.972 172.593 189.696C175.103 187.222 177.351 184.57 178.474 181.135C180.401 175.305 176.669 168.233 171.039 167.314C169.793 167.088 168.511 167.171 167.306 167.557C162.274 169.392 158.665 172.741 157.188 178.051C156.636 180.029 155.271 181.132 153.628 180.796C151.985 180.461 151.065 178.863 151.385 176.891C152.639 169.078 161.875 161.189 169.742 161.186C177.357 161.18 184.101 167.792 184.805 176.013C184.92 177.764 184.726 179.54 184.707 181.311Z" fill="#121113"/>
<path d="M178.201 232.159C177.862 233.853 176.417 235.139 174.84 235.171C173.21 235.205 171.963 234.2 171.448 232.437C171.406 232.292 171.396 232.138 171.351 231.992C170.803 230.276 170.748 228.652 172.428 227.503C173.714 226.623 175.085 226.562 176.42 227.439C177.8 228.343 178.578 230.404 178.201 232.159Z" fill="#101714"/>
<path d="M163.345 144.004H162.137C151.121 144.022 140.106 144.036 129.093 144.047C105.417 144.047 81.7413 144.033 58.0676 144.004C56.5373 144.004 55.0071 144.004 53.4816 143.96C53.1034 143.946 52.7406 143.807 52.4505 143.564C45.7175 137.164 38.9963 130.752 32.2868 124.329C32.1596 124.179 32.0417 124.022 31.9337 123.858C33.828 121.629 35.7208 119.403 37.612 117.18C42.4883 111.448 47.3599 105.713 52.2268 99.9748C52.813 99.2689 53.4039 98.9607 54.3291 99.0007C55.9347 99.0713 57.5426 99.0242 59.1505 99.0195C85.056 98.9458 110.962 98.8768 136.869 98.8124C145.37 98.7983 153.874 98.9513 162.375 99.0101C163.06 99.0101 163.455 99.0924 163.453 99.9513C163.431 114.418 163.424 128.884 163.432 143.35C163.414 143.57 163.385 143.788 163.345 144.004ZM88.8345 111.787V129.842H100.636V126.18H92.879V122.592H99.28V119.077H92.8507V115.465H100.403V111.787H88.8345ZM111.602 129.886V123.119H117.855C117.855 122.143 117.81 121.281 117.869 120.427C117.923 119.623 117.664 119.317 116.819 119.345C115.11 119.404 113.396 119.364 111.658 119.364V115.448H118.608V111.839H107.59V129.886H111.602ZM133.197 129.858V115.505H138.084V111.811H124.169V115.575H129.112V129.856L133.197 129.858ZM71.2134 129.846H82.4758V126.082H75.2508V111.813H71.2134V129.846Z" fill="#27AB68"/>
<rect x="259.939" y="197.941" width="29.9482" height="10.6995" fill="#E4B892"/>
<path d="M217.065 57.1609C214.988 59.1516 212.962 61.1022 210.928 63.0435C206.28 67.4836 201.619 71.9073 196.991 76.3686C196.723 76.6418 196.4 76.8548 196.044 76.9931C195.688 77.1315 195.306 77.1922 194.924 77.171C176.542 77.171 158.158 77.2533 139.774 77.2604C121.901 77.2698 104.028 77.2479 86.1531 77.1945C86 77.1945 85.8447 77.1616 85.5881 77.1333V32.2754C85.9812 32.2519 86.3955 32.2095 86.8075 32.2072C91.709 32.2072 96.608 32.2213 101.507 32.2072C114.123 32.1578 126.739 32.0401 139.355 32.0472C157.777 32.0472 176.198 32.1578 194.62 32.1931C195.022 32.1706 195.424 32.2469 195.79 32.4155C196.156 32.5841 196.476 32.8398 196.72 33.1602C203.221 40.8467 209.741 48.5222 216.281 56.1868C216.53 56.4715 216.754 56.7821 217.065 57.1609ZM146.872 55.9844C146.625 57.8668 145.175 59.1186 143.193 59.3281C140.165 59.6481 137.988 58.4551 137.147 56.015C136.206 53.2855 137.044 50.1325 139.266 48.956C140.241 48.4312 141.491 48.2359 142.621 48.2195C144.363 48.1959 145.547 49.3136 146.376 50.8243L149.926 48.8948C147.953 44.7864 142.71 43.2311 138.049 45.1558C133.18 47.1512 131.598 52.7373 133.3 57.4127C135.003 62.0881 140.478 64.3259 145.749 62.5682C149.671 61.2622 151.71 56.8668 151.112 52.7396H141.766C141.766 53.5138 141.808 54.215 141.754 54.9067C141.693 55.7091 141.954 56.0362 142.804 55.9962C144.13 55.9327 145.46 55.9797 146.872 55.9797V55.9844ZM110.462 55.1138C113.149 53.9561 113.692 51.8196 113.471 49.2689C113.276 47.0524 111.993 45.2429 109.801 44.9841C106.837 44.6311 103.824 44.6735 100.801 44.5464V62.7564H104.803V56.175C105.907 55.8244 106.557 56.1232 107.101 57.0715C108.073 58.768 109.172 60.394 110.246 62.0293C110.446 62.3329 110.759 62.7635 111.037 62.7799C112.449 62.8552 113.883 62.8129 115.533 62.8129L110.462 55.1138ZM168.376 44.7252V51.8925H161.692V44.7629H157.725V62.7611H161.727V55.8456H168.463V62.7635H172.439V44.7205L168.376 44.7252ZM187.649 62.7799V48.3795H192.558V44.7323H178.694V48.4712H183.574V62.7846L187.649 62.7799ZM121.348 44.7064V62.7352H125.35V44.7064H121.348Z" fill="#28AB68"/>
<path d="M116.157 148.499H132.637V410.561L116.157 412.644V148.499Z" fill="#27AB68"/>
<path d="M115.178 4.49023H131.69V27.6839H115.178V4.49023Z" fill="#28AB68"/>
<path d="M132.625 94.4135H129.053C125.098 94.4135 121.146 94.3947 117.191 94.4323C116.451 94.4323 116.051 94.197 116.049 93.477C116.032 89.5757 116.049 85.6744 116.049 81.7119H132.634L132.625 94.4135Z" fill="#28AB68"/>
<path d="M157.615 418.077L157.2 417.87L157.615 418.077Z" fill="#58B57B"/>
<path d="M175.841 428L175.565 427.802L175.841 428Z" fill="#E1EFE3"/>
<path d="M153.04 416.703L152.763 416.602L153.04 416.703Z" fill="#3AAE6E"/>
<path d="M233.186 439.892C237.492 434.139 242.33 429.03 247.486 424.202C241.344 428.273 236.485 433.614 232.125 439.515C231.265 439.186 230.437 438.849 229.594 438.553C228.751 438.256 228.928 437.557 228.994 436.974C229.358 433.807 229.676 430.621 230.171 427.484C230.938 422.684 231.748 417.886 232.723 413.131C233.973 407.027 235.272 400.926 236.784 394.883C239.197 385.236 241.796 375.638 244.336 366.023C244.571 365.158 244.939 364.332 245.263 363.435C246.933 363.63 248.578 363.988 250.224 363.981C256.731 363.95 263.082 362.746 269.349 361.091C277.142 359.035 284.776 356.48 292.102 353.115C298.002 350.406 303.814 347.498 309.62 344.592C311.988 343.416 314.246 342.004 316.544 340.672C316.833 340.467 317.099 340.231 317.335 339.966C318.368 339.025 319.369 338.018 320.44 337.107C322.464 335.385 322.453 333.032 322.262 330.754C321.965 327.225 321.396 323.733 320.951 320.224C320.781 318.883 320.633 317.54 320.48 316.224C325.153 316.107 329.383 317.514 333.571 319.125C340.789 321.9 347.697 325.307 353.97 329.832C359.183 333.596 364.244 337.573 369.237 341.625C372.231 344.013 375.053 346.608 377.684 349.39C381.771 353.788 385.59 358.435 389.512 362.983C390.07 363.633 390.505 364.395 391.117 364.99C392.127 365.965 392.04 367.014 391.659 368.212C389.126 376.188 386.279 384.036 382.687 391.617C378.92 399.561 374.53 407.126 369.033 413.971C365.638 418.215 361.96 422.225 358.022 425.971C352.426 431.277 346.084 435.619 339.224 439.223C331.796 443.149 323.86 446.028 315.642 447.779C312.296 448.482 308.93 449.09 305.545 449.605C303.46 449.882 301.362 450.053 299.259 450.116C295.203 450.311 291.14 450.619 287.088 450.544C283.039 450.46 278.997 450.157 274.98 449.638C269.351 448.932 263.718 448.144 258.162 447.014C252.823 445.93 247.568 444.426 242.304 442.986C239.672 442.266 237.111 441.285 234.519 440.412C234.119 440.285 233.733 440.111 233.186 439.892ZM316.996 429.444C317.036 429.334 317.073 429.223 317.111 429.115C316.962 428.999 316.805 428.896 316.64 428.804C312.558 426.835 308.542 424.703 304.37 422.943C297.543 420.053 290.461 417.851 283.1 416.677C279.131 416.044 275.185 415.547 271.134 415.971C268.014 416.296 264.961 416.745 262.03 417.891C259.916 418.68 258.053 420.024 256.636 421.781C256.957 421.706 257.265 421.582 257.548 421.413C259.367 420.449 261.107 419.272 263.021 418.559C266.792 417.165 270.826 416.624 274.832 416.976C278.083 417.242 281.384 417.402 284.55 418.112C289.407 419.206 294.256 420.465 298.944 422.138C304.678 424.174 310.244 426.694 315.873 429.004C316.259 429.153 316.631 429.298 317 429.444H316.996ZM317.674 429.411L317.483 429.769L320.739 431.517C320.795 431.407 320.852 431.296 320.911 431.188L317.674 429.411Z" fill="#131522"/>
<path d="M246.379 341.642C242.667 342.376 238.905 342.251 235.154 342.301C226.423 342.409 217.766 341.785 209.282 339.569C205.631 338.628 205.614 338.628 204.251 335.051C201.485 327.823 199.811 320.281 197.947 312.796C195.213 301.889 193.055 290.846 191.482 279.713C190.976 276.11 190.361 272.463 191.378 268.861C191.661 267.868 192.273 266.785 193.062 266.148C196.868 263.065 200.724 260.03 204.689 257.161C207.005 255.482 209.45 253.987 212.001 252.691C216.312 250.505 217.543 246.895 217.515 242.401C217.449 230.871 217.479 219.341 217.5 207.812C217.5 203.894 217.62 199.976 217.644 196.047C217.644 194.524 217.493 192.988 217.505 191.475C217.559 184.547 218.715 177.827 221.538 171.474C221.63 171.265 221.747 171.067 221.903 170.768C222.374 171.003 222.844 171.203 223.285 171.42C232.618 175.977 242.839 178.427 253.225 178.594C258.19 178.681 263.165 178.269 268.134 178.149C269.699 178.108 271.264 178.195 272.814 178.411C274.181 178.594 275.441 179.247 276.379 180.258C280.51 184.613 284.595 188.992 287.914 194.028C292.408 200.833 294.315 208.43 294.897 216.438C295.062 218.704 295.132 220.984 295.118 223.262C295.064 229.144 295.2 235.027 295.888 240.864C295.539 243.613 295.191 246.358 294.843 249.1C294.4 252.543 293.954 255.986 293.505 259.427L292.255 269.061C291.737 273.047 291.22 277.032 290.704 281.016C290.278 284.311 289.894 287.605 289.419 290.88C288.884 294.567 288.861 298.351 287.1 301.81C285.951 304.071 285.252 306.572 283.999 308.768C282.257 311.827 280.192 314.693 278.25 317.634C277.981 318.064 277.66 318.459 277.294 318.81C275.827 320.164 274.343 321.498 272.843 322.811C271.461 324.022 270.147 325.338 268.645 326.38C261.248 331.51 253.807 336.562 246.379 341.642ZM269.723 242.064H269.573C269.573 244.963 269.573 247.865 269.573 250.771C269.573 253.905 269.545 257.044 269.617 260.183C269.648 261.515 270.543 262.385 271.694 262.496C272.789 262.602 273.686 261.907 274.154 260.707C274.302 260.343 274.574 260.042 274.921 259.858C275.362 259.68 275.741 259.377 276.012 258.988C276.284 258.598 276.436 258.137 276.449 257.663C276.659 254.604 276.937 251.526 277.007 248.453C277.13 243.041 277.036 237.629 277.186 232.217C277.382 225.304 277.335 218.403 276.758 211.511C276.747 211.315 276.717 211.121 276.668 210.932C276.254 209.478 274.59 208.661 273.438 209.52C272.833 209.972 272.428 210.861 272.221 211.638C271.96 212.602 272.073 213.664 271.882 214.654C271.433 216.988 270.594 219.29 270.47 221.633C270.069 228.424 269.959 235.248 269.723 242.064ZM232.056 229.798C232.056 224.438 231.998 219.339 232.082 214.242C232.122 211.944 231.958 209.772 230.853 207.677C230.225 206.501 229.344 205.764 228.228 205.922C227.075 206.084 226.239 207.07 226.19 208.435C226.143 209.689 226.19 210.946 226.169 212.2C226.169 212.504 226.192 212.92 226.018 213.092C224.904 214.198 225.02 215.607 225.017 216.962C224.996 226.257 224.937 235.551 225.05 244.843C225.081 247.241 225.679 249.629 226.027 252.02C226.068 252.252 226.148 252.476 226.263 252.681C226.734 253.545 227.44 254.079 228.429 254.039C229.417 253.999 230.206 253.465 230.477 252.531C230.915 251.004 231.433 249.444 231.501 247.879C231.776 241.77 231.887 235.653 232.056 229.798ZM232.358 259.7C232.982 260.743 233.483 262.249 234.507 263.178C238.801 267.075 243.243 270.807 247.653 274.574C248.045 274.898 248.511 275.12 249.009 275.223C249.453 275.332 249.921 275.291 250.339 275.105C250.758 274.92 251.103 274.602 251.321 274.2C251.836 273.341 251.754 272.468 251.132 271.677C250.903 271.41 250.649 271.164 250.374 270.943C246.484 267.592 242.589 264.246 238.69 260.903C237.598 259.962 237.174 258.891 237.575 257.465C240.513 247.061 243.437 236.655 246.349 226.245C246.502 225.76 246.596 225.259 246.629 224.751C246.659 223.647 246.13 222.869 245.063 222.534C243.997 222.2 243.121 222.638 242.554 223.553C242.269 224.066 242.055 224.616 241.918 225.186C239.244 234.688 236.624 244.203 233.888 253.686C232.894 257.121 231.101 259.919 227.025 260.213C226.985 260.213 226.936 260.213 226.91 260.232C226.715 260.392 226.524 260.559 226.331 260.724C226.522 260.936 226.689 261.303 226.903 261.333C227.609 261.435 228.438 261.632 229.071 261.395C230.27 260.95 231.374 260.223 232.353 259.7H232.358ZM246.871 195.089C246.678 194.649 246.499 193.842 246.04 193.256C243.481 189.962 240.673 186.919 237.186 184.587C236.288 183.975 235.254 183.592 234.173 183.473C233.093 183.353 232 183.501 230.99 183.903C228.007 185.011 225.519 186.929 223.482 189.373C222.47 190.59 222.571 192.006 223.565 192.839C224.594 193.703 225.771 193.418 226.978 192.277C228.242 191.059 229.599 189.941 231.037 188.933C232.986 187.594 233.994 187.649 235.795 189.169C238.384 191.366 240.927 193.639 242.723 196.602C243.295 197.543 244.18 197.922 245.245 197.621C246.309 197.32 246.787 196.501 246.871 195.089ZM280.369 204.449C280.995 204.449 281.621 204.449 282.252 204.449C283.583 204.449 284.917 204.491 286.255 204.411C287.547 204.334 288.446 203.407 288.498 202.263C288.55 201.12 287.735 200.145 286.45 199.945C285.946 199.88 285.437 199.853 284.929 199.865C278.592 199.823 272.238 200.162 265.994 198.569C265.288 198.388 264.302 198.783 263.603 199.185C262.771 199.656 262.461 200.571 262.767 201.538C263.073 202.506 263.798 203.075 264.864 203.113C265.215 203.095 265.567 203.111 265.914 203.162C270.665 204.294 275.503 204.534 280.369 204.449ZM274.039 301.892V301.81C273.149 301.93 272.252 302.024 271.367 302.175C263.911 303.443 259.772 308.697 256.359 314.77C255.728 315.893 256.359 317.239 257.477 317.723C258.52 318.173 259.596 317.82 260.42 316.662C261.42 315.25 262.319 313.782 263.341 312.396C264.989 310.149 266.931 308.18 269.698 307.408C271.451 306.918 273.283 306.685 275.091 306.417C276.402 306.224 277.372 305.337 277.377 304.158C277.382 302.979 276.405 302.008 275.103 301.895C274.747 301.869 274.392 301.892 274.039 301.892ZM262.206 255.14H261.698C261.62 255.632 261.423 256.14 261.486 256.613C261.853 259.27 262.498 261.879 263.991 264.126C264.838 265.402 265.987 266.515 267.148 267.531C268.231 268.472 269.641 268.374 271.129 268.282C270.952 268.084 270.893 267.964 270.813 267.934C267.835 266.844 265.597 264.922 264.415 261.959C263.692 260.154 263.202 258.256 262.609 256.399L262.206 255.14Z" fill="#E4B892"/>
<path d="M296.724 201.419C295.589 198.984 294.675 196.41 293.265 194.146C291.19 190.754 288.884 187.51 286.363 184.435C283.51 181.018 280.242 177.962 277.217 174.677C276.766 174.163 276.201 173.762 275.567 173.505C274.933 173.248 274.247 173.144 273.565 173.199C270.926 173.343 268.297 173.708 265.658 173.854C262.731 174.016 259.798 174.072 256.867 174.11C249.292 174.242 241.743 173.174 234.502 170.945C231.562 170.032 228.76 168.686 225.858 167.651C224.37 167.114 222.811 166.517 221.265 166.456C219.461 166.38 218.273 167.823 217.545 169.305C215.808 172.854 214.601 176.638 213.962 180.536C213.518 183.226 213.276 185.946 213.239 188.673C213.086 198.699 213.053 208.725 212.973 218.751C212.969 219.15 212.838 219.538 212.599 219.857C212.272 219.464 211.827 219.121 211.636 218.669C209.426 213.327 207.826 207.753 206.867 202.052C206.01 197.111 205.234 192.155 204.541 187.186C204.169 184.529 204.013 181.84 203.792 179.162C203.611 176.95 203.262 174.724 203.359 172.519C203.712 164.519 205.099 156.766 208.225 149.305C209.873 145.382 212.764 142.878 215.98 140.492C219.916 137.59 224.248 135.264 228.843 133.586C232.685 132.175 236.468 130.504 240.416 129.478C244.501 128.417 248.733 127.885 252.931 127.327C255.635 126.941 258.368 126.792 261.098 126.88C265.963 127.09 270.813 127.469 275.649 128.017C279.74 128.473 283.849 129.031 287.853 129.965C290.429 130.565 292.83 131.927 295.306 132.946C295.372 133.165 295.467 133.373 295.591 133.565C297.609 135.838 299.64 138.095 301.66 140.363C302.437 141.234 303.515 142.01 303.899 143.024C305.027 146.043 305.877 149.168 306.835 152.25C306.385 151.65 305.959 151.027 305.474 150.455C305.163 150.09 304.572 149.462 304.436 149.54C303.706 149.945 304.033 150.521 304.356 151.114C305.102 152.435 305.781 153.793 306.39 155.182C306.877 156.359 307.162 157.608 307.539 158.827C307.188 160.366 306.833 161.905 306.458 163.592L304.959 160.241L304.488 160.413C304.959 162.86 305.82 165.312 305.787 167.752C305.754 170.192 305.451 172.708 304.321 174.997C304.034 174.435 303.79 173.853 303.588 173.256C303.435 172.939 303.257 172.634 303.056 172.345C302.906 172.703 302.6 173.075 302.633 173.416C302.769 174.924 302.946 176.435 303.224 177.924C303.478 179.291 302.797 180.298 302.433 181.437L302.065 181.378L301.594 178.903H301.105C300.986 179.533 300.907 180.169 300.869 180.809C300.869 183.259 301.154 185.675 300.368 188.122C299.356 191.268 298.72 194.532 297.865 197.732C297.555 198.972 297.114 200.193 296.724 201.419ZM240.061 162.961C237.645 156.914 236.353 150.796 238.693 144.293C237.309 144.864 236.339 147.352 236.273 150.255C236.164 154.895 236.802 159.321 240.061 162.961ZM231.477 154.232C231.105 148.836 231.315 143.584 234.773 138.85C230.91 139.448 228.706 151.363 231.477 154.232ZM244.55 154.672C243.808 157.655 249.233 163.849 252.512 163.74C249.065 161.418 246.259 158.526 244.55 154.672Z" fill="#3F2917"/>
<path d="M246.379 341.641C253.807 336.561 261.255 331.509 268.65 326.382C270.152 325.34 271.475 324.029 272.847 322.813C274.345 321.495 275.829 320.161 277.299 318.812C277.665 318.461 277.986 318.066 278.255 317.636C280.197 314.695 282.257 311.824 284.004 308.77C285.256 306.574 285.956 304.064 287.104 301.812C288.865 298.353 288.889 294.569 289.423 290.882C289.894 287.588 290.283 284.294 290.709 281.018C291.223 277.032 291.741 273.047 292.26 269.063L293.51 259.429C293.957 255.988 294.403 252.545 294.847 249.102C295.197 246.357 295.546 243.612 295.893 240.866C296.069 242.13 296.248 243.396 296.443 244.787C296.622 244.706 296.791 244.607 296.947 244.49C298.776 242.504 300.573 240.49 302.433 238.535C303.617 237.313 305.167 236.511 306.849 236.25C310.38 235.617 313.676 236.04 316.777 237.998C320.896 240.608 324.529 243.735 326.429 248.302C328.658 253.632 328.51 259.105 325.723 264.197C321.687 271.59 316.205 277.71 308.652 281.701C307.082 282.531 305.307 283.004 303.584 283.498C301.305 284.155 299.516 283.331 298.23 281.381C297.804 280.66 297.31 279.981 296.754 279.355C296.973 280.938 297.315 282.519 297.388 284.112C297.604 288.802 297.795 293.496 297.837 298.191C297.877 302.579 297.602 306.97 297.677 311.367C297.752 315.558 296.443 319.368 295.087 323.22C294.381 325.215 293.018 326.184 291.245 327.156C285.056 330.538 278.582 333.373 271.899 335.627C264.004 338.327 255.892 340.34 247.651 341.644C247.227 341.671 246.803 341.67 246.379 341.641ZM310.098 262.109C311.145 263.566 311.927 264.74 312.798 265.841C313.477 266.748 314.244 267.585 315.089 268.34C316.124 269.216 317.306 269.072 318.149 268.173C318.992 267.274 318.938 266.14 318.109 265.079C316.348 262.827 314.578 260.58 312.88 258.283C312.74 258.073 312.648 257.834 312.611 257.584C312.573 257.334 312.59 257.079 312.661 256.836C314.047 253.641 315.486 250.468 316.977 247.318C317.669 245.855 317.511 244.575 316.376 243.895C315.242 243.215 313.897 243.582 313.095 244.963C312.268 246.375 311.546 247.864 310.844 249.351C310.215 250.681 309.667 252.053 308.982 253.676C308.747 253.332 308.495 253.001 308.226 252.683C307.11 251.526 306.011 250.351 304.848 249.245C303.779 248.229 302.494 248.208 301.583 249.085C300.707 249.93 300.672 251.158 301.533 252.274C301.865 252.707 302.277 253.079 302.649 253.481C303.899 254.834 305.133 256.201 306.416 257.533C306.887 258.032 306.96 258.474 306.651 259.102C305.863 260.721 305.079 262.349 304.41 264.02C303.631 265.983 302.906 267.973 302.291 269.992C301.945 271.133 302.677 272.265 303.73 272.623C304.259 272.793 304.832 272.763 305.34 272.54C305.849 272.317 306.258 271.915 306.491 271.411C306.668 271.065 306.743 270.672 306.887 270.307C307.901 267.693 308.932 265.077 310.098 262.126V262.109Z" fill="#AE7B84"/>
<path d="M301.74 288.582L310.564 286.269C311.183 288.984 311.882 291.862 312.49 294.758C314.679 305.201 315.901 315.785 317.019 326.38C317.184 327.938 317.403 329.496 317.464 331.058C317.478 331.69 317.291 332.309 316.93 332.828C314.022 336.722 310.044 339.211 305.811 341.473C293.35 348.122 280.442 353.607 266.712 357.033C260.963 358.466 255.151 359.534 249.176 359.33C248.216 359.297 247.641 359.033 247.366 358.078C246.285 354.355 245.169 350.642 244.07 346.927C244.062 346.807 244.077 346.687 244.112 346.572C246.408 346.275 248.705 346.073 250.968 345.67C262.228 343.663 273.184 340.576 283.641 335.908C287.58 334.16 291.42 332.197 295.142 330.025C297.797 328.465 299.304 325.856 300.344 322.889C301.962 318.279 301.724 313.552 301.736 308.822C301.752 302.391 301.736 295.963 301.736 289.527L301.74 288.582Z" fill="#AE7B84"/>
<path d="M296.724 201.419C297.114 200.186 297.555 198.965 297.884 197.713C298.729 194.513 299.374 191.249 300.387 188.103C301.173 185.656 300.898 183.239 300.888 180.79C300.926 180.15 301.005 179.514 301.124 178.884H301.613L302.084 181.359L302.451 181.418C302.816 180.279 303.497 179.272 303.242 177.905C302.965 176.416 302.788 174.905 302.651 173.397C302.619 173.055 302.925 172.691 303.075 172.326C303.276 172.615 303.454 172.92 303.607 173.237C303.809 173.834 304.053 174.416 304.339 174.978C305.469 172.688 305.775 170.145 305.806 167.733C305.837 165.321 304.977 162.841 304.507 160.394L304.977 160.222L306.486 163.582C306.868 161.895 307.216 160.356 307.567 158.817C308.325 161.221 309.084 163.623 309.844 166.025C310.041 165.554 309.926 165.142 309.933 164.738C309.994 161.189 308.991 157.893 307.638 154.664C307.313 153.885 307.117 153.05 306.863 152.241C305.905 149.158 305.055 146.033 303.927 143.014C303.544 141.991 302.465 141.224 301.689 140.353C299.669 138.085 297.637 135.828 295.62 133.555C295.496 133.364 295.4 133.155 295.335 132.937C299 134.377 302.261 136.499 305.387 138.854C309.389 141.869 312.763 145.462 314.681 150.118C315.953 153.205 316.748 156.495 317.671 159.721C319.152 164.898 319.611 170.274 320.628 175.533C321.57 180.395 321.158 185.202 321.115 190.014C321.087 193.277 320.303 196.579 319.526 199.781C317.928 206.369 316.252 212.958 314.321 219.448C313.295 222.909 311.527 226.149 310.38 229.584C309.803 231.314 308.942 231.584 307.32 231.591C305.193 231.624 303.128 232.304 301.399 233.542C300.928 233.867 300.429 234.149 299.815 234.533C299.815 230.37 299.899 226.377 299.796 222.389C299.617 215.48 299.061 208.614 296.827 201.995C296.774 201.807 296.74 201.614 296.724 201.419Z" fill="#2F1A12"/>
<path d="M213.032 224.369V233.567C212.688 232.77 212.415 232.113 212.123 231.469C211.474 230.031 210.393 229.464 209.261 229.948C208.206 230.4 207.848 231.563 208.383 232.982C208.95 234.478 209.56 235.956 210.202 237.544L205.779 239.982C205.438 240.17 205.073 240.344 204.757 240.558C203.632 241.285 203.265 242.382 203.816 243.358C204.366 244.335 205.496 244.648 206.692 244.064C208.369 243.229 210.002 242.311 211.617 241.45C212.879 242.958 213.439 244.615 213.162 246.542C213.039 247.384 212.747 247.93 211.888 248.304C209.202 249.481 206.565 250.761 203.733 252.083C202.071 249.834 200.536 247.314 199.966 244.417C198.789 238.401 199.945 232.887 204.103 228.203C206.254 225.76 210.066 224.127 213.032 224.369Z" fill="#E1B690"/>
<path d="M88.8345 111.787H100.403V115.465H92.8508V119.077H99.28V122.592H92.879V126.185H100.636V129.847H88.8345V111.787Z" fill="#040E0A"/>
<path d="M111.602 129.887H107.6V111.839H118.617V115.448H111.658V119.364C113.396 119.364 115.11 119.404 116.819 119.345C117.664 119.317 117.923 119.623 117.869 120.427C117.81 121.282 117.855 122.143 117.855 123.119H111.602V129.887Z" fill="#040E0A"/>
<path d="M133.197 129.849H129.115V115.569H124.171V111.804H138.087V115.486H133.197V129.849Z" fill="#03150D"/>
<path d="M71.2134 129.838V111.813H75.2508V126.077H82.4758V129.842L71.2134 129.838Z" fill="#03150D"/>
<path d="M146.872 55.9808C145.46 55.9808 144.13 55.9338 142.804 55.9973C141.954 56.0373 141.693 55.7102 141.754 54.9079C141.809 54.2161 141.766 53.5149 141.766 52.7407H151.112C151.71 56.8679 149.671 61.2633 145.749 62.5693C140.478 64.327 135.007 62.0987 133.3 57.4138C131.594 52.729 133.176 47.1523 138.042 45.1405C142.703 43.2157 147.946 44.771 149.919 48.8794L146.364 50.8089C145.535 49.2983 144.351 48.1806 142.609 48.2041C141.479 48.2206 140.229 48.4159 139.254 48.9406C137.039 50.1312 136.194 53.2819 137.135 55.9997C137.976 58.4397 140.154 59.6327 143.181 59.3127C145.187 59.115 146.625 57.8538 146.872 55.9808Z" fill="#03150D"/>
<path d="M110.462 55.1104L115.524 62.8259C113.876 62.8259 112.447 62.8683 111.027 62.793C110.75 62.7765 110.437 62.3459 110.236 62.0424C109.163 60.407 108.064 58.7811 107.091 57.0846C106.547 56.1433 105.898 55.8374 104.794 56.188V62.7647H100.791V44.543C103.814 44.67 106.828 44.6277 109.792 44.9806C111.983 45.2395 113.266 47.0489 113.462 49.2655C113.692 51.8067 113.149 53.9527 110.462 55.1104ZM104.836 52.915C106.432 52.6938 108.217 53.4256 109.073 51.7244C109.436 51.0185 109.356 49.6373 108.88 49.0278C107.875 47.736 106.258 48.3949 104.831 48.256L104.836 52.915Z" fill="#040E0A"/>
<path d="M168.38 44.7217H172.441V62.7646H168.465V55.8467H161.73V62.7623H157.728V44.764H161.694V51.889H168.383L168.38 44.7217Z" fill="#040E0A"/>
<path d="M187.654 62.7754H183.574V48.4714H178.694V44.7324H192.562V48.3796H187.654V62.7754Z" fill="#040E0A"/>
<path d="M121.348 44.707H125.35V62.7358H121.348V44.707Z" fill="#03150D"/>
<path d="M317 429.444C316.631 429.298 316.259 429.152 315.889 429.002C310.256 426.691 304.695 424.171 298.96 422.136C294.273 420.472 289.423 419.204 284.567 418.11C281.4 417.404 278.1 417.239 274.849 416.973C270.843 416.622 266.809 417.162 263.038 418.557C261.124 419.263 259.384 420.439 257.564 421.411C257.281 421.58 256.974 421.703 256.653 421.778C258.07 420.024 259.933 418.683 262.046 417.896C264.977 416.75 268.031 416.3 271.15 415.976C275.202 415.554 279.154 416.051 283.116 416.681C290.478 417.858 297.548 420.058 304.387 422.948C308.558 424.708 312.574 426.839 316.657 428.809C316.821 428.9 316.979 429.004 317.127 429.119C317.078 429.223 317.043 429.334 317 429.444Z" fill="#0D0D0D"/>
<path d="M317.678 429.412L320.915 431.189C320.856 431.297 320.8 431.407 320.743 431.518L317.488 429.77L317.678 429.412Z" fill="#0D0D0D"/>
<path d="M269.723 242.064C269.959 235.24 270.072 228.417 270.463 221.616C270.597 219.263 271.435 216.972 271.875 214.637C272.066 213.647 271.953 212.586 272.214 211.621C272.421 210.854 272.826 209.974 273.431 209.503C274.582 208.649 276.256 209.465 276.661 210.915C276.71 211.104 276.74 211.298 276.751 211.494C277.327 218.388 277.374 225.289 277.179 232.2C277.028 237.612 277.123 243.024 277 248.436C276.93 251.509 276.652 254.577 276.442 257.646C276.428 258.121 276.277 258.581 276.005 258.971C275.734 259.361 275.355 259.663 274.914 259.841C274.567 260.025 274.295 260.326 274.147 260.691C273.676 261.891 272.781 262.573 271.687 262.479C270.536 262.368 269.641 261.498 269.61 260.166C269.537 257.032 269.57 253.893 269.566 250.754C269.566 247.853 269.566 244.951 269.566 242.048L269.723 242.064Z" fill="#0D0D0D"/>
<path d="M232.056 229.799C231.892 235.653 231.781 241.771 231.505 247.879C231.437 249.444 230.919 251.004 230.481 252.531C230.211 253.473 229.422 254.002 228.433 254.04C227.444 254.077 226.726 253.545 226.267 252.682C226.153 252.476 226.073 252.253 226.032 252.021C225.684 249.63 225.09 247.242 225.055 244.844C224.942 235.552 225.001 226.255 225.022 216.963C225.022 215.608 224.909 214.198 226.023 213.092C226.197 212.921 226.169 212.504 226.173 212.201C226.19 210.946 226.147 209.69 226.194 208.436C226.244 207.071 227.08 206.083 228.233 205.923C229.349 205.765 230.229 206.492 230.858 207.678C231.962 209.761 232.127 211.944 232.087 214.243C231.993 219.34 232.056 224.439 232.056 229.799Z" fill="#0D0D0D"/>
<path d="M232.353 259.7C231.374 260.222 230.27 260.945 229.057 261.394C228.424 261.629 227.607 261.434 226.889 261.333C226.675 261.302 226.508 260.935 226.317 260.723C226.51 260.559 226.701 260.392 226.896 260.232C226.922 260.21 226.971 260.215 227.011 260.213C231.086 259.919 232.88 257.121 233.874 253.686C236.609 244.203 239.23 234.687 241.904 225.186C242.041 224.615 242.254 224.066 242.54 223.553C243.107 222.638 243.952 222.195 245.049 222.534C246.146 222.873 246.645 223.647 246.615 224.751C246.582 225.258 246.488 225.76 246.335 226.245C243.417 236.653 240.492 247.059 237.56 257.465C237.16 258.89 237.584 259.968 238.676 260.902C242.583 264.239 246.477 267.586 250.36 270.943C250.635 271.164 250.889 271.409 251.118 271.677C251.74 272.467 251.824 273.34 251.307 274.199C251.089 274.601 250.744 274.92 250.325 275.105C249.907 275.29 249.439 275.332 248.995 275.223C248.497 275.12 248.031 274.897 247.639 274.573C243.229 270.808 238.787 267.074 234.493 263.178C233.469 262.248 232.977 260.742 232.353 259.7Z" fill="#13100E"/>
<path d="M246.871 195.088C246.787 196.5 246.316 197.321 245.245 197.627C244.173 197.933 243.295 197.549 242.723 196.608C240.927 193.65 238.392 191.373 235.795 189.175C233.994 187.648 232.986 187.594 231.037 188.94C229.599 189.947 228.242 191.065 226.978 192.283C225.771 193.425 224.594 193.709 223.565 192.846C222.571 192.013 222.47 190.596 223.482 189.38C225.519 186.935 228.007 185.017 230.99 183.909C232 183.507 233.093 183.36 234.173 183.479C235.254 183.599 236.288 183.981 237.186 184.594C240.673 186.925 243.481 189.977 246.04 193.262C246.499 193.841 246.678 194.648 246.871 195.088Z" fill="#13100E"/>
<path d="M278.657 205.431C275.563 201.362 272.24 200.081 266.176 198.672C265.888 198.471 265.581 198.299 265.259 198.158C264.322 197.647 263.921 196.854 264.087 195.811C264.253 194.768 264.929 194.128 265.887 194.081C266.698 194.037 267.749 194.121 268.302 194.6C274.914 196.871 280.212 198.672 284.656 204.234C285.116 204.45 285.559 204.702 285.98 204.986C287.036 205.749 287.343 206.962 286.775 207.975C286.208 208.989 285.007 209.406 283.808 208.893C282.585 208.37 281.462 207.631 280.262 207.035C279.192 205.966 279.192 205.966 278.657 205.431Z" fill="#121113"/>
<path d="M274.039 301.892C274.392 301.892 274.745 301.866 275.098 301.892C276.4 302.005 277.377 302.986 277.372 304.156C277.367 305.325 276.398 306.222 275.086 306.415C273.278 306.683 271.447 306.916 269.693 307.405C266.922 308.177 264.984 310.147 263.337 312.394C262.315 313.78 261.415 315.255 260.415 316.66C259.591 317.818 258.515 318.17 257.472 317.721C256.347 317.236 255.723 315.89 256.354 314.768C259.768 308.695 263.906 303.441 271.362 302.172C272.247 302.022 273.144 301.937 274.034 301.808L274.039 301.892Z" fill="#13100E"/>
<path d="M262.206 255.143L262.609 256.409C263.202 258.265 263.692 260.173 264.415 261.969C265.592 264.931 267.835 266.854 270.813 267.943C270.898 267.974 270.952 268.094 271.129 268.291C269.641 268.383 268.231 268.489 267.148 267.541C265.987 266.524 264.838 265.423 263.991 264.136C262.498 261.889 261.853 259.279 261.486 256.623C261.423 256.152 261.62 255.641 261.698 255.15L262.206 255.143Z" fill="#2F1A12"/>
<path d="M240.061 162.96C236.802 159.32 236.164 154.894 236.273 150.254C236.339 147.35 237.309 144.863 238.693 144.291C236.353 150.795 237.645 156.913 240.061 162.96Z" fill="#0D0D0D"/>
<path d="M306.844 152.24C307.099 153.049 307.294 153.887 307.619 154.663C308.965 157.892 309.973 161.188 309.914 164.737C309.914 165.141 310.022 165.551 309.825 166.024C309.067 163.62 308.308 161.218 307.548 158.816C307.172 157.598 306.887 156.343 306.399 155.172C305.791 153.782 305.112 152.424 304.365 151.103C304.043 150.51 303.716 149.927 304.445 149.529C304.582 149.451 305.173 150.08 305.484 150.444C305.978 151.026 306.395 151.649 306.844 152.24Z" fill="#0D0D0D"/>
<path d="M231.477 154.231C228.706 151.363 230.91 139.447 234.773 138.85C231.315 143.584 231.115 148.836 231.477 154.231Z" fill="#0D0D0D"/>
<path d="M244.55 154.671C246.259 158.525 249.065 161.41 252.512 163.739C249.242 163.855 243.809 157.652 244.55 154.671Z" fill="#0D0D0D"/>
<path d="M310.098 262.126C308.921 265.089 307.901 267.705 306.877 270.324C306.734 270.689 306.658 271.082 306.482 271.428C306.249 271.932 305.84 272.334 305.331 272.557C304.822 272.78 304.249 272.81 303.72 272.64C302.668 272.282 301.936 271.15 302.282 270.009C302.894 267.99 303.619 266.009 304.401 264.037C305.069 262.366 305.853 260.743 306.642 259.119C306.95 258.489 306.877 258.049 306.406 257.55C305.135 256.218 303.901 254.851 302.64 253.498C302.268 253.095 301.856 252.724 301.524 252.291C300.662 251.175 300.697 249.938 301.573 249.102C302.487 248.225 303.77 248.246 304.838 249.262C306.001 250.368 307.101 251.542 308.217 252.7C308.486 253.018 308.738 253.349 308.972 253.693C309.679 252.07 310.206 250.698 310.835 249.368C311.541 247.881 312.247 246.401 313.085 244.98C313.888 243.599 315.225 243.225 316.367 243.912C317.509 244.599 317.659 245.872 316.967 247.335C315.478 250.484 314.039 253.656 312.652 256.853C312.581 257.096 312.563 257.351 312.601 257.601C312.639 257.851 312.731 258.09 312.871 258.3C314.571 260.597 316.339 262.844 318.1 265.096C318.928 266.157 318.959 267.319 318.14 268.19C317.32 269.061 316.115 269.232 315.079 268.357C314.235 267.602 313.467 266.765 312.789 265.858C311.927 264.745 311.157 263.571 310.098 262.126Z" fill="#0D0D0D"/>
<path d="M104.836 52.9145V48.2556C106.263 48.3944 107.88 47.7355 108.885 49.0274C109.356 49.6368 109.441 51.0109 109.078 51.7239C108.226 53.4251 106.432 52.6934 104.836 52.9145Z" fill="#28AB68"/>
<path d="M172.892 155.124L173.986 147.439M180.696 157.21L186.893 145.892M188.738 161.282L195.768 156.915" stroke="black" stroke-width="3" stroke-linecap="round"/>
</g>
<defs>
<clipPath id="clip0_276_6091">
<rect width="369.005" height="453.659" fill="white" transform="translate(26.771)"/>
</clipPath>
</defs>
</svg>
